<?xml version="1.0" encoding="UTF-8"?>
<svg xmlns="http://www.w3.org/2000/svg" xmlns:xlink="http://www.w3.org/1999/xlink" version="1.2" >
<font id="Anime Ace 3 BB Bold">
<font-face  font-family="Anime Ace 3 BB" units-per-em="1000" ascent="966" descent="-234" font-style="normal" font-weight="700" font-stretch="normal" cap-height="705" x-height="703" underline-position="-100" underline-thickness="50" />
<missing-glyph  horiz-adv-x="560" d="M70 0 L490 0 L490 700 L70 700 L70 0 Z M409 55 L151 55 L280 298 L409 55 Z M125 123 L125 590 L249 356 L125 123 Z M435 590 L435 123 L311 356 L435 590 Z M280 414 L157 645 L403 645 L280 414 Z " />
<glyph glyph-name="NULL" d="" />
<glyph glyph-name="CR" unicode="&#xd;" horiz-adv-x="250" d="" />
<glyph glyph-name="space" unicode="&#x20;" horiz-adv-x="393" d="" />
<glyph glyph-name="uni0000" d="" />
<glyph glyph-name="uni000D" horiz-adv-x="250" d="" />
<glyph glyph-name="exclam" unicode="&#x21;" horiz-adv-x="439" d="M98 226 C103 206 122 197 157 197 C181 197 196 205 201 221 C204 238 207 256 210 274 C217 325 233 377 260 430 C292 495 316 543 331 575 C371 655 391 698 389 705 C380 736 325 744 297 744 C253 744 226 734 214 713 C200 688 188 657 178 619 L156 518 C123 366 105 286 104 279 C97 255 95 237 98 226 L98 226 Z M53 -7 C59 -28 76 -39 106 -39 C136 -39 154 -30 162 -13 C166 -5 173 16 181 50 C189 85 193 106 192 112 C187 130 166 139 127 139 C87 139 64 130 60 110 C50 54 48 14 53 -7 L53 -7 Z " />
<glyph glyph-name="quotedbl" unicode="&#x22;" horiz-adv-x="447" d="M52 593 C56 550 56 522 56 510 C55 492 53 480 52 471 C52 433 56 393 105 393 C139 393 159 408 165 440 C170 472 176 514 180 569 C184 635 184 678 180 696 C174 721 155 734 124 734 C86 734 56 710 52 675 C49 652 49 625 52 593 L52 593 Z M268 527 C269 473 270 446 270 447 C276 421 293 408 320 408 C353 408 372 424 378 456 C383 483 388 526 393 585 C398 653 398 695 394 712 C387 737 368 750 338 750 C300 750 269 726 265 691 C266 613 266 558 268 527 L268 527 Z " />
<glyph glyph-name="numbersign" unicode="&#x23;" horiz-adv-x="681" d="M52 198 C61 160 93 130 129 130 C133 130 140 131 150 132 C144 51 143 5 146 -6 C151 -30 169 -43 200 -43 C229 -43 275 -23 275 11 C270 80 267 125 266 145 C323 151 371 157 411 164 L410 88 C410 54 412 29 416 15 C421 -8 438 -19 465 -19 C482 -19 499 -14 515 -6 C533 5 543 17 545 32 C545 52 545 77 541 107 C541 111 537 137 531 182 C572 188 596 192 601 194 C624 203 631 221 625 248 C619 275 592 318 561 318 C556 318 545 315 528 311 C529 340 530 363 530 381 C575 388 600 392 602 393 C627 402 636 420 629 448 C624 465 616 480 605 494 C591 510 577 517 561 517 C557 517 549 516 538 513 C543 539 547 563 550 586 C555 622 556 646 552 658 C548 678 533 688 507 688 C488 688 424 681 419 660 C412 634 408 604 407 570 C406 555 406 524 406 477 C372 469 332 464 285 460 L304 564 C313 615 316 648 312 663 C308 681 293 690 267 690 C215 690 187 671 184 631 C176 547 172 487 171 454 L115 454 C67 453 47 434 56 395 C68 355 102 331 144 331 C150 331 155 331 161 332 C159 306 157 280 157 254 C110 253 85 251 81 250 C55 245 45 227 52 198 L52 198 Z M269 259 C270 291 271 319 274 345 C330 352 374 358 407 363 L409 279 C367 269 320 263 269 259 L269 259 Z " />
<glyph glyph-name="dollar" unicode="&#x24;" horiz-adv-x="720" d="M53 349 C61 317 86 298 126 295 C207 288 264 285 295 284 C296 208 296 137 298 70 C258 70 224 77 195 91 C179 100 161 113 142 132 C128 146 117 153 108 153 C93 153 81 142 71 119 C59 96 56 77 60 62 C63 49 73 33 88 13 C125 -35 170 -58 221 -58 C241 -58 267 -55 300 -49 C300 -58 300 -66 303 -74 C308 -99 323 -111 348 -111 C381 -111 422 -91 429 -55 C431 -47 429 -29 425 -4 C547 57 626 148 662 269 C671 295 672 322 665 346 C660 368 648 382 630 389 C602 400 567 408 523 412 C477 416 442 418 418 419 C420 465 422 510 425 556 L443 556 C454 510 469 487 491 487 C520 487 567 523 569 553 C570 559 567 577 564 608 C560 638 556 657 554 666 C548 692 527 705 492 705 C483 705 466 703 439 699 C443 730 443 751 440 762 C435 783 420 793 395 793 C339 793 308 768 300 718 C300 715 299 696 297 660 C240 634 184 593 130 534 C66 464 40 402 53 349 L53 349 Z M413 272 C482 261 518 251 520 243 C526 218 515 190 488 158 C466 133 443 113 417 100 C414 164 413 221 413 272 L413 272 Z M238 474 C258 491 277 506 296 517 L293 427 C256 427 225 425 197 419 C196 431 210 450 238 474 L238 474 Z " />
<glyph glyph-name="percent" unicode="&#x25;" horiz-adv-x="883" d="M147 -6 C156 -37 200 -50 229 -50 C250 -50 266 -40 278 -22 C306 26 325 60 335 80 C415 218 517 361 642 510 C668 541 688 563 702 578 L747 633 C748 664 737 685 714 697 C701 704 685 708 668 708 C637 708 614 698 599 679 C562 630 537 596 525 576 C424 431 322 280 217 125 C198 97 184 76 173 62 C152 32 143 9 147 -6 L147 -6 Z M479 100 C497 28 562 -15 635 -15 C710 -15 784 30 816 98 C834 135 838 173 827 213 C811 285 743 328 672 328 C595 328 525 283 491 215 C473 178 469 140 479 100 L479 100 Z M56 476 C72 404 141 361 212 361 C287 361 360 406 392 474 C410 511 414 549 404 589 C386 661 320 704 248 704 C173 704 101 658 67 591 C49 554 45 516 56 476 L56 476 Z M174 574 C187 594 206 604 231 604 C262 604 287 583 294 552 C300 528 296 506 282 486 C269 465 250 455 226 455 C195 455 171 476 162 508 C157 532 161 554 174 574 L174 574 Z M597 198 C611 218 630 228 654 228 C685 228 710 207 718 176 C723 152 719 130 706 110 C692 89 673 79 650 79 C619 79 594 100 586 132 C580 156 584 178 597 198 L597 198 Z " />
<glyph glyph-name="ampersand" unicode="&#x26;" horiz-adv-x="695" d="M56 108 C84 -8 244 -56 349 -56 C404 -56 460 -45 516 -22 C511 -59 509 -82 511 -89 C516 -111 531 -121 557 -121 C599 -121 635 -94 638 -55 C642 7 644 77 645 153 C646 258 642 326 635 356 C629 376 613 386 586 386 C570 386 553 382 537 374 C518 363 509 351 507 337 C506 325 507 307 511 283 C515 258 519 239 522 226 C528 183 530 144 529 107 C458 70 398 51 347 51 C292 51 218 78 203 137 C196 166 204 196 228 226 C248 251 275 266 309 272 C355 277 389 280 412 283 C457 289 473 313 463 353 C451 406 407 415 360 419 C330 421 314 430 310 444 C301 478 311 510 338 540 C362 567 392 581 426 581 C447 581 473 571 506 551 C538 529 556 519 561 519 C575 519 585 527 592 544 C597 559 599 573 595 588 C591 606 578 628 556 653 C514 699 465 722 409 722 C353 722 305 702 266 661 C191 583 162 510 179 445 C186 414 203 389 230 367 C90 292 31 205 56 108 L56 108 Z " />
<glyph glyph-name="quotesingle" unicode="&#x27;" horiz-adv-x="325" d="M51 476 C58 448 86 433 114 433 C134 433 156 453 180 494 C194 522 208 551 223 578 L275 679 C270 710 260 731 244 739 C232 747 217 751 202 751 C176 751 157 740 146 719 C135 698 121 667 105 625 C88 581 74 549 64 530 C52 506 48 487 51 476 L51 476 Z " />
<glyph glyph-name="parenleft" unicode="&#x28;" horiz-adv-x="555" d="M58 213 C84 106 168 27 263 -22 C339 -59 396 -86 435 -103 C453 -103 466 -92 477 -70 C486 -49 488 -29 484 -10 C480 6 470 18 454 28 C420 41 391 50 370 54 C258 90 192 145 174 217 C158 281 180 352 240 430 C283 486 338 538 404 585 L451 614 C493 638 511 662 504 686 C500 701 491 714 474 724 C458 735 441 740 425 740 C357 740 212 586 167 532 C69 419 33 313 58 213 L58 213 Z " />
<glyph glyph-name="parenright" unicode="&#x29;" horiz-adv-x="556" d="M51 -47 C60 -79 98 -102 130 -102 C196 -102 342 54 387 106 C486 219 523 325 498 427 C474 523 408 600 300 658 C214 700 155 728 121 742 C102 741 88 729 79 708 C70 687 67 666 72 647 C76 632 86 619 101 610 C113 601 168 587 185 584 C266 559 356 507 379 419 C395 356 373 285 314 208 C274 154 219 102 151 52 C147 50 131 40 104 23 C63 -2 45 -25 51 -47 L51 -47 Z " />
<glyph glyph-name="asterisk" unicode="&#x2a;" horiz-adv-x="456" d="M78 612 C110 596 139 581 165 569 C131 550 112 539 108 536 C82 519 67 495 64 465 C67 453 73 442 82 431 C86 425 92 422 99 422 C106 422 114 425 123 430 C143 439 161 450 177 463 C175 439 176 414 181 387 C185 371 197 363 217 363 C242 382 257 400 263 416 C268 433 271 459 271 496 C312 463 342 446 359 443 C376 441 388 448 394 465 C406 499 388 527 316 572 C377 623 407 655 406 668 C403 682 397 694 387 705 C383 711 376 714 366 714 C357 714 345 711 330 705 C320 705 300 689 271 657 C270 698 268 721 267 727 C263 747 239 776 216 776 C206 776 198 770 190 759 C165 724 172 687 179 662 C134 689 109 702 105 702 C92 702 76 694 59 679 C43 664 49 641 78 612 L78 612 Z " />
<glyph glyph-name="plus" unicode="&#x2b;" horiz-adv-x="610" d="M53 300 C61 267 87 238 122 238 L243 248 C249 174 255 127 259 107 C266 81 282 68 307 68 C338 68 386 90 388 125 C388 132 386 146 380 167 C378 176 374 191 368 212 C363 231 358 246 356 256 L355 259 C397 263 428 266 448 269 C492 273 519 278 530 282 C556 293 565 314 557 345 C553 361 547 375 537 387 C526 402 513 410 498 410 C478 410 452 405 420 395 C375 382 349 374 344 373 L346 465 C349 510 348 539 345 549 C341 567 327 577 302 577 C262 577 227 552 221 505 C220 491 221 469 224 437 L232 361 C208 359 182 359 155 359 C132 359 107 359 79 360 C67 359 58 352 53 339 C49 328 49 315 53 300 L53 300 Z " />
<glyph glyph-name="comma" unicode="&#x2c;" horiz-adv-x="324" d="M74 -129 C87 -137 101 -141 114 -141 C133 -141 155 -120 180 -79 C195 -51 209 -23 223 6 C259 73 276 114 274 129 C266 160 232 177 201 177 C176 177 154 161 137 130 C134 125 123 98 104 51 C84 3 71 -28 63 -44 C41 -91 49 -113 74 -129 L74 -129 Z " />
<glyph glyph-name="&amp;#x2d;" unicode="&#x2d;" horiz-adv-x="609" d="M53 280 C63 246 91 217 125 217 C154 217 226 226 341 243 C370 246 399 249 428 251 C472 257 503 265 525 277 C554 292 564 313 557 340 C550 368 530 404 497 404 C490 404 463 397 415 382 C366 367 334 357 319 355 C266 346 208 341 144 341 C106 341 83 340 74 337 C53 329 46 310 53 280 L53 280 Z " />
<glyph glyph-name="&amp;#x2010;" unicode="&#x2010;" horiz-adv-x="609" d="M53 280 C63 246 91 217 125 217 C154 217 226 226 341 243 C370 246 399 249 428 251 C472 257 503 265 525 277 C554 292 564 313 557 340 C550 368 530 404 497 404 C490 404 463 397 415 382 C366 367 334 357 319 355 C266 346 208 341 144 341 C106 341 83 340 74 337 C53 329 46 310 53 280 L53 280 Z " />
<glyph glyph-name="period" unicode="&#x2e;" horiz-adv-x="241" d="M53 21 C59 -1 76 -12 106 -12 C135 -12 154 -2 162 17 C166 27 172 49 181 81 C189 117 192 139 191 146 C185 166 164 175 126 175 C86 175 64 165 60 144 C50 83 48 42 53 21 L53 21 Z " />
<glyph glyph-name="slash" unicode="&#x2f;" horiz-adv-x="700" d="M51 -6 C60 -37 104 -50 133 -50 C153 -50 169 -40 181 -22 C210 26 229 60 239 80 C319 218 421 361 545 510 C571 541 591 563 605 578 L650 633 C651 664 641 685 618 697 C605 704 589 708 571 708 C541 708 518 698 503 679 C466 630 441 596 428 576 C328 431 225 280 121 125 C101 97 87 76 77 62 C56 32 47 9 51 -6 L51 -6 Z " />
<glyph glyph-name="zero" unicode="0" horiz-adv-x="900" d="M62 204 C102 46 250 -52 409 -52 C578 -52 737 48 811 200 C851 282 860 367 838 456 C800 614 649 713 491 713 C324 713 160 611 88 460 C48 378 40 293 62 204 L62 204 Z M248 486 C299 559 368 596 454 596 C572 596 659 518 687 406 C709 318 695 239 645 165 C594 90 526 53 439 53 C324 53 232 132 206 243 C184 331 198 412 248 486 L248 486 Z " />
<glyph glyph-name="one" unicode="1" horiz-adv-x="320" d="M27 543 C32 519 57 482 84 482 C91 482 107 488 132 501 C133 396 133 311 133 248 C132 195 131 155 129 128 C129 81 133 40 142 6 C147 -16 161 -26 182 -26 C198 -26 215 -22 233 -15 C257 -3 270 13 270 36 L258 108 C237 258 236 413 256 574 C260 607 260 627 258 635 C253 655 238 664 213 664 C184 664 98 625 69 609 C41 593 26 576 25 558 C24 552 25 547 27 543 L27 543 Z " />
<glyph glyph-name="two" unicode="2" horiz-adv-x="639" d="M54 -5 C61 -32 83 -46 121 -46 C232 -46 308 -45 348 -43 C463 -38 531 -25 555 -6 C564 2 572 15 580 32 C588 51 591 66 587 79 C584 92 575 100 560 100 C516 100 440 97 335 92 C449 178 522 241 554 280 C578 309 586 345 577 390 C557 485 513 564 443 627 C376 688 305 718 230 718 C199 718 175 711 158 698 C110 656 75 571 73 508 C73 500 74 492 75 484 C80 466 88 457 100 457 C113 457 125 462 135 472 C139 476 145 487 155 504 C181 549 224 572 283 572 C364 572 430 522 452 444 C463 403 464 374 455 356 C438 327 404 288 352 240 C294 187 215 147 114 119 C77 109 57 85 53 44 C49 28 50 12 54 -5 L54 -5 Z " />
<glyph glyph-name="three" unicode="3" horiz-adv-x="683" d="M52 12 C58 -10 71 -27 94 -39 C129 -57 199 -64 238 -64 C354 -64 496 -6 575 81 C625 135 643 194 627 256 C612 316 556 362 460 394 C511 444 530 498 515 557 C496 636 415 720 330 720 C258 720 184 670 141 615 C107 573 94 536 101 507 C106 487 117 477 135 477 C146 477 161 485 179 502 C213 532 231 547 232 548 C254 566 276 574 298 574 C337 574 372 551 382 513 C383 506 384 500 384 494 C384 441 349 429 306 415 C280 408 263 398 253 387 C225 359 215 333 222 307 C228 284 247 273 281 273 C293 273 312 276 337 280 C361 284 379 287 392 287 C440 287 469 268 478 230 C491 179 469 135 413 97 C364 64 311 47 257 47 C212 47 168 56 124 73 C106 81 94 84 88 84 C72 84 61 76 56 61 C49 45 48 28 52 12 L52 12 Z " />
<glyph glyph-name="four" unicode="4" horiz-adv-x="692" d="M51 179 C59 143 80 126 112 126 C136 126 249 164 278 175 C317 186 365 196 422 205 C421 164 420 132 419 111 C418 73 421 42 428 14 C435 -10 451 -22 478 -22 C495 -22 511 -17 527 -9 C546 2 556 13 558 28 C560 51 557 83 550 123 C541 176 536 208 535 220 C579 224 608 227 621 230 C660 239 676 254 670 277 C666 295 652 310 629 322 C609 334 589 340 571 340 C564 340 550 339 532 338 C530 426 533 506 544 581 C548 610 548 629 546 639 C541 659 526 669 500 669 C462 669 429 648 424 614 C421 607 421 591 421 567 C420 508 420 430 421 332 C338 323 252 307 165 280 C163 343 164 391 167 423 C171 467 174 500 177 521 C183 569 184 600 180 614 C174 634 160 644 135 644 C89 644 61 621 54 576 C52 569 51 549 52 517 C51 416 51 349 52 320 C52 298 52 281 53 271 C53 265 52 249 52 221 C50 197 50 182 51 179 L51 179 Z " />
<glyph glyph-name="five" unicode="5" horiz-adv-x="629" d="M52 42 C74 -40 204 -53 275 -53 C374 -53 454 -18 515 51 C562 104 577 164 561 228 C532 344 433 408 264 418 L238 544 C278 559 323 570 373 577 C398 581 444 587 514 595 C535 597 551 601 560 606 C576 613 582 625 578 642 C565 688 504 708 461 708 C318 708 203 687 117 643 C86 628 74 599 85 557 C110 450 125 386 131 363 C143 312 168 287 204 287 C217 287 236 289 259 295 C281 300 300 303 313 303 C340 303 364 295 387 280 C413 265 428 244 435 218 C446 173 430 134 387 103 C350 76 307 62 259 62 C213 62 165 71 116 89 C98 96 86 100 79 100 C66 100 57 93 53 80 C49 68 49 55 52 42 L52 42 Z " />
<glyph glyph-name="six" unicode="6" horiz-adv-x="758" d="M63 196 C93 67 187 -39 327 -39 C436 -39 537 9 631 107 C694 171 718 230 705 284 C691 339 639 366 548 366 C454 366 327 337 165 280 C171 331 195 381 238 430 C286 485 358 521 453 539 C466 509 474 490 478 483 C492 460 508 449 526 449 C544 449 561 457 578 472 C594 487 600 503 595 521 C594 526 591 534 586 544 C579 557 575 565 573 569 L546 652 C534 676 510 689 473 689 C289 689 135 603 72 425 C46 352 43 276 63 196 L63 196 Z M532 240 C567 240 586 235 589 224 C593 207 569 184 517 156 C457 125 390 97 321 97 C265 97 223 115 195 152 C364 211 476 240 532 240 L532 240 Z " />
<glyph glyph-name="seven" unicode="7" horiz-adv-x="643" d="M27 557 C35 525 55 508 86 508 C96 508 109 510 122 512 C144 517 155 520 157 521 C232 534 313 540 398 540 L462 540 C308 213 233 40 238 21 C241 6 250 -5 264 -13 C277 -19 291 -22 307 -22 C335 -22 354 -13 365 6 C377 42 385 70 389 89 C413 165 445 244 487 326 C516 383 556 457 607 548 C616 562 619 573 618 579 C605 610 575 637 544 649 C510 661 444 668 346 668 C244 668 177 665 146 660 C53 645 14 611 27 557 L27 557 Z " />
<glyph glyph-name="eight" unicode="8" horiz-adv-x="742" d="M54 14 C71 -54 138 -88 256 -88 C372 -88 539 -39 625 41 C683 93 703 152 687 220 C666 299 603 365 530 399 C581 450 600 505 585 565 C566 642 481 728 398 728 C331 728 269 692 211 622 C133 526 101 450 115 394 C125 353 152 325 195 309 C153 268 120 224 92 178 C56 114 43 59 54 14 L54 14 Z M230 194 C291 255 353 286 417 286 C480 286 519 251 537 181 C548 134 532 97 487 70 C451 49 406 38 354 38 C323 38 293 43 262 51 C218 65 194 83 188 107 C183 130 196 160 230 194 L230 194 Z M291 553 C328 587 362 604 393 604 C434 604 457 564 466 529 C476 491 467 461 440 438 C417 419 385 408 345 408 C313 408 253 420 244 457 C236 487 252 518 291 553 L291 553 Z " />
<glyph glyph-name="nine" unicode="9" horiz-adv-x="741" d="M54 299 C72 224 138 186 252 186 C354 186 449 210 537 258 C540 149 542 74 544 32 C545 -7 545 -25 545 -21 C550 -43 566 -54 592 -54 C610 -54 627 -48 644 -38 C662 -26 673 -13 675 2 C676 16 676 32 674 53 C673 70 671 88 669 105 C661 199 667 301 686 412 C692 446 692 475 687 498 C673 553 635 604 572 650 C531 681 486 696 438 696 C345 696 244 640 182 572 C78 461 36 369 54 299 L54 299 Z M229 470 C290 532 352 563 416 563 C478 563 518 529 536 458 C548 410 532 373 488 346 C453 325 409 314 356 314 C308 314 201 329 188 384 C183 407 196 435 229 470 L229 470 Z " />
<glyph glyph-name="colon" unicode="&#x3a;" horiz-adv-x="270" d="M52 9 C58 -13 76 -24 105 -24 C135 -24 153 -14 161 4 C166 13 172 35 180 69 C189 104 192 126 190 134 C185 153 164 163 126 163 C86 163 64 152 60 131 C50 72 47 31 52 9 L52 9 Z M81 280 C86 258 105 246 135 246 C164 246 183 256 191 274 C195 281 200 303 209 340 C217 378 221 399 219 405 C214 424 192 434 153 434 C115 434 93 423 90 402 C86 383 83 363 82 340 C79 310 78 289 81 280 L81 280 Z " />
<glyph glyph-name="semicolon" unicode="&#x3b;" horiz-adv-x="324" d="M50 -111 C58 -138 86 -152 113 -152 C133 -152 155 -132 180 -92 C194 -64 208 -36 223 -8 C258 59 275 100 274 117 C270 132 260 144 244 152 C232 160 217 164 202 164 C176 164 153 149 136 118 C135 116 125 89 104 38 C93 13 82 -12 72 -36 C56 -76 48 -100 50 -111 L50 -111 Z M119 285 C124 264 142 253 172 253 C201 253 220 261 228 280 C232 290 238 312 247 346 C255 383 259 404 257 412 C252 431 230 440 191 440 C151 440 130 430 127 408 C116 348 113 307 119 285 L119 285 Z " />
<glyph glyph-name="less" unicode="&#x3c;" horiz-adv-x="714" d="M52 279 C56 262 70 248 93 236 C119 224 137 216 149 211 C256 160 394 62 484 -16 C508 -37 527 -54 539 -64 C567 -88 586 -100 596 -100 C611 -100 624 -88 635 -66 C645 -44 647 -26 643 -10 C639 6 626 23 603 41 C582 55 563 68 546 80 C361 208 251 284 214 309 C326 424 470 544 612 621 C651 643 669 665 663 688 C655 719 615 747 584 747 C572 747 559 742 545 733 C507 704 481 683 467 672 C255 502 131 402 99 374 C82 372 70 360 60 338 C50 316 48 296 52 279 L52 279 Z " />
<glyph glyph-name="equal" unicode="&#x3d;" horiz-adv-x="632" d="M73 202 C83 167 112 137 146 137 C177 137 249 145 361 164 C389 167 418 170 447 172 C490 178 523 186 546 198 C575 213 587 233 580 259 C573 285 549 325 519 325 C512 325 484 318 436 303 C384 287 352 278 339 276 C297 269 242 265 175 262 L138 262 C85 262 64 243 73 202 L73 202 Z M53 417 C62 382 91 354 125 354 C158 354 230 363 339 379 C369 382 398 386 427 389 C470 394 503 403 524 413 C553 428 565 450 558 477 C551 504 528 542 496 542 C492 542 465 534 414 518 C328 491 238 478 147 478 C110 478 87 476 76 472 C53 465 46 446 53 417 L53 417 Z " />
<glyph glyph-name="greater" unicode="&#x3e;" horiz-adv-x="707" d="M52 -40 C63 -80 79 -100 103 -100 C112 -100 132 -87 162 -62 C307 57 443 149 570 214 C602 231 624 243 637 248 C655 261 661 282 654 310 C644 349 627 371 604 374 C556 418 498 468 429 524 L251 670 C225 691 206 707 194 717 C172 735 151 743 131 743 C112 743 94 737 78 724 C59 709 52 693 56 675 C59 668 63 660 70 653 C107 627 135 608 155 597 C281 514 394 419 495 313 C353 219 237 142 149 81 C109 54 85 37 76 31 C53 11 45 -13 52 -40 L52 -40 Z " />
<glyph glyph-name="question" unicode="&#x3f;" horiz-adv-x="720" d="M53 540 C57 523 67 514 82 514 C89 514 105 523 133 541 C189 578 253 615 322 615 C378 615 486 578 501 518 C515 465 483 425 407 399 C354 382 294 373 227 373 C225 373 199 373 151 374 C123 374 116 367 109 342 C99 287 95 248 101 225 C106 205 125 195 157 195 C184 195 200 201 207 212 C210 216 216 231 223 260 C342 269 443 292 525 329 C642 383 688 456 664 551 C635 670 485 734 372 734 C306 734 236 716 165 684 C76 643 39 596 53 540 L53 540 Z M65 -12 C70 -30 87 -39 118 -39 C144 -39 162 -32 172 -20 C176 -16 182 2 191 32 C199 62 203 80 202 85 C198 103 176 111 137 111 C114 111 98 108 90 101 C78 93 71 80 70 60 L64 6 C63 -2 64 -8 65 -12 L65 -12 Z " />
<glyph glyph-name="at" unicode="&#x40;" horiz-adv-x="877" d="M60 166 C78 92 118 32 177 -17 C236 -65 304 -85 378 -80 C477 -73 527 -55 530 -26 C531 -9 529 2 522 8 C495 29 451 36 389 29 C341 24 298 42 262 83 C231 117 209 159 194 208 C172 281 177 350 210 416 C240 474 285 521 345 559 C390 586 434 600 477 599 C581 597 654 516 676 419 C693 345 687 276 658 212 C647 190 638 178 630 178 C621 178 613 193 607 224 C611 248 612 279 611 316 C608 387 604 432 599 451 C581 519 546 536 479 536 C424 536 379 529 345 514 C315 505 303 488 308 464 C315 436 340 413 366 413 C381 413 395 416 409 421 C436 431 458 435 477 430 C498 424 511 416 515 405 C497 393 481 388 466 388 C401 388 348 367 308 327 C251 269 233 214 253 162 C264 133 282 111 308 96 C331 82 360 76 394 78 C450 81 496 94 534 117 C553 69 577 45 607 45 C652 45 710 98 781 204 C826 295 838 384 816 472 C780 617 648 719 499 719 C326 719 170 583 96 434 C51 341 39 252 60 166 L60 166 Z M390 275 C422 298 448 310 466 310 C476 310 485 305 492 295 C500 286 504 277 507 267 C512 244 503 224 477 205 C455 189 432 181 406 181 C387 181 347 192 343 214 C339 231 354 250 390 275 L390 275 Z " />
<glyph glyph-name="A" unicode="A" horiz-adv-x="728" d="M27 17 C35 -19 66 -62 106 -62 C126 -62 146 -38 166 9 C316 36 441 62 543 86 C555 53 565 31 570 20 C585 -8 602 -22 621 -22 C641 -22 661 -14 679 2 C699 18 707 36 702 55 C700 67 692 83 679 103 C670 119 660 135 651 151 C582 269 514 424 448 615 C438 647 432 665 429 671 C418 690 402 700 381 700 C343 700 318 683 305 649 C260 532 226 446 203 387 C162 287 122 204 80 138 C64 113 51 94 43 82 C27 58 22 36 27 17 L27 17 Z M375 500 C425 379 463 286 489 219 C410 191 324 169 230 152 C305 335 353 451 375 500 L375 500 Z " />
<glyph glyph-name="B" unicode="B" horiz-adv-x="722" d="M53 416 C60 389 73 374 93 369 L93 182 C94 88 98 27 105 -2 C109 -18 123 -30 146 -37 C163 -42 202 -44 266 -44 C369 -44 451 -34 513 -13 C635 28 686 85 668 160 C653 225 584 274 525 297 C622 361 659 441 635 535 C608 649 501 695 393 695 C266 695 179 633 100 539 C78 515 66 497 60 485 C50 464 48 441 53 416 L53 416 Z M209 473 C270 532 329 562 385 562 C434 562 518 539 531 484 C538 455 524 422 487 386 C443 342 349 318 206 313 C206 370 206 423 209 473 L209 473 Z M359 210 C402 210 549 189 560 143 C566 119 539 100 478 89 C441 84 402 81 361 81 C321 81 273 82 218 85 L210 164 C254 194 304 210 359 210 L359 210 Z " />
<glyph glyph-name="C" unicode="C" horiz-adv-x="745" d="M59 130 C86 22 165 -40 274 -40 C376 -40 493 6 625 97 C658 119 675 132 678 136 C694 152 699 174 692 199 C688 219 676 229 659 229 C648 229 621 218 579 195 C516 161 474 139 453 130 C399 107 353 96 315 96 C251 96 181 119 164 189 C148 253 176 325 249 408 C313 479 405 525 522 545 C526 529 528 518 529 514 C538 475 553 455 575 455 C589 455 606 462 627 477 C655 495 665 517 658 544 C649 581 644 605 644 615 C643 642 642 658 640 664 C635 685 613 696 575 696 C300 696 58 499 50 216 C49 188 52 160 59 130 L59 130 Z " />
<glyph glyph-name="D" unicode="D" horiz-adv-x="772" d="M52 432 C55 422 58 413 63 405 C64 334 64 263 64 192 C65 76 67 8 73 -13 C78 -33 91 -43 112 -43 C110 -43 127 -40 164 -31 C207 -22 237 -17 254 -14 C390 12 503 63 592 138 C703 231 743 341 711 468 C679 601 560 691 424 691 C319 691 231 646 149 584 C74 527 41 476 52 432 L52 432 Z M180 467 C247 528 315 559 384 559 C474 559 554 501 576 412 C586 373 582 333 565 295 C518 185 392 119 187 97 C172 216 170 339 180 467 L180 467 Z " />
<glyph glyph-name="E" unicode="E" horiz-adv-x="722" d="M52 292 C56 274 67 261 83 251 C84 208 84 164 84 120 C85 59 88 16 95 -10 C102 -40 131 -55 179 -55 C297 -55 476 -34 578 27 C592 36 605 49 616 69 C626 88 629 105 625 122 C620 141 605 151 578 151 C571 151 561 149 548 147 C441 122 386 109 382 108 C323 95 265 88 209 88 C201 146 196 206 195 268 C289 298 427 324 606 345 C649 350 671 366 672 393 C664 422 622 448 594 454 C585 457 570 457 550 457 C436 457 318 441 195 407 C196 438 199 469 201 498 C259 523 308 537 348 543 C417 551 469 557 503 561 C551 566 571 586 562 619 C555 650 521 687 476 698 C462 700 441 702 412 702 C362 702 317 697 277 687 C263 683 222 671 153 649 C131 642 115 637 107 631 C97 623 90 613 86 601 C84 594 83 581 83 561 C82 475 82 412 82 371 C58 359 44 322 52 292 L52 292 Z " />
<glyph glyph-name="F" unicode="F" horiz-adv-x="683" d="M52 288 C57 270 67 256 84 247 C84 182 85 126 86 81 C87 30 89 -1 91 -9 C97 -32 113 -43 140 -43 C158 -43 175 -39 190 -29 C208 -19 217 -6 219 9 C223 36 221 77 212 134 C201 208 195 252 195 267 C285 298 409 322 571 342 C619 348 639 363 632 390 C622 436 559 454 518 454 C414 454 307 438 196 407 C197 436 199 465 200 496 C254 518 303 533 347 540 L502 558 C550 563 571 583 563 616 C554 649 520 685 475 694 C462 697 441 698 412 698 C315 698 244 676 153 646 C117 636 89 624 82 583 L82 522 C83 450 83 400 82 371 C70 365 60 355 55 338 C49 322 48 305 52 288 L52 288 Z " />
<glyph glyph-name="G" unicode="G" horiz-adv-x="824" d="M59 126 C88 15 167 -46 281 -46 C391 -46 516 10 656 122 C746 194 785 254 772 304 C759 359 685 386 550 386 C487 386 331 375 278 348 C259 339 242 325 228 306 C211 283 206 262 210 243 C216 224 229 214 251 214 C257 214 268 216 284 219 C424 251 535 267 616 267 C635 267 645 262 647 253 C650 241 631 222 590 195 C503 143 403 95 300 95 C237 95 178 119 161 185 C150 228 161 277 194 332 C263 446 372 517 521 543 C527 515 532 497 536 487 C546 464 560 452 576 452 C590 452 607 459 627 473 C654 491 664 517 656 548 C648 580 644 602 643 615 C642 638 640 653 639 659 C633 681 612 692 574 692 C434 692 313 647 211 556 C108 464 54 352 50 218 C49 187 52 156 59 126 L59 126 Z " />
<glyph glyph-name="H" unicode="H" horiz-adv-x="673" d="M59 306 C67 180 71 92 71 40 C71 2 71 -40 122 -40 C138 -40 154 -36 169 -27 C187 -18 198 -7 201 6 C203 16 202 32 198 56 C187 119 181 186 179 261 C262 292 357 316 462 331 C464 246 465 196 465 182 C465 149 464 123 463 107 C462 77 464 51 469 30 C475 8 492 -3 518 -3 C541 -3 559 2 573 14 C590 26 597 43 598 62 C594 94 591 118 589 133 C583 181 581 251 582 345 C601 346 617 349 629 356 C646 364 651 377 647 393 C642 416 621 436 586 451 C591 540 598 615 607 675 C601 694 586 705 560 705 C498 705 466 678 463 624 C461 573 459 517 460 454 C366 449 273 431 179 402 C180 463 184 524 191 585 C194 608 193 624 191 635 C185 656 169 668 142 668 C112 668 62 652 56 618 C52 609 51 593 50 570 C49 507 52 419 59 306 L59 306 Z " />
<glyph glyph-name="I" unicode="I" horiz-adv-x="577" d="M50 26 C50 17 51 8 53 -1 C59 -22 71 -36 93 -43 C104 -47 123 -48 150 -48 C237 -48 396 -25 469 20 C481 27 493 40 503 58 C514 77 517 92 513 107 C509 122 496 130 473 130 C452 130 428 126 400 118 L331 98 C312 240 311 393 326 555 C387 561 434 564 465 566 C514 570 533 589 525 626 C506 699 423 707 360 707 C252 707 164 687 95 646 C61 628 50 586 60 543 C69 506 88 488 116 488 C127 488 157 498 206 520 C204 327 206 180 210 79 C197 78 183 77 166 77 C156 77 121 80 112 80 C71 80 51 62 50 26 L50 26 Z " />
<glyph glyph-name="J" unicode="J" horiz-adv-x="769" d="M62 224 C97 82 212 -34 364 -34 C515 -34 621 60 670 198 C689 249 703 318 712 404 C723 496 721 570 707 625 C700 657 683 678 659 687 C644 694 617 697 580 697 C489 697 424 689 386 672 C369 664 355 651 345 631 C335 611 331 592 336 572 C342 552 353 543 371 543 C391 543 421 547 459 556 C497 565 527 570 548 570 C555 570 560 566 562 559 L567 539 C576 502 580 450 580 384 C579 318 574 267 565 232 C543 150 459 96 376 96 C278 96 202 158 181 254 C177 267 169 311 166 325 C157 360 140 378 115 378 C75 378 53 359 51 322 C49 292 53 259 62 224 L62 224 Z " />
<glyph glyph-name="K" unicode="K" horiz-adv-x="682" d="M50 576 C51 378 52 203 55 53 C56 28 56 13 58 6 C63 -17 80 -28 106 -28 C157 -28 184 -6 186 40 C186 47 183 71 177 113 C217 84 266 59 323 40 C435 0 497 -20 512 -20 C530 -20 550 -14 575 -2 C601 11 612 25 609 40 C606 51 595 61 576 71 C468 112 361 172 256 252 C295 290 347 339 413 399 C515 493 575 548 594 564 C619 585 631 607 632 626 C627 649 605 660 566 660 C540 660 515 652 492 634 C414 572 308 479 171 353 C173 436 180 508 193 589 C197 616 197 636 195 648 C189 668 173 679 146 679 C96 679 66 661 56 627 C52 616 50 599 50 576 L50 576 Z " />
<glyph glyph-name="L" unicode="L" horiz-adv-x="624" d="M52 308 C54 138 59 40 67 12 C74 -17 102 -32 152 -32 C262 -32 457 -8 550 50 C565 59 577 72 586 88 C597 107 601 126 597 144 C591 164 575 174 548 174 C540 174 530 172 518 170 L423 146 C343 125 262 113 179 111 C158 263 158 422 180 588 C183 615 183 634 180 643 C176 664 160 674 134 674 C88 674 61 653 54 609 C50 578 49 478 52 308 L52 308 Z " />
<glyph glyph-name="M" unicode="M" horiz-adv-x="872" d="M27 17 C34 -15 59 -64 97 -64 C111 -64 124 -52 134 -28 C136 -23 143 -5 154 27 C209 191 249 310 274 385 C327 202 360 91 372 50 C369 40 370 28 373 14 C378 -4 386 -21 396 -36 C411 -55 426 -64 441 -64 C451 -64 462 -58 474 -44 C482 -33 495 3 513 65 L548 186 C567 253 590 329 617 412 L678 186 C712 60 731 -6 738 -14 C749 -26 760 -32 772 -32 C791 -32 809 -21 826 1 C843 22 850 43 845 62 C838 91 822 126 809 154 C783 220 757 307 730 415 L693 572 L693 571 C687 607 683 631 680 644 C667 695 649 720 625 720 C598 720 579 703 570 669 C554 603 542 557 536 531 C512 432 479 328 440 218 C399 330 360 445 335 562 C330 596 318 670 276 670 C248 670 229 653 219 618 C188 507 164 424 148 369 C121 273 91 193 62 129 C50 105 41 88 35 76 C25 54 23 34 27 17 L27 17 Z " />
<glyph glyph-name="N" unicode="N" horiz-adv-x="736" d="M56 61 L56 15 C56 -6 56 -21 59 -30 C64 -54 80 -66 106 -66 C138 -66 187 -46 187 -9 C181 32 179 54 178 58 C167 149 166 263 176 401 L518 -1 C522 -16 537 -23 564 -23 C611 -23 638 -9 645 17 C647 25 646 43 644 70 C629 233 640 412 679 609 C686 645 688 668 685 679 C680 698 666 708 642 708 C577 708 543 651 541 538 C541 486 540 446 539 420 C533 306 529 240 526 225 L191 624 C180 636 165 641 146 641 C135 641 123 640 111 638 C85 630 67 617 59 599 C54 587 52 564 51 530 C49 429 51 273 56 61 L56 61 Z " />
<glyph glyph-name="O" unicode="O" horiz-adv-x="899" d="M62 204 C103 44 248 -52 409 -52 C577 -52 737 49 810 200 C850 282 859 367 838 456 C799 614 650 713 491 713 C323 713 161 611 88 460 C48 378 40 293 62 204 L62 204 Z M248 484 C299 559 368 596 454 596 C568 596 660 516 686 406 C708 318 694 239 643 165 C593 90 524 53 438 53 C324 53 232 133 206 243 C184 331 198 411 248 484 L248 484 Z " />
<glyph glyph-name="P" unicode="P" horiz-adv-x="709" d="M53 426 C56 416 59 408 63 400 L63 188 C62 76 65 7 71 -17 C76 -38 91 -48 116 -48 C136 -48 154 -43 170 -35 C187 -24 198 -9 200 10 C202 24 200 44 195 73 L184 141 C315 160 424 195 510 246 C631 318 679 408 651 517 C623 630 513 697 400 697 C299 697 208 643 135 577 C106 552 86 531 74 513 C52 483 46 453 53 426 L53 426 Z M178 471 C240 531 301 561 359 561 C419 561 504 530 519 465 C529 428 513 388 473 345 C426 297 327 269 175 262 C173 333 174 403 178 471 L178 471 Z " />
<glyph glyph-name="Q" unicode="Q" horiz-adv-x="897" d="M62 201 C103 39 246 -51 408 -51 C497 -51 579 -27 652 23 C702 2 733 -8 747 -8 C761 -8 774 -3 785 7 C799 17 804 29 801 43 C797 60 774 77 734 92 C778 141 810 196 830 255 C851 322 853 390 836 457 C796 616 648 713 488 713 C320 713 159 610 87 458 C48 376 40 291 62 201 L62 201 Z M249 487 C300 561 370 598 458 598 C574 598 659 508 688 401 C699 357 699 312 687 266 C676 224 658 186 632 153 C597 177 560 209 519 249 C473 295 438 331 415 354 C402 367 391 373 382 373 C364 373 351 359 343 331 C336 307 334 284 339 265 C356 200 421 137 535 77 C504 61 471 53 436 53 C321 53 231 134 204 244 C183 332 198 413 249 487 L249 487 Z " />
<glyph glyph-name="R" unicode="R" horiz-adv-x="724" d="M52 442 C58 416 71 398 93 386 C93 260 93 170 94 117 C96 45 98 2 101 -11 C108 -36 125 -47 154 -47 C172 -47 189 -43 203 -33 C220 -23 229 -9 230 6 C227 40 223 66 218 85 C289 51 436 3 513 3 C528 3 542 9 555 21 C567 33 572 47 569 61 C566 73 556 82 538 89 C509 98 488 104 473 107 C433 121 387 141 335 168 C436 194 516 231 577 280 C659 345 689 423 667 512 C639 630 519 695 404 695 C285 695 176 634 75 512 C54 487 46 463 52 442 L52 442 Z M208 474 C270 534 330 564 388 564 C448 564 528 534 544 470 C554 431 538 391 497 348 C451 299 354 272 205 266 C202 337 204 407 208 474 L208 474 Z " />
<glyph glyph-name="S" unicode="S" horiz-adv-x="794" d="M56 124 C70 69 113 0 163 -28 C187 -40 218 -47 255 -47 C456 -47 674 83 737 280 C745 303 746 328 740 354 C734 377 722 393 702 400 C679 408 612 417 503 426 C409 434 342 438 303 438 L288 438 C252 438 232 437 227 436 C254 478 289 510 334 532 C384 559 435 572 485 567 L496 566 L503 540 C511 512 526 498 549 498 C578 498 631 532 633 563 C634 588 627 625 615 675 C609 701 586 713 548 713 C388 713 253 653 142 531 C82 464 56 408 67 362 C76 328 103 309 148 306 C244 300 315 297 363 295 C387 294 575 280 582 252 C584 243 581 229 572 210 C532 116 426 80 331 80 C272 80 225 92 193 115 C178 126 160 149 137 182 C120 206 103 218 84 218 C66 218 55 206 52 182 C49 166 50 146 56 124 L56 124 Z " />
<glyph glyph-name="T" unicode="T" horiz-adv-x="606" d="M29 544 C38 511 61 483 95 483 C106 483 151 498 228 525 C227 404 228 277 230 145 C232 55 234 4 237 -8 C242 -29 257 -40 283 -40 C318 -40 363 -18 365 21 C358 64 354 87 354 89 C335 228 333 382 348 551 C384 554 437 558 508 562 C564 565 587 583 579 616 C565 674 505 702 399 702 C258 702 148 682 69 641 C31 622 18 589 29 544 L29 544 Z " />
<glyph glyph-name="U" unicode="U" horiz-adv-x="677" d="M59 49 C59 3 62 -28 121 -28 C205 -28 405 49 485 90 C485 40 486 11 488 5 C493 -17 509 -28 535 -28 C578 -28 617 -7 617 41 C612 75 609 100 607 117 C592 246 594 381 612 522 C616 550 620 571 623 585 C627 614 628 634 625 646 C620 668 602 679 571 679 C515 679 485 648 478 593 C477 563 477 534 477 505 C476 446 477 356 481 237 C424 208 234 123 179 121 C172 141 171 212 173 334 C175 430 182 516 194 593 C199 620 200 639 198 649 C192 669 175 679 146 679 C94 679 64 658 56 616 C52 572 50 536 50 506 C52 312 55 160 59 49 L59 49 Z " />
<glyph glyph-name="V" unicode="V" horiz-adv-x="581" d="M38 563 C70 432 110 287 159 126 C180 55 193 14 198 6 C218 -29 242 -32 279 -32 C318 -32 343 -21 351 0 C361 44 367 75 370 92 C399 232 444 364 505 487 C520 514 530 533 537 546 C552 575 558 596 556 606 C553 618 544 626 531 634 C519 639 507 641 493 641 C460 641 435 627 420 599 C404 568 388 529 371 483 C356 443 342 404 328 364 L259 181 C215 301 180 426 160 552 C159 556 158 569 155 590 C152 606 151 619 148 628 C139 665 121 684 95 684 C54 684 31 672 26 649 C23 637 27 608 38 563 L38 563 Z " />
<glyph glyph-name="W" unicode="W" horiz-adv-x="870" d="M27 576 C29 565 55 501 59 497 C86 427 113 335 142 222 C156 164 170 106 184 47 C197 -12 205 -44 208 -51 C217 -67 230 -75 245 -75 C272 -75 291 -58 300 -24 C334 96 378 228 433 375 L487 239 C497 215 508 177 521 126 C533 77 540 49 543 40 C558 -3 576 -24 595 -24 C623 -24 642 -7 651 27 C691 168 717 259 730 299 C761 396 794 483 830 559 C843 589 848 612 844 629 C836 661 811 709 773 709 C760 709 749 698 740 679 C738 675 732 660 723 632 C657 440 614 315 595 258 C579 314 563 362 548 404 C518 488 501 540 497 557 C486 601 469 623 446 623 C417 623 391 593 367 533 C311 393 274 293 254 232 C230 316 210 386 196 443 L170 555 C159 593 151 623 142 645 C133 666 119 677 101 677 C79 677 60 666 43 643 C27 620 21 598 27 576 L27 576 Z " />
<glyph glyph-name="X" unicode="X" horiz-adv-x="608" d="M27 600 C33 577 62 531 114 462 C162 400 199 352 223 321 C107 126 50 21 52 4 C61 -29 95 -45 127 -45 C153 -45 170 -37 178 -21 C197 17 210 42 215 57 C232 94 261 147 302 214 C332 175 361 135 390 96 C440 32 471 0 486 0 C506 0 523 13 536 38 C550 62 554 84 548 103 C546 111 544 116 540 122 C520 143 499 164 476 186 C436 226 400 272 366 317 C427 410 483 491 536 559 C558 589 572 605 576 611 C582 623 584 634 582 644 C578 660 566 673 546 683 C530 693 513 698 497 698 C472 698 453 688 438 669 C412 637 385 596 358 550 C350 536 326 495 285 425 C245 480 206 540 167 603 C165 608 157 622 144 644 C122 683 102 703 83 703 C61 703 46 691 35 668 C25 645 22 622 27 600 L27 600 Z " />
<glyph glyph-name="Y" unicode="Y" horiz-adv-x="695" d="M27 584 C34 555 79 495 97 472 C117 445 137 418 158 391 L265 246 L140 6 C144 -10 155 -24 171 -32 C185 -40 200 -44 219 -44 C244 -44 264 -28 281 2 C296 36 308 61 315 78 C384 223 489 385 629 566 C657 600 670 626 670 644 C661 679 619 700 585 700 C559 700 539 690 525 671 C494 624 474 591 463 573 C389 453 344 378 326 349 C262 434 205 518 155 603 L118 664 C106 678 95 685 84 685 C66 685 51 673 38 649 C26 624 22 602 27 584 L27 584 Z " />
<glyph glyph-name="Z" unicode="Z" horiz-adv-x="734" d="M51 37 C59 4 83 -17 122 -25 C154 -32 203 -36 269 -36 C431 -36 549 -23 624 3 C641 9 656 19 668 32 C683 48 687 65 683 81 C678 103 666 114 648 114 C630 114 612 113 596 111 C446 96 344 89 289 89 C269 89 248 90 228 91 C321 221 426 344 544 462 C551 468 565 482 587 502 C632 543 652 577 645 604 C625 686 441 691 373 691 C277 691 199 679 140 656 C100 641 85 612 95 572 C104 538 130 517 162 517 C169 517 175 517 182 519 C267 537 352 547 435 547 C309 396 205 267 120 162 C107 145 96 134 89 126 C58 90 45 60 51 37 L51 37 Z " />
<glyph glyph-name="bracketleft" unicode="&#x5b;" horiz-adv-x="521" d="M55 32 C56 -11 57 -34 58 -36 C56 -62 55 -78 57 -87 C66 -124 85 -143 113 -143 L184 -143 C193 -143 206 -143 225 -144 L255 -144 C360 -144 420 -141 433 -134 C454 -123 461 -99 451 -60 C443 -26 427 -9 404 -9 C394 -9 375 -12 347 -17 C305 -27 269 -32 238 -32 C223 -32 206 -31 186 -28 C186 9 184 71 179 156 C173 237 171 299 172 341 C173 447 180 562 194 687 C226 690 251 693 270 693 C286 693 312 689 348 680 C383 672 408 668 424 668 C441 668 454 679 462 704 C471 725 473 745 468 763 C464 781 446 793 414 800 C391 804 360 807 322 807 C239 804 217 803 255 803 L121 803 C93 803 74 786 63 752 C57 733 54 704 53 664 C48 493 49 283 55 32 L55 32 Z " />
<glyph glyph-name="backslash" unicode="&#x5c;" horiz-adv-x="676" d="M51 650 C54 638 68 615 94 581 C228 426 348 255 445 75 C463 41 476 15 485 -2 C503 -34 524 -50 548 -50 C568 -50 586 -45 601 -36 C621 -25 629 -11 625 7 C623 16 612 35 595 62 C578 88 565 107 557 120 C402 367 289 542 220 644 C196 679 174 709 127 709 C109 709 91 704 74 694 C55 682 47 667 51 650 L51 650 Z " />
<glyph glyph-name="bracketright" unicode="&#x5d;" horiz-adv-x="531" d="M52 -103 C57 -122 75 -134 108 -141 C131 -146 162 -148 200 -147 C278 -145 301 -144 267 -144 L333 -143 L399 -143 C434 -143 450 -100 452 -71 C451 -58 451 -49 450 -43 C451 -9 453 13 454 25 L463 184 C473 371 478 530 481 662 C481 713 479 803 409 803 L269 803 C161 803 100 800 86 793 C67 782 61 757 71 718 C79 684 94 668 117 668 C127 668 146 671 175 677 C217 687 250 692 274 692 C291 692 314 690 342 687 C349 559 351 444 349 344 C348 301 343 239 335 157 C327 76 323 14 322 -28 C293 -31 269 -32 252 -32 C234 -32 208 -28 173 -21 C138 -13 113 -9 97 -9 C81 -9 67 -21 59 -44 C50 -66 48 -85 52 -103 L52 -103 Z " />
<glyph glyph-name="asciicircum" unicode="&#x5e;" horiz-adv-x="445" d="M50 764 C52 751 67 738 97 730 C113 728 126 733 135 748 L147 764 C169 793 191 826 214 861 C247 837 278 810 306 779 C327 757 335 745 350 745 C359 745 369 751 380 764 C390 777 396 786 395 793 C394 801 391 809 384 816 C376 822 369 829 362 835 C317 878 281 909 254 930 C248 943 231 949 205 946 C179 944 163 939 158 932 C125 881 93 832 63 787 C54 777 50 768 50 764 L50 764 Z " />
<glyph glyph-name="underscore" unicode="&#x5f;" horiz-adv-x="761" d="M54 -48 C72 -116 197 -116 251 -116 C364 -117 379 -117 615 -110 C654 -109 675 -107 678 -107 C706 -100 717 -78 708 -43 C699 -8 672 20 638 20 C631 20 607 17 564 13 C492 4 439 -1 407 -1 C356 -1 301 2 244 8 C165 15 116 19 94 19 C56 19 43 -3 54 -48 L54 -48 Z " />
<glyph glyph-name="grave" unicode="&#x60;" horiz-adv-x="367" d="M61 883 C77 856 130 823 157 807 C173 796 196 782 224 764 C251 746 274 739 292 743 C304 747 311 754 315 768 C319 781 317 793 311 804 C305 814 296 825 282 835 C260 853 229 878 187 911 C145 943 116 961 99 965 C82 966 70 961 61 950 C47 931 47 909 61 883 L61 883 Z " />
<glyph glyph-name="a" unicode="a" horiz-adv-x="728" d="M27 17 C35 -19 66 -62 106 -62 C126 -62 146 -38 166 9 C316 36 441 62 543 86 C555 53 565 31 570 20 C585 -8 602 -22 621 -22 C641 -22 661 -14 679 2 C699 18 707 36 702 55 C700 67 692 83 679 103 C670 119 660 135 651 151 C582 269 514 424 448 615 C438 647 432 665 429 671 C418 690 402 700 381 700 C343 700 318 683 305 649 C260 532 226 446 203 387 C162 287 122 204 80 138 C64 113 51 94 43 82 C27 58 22 36 27 17 L27 17 Z M375 500 C425 379 463 286 489 219 C410 191 324 169 230 152 C305 335 353 451 375 500 L375 500 Z " />
<glyph glyph-name="b" unicode="b" horiz-adv-x="722" d="M53 416 C60 389 73 374 93 369 L93 182 C94 88 98 27 105 -2 C109 -18 123 -30 146 -37 C163 -42 202 -44 266 -44 C369 -44 451 -34 513 -13 C635 28 686 85 668 160 C653 225 584 274 525 297 C622 361 659 441 635 535 C608 649 501 695 393 695 C266 695 179 633 100 539 C78 515 66 497 60 485 C50 464 48 441 53 416 L53 416 Z M209 473 C270 532 329 562 385 562 C434 562 518 539 531 484 C538 455 524 422 487 386 C443 342 349 318 206 313 C206 370 206 423 209 473 L209 473 Z M359 210 C402 210 549 189 560 143 C566 119 539 100 478 89 C441 84 402 81 361 81 C321 81 273 82 218 85 L210 164 C254 194 304 210 359 210 L359 210 Z " />
<glyph glyph-name="c" unicode="c" horiz-adv-x="745" d="M59 130 C86 22 165 -40 274 -40 C376 -40 493 6 625 97 C658 119 675 132 678 136 C694 152 699 174 692 199 C688 219 676 229 659 229 C648 229 621 218 579 195 C516 161 474 139 453 130 C399 107 353 96 315 96 C251 96 181 119 164 189 C148 253 176 325 249 408 C313 479 405 525 522 545 C526 529 528 518 529 514 C538 475 553 455 575 455 C589 455 606 462 627 477 C655 495 665 517 658 544 C649 581 644 605 644 615 C643 642 642 658 640 664 C635 685 613 696 575 696 C300 696 58 499 50 216 C49 188 52 160 59 130 L59 130 Z " />
<glyph glyph-name="d" unicode="d" horiz-adv-x="772" d="M52 432 C55 422 58 413 63 405 C64 334 64 263 64 192 C65 76 67 8 73 -13 C78 -33 91 -43 112 -43 C110 -43 127 -40 164 -31 C207 -22 237 -17 254 -14 C390 12 503 63 592 138 C703 231 743 341 711 468 C679 601 560 691 424 691 C319 691 231 646 149 584 C74 527 41 476 52 432 L52 432 Z M180 467 C247 528 315 559 384 559 C474 559 554 501 576 412 C586 373 582 333 565 295 C518 185 392 119 187 97 C172 216 170 339 180 467 L180 467 Z " />
<glyph glyph-name="e" unicode="e" horiz-adv-x="723" d="M52 292 C56 274 67 261 83 251 C84 208 84 164 84 120 C85 59 88 16 95 -10 C102 -40 131 -55 179 -55 C297 -55 476 -34 578 27 C592 36 605 49 616 69 C626 88 629 105 625 122 C620 141 605 151 578 151 C571 151 561 149 548 147 C441 122 386 109 382 108 C323 95 265 88 209 88 C201 146 196 206 195 268 C289 298 427 324 606 345 C649 350 671 363 673 383 C673 418 625 447 594 454 C585 457 570 457 550 457 C436 457 318 441 195 407 C196 438 199 469 201 498 C259 523 308 537 348 543 C417 551 469 557 503 561 C551 566 571 586 562 619 C555 650 521 687 476 698 C462 700 441 702 412 702 C362 702 317 697 277 687 C263 683 222 671 153 649 C131 642 115 637 107 631 C97 623 90 613 86 601 C84 594 83 581 83 561 C82 475 82 412 82 371 C58 359 44 322 52 292 L52 292 Z " />
<glyph glyph-name="f" unicode="f" horiz-adv-x="683" d="M52 288 C57 270 67 256 84 247 C84 182 85 126 86 81 C87 30 89 -1 91 -9 C97 -32 113 -43 140 -43 C158 -43 175 -39 190 -29 C208 -19 217 -6 219 9 C223 36 221 77 212 134 C201 208 195 252 195 267 C285 298 409 322 571 342 C619 348 639 363 632 390 C622 436 559 454 518 454 C414 454 307 438 196 407 C197 436 199 465 200 496 C254 518 303 533 347 540 L502 558 C550 563 571 583 563 616 C554 649 520 685 475 694 C462 697 441 698 412 698 C315 698 244 676 153 646 C117 636 89 624 82 583 L82 522 C83 450 83 400 82 371 C70 365 60 355 55 338 C49 322 48 305 52 288 L52 288 Z " />
<glyph glyph-name="g" unicode="g" horiz-adv-x="824" d="M59 126 C88 15 167 -46 281 -46 C391 -46 516 10 656 122 C746 194 785 254 772 304 C759 359 685 386 550 386 C487 386 331 375 278 348 C259 339 242 325 228 306 C211 283 206 262 210 243 C216 224 229 214 251 214 C257 214 268 216 284 219 C424 251 535 267 616 267 C635 267 645 262 647 253 C650 241 631 222 590 195 C503 143 403 95 300 95 C237 95 178 119 161 185 C150 228 161 277 194 332 C263 446 372 517 521 543 C527 515 532 497 536 487 C546 464 560 452 576 452 C590 452 607 459 627 473 C654 491 664 517 656 548 C648 580 644 602 643 615 C642 638 640 653 639 659 C633 681 612 692 574 692 C434 692 313 647 211 556 C108 464 54 352 50 218 C49 187 52 156 59 126 L59 126 Z " />
<glyph glyph-name="h" unicode="h" horiz-adv-x="673" d="M59 297 C67 171 71 83 71 32 C71 -6 71 -48 122 -48 C148 -48 194 -32 201 -3 C203 7 202 24 198 47 C187 110 181 178 179 253 C262 284 357 307 462 322 C464 237 465 187 465 174 C465 140 464 115 463 98 C462 68 464 43 469 21 C475 -1 492 -12 518 -12 C541 -12 559 -6 573 6 C590 17 597 34 598 54 C594 85 591 109 589 124 C583 172 581 243 582 337 C601 337 617 340 629 347 C646 356 651 368 647 385 C642 408 621 427 586 442 C591 532 598 606 607 666 C601 686 586 696 560 696 C498 696 466 669 463 615 C461 564 459 508 460 446 C366 440 273 423 179 393 C180 454 184 515 191 576 C194 599 193 615 191 626 C185 648 169 659 142 659 C122 659 105 655 89 646 C71 638 59 625 56 609 C52 600 51 584 50 561 C49 498 52 410 59 297 L59 297 Z " />
<glyph glyph-name="i" unicode="i" horiz-adv-x="257" d="M64 570 C66 405 66 233 69 52 C69 26 70 11 70 6 C76 -17 92 -28 120 -28 C147 -28 192 -14 198 16 C200 23 198 40 195 66 C175 206 175 359 195 522 C200 551 203 572 205 585 C210 615 211 635 209 648 C203 668 186 678 158 678 C75 678 64 638 64 570 L64 570 Z " />
<glyph glyph-name="j" unicode="j" horiz-adv-x="769" d="M62 224 C97 82 212 -34 364 -34 C515 -34 621 60 670 198 C689 249 703 318 712 404 C723 496 721 570 707 625 C700 657 683 678 659 687 C644 694 617 697 580 697 C489 697 424 689 386 672 C369 664 355 651 345 631 C335 611 331 592 336 572 C342 552 353 543 371 543 C391 543 421 547 459 556 C497 565 527 570 548 570 C555 570 560 566 562 559 L567 539 C576 502 580 450 580 384 C579 318 574 267 565 232 C543 150 459 96 376 96 C278 96 202 158 181 254 C177 267 169 311 166 325 C157 360 140 378 115 378 C75 378 53 359 51 322 C49 292 53 259 62 224 L62 224 Z " />
<glyph glyph-name="k" unicode="k" horiz-adv-x="682" d="M50 576 C51 378 52 203 55 53 C56 28 56 13 58 6 C63 -17 80 -28 106 -28 C157 -28 184 -6 186 40 C186 47 183 71 177 113 C217 84 266 59 323 40 C435 0 497 -20 512 -20 C530 -20 550 -14 575 -2 C601 11 612 25 609 40 C606 51 595 61 576 71 C468 112 361 172 256 252 C295 290 347 339 413 399 C515 493 575 548 594 564 C619 585 631 607 632 626 C627 649 605 660 566 660 C540 660 515 652 492 634 C414 572 308 479 171 353 C173 436 180 508 193 589 C197 616 197 636 195 648 C189 668 173 679 146 679 C96 679 66 661 56 627 C52 616 50 599 50 576 L50 576 Z " />
<glyph glyph-name="l" unicode="l" horiz-adv-x="624" d="M52 308 C54 138 59 40 67 12 C74 -17 102 -32 152 -32 C262 -32 457 -8 550 50 C565 59 577 72 586 88 C597 107 601 126 597 144 C591 164 575 174 548 174 C540 174 530 172 518 170 L423 146 C343 125 262 113 179 111 C158 263 158 422 180 588 C183 615 183 634 180 643 C176 664 160 674 134 674 C88 674 61 653 54 609 C50 578 49 478 52 308 L52 308 Z " />
<glyph glyph-name="m" unicode="m" horiz-adv-x="872" d="M27 17 C34 -15 59 -64 97 -64 C111 -64 124 -52 134 -28 C136 -23 143 -5 154 27 C209 191 249 310 274 385 C327 202 360 91 372 50 C369 40 370 28 373 14 C378 -4 386 -21 396 -36 C411 -55 426 -64 441 -64 C451 -64 462 -58 474 -44 C482 -33 495 3 513 65 L548 186 C567 253 590 329 617 412 L678 186 C712 60 731 -6 738 -14 C749 -26 760 -32 772 -32 C791 -32 809 -21 826 1 C843 22 850 43 845 62 C838 91 822 126 809 154 C783 220 757 307 730 415 L693 572 L693 571 C687 607 683 631 680 644 C667 695 649 720 625 720 C598 720 579 703 570 669 C554 603 542 557 536 531 C512 432 479 328 440 218 C399 330 360 445 335 562 C330 596 318 670 276 670 C248 670 229 653 219 618 C188 507 164 424 148 369 C121 273 91 193 62 129 C50 105 41 88 35 76 C25 54 23 34 27 17 L27 17 Z " />
<glyph glyph-name="n" unicode="n" horiz-adv-x="736" d="M56 61 L56 15 C56 -6 56 -21 59 -30 C64 -54 80 -66 106 -66 C138 -66 187 -46 187 -9 C181 32 179 54 178 58 C167 149 166 263 176 401 L518 -1 C522 -16 537 -23 564 -23 C611 -23 638 -9 645 17 C647 25 646 43 644 70 C629 233 640 412 679 609 C686 645 688 668 685 679 C680 698 666 708 642 708 C577 708 543 651 541 538 C541 486 540 446 539 420 C533 306 529 240 526 225 L191 624 C180 636 165 641 146 641 C135 641 123 640 111 638 C85 630 67 617 59 599 C54 587 52 564 51 530 C49 429 51 273 56 61 L56 61 Z " />
<glyph glyph-name="o" unicode="o" horiz-adv-x="899" d="M62 204 C103 44 248 -52 409 -52 C577 -52 737 49 810 200 C850 282 859 367 838 456 C799 614 650 713 491 713 C323 713 161 611 88 460 C48 378 40 293 62 204 L62 204 Z M248 484 C299 559 368 596 454 596 C568 596 660 516 686 406 C708 318 694 239 643 165 C593 90 524 53 438 53 C324 53 232 133 206 243 C184 331 198 411 248 484 L248 484 Z " />
<glyph glyph-name="p" unicode="p" horiz-adv-x="709" d="M53 426 C56 416 59 408 63 400 L63 188 C62 76 65 7 71 -17 C76 -38 91 -48 116 -48 C136 -48 154 -43 170 -35 C187 -24 198 -9 200 10 C202 24 200 44 195 73 L184 141 C315 160 424 195 510 246 C631 318 679 408 651 517 C623 630 513 697 400 697 C299 697 208 643 135 577 C106 552 86 531 74 513 C52 483 46 453 53 426 L53 426 Z M178 471 C240 531 301 561 359 561 C419 561 504 530 519 465 C529 428 513 388 473 345 C426 297 327 269 175 262 C173 333 174 403 178 471 L178 471 Z " />
<glyph glyph-name="q" unicode="q" horiz-adv-x="897" d="M62 201 C103 39 246 -51 408 -51 C497 -51 579 -27 652 23 C702 2 733 -8 747 -8 C761 -8 774 -3 785 7 C799 17 804 29 801 43 C797 60 774 77 734 92 C778 141 810 196 830 255 C851 322 853 390 836 457 C796 616 648 713 488 713 C320 713 159 610 87 458 C48 376 40 291 62 201 L62 201 Z M249 487 C300 561 370 598 458 598 C574 598 659 508 688 401 C699 357 699 312 687 266 C676 224 658 186 632 153 C597 177 560 209 519 249 C473 295 438 331 415 354 C402 367 391 373 382 373 C364 373 351 359 343 331 C336 307 334 284 339 265 C356 200 421 137 535 77 C504 61 471 53 436 53 C321 53 231 134 204 244 C183 332 198 413 249 487 L249 487 Z " />
<glyph glyph-name="r" unicode="r" horiz-adv-x="724" d="M52 442 C58 416 71 398 93 386 C93 260 93 170 94 117 C96 45 98 2 101 -11 C108 -36 125 -47 154 -47 C172 -47 189 -43 203 -33 C220 -23 229 -9 230 6 C227 40 223 66 218 85 C289 51 436 3 513 3 C528 3 542 9 555 21 C567 33 572 47 569 61 C566 73 556 82 538 89 C509 98 488 104 473 107 C433 121 387 141 335 168 C436 194 516 231 577 280 C659 345 689 423 667 512 C639 630 519 695 404 695 C285 695 176 634 75 512 C54 487 46 463 52 442 L52 442 Z M208 474 C270 534 330 564 388 564 C448 564 528 534 544 470 C554 431 538 391 497 348 C451 299 354 272 205 266 C202 337 204 407 208 474 L208 474 Z " />
<glyph glyph-name="s" unicode="s" horiz-adv-x="794" d="M56 124 C70 69 113 0 163 -28 C187 -40 218 -47 255 -47 C456 -47 674 83 737 280 C745 303 746 328 740 354 C734 377 722 393 702 400 C679 408 612 417 503 426 C409 434 342 438 303 438 L288 438 C252 438 232 437 227 436 C254 478 289 510 334 532 C384 559 435 572 485 567 L496 566 L503 540 C511 512 526 498 549 498 C578 498 631 532 633 563 C634 588 627 625 615 675 C609 701 586 713 548 713 C388 713 253 653 142 531 C82 464 56 408 67 362 C76 328 103 309 148 306 C244 300 315 297 363 295 C387 294 575 280 582 252 C584 243 581 229 572 210 C532 116 426 80 331 80 C272 80 225 92 193 115 C178 126 160 149 137 182 C120 206 103 218 84 218 C66 218 55 206 52 182 C49 166 50 146 56 124 L56 124 Z " />
<glyph glyph-name="t" unicode="t" horiz-adv-x="606" d="M29 544 C38 511 61 483 95 483 C106 483 151 498 228 525 C227 404 228 277 230 145 C232 55 234 4 237 -8 C242 -29 257 -40 283 -40 C318 -40 363 -18 365 21 C358 64 354 87 354 89 C335 228 333 382 348 551 C384 554 437 558 508 562 C564 565 587 583 579 616 C565 674 505 702 399 702 C258 702 148 682 69 641 C31 622 18 589 29 544 L29 544 Z " />
<glyph glyph-name="u" unicode="u" horiz-adv-x="677" d="M59 49 C59 3 62 -28 121 -28 C205 -28 405 49 485 90 C485 40 486 11 488 5 C493 -17 509 -28 535 -28 C578 -28 617 -7 617 41 C612 75 609 100 607 117 C592 246 594 381 612 522 C616 550 620 571 623 585 C627 614 628 634 625 646 C620 668 602 679 571 679 C515 679 485 648 478 593 C477 563 477 534 477 505 C476 446 477 356 481 237 C424 208 234 123 179 121 C172 141 171 212 173 334 C175 430 182 516 194 593 C199 620 200 639 198 649 C192 669 175 679 146 679 C94 679 64 658 56 616 C52 572 50 536 50 506 C52 312 55 160 59 49 L59 49 Z " />
<glyph glyph-name="v" unicode="v" horiz-adv-x="581" d="M38 563 C70 432 110 287 159 126 C180 55 193 14 198 6 C218 -29 242 -32 279 -32 C318 -32 343 -21 351 0 C361 44 367 75 370 92 C399 232 444 364 505 487 C520 514 530 533 537 546 C552 575 558 596 556 606 C553 618 544 626 531 634 C519 639 507 641 493 641 C460 641 435 627 420 599 C404 568 388 529 371 483 C356 443 342 404 328 364 L259 181 C215 301 180 426 160 552 C159 556 158 569 155 590 C152 606 151 619 148 628 C139 665 121 684 95 684 C54 684 31 672 26 649 C23 637 27 608 38 563 L38 563 Z " />
<glyph glyph-name="w" unicode="w" horiz-adv-x="870" d="M27 576 C29 565 55 501 59 497 C86 427 113 335 142 222 C156 164 170 106 184 47 C197 -12 205 -44 208 -51 C217 -67 230 -75 245 -75 C272 -75 291 -58 300 -24 C334 96 378 228 433 375 L487 239 C497 215 508 177 521 126 C533 77 540 49 543 40 C558 -3 576 -24 595 -24 C623 -24 642 -7 651 27 C691 168 717 259 730 299 C761 396 794 483 830 559 C843 589 848 612 844 629 C836 661 811 709 773 709 C760 709 749 698 740 679 C738 675 732 660 723 632 C657 440 614 315 595 258 C579 314 563 362 548 404 C518 488 501 540 497 557 C486 601 469 623 446 623 C417 623 391 593 367 533 C311 393 274 293 254 232 C230 316 210 386 196 443 L170 555 C159 593 151 623 142 645 C133 666 119 677 101 677 C79 677 60 666 43 643 C27 620 21 598 27 576 L27 576 Z " />
<glyph glyph-name="x" unicode="x" horiz-adv-x="608" d="M27 600 C33 577 62 531 114 462 C162 400 199 352 223 321 C107 126 50 21 52 4 C61 -29 95 -45 127 -45 C153 -45 170 -37 178 -21 C197 17 210 42 215 57 C232 94 261 147 302 214 C332 175 361 135 390 96 C440 32 471 0 486 0 C506 0 523 13 536 38 C550 62 554 84 548 103 C546 111 544 116 540 122 C520 143 499 164 476 186 C436 226 400 272 366 317 C427 410 483 491 536 559 C558 589 572 605 576 611 C582 623 584 634 582 644 C578 660 566 673 546 683 C530 693 513 698 497 698 C472 698 453 688 438 669 C412 637 385 596 358 550 C350 536 326 495 285 425 C245 480 206 540 167 603 C165 608 157 622 144 644 C122 683 102 703 83 703 C61 703 46 691 35 668 C25 645 22 622 27 600 L27 600 Z " />
<glyph glyph-name="y" unicode="y" horiz-adv-x="695" d="M27 584 C34 555 79 495 97 472 C117 445 137 418 158 391 L265 246 L140 6 C144 -10 155 -24 171 -32 C185 -40 200 -44 219 -44 C244 -44 264 -28 281 2 C296 36 308 61 315 78 C384 223 489 385 629 566 C657 600 670 626 670 644 C661 679 619 700 585 700 C559 700 539 690 525 671 C494 624 474 591 463 573 C389 453 344 378 326 349 C262 434 205 518 155 603 L118 664 C106 678 95 685 84 685 C66 685 51 673 38 649 C26 624 22 602 27 584 L27 584 Z " />
<glyph glyph-name="z" unicode="z" horiz-adv-x="734" d="M51 37 C59 4 83 -17 122 -25 C154 -32 203 -36 269 -36 C431 -36 549 -23 624 3 C641 9 656 19 668 32 C683 48 687 65 683 81 C678 103 666 114 648 114 C630 114 612 113 596 111 C446 96 344 89 289 89 C269 89 248 90 228 91 C321 221 426 344 544 462 C551 468 565 482 587 502 C632 543 652 577 645 604 C625 686 441 691 373 691 C277 691 199 679 140 656 C100 641 85 612 95 572 C104 538 130 517 162 517 C169 517 175 517 182 519 C267 537 352 547 435 547 C309 396 205 267 120 162 C107 145 96 134 89 126 C58 90 45 60 51 37 L51 37 Z " />
<glyph glyph-name="braceleft" unicode="&#x7b;" horiz-adv-x="751" d="M52 301 C58 279 71 268 94 268 C103 268 131 271 180 277 C261 288 320 292 358 292 C390 292 435 288 491 281 C526 277 546 275 550 275 C569 275 585 286 597 308 C609 329 612 349 606 369 C602 386 592 396 574 401 C564 404 528 406 467 406 C403 406 324 404 232 401 C169 399 132 397 120 396 C97 393 78 382 65 364 C51 345 47 324 52 301 L52 301 Z M355 -58 C359 -73 365 -86 374 -96 C385 -110 398 -116 412 -116 C421 -116 435 -106 454 -86 C473 -68 486 -54 496 -45 C539 -2 591 34 652 62 C671 70 681 76 684 77 C695 83 700 92 701 104 C701 110 700 115 699 122 C695 138 688 154 677 168 C665 187 651 197 638 197 C627 197 582 167 502 110 C469 87 437 65 405 42 C364 7 347 -26 355 -58 L355 -58 Z M317 672 C319 661 330 652 347 643 C399 626 460 604 504 571 C548 536 582 510 605 491 C612 486 619 483 625 483 C641 483 658 494 676 515 C695 536 701 555 697 572 C696 577 693 582 688 587 C654 616 420 754 390 754 C372 754 355 744 338 726 C319 707 313 689 317 672 L317 672 Z " />
<glyph glyph-name="bar" unicode="&#x7c;" horiz-adv-x="247" d="M66 23 C65 -2 65 -21 64 -34 C63 -58 65 -77 68 -91 C74 -117 90 -130 115 -130 C152 -130 192 -104 197 -65 C194 -15 191 23 187 49 C171 236 177 438 204 653 C210 701 211 731 209 741 C203 764 187 776 160 776 C109 776 77 751 67 701 C65 687 64 666 63 637 L66 23 Z " />
<glyph glyph-name="braceright" unicode="&#x7d;" horiz-adv-x="750" d="M142 269 C146 251 158 240 177 235 C188 231 228 230 296 230 C369 230 442 231 513 234 C576 236 616 239 631 241 C654 245 673 255 686 273 C699 291 703 311 698 335 C692 357 678 368 655 368 L568 357 C496 348 437 344 390 344 C360 344 317 348 259 355 C225 359 205 362 199 362 C180 362 165 352 153 330 C142 309 138 288 142 269 L142 269 Z M53 508 C59 484 82 439 111 439 C137 439 355 601 384 632 C398 647 402 665 397 687 C390 714 371 754 338 754 C327 754 299 731 254 684 C197 625 169 610 96 575 C74 565 62 559 61 558 C50 547 48 531 53 508 L53 508 Z M52 66 C54 59 57 54 62 49 C91 22 331 -117 358 -117 C375 -117 393 -107 412 -88 C430 -69 437 -51 433 -35 C431 -27 425 -20 416 -14 C400 -8 389 -3 383 -1 C315 24 271 45 248 60 C202 97 169 126 146 145 C139 150 132 152 126 152 C109 152 93 142 74 122 C56 100 48 82 52 66 L52 66 Z " />
<glyph glyph-name="asciitilde" unicode="&#x7e;" horiz-adv-x="591" d="M56 298 C63 267 78 251 99 251 C105 251 119 262 143 284 C167 305 186 315 199 315 C213 315 245 304 296 283 C346 261 383 250 406 250 C453 250 539 310 541 360 C541 391 525 453 488 453 C488 453 474 441 445 416 C416 391 392 378 375 378 C352 378 316 389 268 410 C220 431 184 442 161 442 C120 442 87 421 61 380 C48 361 47 333 56 298 L56 298 Z " />
<glyph glyph-name="exclamdown" unicode="&#xa1;" horiz-adv-x="439" d="M50 -70 C59 -101 114 -109 142 -109 C186 -109 213 -99 225 -78 C239 -53 251 -22 261 16 L283 117 C316 269 334 349 335 356 C342 380 344 398 341 409 C336 429 317 438 282 438 C258 438 243 430 238 414 C235 397 232 379 229 361 C222 310 206 258 179 205 C147 140 123 92 108 60 C68 -20 48 -63 50 -70 L50 -70 Z M247 523 C252 505 273 496 312 496 C352 496 375 505 379 525 C389 581 391 621 386 642 C380 663 363 674 333 674 C303 674 285 665 277 648 C273 640 266 619 258 585 C250 550 246 529 247 523 L247 523 Z " />
<glyph glyph-name="cent" unicode="&#xa2;" horiz-adv-x="562" d="M54 214 C73 139 137 109 210 109 C217 109 223 109 230 110 C230 98 231 86 231 74 C231 48 232 33 232 28 C238 5 254 -6 282 -6 C309 -6 354 8 360 38 C362 43 357 100 353 139 C413 164 489 206 509 271 C513 279 512 287 510 294 C506 307 497 314 479 314 C457 314 426 300 388 274 C349 247 316 235 290 235 C232 235 198 253 189 291 C181 322 195 355 231 393 C267 432 298 450 331 450 C344 450 362 441 384 423 C405 406 423 396 436 396 C455 396 473 402 488 414 C506 428 512 443 507 461 C501 483 480 510 444 544 C420 568 393 582 365 587 C369 618 373 659 371 670 C365 690 348 700 320 700 C237 700 226 660 226 592 C226 574 226 563 227 550 C200 531 174 505 150 472 C71 362 38 276 54 214 L54 214 Z " />
<glyph glyph-name="sterling" unicode="&#xa3;" horiz-adv-x="700" d="M53 253 C63 219 91 190 125 190 C146 190 191 195 259 204 C259 172 229 137 140 100 C126 94 116 92 113 79 C109 66 112 51 120 32 C128 15 136 2 145 -6 C169 -25 237 -38 352 -43 C392 -45 468 -46 579 -46 C617 -46 639 -32 646 -5 C650 12 651 28 647 44 C643 85 624 93 586 93 C523 93 428 80 368 80 C344 80 325 82 317 88 C352 113 369 170 371 219 C390 221 409 223 428 224 C472 230 503 238 525 250 C554 265 564 286 557 313 C553 329 548 343 537 355 C525 370 511 377 497 377 C490 377 464 370 415 355 C367 340 333 330 318 328 C240 397 186 452 317 542 C346 562 380 572 417 572 C476 572 519 549 545 504 C555 487 561 476 565 472 C575 462 587 457 600 457 C624 457 627 490 627 508 C625 569 590 659 542 698 C525 712 501 718 470 718 C395 718 324 688 257 627 C187 564 66 425 148 333 C153 327 160 321 168 314 L144 314 C106 314 83 313 74 310 C53 302 46 283 53 253 L53 253 Z " />
<glyph glyph-name="dieresis" unicode="&#xa8;" horiz-adv-x="406" d="M251 779 C255 762 268 754 290 754 C313 754 327 762 333 775 C337 784 342 800 347 825 C354 851 357 867 355 873 C351 888 335 896 306 896 C275 896 259 888 257 871 C249 826 248 795 251 779 L251 779 Z M52 757 C56 740 69 732 91 732 C114 732 127 739 133 752 C137 761 142 778 148 803 C154 829 157 845 155 851 C151 865 135 872 106 872 C76 872 59 864 57 848 C50 803 48 772 52 757 L52 757 Z " />
<glyph glyph-name="copyright" unicode="&#xa9;" horiz-adv-x="877" d="M60 169 C96 22 228 -77 378 -77 C550 -77 708 60 781 208 C826 299 838 388 816 475 C780 621 648 723 498 723 C323 723 170 586 95 437 C50 344 39 255 60 169 L60 169 Z M212 419 C255 516 370 603 479 603 C583 603 653 516 676 422 C695 348 689 278 658 214 C614 120 497 32 390 32 C287 32 217 118 195 211 C176 286 182 356 212 419 L212 419 Z M252 215 C266 158 317 134 372 134 C444 134 579 183 602 259 C605 265 605 271 603 277 C601 287 593 292 579 292 C562 292 538 282 509 261 C479 241 454 231 434 231 C389 231 363 245 356 274 C350 298 360 324 388 353 C415 382 440 397 465 397 C475 397 489 389 506 376 C522 362 536 355 546 355 C561 355 574 359 586 369 C599 379 605 391 601 405 C597 422 580 443 552 469 C528 492 502 504 473 504 C419 504 370 474 326 414 C265 329 240 263 252 215 L252 215 Z " />
<glyph glyph-name="guillemotleft" unicode="&#xab;" horiz-adv-x="574" d="M285 328 C286 299 291 280 299 274 C355 235 408 196 457 159 C468 149 477 143 483 143 C498 144 512 161 523 194 C526 212 522 227 505 238 L488 252 C455 279 420 305 382 333 C410 369 443 402 480 433 C506 454 519 463 520 480 C520 501 490 533 469 533 C459 532 450 530 442 523 C435 514 426 506 419 499 C368 450 331 412 306 382 C292 376 283 357 285 328 L285 328 Z M50 328 C51 299 56 280 64 274 C120 235 173 196 222 159 C233 149 242 143 248 143 C263 144 277 161 288 194 C291 212 287 227 270 238 L253 252 C220 279 185 305 147 333 C175 369 208 402 245 433 C271 454 284 463 285 480 C285 501 255 533 234 533 C224 532 215 530 207 523 C200 514 191 506 184 499 C133 450 96 412 71 382 C57 376 48 357 50 328 L50 328 Z " />
<glyph glyph-name="registered" unicode="&#xae;" horiz-adv-x="877" d="M60 170 C96 23 229 -77 379 -77 C551 -77 709 60 782 208 C827 299 838 389 817 476 C781 623 650 723 499 723 C326 723 170 587 96 438 C51 345 39 256 60 170 L60 170 Z M229 450 C278 529 384 603 479 603 C581 603 654 516 677 423 C695 349 689 280 658 215 C614 120 498 32 390 32 C288 32 216 122 194 214 C173 297 185 376 229 450 L229 450 Z M244 377 C248 360 264 339 280 339 C284 339 288 340 292 341 C289 284 288 250 288 241 C287 201 290 166 297 138 C301 123 312 115 330 115 C355 115 368 124 372 141 C374 150 372 169 367 198 L517 143 C526 140 536 138 545 138 C567 138 575 147 571 164 C568 175 558 185 540 195 L458 239 C571 273 618 329 598 407 C581 484 499 515 428 515 C375 515 323 489 274 436 C251 411 240 391 244 377 L244 377 Z M365 411 C390 427 416 436 442 436 C474 436 514 421 522 386 C530 356 511 331 466 313 C436 301 401 293 361 290 C360 330 361 371 365 411 L365 411 Z " />
<glyph glyph-name="degree" unicode="&#xb0;" horiz-adv-x="459" d="M56 476 C72 404 141 361 212 361 C287 361 360 406 392 474 C410 511 414 549 404 589 C386 661 320 704 248 704 C173 704 101 658 67 591 C49 554 45 516 56 476 L56 476 Z M174 574 C187 594 206 604 231 604 C262 604 287 583 294 552 C300 528 296 506 282 486 C269 465 250 455 226 455 C195 455 171 476 162 508 C157 532 161 554 174 574 L174 574 Z " />
<glyph glyph-name="acute" unicode="&#xb4;" horiz-adv-x="370" d="M50 782 C52 761 62 747 80 739 C95 733 116 739 140 756 C153 766 180 782 221 807 C253 826 278 844 297 858 C307 865 313 874 317 884 C324 905 320 926 304 945 C295 957 283 962 270 962 C266 963 263 963 261 962 C244 960 93 844 68 822 C59 814 54 806 51 797 C50 792 49 788 50 782 L50 782 Z " />
<glyph glyph-name="periodcentered" unicode="&#xb7;" horiz-adv-x="242" d="M53 297 C59 275 76 264 106 264 C135 264 154 274 162 293 C166 303 173 325 181 357 C190 393 193 415 191 422 C186 442 164 451 126 451 C86 451 64 441 60 420 C50 359 48 318 53 297 L53 297 Z " />
<glyph glyph-name="cedilla" unicode="&#xb8;" horiz-adv-x="322" d="M50 -192 C59 -220 85 -234 113 -234 C133 -234 159 -224 191 -204 C221 -183 249 -131 272 -47 C260 -4 251 21 245 30 C232 38 218 42 202 42 C176 42 161 23 158 -15 C160 -75 142 -117 104 -141 C66 -165 48 -182 50 -192 L50 -192 Z " />
<glyph glyph-name="guillemotright" unicode="&#xbb;" horiz-adv-x="574" d="M286 194 C297 161 311 144 326 143 C332 143 341 149 352 159 C401 196 454 235 510 274 C518 280 523 299 524 328 C526 357 517 376 503 382 C478 412 441 450 390 499 C383 506 374 514 367 523 C359 530 350 532 340 533 C319 533 289 501 289 480 C290 463 303 454 329 433 C366 402 399 369 427 333 C389 305 354 279 321 252 L304 238 C287 227 283 212 286 194 L286 194 Z M51 194 C62 161 76 144 91 143 C97 143 106 149 117 159 C166 196 219 235 275 274 C283 280 288 299 289 328 C291 357 282 376 268 382 C243 412 206 450 155 499 C148 506 139 514 132 523 C124 530 115 532 105 533 C84 533 54 501 54 480 C55 463 68 454 94 433 C131 402 164 369 192 333 C154 305 119 279 86 252 L69 238 C52 227 48 212 51 194 L51 194 Z " />
<glyph glyph-name="questiondown" unicode="&#xbf;" horiz-adv-x="720" d="M56 42 C85 -77 235 -141 348 -141 C414 -141 484 -123 555 -91 C644 -50 681 -3 667 53 C663 70 653 79 638 79 C631 79 615 70 587 52 C532 16 465 -22 398 -22 C342 -22 234 15 219 75 C205 128 237 168 313 194 C366 211 426 220 493 220 C495 220 521 220 569 219 C597 219 604 226 611 251 C621 306 625 345 619 368 C614 388 595 398 563 398 C536 398 520 392 513 381 C510 377 504 362 497 333 C378 324 277 302 195 264 C78 211 32 137 56 42 L56 42 Z M518 508 C522 490 544 482 583 482 C606 482 622 485 630 492 C642 500 649 513 650 533 L656 587 C657 595 656 601 655 605 C650 623 633 632 602 632 C576 632 558 625 548 613 C544 609 538 591 529 561 C521 531 517 513 518 508 L518 508 Z " />
<glyph glyph-name="Agrave" unicode="&#xc0;" horiz-adv-x="728" d="M27 17 C35 -19 66 -62 106 -62 C126 -62 146 -38 166 9 C316 36 441 62 543 86 C555 53 565 31 570 20 C585 -8 602 -22 621 -22 C641 -22 661 -14 679 2 C699 18 707 36 702 55 C700 67 692 83 679 103 C670 119 660 135 651 151 C582 269 514 424 448 615 C438 647 432 665 429 671 C418 690 402 700 381 700 C343 700 318 683 305 649 C260 532 226 446 203 387 C162 287 122 204 80 138 C64 113 51 94 43 82 C27 58 22 36 27 17 L27 17 Z M230 152 C305 335 353 451 375 500 C425 379 463 286 489 219 C410 191 324 169 230 152 L230 152 Z M241 875 C257 848 310 815 337 799 C353 788 376 774 404 756 C431 738 454 731 472 735 C484 739 491 746 495 760 C499 773 497 785 491 796 C485 806 476 817 462 827 C440 845 409 870 367 903 C325 935 296 953 279 957 C262 958 250 953 241 942 C227 923 227 901 241 875 L241 875 Z " />
<glyph glyph-name="Aacute" unicode="&#xc1;" horiz-adv-x="728" d="M27 17 C35 -19 66 -62 106 -62 C126 -62 146 -38 166 9 C316 36 441 62 543 86 C555 53 565 31 570 20 C585 -8 602 -22 621 -22 C641 -22 661 -14 679 2 C699 18 707 36 702 55 C700 67 692 83 679 103 C670 119 660 135 651 151 C582 269 514 424 448 615 C438 647 432 665 429 671 C418 690 402 700 381 700 C343 700 318 683 305 649 C260 532 226 446 203 387 C162 287 122 204 80 138 C64 113 51 94 43 82 C27 58 22 36 27 17 L27 17 Z M230 152 C305 335 353 451 375 500 C425 379 463 286 489 219 C410 191 324 169 230 152 L230 152 Z M229 773 C231 752 241 738 259 730 C274 724 295 730 319 747 C332 757 359 773 400 798 C432 817 457 835 476 849 C486 856 492 865 496 875 C503 896 499 917 483 936 C474 948 462 953 449 953 C445 954 442 954 440 953 C423 951 272 835 247 813 C238 805 233 797 230 788 C229 783 228 779 229 773 L229 773 Z " />
<glyph glyph-name="Acircumflex" unicode="&#xc2;" horiz-adv-x="728" d="M27 17 C35 -19 66 -62 106 -62 C126 -62 146 -38 166 9 C316 36 441 62 543 86 C555 53 565 31 570 20 C585 -8 602 -22 621 -22 C641 -22 661 -14 679 2 C699 18 707 36 702 55 C700 67 692 83 679 103 C670 119 660 135 651 151 C582 269 514 424 448 615 C438 647 432 665 429 671 C418 690 402 700 381 700 C343 700 318 683 305 649 C260 532 226 446 203 387 C162 287 122 204 80 138 C64 113 51 94 43 82 C27 58 22 36 27 17 L27 17 Z M230 152 C305 335 353 451 375 500 C425 379 463 286 489 219 C410 191 324 169 230 152 L230 152 Z M196 743 C198 730 213 717 243 709 C259 707 272 712 281 727 L293 743 C315 772 337 805 360 840 C393 816 424 789 452 758 C473 736 481 724 496 724 C505 724 515 730 526 743 C536 756 542 765 541 772 C540 780 537 788 530 795 C522 801 515 808 508 814 C463 857 427 888 400 909 C394 922 377 928 351 925 C325 923 309 918 304 911 C271 860 239 811 209 766 C200 756 196 747 196 743 L196 743 Z " />
<glyph glyph-name="Atilde" unicode="&#xc3;" horiz-adv-x="728" d="M27 17 C35 -19 66 -62 106 -62 C126 -62 146 -38 166 9 C316 36 441 62 543 86 C555 53 565 31 570 20 C585 -8 602 -22 621 -22 C641 -22 661 -14 679 2 C699 18 707 36 702 55 C700 67 692 83 679 103 C670 119 660 135 651 151 C582 269 514 424 448 615 C438 647 432 665 429 671 C418 690 402 700 381 700 C343 700 318 683 305 649 C260 532 226 446 203 387 C162 287 122 204 80 138 C64 113 51 94 43 82 C27 58 22 36 27 17 L27 17 Z M375 500 C425 379 463 286 489 219 C410 191 324 169 230 152 C305 335 353 451 375 500 L375 500 Z M173 789 C179 764 190 752 207 752 C211 752 223 760 242 777 C261 794 276 802 287 802 C298 802 324 794 364 777 C404 760 434 751 452 751 C491 751 557 797 559 839 C559 862 546 913 518 913 C518 913 506 903 483 883 C460 863 441 853 427 853 C409 853 381 861 342 878 C303 895 275 903 256 903 C224 903 199 887 177 854 C167 839 167 817 173 789 L173 789 Z " />
<glyph glyph-name="Adieresis" unicode="&#xc4;" horiz-adv-x="728" d="M27 17 C35 -19 66 -62 106 -62 C126 -62 146 -38 166 9 C316 36 441 62 543 86 C555 53 565 31 570 20 C585 -8 602 -22 621 -22 C641 -22 661 -14 679 2 C699 18 707 36 702 55 C700 67 692 83 679 103 C670 119 660 135 651 151 C582 269 514 424 448 615 C438 647 432 665 429 671 C418 690 402 700 381 700 C343 700 318 683 305 649 C260 532 226 446 203 387 C162 287 122 204 80 138 C64 113 51 94 43 82 C27 58 22 36 27 17 L27 17 Z M230 152 C305 335 353 451 375 500 C425 379 463 286 489 219 C410 191 324 169 230 152 L230 152 Z M412 781 C416 764 429 756 451 756 C474 756 488 764 494 777 C498 786 503 802 508 827 C515 853 518 869 516 875 C512 890 496 898 467 898 C436 898 420 890 418 873 C410 828 409 797 412 781 L412 781 Z M213 759 C217 742 230 734 252 734 C275 734 288 741 294 754 C298 763 303 780 309 805 C315 831 318 847 316 853 C312 867 296 874 267 874 C237 874 220 866 218 850 C211 805 209 774 213 759 L213 759 Z " />
<glyph glyph-name="Aring" unicode="&#xc5;" horiz-adv-x="728" d="M27 17 C35 -19 66 -62 106 -62 C126 -62 146 -38 166 9 C316 36 441 62 543 86 C555 53 565 31 570 20 C585 -8 602 -22 621 -22 C641 -22 661 -14 679 2 C699 18 707 36 702 55 C700 67 692 83 679 103 L651 151 C582 269 514 424 448 615 C438 647 432 665 429 671 C429 672 427 675 426 676 C428 677 429 679 431 679 C452 693 467 709 478 731 C489 754 491 778 486 803 C474 848 433 876 387 876 C340 876 293 847 273 804 C262 781 260 757 265 732 C271 709 283 691 302 678 C307 675 311 672 316 670 C312 664 308 656 305 649 C260 532 226 446 203 387 C162 287 122 204 80 138 C64 113 51 94 43 82 C27 58 22 36 27 17 L27 17 Z M230 152 C305 335 353 451 375 500 C425 379 463 286 489 219 C410 191 324 169 230 152 L230 152 Z M337 796 C347 811 360 817 376 817 C397 817 414 803 418 781 C422 765 420 750 411 736 C402 722 389 715 373 715 C351 715 334 729 330 751 C326 767 328 783 337 796 L337 796 Z " />
<glyph glyph-name="AE" unicode="&#xc6;" horiz-adv-x="1189" d="M10 8 C14 -24 57 -43 85 -47 C106 -50 122 -42 137 -25 C171 16 193 46 206 66 C209 65 211 65 214 65 C243 65 315 74 430 91 C459 94 488 97 517 99 C529 101 541 103 551 105 C553 52 556 14 562 -10 C569 -40 598 -55 646 -55 C764 -55 943 -34 1045 27 C1059 36 1072 49 1083 69 C1093 88 1096 105 1092 122 C1087 141 1072 151 1045 151 C1038 151 1028 149 1015 147 C908 122 853 109 849 108 C790 95 732 88 676 88 C668 146 663 206 662 268 C756 298 894 324 1073 345 C1116 350 1138 366 1139 393 C1131 422 1089 448 1061 454 C1052 457 1037 457 1017 457 C903 457 785 441 662 407 C663 438 666 469 668 498 C726 523 775 537 815 543 C884 551 936 557 970 561 C1018 566 1038 586 1029 619 C1022 650 988 687 943 698 C929 700 908 702 879 702 C829 702 784 697 744 687 C730 683 689 671 620 649 C618 648 615 648 613 647 C587 649 565 641 549 626 C506 583 477 552 461 534 C343 404 221 268 97 128 C73 103 57 84 45 72 C20 45 8 23 10 8 L10 8 Z M549 435 L549 371 C525 359 511 322 519 292 C523 274 534 261 550 251 L550 244 C538 240 522 236 504 230 C427 207 391 197 310 192 C381 272 461 353 549 435 L549 435 Z " />
<glyph glyph-name="Ccedilla" unicode="&#xc7;" horiz-adv-x="745" d="M59 130 C86 22 165 -40 274 -40 C295 -40 317 -38 340 -34 C335 -78 317 -111 286 -130 C248 -154 230 -171 232 -181 C241 -209 268 -223 296 -223 C315 -223 342 -213 373 -193 C428 -156 458 -71 445 -3 C502 20 562 53 625 97 C658 119 675 132 678 136 C694 152 699 174 692 199 C688 219 676 229 659 229 C648 229 621 218 579 195 C516 161 474 139 453 130 C399 107 353 96 315 96 C251 96 181 119 164 189 C148 253 176 325 249 408 C313 479 405 525 522 545 C526 529 528 518 529 514 C538 475 553 455 575 455 C589 455 606 462 627 477 C655 495 665 517 658 544 C649 581 644 605 644 615 C643 642 642 658 640 664 C635 685 613 696 575 696 C300 696 58 499 50 216 C49 188 52 160 59 130 L59 130 Z " />
<glyph glyph-name="Egrave" unicode="&#xc8;" horiz-adv-x="722" d="M52 292 C56 274 67 261 83 251 C84 208 84 164 84 120 C85 59 88 16 95 -10 C102 -40 131 -55 179 -55 C297 -55 476 -34 578 27 C592 36 605 49 616 69 C626 88 629 105 625 122 C620 141 605 151 578 151 C571 151 561 149 548 147 C441 122 386 109 382 108 C323 95 265 88 209 88 C201 146 196 206 195 268 C289 298 427 324 606 345 C649 350 671 366 672 393 C664 422 622 448 594 454 C585 457 570 457 550 457 C436 457 318 441 195 407 C196 438 199 469 201 498 C259 523 308 537 348 543 C417 551 469 557 503 561 C551 566 571 586 562 619 C555 650 521 687 476 698 C462 700 441 702 412 702 C362 702 317 697 277 687 C263 683 222 671 153 649 C131 642 115 637 107 631 C97 623 90 613 86 601 C84 594 83 581 83 561 C82 475 82 412 82 371 C58 359 44 322 52 292 L52 292 Z M238 877 C254 850 307 817 334 801 C350 790 373 776 401 758 C428 740 451 733 469 737 C481 741 488 748 492 762 C496 775 494 787 488 798 C482 808 473 819 459 829 C437 847 406 872 364 905 C322 937 293 955 276 959 C259 960 247 955 238 944 C224 925 224 903 238 877 L238 877 Z " />
<glyph glyph-name="Eacute" unicode="&#xc9;" horiz-adv-x="722" d="M52 292 C56 274 67 261 83 251 C84 208 84 164 84 120 C85 59 88 16 95 -10 C102 -40 131 -55 179 -55 C297 -55 476 -34 578 27 C592 36 605 49 616 69 C626 88 629 105 625 122 C620 141 605 151 578 151 C571 151 561 149 548 147 C441 122 386 109 382 108 C323 95 265 88 209 88 C201 146 196 206 195 268 C289 298 427 324 606 345 C649 350 671 366 672 393 C664 422 622 448 594 454 C585 457 570 457 550 457 C436 457 318 441 195 407 C196 438 199 469 201 498 C259 523 308 537 348 543 C417 551 469 557 503 561 C551 566 571 586 562 619 C555 650 521 687 476 698 C462 700 441 702 412 702 C362 702 317 697 277 687 C263 683 222 671 153 649 C131 642 115 637 107 631 C97 623 90 613 86 601 C84 594 83 581 83 561 C82 475 82 412 82 371 C58 359 44 322 52 292 L52 292 Z M214 775 C216 754 226 740 244 732 C259 726 280 732 304 749 C317 759 344 775 385 800 C417 819 442 837 461 851 C471 858 477 867 481 877 C488 898 484 919 468 938 C459 950 447 955 434 955 C430 956 427 956 425 955 C408 953 257 837 232 815 C223 807 218 799 215 790 C214 785 213 781 214 775 L214 775 Z " />
<glyph glyph-name="Ecircumflex" unicode="&#xca;" horiz-adv-x="722" d="M52 292 C56 274 67 261 83 251 C84 208 84 164 84 120 C85 59 88 16 95 -10 C102 -40 131 -55 179 -55 C297 -55 476 -34 578 27 C592 36 605 49 616 69 C626 88 629 105 625 122 C620 141 605 151 578 151 C571 151 561 149 548 147 C441 122 386 109 382 108 C323 95 265 88 209 88 C201 146 196 206 195 268 C289 298 427 324 606 345 C649 350 671 366 672 393 C664 422 622 448 594 454 C585 457 570 457 550 457 C436 457 318 441 195 407 C196 438 199 469 201 498 C259 523 308 537 348 543 C417 551 469 557 503 561 C551 566 571 586 562 619 C555 650 521 687 476 698 C462 700 441 702 412 702 C362 702 317 697 277 687 C263 683 222 671 153 649 C131 642 115 637 107 631 C97 623 90 613 86 601 C84 594 83 581 83 561 C82 475 82 412 82 371 C58 359 44 322 52 292 L52 292 Z M235 732 C251 730 264 735 273 750 L285 766 C307 795 329 828 352 863 C385 839 416 812 444 781 C465 759 473 747 488 747 C497 747 507 753 518 766 C528 779 534 788 533 795 C532 803 529 811 522 818 C514 824 507 831 500 837 C455 880 419 911 392 932 C386 945 369 951 343 948 C317 946 301 941 296 934 C263 883 231 834 201 789 C192 779 188 770 188 766 C190 753 205 740 235 732 L235 732 Z " />
<glyph glyph-name="Edieresis" unicode="&#xcb;" horiz-adv-x="722" d="M52 292 C56 274 67 261 83 251 C84 208 84 164 84 120 C85 59 88 16 95 -10 C102 -40 131 -55 179 -55 C297 -55 476 -34 578 27 C592 36 605 49 616 69 C626 88 629 105 625 122 C620 141 605 151 578 151 C571 151 561 149 548 147 C441 122 386 109 382 108 C323 95 265 88 209 88 C201 146 196 206 195 268 C289 298 427 324 606 345 C649 350 671 366 672 393 C664 422 622 448 594 454 C585 457 570 457 550 457 C436 457 318 441 195 407 C196 438 199 469 201 498 C259 523 308 537 348 543 C417 551 469 557 503 561 C551 566 571 586 562 619 C555 650 521 687 476 698 C462 700 441 702 412 702 C362 702 317 697 277 687 C263 683 222 671 153 649 C131 642 115 637 107 631 C97 623 90 613 86 601 C84 594 83 581 83 561 C82 475 82 412 82 371 C58 359 44 322 52 292 L52 292 Z M409 781 C413 764 426 756 448 756 C471 756 485 764 491 777 C495 786 500 802 505 827 C512 853 515 869 513 875 C509 890 493 898 464 898 C433 898 417 890 415 873 C407 828 406 797 409 781 L409 781 Z M210 759 C214 742 227 734 249 734 C272 734 285 741 291 754 C295 763 300 780 306 805 C312 831 315 847 313 853 C309 867 293 874 264 874 C234 874 217 866 215 850 C208 805 206 774 210 759 L210 759 Z " />
<glyph glyph-name="Igrave" unicode="&#xcc;" horiz-adv-x="577" d="M60 543 C69 506 88 488 116 488 C127 488 157 498 206 520 C204 327 206 180 210 79 C197 78 183 77 166 77 C156 77 121 80 112 80 C71 80 51 62 50 26 C50 17 51 8 53 -1 C59 -22 71 -36 93 -43 C104 -47 123 -48 150 -48 C237 -48 396 -25 469 20 C481 27 493 40 503 58 C514 77 517 92 513 107 C509 122 496 130 473 130 C452 130 428 126 400 118 L331 98 C312 240 311 393 326 555 C387 561 434 564 465 566 C514 570 533 589 525 626 C506 699 423 707 360 707 C252 707 164 687 95 646 C61 628 50 586 60 543 L60 543 Z M166 877 C182 850 235 817 262 801 C278 790 301 776 329 758 C356 740 379 733 397 737 C409 741 416 748 420 762 C424 775 422 787 416 798 C410 808 401 819 387 829 C365 847 334 872 292 905 C250 937 221 955 204 959 C187 960 175 955 166 944 C152 925 152 903 166 877 L166 877 Z " />
<glyph glyph-name="Iacute" unicode="&#xcd;" horiz-adv-x="577" d="M53 -1 C59 -22 71 -36 93 -43 C104 -47 123 -48 150 -48 C237 -48 396 -25 469 20 C481 27 493 40 503 58 C514 77 517 92 513 107 C509 122 496 130 473 130 C452 130 428 126 400 118 L331 98 C312 240 311 393 326 555 C387 561 434 564 465 566 C514 570 533 589 525 626 C506 699 423 707 360 707 C252 707 164 687 95 646 C61 628 50 586 60 543 C69 506 88 488 116 488 C127 488 157 498 206 520 C204 327 206 180 210 79 C197 78 183 77 166 77 C156 77 121 80 112 80 C71 80 51 62 50 26 C50 17 51 8 53 -1 L53 -1 Z M154 777 C156 756 166 742 184 734 C199 728 220 734 244 751 C257 761 284 777 325 802 C357 821 382 839 401 853 C411 860 417 869 421 879 C428 900 424 921 408 940 C399 952 387 957 374 957 C370 958 367 958 365 957 C348 955 197 839 172 817 C163 809 158 801 155 792 C154 787 153 783 154 777 L154 777 Z " />
<glyph glyph-name="Icircumflex" unicode="&#xce;" horiz-adv-x="577" d="M60 543 C69 506 88 488 116 488 C127 488 157 498 206 520 C204 327 206 180 210 79 C197 78 183 77 166 77 C156 77 121 80 112 80 C71 80 51 62 50 26 C50 17 51 8 53 -1 C59 -22 71 -36 93 -43 C104 -47 123 -48 150 -48 C237 -48 396 -25 469 20 C481 27 493 40 503 58 C514 77 517 92 513 107 C509 122 496 130 473 130 C452 130 428 126 400 118 L331 98 C312 240 311 393 326 555 C387 561 434 564 465 566 C514 570 533 589 525 626 C506 699 423 707 360 707 C252 707 164 687 95 646 C61 628 50 586 60 543 L60 543 Z M163 732 C179 730 192 735 201 750 L213 766 C235 795 257 828 280 863 C313 839 344 812 372 781 C393 759 401 747 416 747 C425 747 435 753 446 766 C456 779 462 788 461 795 C460 803 457 811 450 818 C442 824 435 831 428 837 C383 880 347 911 320 932 C314 945 297 951 271 948 C245 946 229 941 224 934 C191 883 159 834 129 789 C120 779 116 770 116 766 C118 753 133 740 163 732 L163 732 Z " />
<glyph glyph-name="Idieresis" unicode="&#xcf;" horiz-adv-x="577" d="M50 26 C50 17 51 8 53 -1 C59 -22 71 -36 93 -43 C104 -47 123 -48 150 -48 C237 -48 396 -25 469 20 C481 27 493 40 503 58 C514 77 517 92 513 107 C509 122 496 130 473 130 C452 130 428 126 400 118 L331 98 C312 240 311 393 326 555 C387 561 434 564 465 566 C514 570 533 589 525 626 C506 699 423 707 360 707 C252 707 164 687 95 646 C61 628 50 586 60 543 C69 506 88 488 116 488 C127 488 157 498 206 520 C204 327 206 180 210 79 C197 78 183 77 166 77 C156 77 121 80 112 80 C71 80 51 62 50 26 L50 26 Z M337 781 C341 764 354 756 376 756 C399 756 413 764 419 777 C423 786 428 802 433 827 C440 853 443 869 441 875 C437 890 421 898 392 898 C361 898 345 890 343 873 C335 828 334 797 337 781 L337 781 Z M138 759 C142 742 155 734 177 734 C200 734 213 741 219 754 C223 763 228 780 234 805 C240 831 243 847 241 853 C237 867 221 874 192 874 C162 874 145 866 143 850 C136 805 134 774 138 759 L138 759 Z " />
<glyph glyph-name="Ntilde" unicode="&#xd1;" horiz-adv-x="736" d="M56 61 L56 15 C56 -6 56 -21 59 -30 C64 -54 80 -66 106 -66 C138 -66 187 -46 187 -9 C181 32 179 54 178 58 C167 149 166 263 176 401 L518 -1 C522 -16 537 -23 564 -23 C611 -23 638 -9 645 17 C647 25 646 43 644 70 C629 233 640 412 679 609 C686 645 688 668 685 679 C680 698 666 708 642 708 C577 708 543 651 541 538 C541 486 540 446 539 420 C533 306 529 240 526 225 L191 624 C180 636 165 641 146 641 C135 641 123 640 111 638 C85 630 67 617 59 599 C54 587 52 564 51 530 C49 429 51 273 56 61 L56 61 Z M169 743 C175 718 186 706 203 706 C207 706 219 714 238 731 C257 748 272 756 283 756 C294 756 320 748 360 731 C400 714 430 705 448 705 C487 705 553 751 555 793 C555 816 542 867 514 867 C514 867 502 857 479 837 C456 817 437 807 423 807 C405 807 377 815 338 832 C299 849 271 857 252 857 C220 857 195 841 173 808 C163 793 163 771 169 743 L169 743 Z " />
<glyph glyph-name="Ograve" unicode="&#xd2;" horiz-adv-x="899" d="M62 204 C103 44 248 -52 409 -52 C577 -52 737 49 810 200 C850 282 859 367 838 456 C799 614 650 713 491 713 C323 713 161 611 88 460 C48 378 40 293 62 204 L62 204 Z M248 484 C299 559 368 596 454 596 C568 596 660 516 686 406 C708 318 694 239 643 165 C593 90 524 53 438 53 C324 53 232 133 206 243 C184 331 198 411 248 484 L248 484 Z M327 878 C343 851 396 818 423 802 C439 791 462 777 490 759 C517 741 540 734 558 738 C570 742 577 749 581 763 C585 776 583 788 577 799 C571 809 562 820 548 830 C526 848 495 873 453 906 C411 938 382 956 365 960 C348 961 336 956 327 945 C313 926 313 904 327 878 L327 878 Z " />
<glyph glyph-name="Oacute" unicode="&#xd3;" horiz-adv-x="899" d="M62 204 C103 44 248 -52 409 -52 C577 -52 737 49 810 200 C850 282 859 367 838 456 C799 614 650 713 491 713 C323 713 161 611 88 460 C48 378 40 293 62 204 L62 204 Z M248 484 C299 559 368 596 454 596 C568 596 660 516 686 406 C708 318 694 239 643 165 C593 90 524 53 438 53 C324 53 232 133 206 243 C184 331 198 411 248 484 L248 484 Z M315 776 C317 755 327 741 345 733 C360 727 381 733 405 750 C418 760 445 776 486 801 C518 820 543 838 562 852 C572 859 578 868 582 878 C589 899 585 920 569 939 C560 951 548 956 535 956 C531 957 528 957 526 956 C509 954 358 838 333 816 C324 808 319 800 316 791 C315 786 314 782 315 776 L315 776 Z " />
<glyph glyph-name="Ocircumflex" unicode="&#xd4;" horiz-adv-x="899" d="M62 204 C103 44 248 -52 409 -52 C577 -52 737 49 810 200 C850 282 859 367 838 456 C799 614 650 713 491 713 C323 713 161 611 88 460 C48 378 40 293 62 204 L62 204 Z M248 484 C299 559 368 596 454 596 C568 596 660 516 686 406 C708 318 694 239 643 165 C593 90 524 53 438 53 C324 53 232 133 206 243 C184 331 198 411 248 484 L248 484 Z M324 732 C340 730 353 735 362 750 L374 766 C396 795 418 828 441 863 C474 839 505 812 533 781 C554 759 562 747 577 747 C586 747 596 753 607 766 C617 779 623 788 622 795 C621 803 618 811 611 818 C603 824 596 831 589 837 C544 880 508 911 481 932 C475 945 458 951 432 948 C406 946 390 941 385 934 C352 883 320 834 290 789 C281 779 277 770 277 766 C279 753 294 740 324 732 L324 732 Z " />
<glyph glyph-name="Otilde" unicode="&#xd5;" horiz-adv-x="899" d="M62 204 C103 44 248 -52 409 -52 C577 -52 737 49 810 200 C850 282 859 367 838 456 C799 614 650 713 491 713 C323 713 161 611 88 460 C48 378 40 293 62 204 L62 204 Z M248 484 C299 559 368 596 454 596 C568 596 660 516 686 406 C708 318 694 239 643 165 C593 90 524 53 438 53 C324 53 232 133 206 243 C184 331 198 411 248 484 L248 484 Z M253 793 C259 768 270 756 287 756 C291 756 303 764 322 781 C341 798 356 806 367 806 C378 806 404 798 444 781 C484 764 514 755 532 755 C571 755 637 801 639 843 C639 866 626 917 598 917 C598 917 586 907 563 887 C540 867 521 857 507 857 C489 857 461 865 422 882 C383 899 355 907 336 907 C304 907 279 891 257 858 C247 843 247 821 253 793 L253 793 Z " />
<glyph glyph-name="Odieresis" unicode="&#xd6;" horiz-adv-x="899" d="M62 204 C103 44 248 -52 409 -52 C577 -52 737 49 810 200 C850 282 859 367 838 456 C799 614 650 713 491 713 C323 713 161 611 88 460 C48 378 40 293 62 204 L62 204 Z M248 484 C299 559 368 596 454 596 C568 596 660 516 686 406 C708 318 694 239 643 165 C593 90 524 53 438 53 C324 53 232 133 206 243 C184 331 198 411 248 484 L248 484 Z M498 781 C502 764 515 756 537 756 C560 756 574 764 580 777 C584 786 589 802 594 827 C601 853 604 869 602 875 C598 890 582 898 553 898 C522 898 506 890 504 873 C496 828 495 797 498 781 L498 781 Z M299 759 C303 742 316 734 338 734 C361 734 374 741 380 754 C384 763 389 780 395 805 C401 831 404 847 402 853 C398 867 382 874 353 874 C323 874 306 866 304 850 C297 805 295 774 299 759 L299 759 Z " />
<glyph glyph-name="Oslash" unicode="&#xd8;" horiz-adv-x="899" d="M62 204 C79 138 112 83 161 39 C151 20 147 5 150 -6 C159 -37 203 -50 232 -50 C249 -50 264 -42 275 -29 C317 -44 362 -52 409 -52 C577 -52 737 49 810 200 C850 282 859 367 838 456 C821 522 788 577 738 620 L749 633 C750 664 740 685 717 697 C704 704 688 708 670 708 C648 708 630 703 616 692 C577 706 535 713 491 713 C323 713 161 611 88 460 C48 378 40 293 62 204 L62 204 Z M336 76 C337 77 337 79 338 80 C417 216 517 357 639 504 C662 476 677 443 686 406 C708 318 694 239 643 165 C593 90 524 53 438 53 C401 53 367 60 336 76 L336 76 Z M248 484 C299 559 368 596 454 596 C482 596 508 592 532 583 C530 581 528 578 527 576 C434 441 339 302 242 158 C226 183 213 212 206 243 C184 331 198 411 248 484 L248 484 Z " />
<glyph glyph-name="Ugrave" unicode="&#xd9;" horiz-adv-x="677" d="M59 49 C59 3 62 -28 121 -28 C205 -28 405 49 485 90 C485 40 486 11 488 5 C493 -17 509 -28 535 -28 C578 -28 617 -7 617 41 C612 75 609 100 607 117 C592 246 594 381 612 522 C616 550 620 571 623 585 C627 614 628 634 625 646 C620 668 602 679 571 679 C515 679 485 648 478 593 C477 563 477 534 477 505 C476 446 477 356 481 237 C424 208 234 123 179 121 C172 141 171 212 173 334 C175 430 182 516 194 593 C199 620 200 639 198 649 C192 669 175 679 146 679 C94 679 64 658 56 616 C52 572 50 536 50 506 C52 312 55 160 59 49 L59 49 Z M180 833 C196 806 249 773 276 757 C292 746 315 732 343 714 C370 696 393 689 411 693 C423 697 430 704 434 718 C438 731 436 743 430 754 C424 764 415 775 401 785 C379 803 348 828 306 861 C264 893 235 911 218 915 C201 916 189 911 180 900 C166 881 166 859 180 833 L180 833 Z " />
<glyph glyph-name="Uacute" unicode="&#xda;" horiz-adv-x="677" d="M50 506 C52 312 55 160 59 49 C59 3 62 -28 121 -28 C205 -28 405 49 485 90 C485 40 486 11 488 5 C493 -17 509 -28 535 -28 C578 -28 617 -7 617 41 C612 75 609 100 607 117 C592 246 594 381 612 522 C616 550 620 571 623 585 C627 614 628 634 625 646 C620 668 602 679 571 679 C515 679 485 648 478 593 C477 563 477 534 477 505 C476 446 477 356 481 237 C424 208 234 123 179 121 C172 141 171 212 173 334 C175 430 182 516 194 593 C199 620 200 639 198 649 C192 669 175 679 146 679 C94 679 64 658 56 616 C52 572 50 536 50 506 L50 506 Z M248 734 C250 713 260 699 278 691 C293 685 314 691 338 708 C351 718 378 734 419 759 C451 778 476 796 495 810 C505 817 511 826 515 836 C522 857 518 878 502 897 C493 909 481 914 468 914 C464 915 461 915 459 914 C442 912 291 796 266 774 C257 766 252 758 249 749 C248 744 247 740 248 734 L248 734 Z " />
<glyph glyph-name="Ucircumflex" unicode="&#xdb;" horiz-adv-x="677" d="M50 506 C52 312 55 160 59 49 C59 3 62 -28 121 -28 C205 -28 405 49 485 90 C485 40 486 11 488 5 C493 -17 509 -28 535 -28 C578 -28 617 -7 617 41 C612 75 609 100 607 117 C592 246 594 381 612 522 C616 550 620 571 623 585 C627 614 628 634 625 646 C620 668 602 679 571 679 C515 679 485 648 478 593 C477 563 477 534 477 505 C476 446 477 356 481 237 C424 208 234 123 179 121 C172 141 171 212 173 334 C175 430 182 516 194 593 C199 620 200 639 198 649 C192 669 175 679 146 679 C94 679 64 658 56 616 C52 572 50 536 50 506 L50 506 Z M213 732 C229 730 242 735 251 750 L263 766 C285 795 307 828 330 863 C363 839 394 812 422 781 C443 759 451 747 466 747 C475 747 485 753 496 766 C506 779 512 788 511 795 C510 803 507 811 500 818 C492 824 485 831 478 837 C433 880 397 911 370 932 C364 945 347 951 321 948 C295 946 279 941 274 934 C241 883 209 834 179 789 C170 779 166 770 166 766 C168 753 183 740 213 732 L213 732 Z " />
<glyph glyph-name="Udieresis" unicode="&#xdc;" horiz-adv-x="677" d="M50 506 C52 312 55 160 59 49 C59 3 62 -28 121 -28 C205 -28 405 49 485 90 C485 40 486 11 488 5 C493 -17 509 -28 535 -28 C578 -28 617 -7 617 41 C612 75 609 100 607 117 C592 246 594 381 612 522 C616 550 620 571 623 585 C627 614 628 634 625 646 C620 668 602 679 571 679 C515 679 485 648 478 593 C477 563 477 534 477 505 C476 446 477 356 481 237 C424 208 234 123 179 121 C172 141 171 212 173 334 C175 430 182 516 194 593 C199 620 200 639 198 649 C192 669 175 679 146 679 C94 679 64 658 56 616 C52 572 50 536 50 506 L50 506 Z M387 781 C391 764 404 756 426 756 C449 756 463 764 469 777 C473 786 478 802 483 827 C490 853 493 869 491 875 C487 890 471 898 442 898 C411 898 395 890 393 873 C385 828 384 797 387 781 L387 781 Z M188 759 C192 742 205 734 227 734 C250 734 263 741 269 754 C273 763 278 780 284 805 C290 831 293 847 291 853 C287 867 271 874 242 874 C212 874 195 866 193 850 C186 805 184 774 188 759 L188 759 Z " />
<glyph glyph-name="germandbls" unicode="&#xdf;" horiz-adv-x="684" d="M55 369 L55 89 C56 -5 60 -66 67 -95 C71 -111 85 -123 108 -130 C125 -135 192 -124 180 -8 L172 71 C161 211 168 423 171 473 C232 532 291 562 347 562 C396 562 480 539 493 484 C500 455 486 422 449 386 C416 353 373 334 283 323 C236 323 217 201 321 210 C350 213 386 205 431 194 C487 180 517 163 522 143 C528 119 501 100 440 89 C403 84 382 85 341 84 C229 80 253 -43 290 -40 C373 -38 422 -31 475 -13 C597 28 648 85 630 160 C615 225 546 274 487 297 C584 361 621 441 597 535 C570 649 463 695 355 695 C242 695 150 643 79 558 C45 520 46 453 55 369 L55 369 Z " />
<glyph glyph-name="agrave" unicode="&#xe0;" horiz-adv-x="728" d="M27 17 C35 -19 66 -62 106 -62 C126 -62 146 -38 166 9 C316 36 441 62 543 86 C555 53 565 31 570 20 C585 -8 602 -22 621 -22 C641 -22 661 -14 679 2 C699 18 707 36 702 55 C700 67 692 83 679 103 C670 119 660 135 651 151 C582 269 514 424 448 615 C438 647 432 665 429 671 C418 690 402 700 381 700 C343 700 318 683 305 649 C260 532 226 446 203 387 C162 287 122 204 80 138 C64 113 51 94 43 82 C27 58 22 36 27 17 L27 17 Z M230 152 C305 335 353 451 375 500 C425 379 463 286 489 219 C410 191 324 169 230 152 L230 152 Z M237 871 C253 844 306 811 333 795 C349 784 372 770 400 752 C427 734 450 727 468 731 C480 735 487 742 491 756 C495 769 493 781 487 792 C481 802 472 813 458 823 C436 841 405 866 363 899 C321 931 292 949 275 953 C258 954 246 949 237 938 C223 919 223 897 237 871 L237 871 Z " />
<glyph glyph-name="aacute" unicode="&#xe1;" horiz-adv-x="728" d="M27 17 C35 -19 66 -62 106 -62 C126 -62 146 -38 166 9 C316 36 441 62 543 86 C555 53 565 31 570 20 C585 -8 602 -22 621 -22 C641 -22 661 -14 679 2 C699 18 707 36 702 55 C700 67 692 83 679 103 C670 119 660 135 651 151 C582 269 514 424 448 615 C438 647 432 665 429 671 C418 690 402 700 381 700 C343 700 318 683 305 649 C260 532 226 446 203 387 C162 287 122 204 80 138 C64 113 51 94 43 82 C27 58 22 36 27 17 L27 17 Z M230 152 C305 335 353 451 375 500 C425 379 463 286 489 219 C410 191 324 169 230 152 L230 152 Z M229 782 C231 761 241 747 259 739 C274 733 295 739 319 756 C332 766 359 782 400 807 C432 826 457 844 476 858 C486 865 492 874 496 884 C503 905 499 926 483 945 C474 957 462 962 449 962 C445 963 442 963 440 962 C423 960 272 844 247 822 C238 814 233 806 230 797 C229 792 228 788 229 782 L229 782 Z " />
<glyph glyph-name="acircumflex" unicode="&#xe2;" horiz-adv-x="728" d="M27 17 C35 -19 66 -62 106 -62 C126 -62 146 -38 166 9 C316 36 441 62 543 86 C555 53 565 31 570 20 C585 -8 602 -22 621 -22 C641 -22 661 -14 679 2 C699 18 707 36 702 55 C700 67 692 83 679 103 C670 119 660 135 651 151 C582 269 514 424 448 615 C438 647 432 665 429 671 C418 690 402 700 381 700 C343 700 318 683 305 649 C260 532 226 446 203 387 C162 287 122 204 80 138 C64 113 51 94 43 82 C27 58 22 36 27 17 L27 17 Z M230 152 C305 335 353 451 375 500 C425 379 463 286 489 219 C410 191 324 169 230 152 L230 152 Z M192 744 C194 731 209 718 239 710 C255 708 268 713 277 728 L289 744 C311 773 333 806 356 841 C389 817 420 790 448 759 C469 737 477 725 492 725 C501 725 511 731 522 744 C532 757 538 766 537 773 C536 781 533 789 526 796 C518 802 511 809 504 815 C459 858 423 889 396 910 C390 923 373 929 347 926 C321 924 305 919 300 912 C267 861 235 812 205 767 C196 757 192 748 192 744 L192 744 Z " />
<glyph glyph-name="atilde" unicode="&#xe3;" horiz-adv-x="728" d="M27 17 C35 -19 66 -62 106 -62 C126 -62 146 -38 166 9 C316 36 441 62 543 86 C555 53 565 31 570 20 C585 -8 602 -22 621 -22 C641 -22 661 -14 679 2 C699 18 707 36 702 55 C700 67 692 83 679 103 C670 119 660 135 651 151 C582 269 514 424 448 615 C438 647 432 665 429 671 C418 690 402 700 381 700 C343 700 318 683 305 649 C260 532 226 446 203 387 C162 287 122 204 80 138 C64 113 51 94 43 82 C27 58 22 36 27 17 L27 17 Z M375 500 C425 379 463 286 489 219 C410 191 324 169 230 152 C305 335 353 451 375 500 L375 500 Z M173 787 C179 762 190 750 207 750 C211 750 223 758 242 775 C261 792 276 800 287 800 C298 800 324 792 364 775 C404 758 434 749 452 749 C491 749 557 795 559 837 C559 860 546 911 518 911 C518 911 506 901 483 881 C460 861 441 851 427 851 C409 851 381 859 342 876 C303 893 275 901 256 901 C224 901 199 885 177 852 C167 837 167 815 173 787 L173 787 Z " />
<glyph glyph-name="adieresis" unicode="&#xe4;" horiz-adv-x="728" d="M27 17 C35 -19 66 -62 106 -62 C126 -62 146 -38 166 9 C316 36 441 62 543 86 C555 53 565 31 570 20 C585 -8 602 -22 621 -22 C641 -22 661 -14 679 2 C699 18 707 36 702 55 C700 67 692 83 679 103 C670 119 660 135 651 151 C582 269 514 424 448 615 C438 647 432 665 429 671 C418 690 402 700 381 700 C343 700 318 683 305 649 C260 532 226 446 203 387 C162 287 122 204 80 138 C64 113 51 94 43 82 C27 58 22 36 27 17 L27 17 Z M230 152 C305 335 353 451 375 500 C425 379 463 286 489 219 C410 191 324 169 230 152 L230 152 Z M412 779 C416 762 429 754 451 754 C474 754 488 762 494 775 C498 784 503 800 508 825 C515 851 518 867 516 873 C512 888 496 896 467 896 C436 896 420 888 418 871 C410 826 409 795 412 779 L412 779 Z M213 757 C217 740 230 732 252 732 C275 732 288 739 294 752 C298 761 303 778 309 803 C315 829 318 845 316 851 C312 865 296 872 267 872 C237 872 220 864 218 848 C211 803 209 772 213 757 L213 757 Z " />
<glyph glyph-name="aring" unicode="&#xe5;" horiz-adv-x="728" d="M27 17 C35 -19 66 -62 106 -62 C126 -62 146 -38 166 9 C316 36 441 62 543 86 C555 53 565 31 570 20 C585 -8 602 -22 621 -22 C641 -22 661 -14 679 2 C699 18 707 36 702 55 C700 67 692 83 679 103 L651 151 C582 269 514 424 448 615 C438 647 432 665 429 671 C429 672 427 675 426 676 C428 677 429 679 431 679 C452 693 467 709 478 731 C489 754 491 778 486 803 C474 848 433 876 387 876 C340 876 293 847 273 804 C262 781 260 757 265 732 C271 709 283 691 302 678 C307 675 311 672 316 670 C312 664 308 656 305 649 C260 532 226 446 203 387 C162 287 122 204 80 138 C64 113 51 94 43 82 C27 58 22 36 27 17 L27 17 Z M230 152 C305 335 353 451 375 500 C425 379 463 286 489 219 C410 191 324 169 230 152 L230 152 Z M337 796 C347 811 360 817 376 817 C397 817 414 803 418 781 C422 765 420 750 411 736 C402 722 389 715 373 715 C351 715 334 729 330 751 C326 767 328 783 337 796 L337 796 Z " />
<glyph glyph-name="ae" unicode="&#xe6;" horiz-adv-x="1189" d="M10 8 C14 -24 57 -43 85 -47 C106 -50 122 -42 137 -25 C171 16 193 46 206 66 C209 65 211 65 214 65 C243 65 315 74 430 91 C459 94 488 97 517 99 C529 101 541 103 551 105 C553 52 556 14 562 -10 C569 -40 598 -55 646 -55 C764 -55 943 -34 1045 27 C1059 36 1072 49 1083 69 C1093 88 1096 105 1092 122 C1087 141 1072 151 1045 151 C1038 151 1028 149 1015 147 C908 122 853 109 849 108 C790 95 732 88 676 88 C668 146 663 206 662 268 C756 298 894 324 1073 345 C1116 350 1138 366 1139 393 C1131 422 1089 448 1061 454 C1052 457 1037 457 1017 457 C903 457 785 441 662 407 C663 438 666 469 668 498 C726 523 775 537 815 543 C884 551 936 557 970 561 C1018 566 1038 586 1029 619 C1022 650 988 687 943 698 C929 700 908 702 879 702 C829 702 784 697 744 687 C730 683 689 671 620 649 C618 648 615 648 613 647 C587 649 565 641 549 626 C506 583 477 552 461 534 C343 404 221 268 97 128 C73 103 57 84 45 72 C20 45 8 23 10 8 L10 8 Z M549 435 L549 371 C525 359 511 322 519 292 C523 274 534 261 550 251 L550 244 C538 240 522 236 504 230 C427 207 391 197 310 192 C381 272 461 353 549 435 L549 435 Z " />
<glyph glyph-name="ccedilla" unicode="&#xe7;" horiz-adv-x="745" d="M59 130 C86 22 165 -40 274 -40 C305 -40 337 -36 370 -28 C369 -81 351 -119 316 -141 C278 -165 260 -182 262 -192 C271 -220 297 -234 325 -234 C345 -234 371 -224 403 -204 C461 -163 495 -63 469 7 C518 29 570 59 625 97 C658 119 675 132 678 136 C694 152 699 174 692 199 C688 219 676 229 659 229 C648 229 621 218 579 195 C516 161 474 139 453 130 C399 107 353 96 315 96 C251 96 181 119 164 189 C148 253 176 325 249 408 C313 479 405 525 522 545 C526 529 528 518 529 514 C538 475 553 455 575 455 C589 455 606 462 627 477 C655 495 665 517 658 544 C649 581 644 605 644 615 C643 642 642 658 640 664 C635 685 613 696 575 696 C300 696 58 499 50 216 C49 188 52 160 59 130 L59 130 Z " />
<glyph glyph-name="egrave" unicode="&#xe8;" horiz-adv-x="723" d="M52 292 C56 274 67 261 83 251 C84 208 84 164 84 120 C85 59 88 16 95 -10 C102 -40 131 -55 179 -55 C297 -55 476 -34 578 27 C592 36 605 49 616 69 C626 88 629 105 625 122 C620 141 605 151 578 151 C571 151 561 149 548 147 C441 122 386 109 382 108 C323 95 265 88 209 88 C201 146 196 206 195 268 C289 298 427 324 606 345 C649 350 671 363 673 383 C673 418 625 447 594 454 C585 457 570 457 550 457 C436 457 318 441 195 407 C196 438 199 469 201 498 C259 523 308 537 348 543 C417 551 469 557 503 561 C551 566 571 586 562 619 C555 650 521 687 476 698 C462 700 441 702 412 702 C362 702 317 697 277 687 C263 683 222 671 153 649 C131 642 115 637 107 631 C97 623 90 613 86 601 C84 594 83 581 83 561 C82 475 82 412 82 371 C58 359 44 322 52 292 L52 292 Z M222 878 C238 851 291 818 318 802 C334 791 357 777 385 759 C412 741 435 734 453 738 C465 742 472 749 476 763 C480 776 478 788 472 799 C466 809 457 820 443 830 C421 848 390 873 348 906 C306 938 277 956 260 960 C243 961 231 956 222 945 C208 926 208 904 222 878 L222 878 Z " />
<glyph glyph-name="eacute" unicode="&#xe9;" horiz-adv-x="723" d="M52 292 C56 274 67 261 83 251 C84 208 84 164 84 120 C85 59 88 16 95 -10 C102 -40 131 -55 179 -55 C297 -55 476 -34 578 27 C592 36 605 49 616 69 C626 88 629 105 625 122 C620 141 605 151 578 151 C571 151 561 149 548 147 C441 122 386 109 382 108 C323 95 265 88 209 88 C201 146 196 206 195 268 C289 298 427 324 606 345 C649 350 671 363 673 383 C673 418 625 447 594 454 C585 457 570 457 550 457 C436 457 318 441 195 407 C196 438 199 469 201 498 C259 523 308 537 348 543 C417 551 469 557 503 561 C551 566 571 586 562 619 C555 650 521 687 476 698 C462 700 441 702 412 702 C362 702 317 697 277 687 C263 683 222 671 153 649 C131 642 115 637 107 631 C97 623 90 613 86 601 C84 594 83 581 83 561 C82 475 82 412 82 371 C58 359 44 322 52 292 L52 292 Z M227 782 C229 761 239 747 257 739 C272 733 293 739 317 756 C330 766 357 782 398 807 C430 826 455 844 474 858 C484 865 490 874 494 884 C501 905 497 926 481 945 C472 957 460 962 447 962 C443 963 440 963 438 962 C421 960 270 844 245 822 C236 814 231 806 228 797 C227 792 226 788 227 782 L227 782 Z " />
<glyph glyph-name="ecircumflex" unicode="&#xea;" horiz-adv-x="723" d="M52 292 C56 274 67 261 83 251 C84 208 84 164 84 120 C85 59 88 16 95 -10 C102 -40 131 -55 179 -55 C297 -55 476 -34 578 27 C592 36 605 49 616 69 C626 88 629 105 625 122 C620 141 605 151 578 151 C571 151 561 149 548 147 C441 122 386 109 382 108 C323 95 265 88 209 88 C201 146 196 206 195 268 C289 298 427 324 606 345 C649 350 671 363 673 383 C673 418 625 447 594 454 C585 457 570 457 550 457 C436 457 318 441 195 407 C196 438 199 469 201 498 C259 523 308 537 348 543 C417 551 469 557 503 561 C551 566 571 586 562 619 C555 650 521 687 476 698 C462 700 441 702 412 702 C362 702 317 697 277 687 C263 683 222 671 153 649 C131 642 115 637 107 631 C97 623 90 613 86 601 C84 594 83 581 83 561 C82 475 82 412 82 371 C58 359 44 322 52 292 L52 292 Z M189 764 C191 751 206 738 236 730 C252 728 265 733 274 748 L286 764 C308 793 330 826 353 861 C386 837 417 810 445 779 C466 757 474 745 489 745 C498 745 508 751 519 764 C529 777 535 786 534 793 C533 801 530 809 523 816 C515 822 508 829 501 835 C456 878 420 909 393 930 C387 943 370 949 344 946 C318 944 302 939 297 932 C264 881 232 832 202 787 C193 777 189 768 189 764 L189 764 Z " />
<glyph glyph-name="edieresis" unicode="&#xeb;" horiz-adv-x="723" d="M52 292 C56 274 67 261 83 251 C84 208 84 164 84 120 C85 59 88 16 95 -10 C102 -40 131 -55 179 -55 C297 -55 476 -34 578 27 C592 36 605 49 616 69 C626 88 629 105 625 122 C620 141 605 151 578 151 C571 151 561 149 548 147 C441 122 386 109 382 108 C323 95 265 88 209 88 C201 146 196 206 195 268 C289 298 427 324 606 345 C649 350 671 363 673 383 C673 418 625 447 594 454 C585 457 570 457 550 457 C436 457 318 441 195 407 C196 438 199 469 201 498 C259 523 308 537 348 543 C417 551 469 557 503 561 C551 566 571 586 562 619 C555 650 521 687 476 698 C462 700 441 702 412 702 C362 702 317 697 277 687 C263 683 222 671 153 649 C131 642 115 637 107 631 C97 623 90 613 86 601 C84 594 83 581 83 561 C82 475 82 412 82 371 C58 359 44 322 52 292 L52 292 Z M410 779 C414 762 427 754 449 754 C472 754 486 762 492 775 C496 784 501 800 506 825 C513 851 516 867 514 873 C510 888 494 896 465 896 C434 896 418 888 416 871 C408 826 407 795 410 779 L410 779 Z M211 757 C215 740 228 732 250 732 C273 732 286 739 292 752 C296 761 301 778 307 803 C313 829 316 845 314 851 C310 865 294 872 265 872 C235 872 218 864 216 848 C209 803 207 772 211 757 L211 757 Z " />
<glyph glyph-name="igrave" unicode="&#xec;" horiz-adv-x="257" d="M64 570 C66 405 66 233 69 52 C69 26 70 11 70 6 C76 -17 92 -28 120 -28 C147 -28 192 -14 198 16 C200 23 198 40 195 66 C175 206 175 359 195 522 C200 551 203 572 205 585 C210 615 211 635 209 648 C203 668 186 678 158 678 C75 678 64 638 64 570 L64 570 Z M6 875 C22 848 75 815 102 799 C118 788 141 774 169 756 C196 738 219 731 237 735 C249 739 256 746 260 760 C264 773 262 785 256 796 C250 806 241 817 227 827 C205 845 174 870 132 903 C90 935 61 953 44 957 C27 958 15 953 6 942 C-8 923 -8 901 6 875 L6 875 Z " />
<glyph glyph-name="iacute" unicode="&#xed;" horiz-adv-x="257" d="M64 570 C66 405 66 233 69 52 C69 26 70 11 70 6 C76 -17 92 -28 120 -28 C147 -28 192 -14 198 16 C200 23 198 40 195 66 C175 206 175 359 195 522 C200 551 203 572 205 585 C210 615 211 635 209 648 C203 668 186 678 158 678 C75 678 64 638 64 570 L64 570 Z M-6 782 C-4 761 6 747 24 739 C39 733 60 739 84 756 C97 766 124 782 165 807 C197 826 222 844 241 858 C251 865 257 874 261 884 C268 905 264 926 248 945 C239 957 227 962 214 962 C210 963 207 963 205 962 C188 960 37 844 12 822 C3 814 -2 806 -5 797 C-6 792 -7 788 -6 782 L-6 782 Z " />
<glyph glyph-name="icircumflex" unicode="&#xee;" horiz-adv-x="257" d="M64 570 C66 405 66 233 69 52 C69 26 70 11 70 6 C76 -17 92 -28 120 -28 C147 -28 192 -14 198 16 C200 23 198 40 195 66 C175 206 175 359 195 522 C200 551 203 572 205 585 C210 615 211 635 209 648 C203 668 186 678 158 678 C75 678 64 638 64 570 L64 570 Z M-44 764 C-42 751 -27 738 3 730 C19 728 32 733 41 748 L53 764 C75 793 97 826 120 861 C153 837 184 810 212 779 C233 757 241 745 256 745 C265 745 275 751 286 764 C296 777 302 786 301 793 C300 801 297 809 290 816 C282 822 275 829 268 835 C223 878 187 909 160 930 C154 943 137 949 111 946 C85 944 69 939 64 932 C31 881 -1 832 -31 787 C-40 777 -44 768 -44 764 L-44 764 Z " />
<glyph glyph-name="idieresis" unicode="&#xef;" horiz-adv-x="257" d="M64 570 C66 405 66 233 69 52 C69 26 70 11 70 6 C76 -17 92 -28 120 -28 C147 -28 192 -14 198 16 C200 23 198 40 195 66 C175 206 175 359 195 522 C200 551 203 572 205 585 C210 615 211 635 209 648 C203 668 186 678 158 678 C75 678 64 638 64 570 L64 570 Z M177 779 C181 762 194 754 216 754 C239 754 253 762 259 775 C263 784 268 800 273 825 C280 851 283 867 281 873 C277 888 261 896 232 896 C201 896 185 888 183 871 C175 826 174 795 177 779 L177 779 Z M-22 757 C-18 740 -5 732 17 732 C40 732 53 739 59 752 C63 761 68 778 74 803 C80 829 83 845 81 851 C77 865 61 872 32 872 C2 872 -15 864 -17 848 C-24 803 -26 772 -22 757 L-22 757 Z " />
<glyph glyph-name="ntilde" unicode="&#xf1;" horiz-adv-x="736" d="M56 61 L56 15 C56 -6 56 -21 59 -30 C64 -54 80 -66 106 -66 C138 -66 187 -46 187 -9 C181 32 179 54 178 58 C167 149 166 263 176 401 L518 -1 C522 -16 537 -23 564 -23 C611 -23 638 -9 645 17 C647 25 646 43 644 70 C629 233 640 412 679 609 C686 645 688 668 685 679 C680 698 666 708 642 708 C577 708 543 651 541 538 C541 486 540 446 539 420 C533 306 529 240 526 225 L191 624 C180 636 165 641 146 641 C135 641 123 640 111 638 C85 630 67 617 59 599 C54 587 52 564 51 530 C49 429 51 273 56 61 L56 61 Z M169 739 C175 714 186 702 203 702 C207 702 219 710 238 727 C257 744 272 752 283 752 C294 752 320 744 360 727 C400 710 430 701 448 701 C487 701 553 747 555 789 C555 812 542 863 514 863 C514 863 502 853 479 833 C456 813 437 803 423 803 C405 803 377 811 338 828 C299 845 271 853 252 853 C220 853 195 837 173 804 C163 789 163 767 169 739 L169 739 Z " />
<glyph glyph-name="ograve" unicode="&#xf2;" horiz-adv-x="899" d="M62 204 C103 44 248 -52 409 -52 C577 -52 737 49 810 200 C850 282 859 367 838 456 C799 614 650 713 491 713 C323 713 161 611 88 460 C48 378 40 293 62 204 L62 204 Z M248 484 C299 559 368 596 454 596 C568 596 660 516 686 406 C708 318 694 239 643 165 C593 90 524 53 438 53 C324 53 232 133 206 243 C184 331 198 411 248 484 L248 484 Z M327 877 C343 850 396 817 423 801 C439 790 462 776 490 758 C517 740 540 733 558 737 C570 741 577 748 581 762 C585 775 583 787 577 798 C571 808 562 819 548 829 C526 847 495 872 453 905 C411 937 382 955 365 959 C348 960 336 955 327 944 C313 925 313 903 327 877 L327 877 Z " />
<glyph glyph-name="oacute" unicode="&#xf3;" horiz-adv-x="899" d="M62 204 C103 44 248 -52 409 -52 C577 -52 737 49 810 200 C850 282 859 367 838 456 C799 614 650 713 491 713 C323 713 161 611 88 460 C48 378 40 293 62 204 L62 204 Z M248 484 C299 559 368 596 454 596 C568 596 660 516 686 406 C708 318 694 239 643 165 C593 90 524 53 438 53 C324 53 232 133 206 243 C184 331 198 411 248 484 L248 484 Z M315 782 C317 761 327 747 345 739 C360 733 381 739 405 756 C418 766 445 782 486 807 C518 826 543 844 562 858 C572 865 578 874 582 884 C589 905 585 926 569 945 C560 957 548 962 535 962 C531 963 528 963 526 962 C509 960 358 844 333 822 C324 814 319 806 316 797 C315 792 314 788 315 782 L315 782 Z " />
<glyph glyph-name="ocircumflex" unicode="&#xf4;" horiz-adv-x="899" d="M62 204 C103 44 248 -52 409 -52 C577 -52 737 49 810 200 C850 282 859 367 838 456 C799 614 650 713 491 713 C323 713 161 611 88 460 C48 378 40 293 62 204 L62 204 Z M248 484 C299 559 368 596 454 596 C568 596 660 516 686 406 C708 318 694 239 643 165 C593 90 524 53 438 53 C324 53 232 133 206 243 C184 331 198 411 248 484 L248 484 Z M324 730 C340 728 353 733 362 748 L374 764 C396 793 418 826 441 861 C474 837 505 810 533 779 C554 757 562 745 577 745 C586 745 596 751 607 764 C617 777 623 786 622 793 C621 801 618 809 611 816 C603 822 596 829 589 835 C544 878 508 909 481 930 C475 943 458 949 432 946 C406 944 390 939 385 932 C352 881 320 832 290 787 C281 777 277 768 277 764 C279 751 294 738 324 730 L324 730 Z " />
<glyph glyph-name="otilde" unicode="&#xf5;" horiz-adv-x="899" d="M62 204 C103 44 248 -52 409 -52 C577 -52 737 49 810 200 C850 282 859 367 838 456 C799 614 650 713 491 713 C323 713 161 611 88 460 C48 378 40 293 62 204 L62 204 Z M248 484 C299 559 368 596 454 596 C568 596 660 516 686 406 C708 318 694 239 643 165 C593 90 524 53 438 53 C324 53 232 133 206 243 C184 331 198 411 248 484 L248 484 Z M263 807 C269 782 280 770 297 770 C301 770 313 778 332 795 C351 812 366 820 377 820 C388 820 414 812 454 795 C494 778 524 769 542 769 C581 769 647 815 649 857 C649 880 636 931 608 931 C608 931 596 921 573 901 C550 881 531 871 517 871 C499 871 471 879 432 896 C393 913 365 921 346 921 C314 921 289 905 267 872 C257 857 257 835 263 807 L263 807 Z " />
<glyph glyph-name="odieresis" unicode="&#xf6;" horiz-adv-x="899" d="M62 204 C103 44 248 -52 409 -52 C577 -52 737 49 810 200 C850 282 859 367 838 456 C799 614 650 713 491 713 C323 713 161 611 88 460 C48 378 40 293 62 204 L62 204 Z M248 484 C299 559 368 596 454 596 C568 596 660 516 686 406 C708 318 694 239 643 165 C593 90 524 53 438 53 C324 53 232 133 206 243 C184 331 198 411 248 484 L248 484 Z M498 779 C502 762 515 754 537 754 C560 754 574 762 580 775 C584 784 589 800 594 825 C601 851 604 867 602 873 C598 888 582 896 553 896 C522 896 506 888 504 871 C496 826 495 795 498 779 L498 779 Z M299 757 C303 740 316 732 338 732 C361 732 374 739 380 752 C384 761 389 778 395 803 C401 829 404 845 402 851 C398 865 382 872 353 872 C323 872 306 864 304 848 C297 803 295 772 299 757 L299 757 Z " />
<glyph glyph-name="oslash" unicode="&#xf8;" horiz-adv-x="894" d="M62 204 C79 138 112 83 161 39 C151 20 147 5 150 -6 C159 -37 203 -50 232 -50 C249 -50 264 -42 275 -29 C317 -44 362 -52 409 -52 C577 -52 737 49 810 200 C850 282 859 367 838 456 C821 522 788 577 738 620 L749 633 C750 664 740 685 717 697 C704 704 688 708 670 708 C648 708 630 703 616 692 C577 706 535 713 491 713 C323 713 161 611 88 460 C48 378 40 293 62 204 L62 204 Z M336 76 C337 77 337 79 338 80 C417 216 517 357 639 504 C662 476 677 443 686 406 C708 318 694 239 643 165 C593 90 524 53 438 53 C401 53 367 60 336 76 L336 76 Z M248 484 C299 559 368 596 454 596 C482 596 508 592 532 583 C530 581 528 578 527 576 C434 441 339 302 242 158 C226 183 213 212 206 243 C184 331 198 411 248 484 L248 484 Z " />
<glyph glyph-name="ugrave" unicode="&#xf9;" horiz-adv-x="677" d="M59 49 C59 3 62 -28 121 -28 C205 -28 405 49 485 90 C485 40 486 11 488 5 C493 -17 509 -28 535 -28 C578 -28 617 -7 617 41 C612 75 609 100 607 117 C592 246 594 381 612 522 C616 550 620 571 623 585 C627 614 628 634 625 646 C620 668 602 679 571 679 C515 679 485 648 478 593 C477 563 477 534 477 505 C476 446 477 356 481 237 C424 208 234 123 179 121 C172 141 171 212 173 334 C175 430 182 516 194 593 C199 620 200 639 198 649 C192 669 175 679 146 679 C94 679 64 658 56 616 C52 572 50 536 50 506 C52 312 55 160 59 49 L59 49 Z M185 824 C201 797 254 764 281 748 C297 737 320 723 348 705 C375 687 398 680 416 684 C428 688 435 695 439 709 C443 722 441 734 435 745 C429 755 420 766 406 776 C384 794 353 819 311 852 C269 884 240 902 223 906 C206 907 194 902 185 891 C171 872 171 850 185 824 L185 824 Z " />
<glyph glyph-name="uacute" unicode="&#xfa;" horiz-adv-x="677" d="M50 506 C52 312 55 160 59 49 C59 3 62 -28 121 -28 C205 -28 405 49 485 90 C485 40 486 11 488 5 C493 -17 509 -28 535 -28 C578 -28 617 -7 617 41 C612 75 609 100 607 117 C592 246 594 381 612 522 C616 550 620 571 623 585 C627 614 628 634 625 646 C620 668 602 679 571 679 C515 679 485 648 478 593 C477 563 477 534 477 505 C476 446 477 356 481 237 C424 208 234 123 179 121 C172 141 171 212 173 334 C175 430 182 516 194 593 C199 620 200 639 198 649 C192 669 175 679 146 679 C94 679 64 658 56 616 C52 572 50 536 50 506 L50 506 Z M264 724 C266 703 276 689 294 681 C309 675 330 681 354 698 C367 708 394 724 435 749 C467 768 492 786 511 800 C521 807 527 816 531 826 C538 847 534 868 518 887 C509 899 497 904 484 904 C480 905 477 905 475 904 C458 902 307 786 282 764 C273 756 268 748 265 739 C264 734 263 730 264 724 L264 724 Z " />
<glyph glyph-name="ucircumflex" unicode="&#xfb;" horiz-adv-x="677" d="M50 506 C52 312 55 160 59 49 C59 3 62 -28 121 -28 C205 -28 405 49 485 90 C485 40 486 11 488 5 C493 -17 509 -28 535 -28 C578 -28 617 -7 617 41 C612 75 609 100 607 117 C592 246 594 381 612 522 C616 550 620 571 623 585 C627 614 628 634 625 646 C620 668 602 679 571 679 C515 679 485 648 478 593 C477 563 477 534 477 505 C476 446 477 356 481 237 C424 208 234 123 179 121 C172 141 171 212 173 334 C175 430 182 516 194 593 C199 620 200 639 198 649 C192 669 175 679 146 679 C94 679 64 658 56 616 C52 572 50 536 50 506 L50 506 Z M213 730 C229 728 242 733 251 748 L263 764 C285 793 307 826 330 861 C363 837 394 810 422 779 C443 757 451 745 466 745 C475 745 485 751 496 764 C506 777 512 786 511 793 C510 801 507 809 500 816 C492 822 485 829 478 835 C433 878 397 909 370 930 C364 943 347 949 321 946 C295 944 279 939 274 932 C241 881 209 832 179 787 C170 777 166 768 166 764 C168 751 183 738 213 730 L213 730 Z " />
<glyph glyph-name="udieresis" unicode="&#xfc;" horiz-adv-x="677" d="M50 506 C52 312 55 160 59 49 C59 3 62 -28 121 -28 C205 -28 405 49 485 90 C485 40 486 11 488 5 C493 -17 509 -28 535 -28 C578 -28 617 -7 617 41 C612 75 609 100 607 117 C592 246 594 381 612 522 C616 550 620 571 623 585 C627 614 628 634 625 646 C620 668 602 679 571 679 C515 679 485 648 478 593 C477 563 477 534 477 505 C476 446 477 356 481 237 C424 208 234 123 179 121 C172 141 171 212 173 334 C175 430 182 516 194 593 C199 620 200 639 198 649 C192 669 175 679 146 679 C94 679 64 658 56 616 C52 572 50 536 50 506 L50 506 Z M387 779 C391 762 404 754 426 754 C449 754 463 762 469 775 C473 784 478 800 483 825 C490 851 493 867 491 873 C487 888 471 896 442 896 C411 896 395 888 393 871 C385 826 384 795 387 779 L387 779 Z M188 757 C192 740 205 732 227 732 C250 732 263 739 269 752 C273 761 278 778 284 803 C290 829 293 845 291 851 C287 865 271 872 242 872 C212 872 195 864 193 848 C186 803 184 772 188 757 L188 757 Z " />
<glyph glyph-name="ydieresis" unicode="&#xff;" horiz-adv-x="695" d="M27 584 C34 555 79 495 97 472 C117 445 137 418 158 391 L265 246 L140 6 C144 -10 155 -24 171 -32 C185 -40 200 -44 219 -44 C244 -44 264 -28 281 2 C296 36 308 61 315 78 C384 223 489 385 629 566 C657 600 670 626 670 644 C661 679 619 700 585 700 C559 700 539 690 525 671 C494 624 474 591 463 573 C389 453 344 378 326 349 C262 434 205 518 155 603 L118 664 C106 678 95 685 84 685 C66 685 51 673 38 649 C26 624 22 602 27 584 L27 584 Z M396 779 C400 762 413 754 435 754 C458 754 472 762 478 775 C482 784 487 800 492 825 C499 851 502 867 500 873 C496 888 480 896 451 896 C420 896 404 888 402 871 C394 826 393 795 396 779 L396 779 Z M197 757 C201 740 214 732 236 732 C259 732 272 739 278 752 C282 761 287 778 293 803 C299 829 302 845 300 851 C296 865 280 872 251 872 C221 872 204 864 202 848 C195 803 193 772 197 757 L197 757 Z " />
<glyph glyph-name="dotlessi" unicode="&#x131;" horiz-adv-x="257" d="M64 570 C66 405 66 233 69 52 C69 26 70 11 70 6 C76 -17 92 -28 120 -28 C147 -28 192 -14 198 16 C200 23 198 40 195 66 C175 206 175 359 195 522 C200 551 203 572 205 585 C210 615 211 635 209 648 C203 668 186 678 158 678 C75 678 64 638 64 570 L64 570 Z " />
<glyph glyph-name="OE" unicode="&#x152;" horiz-adv-x="1381" d="M62 204 C103 44 248 -52 409 -52 C536 -52 659 6 743 100 C745 50 748 13 754 -10 C761 -40 790 -55 838 -55 C956 -55 1135 -34 1237 27 C1251 36 1264 49 1275 69 C1285 88 1288 105 1284 122 C1279 141 1264 151 1237 151 C1230 151 1220 149 1207 147 C1100 122 1045 109 1041 108 C982 95 924 88 868 88 C860 146 855 206 854 268 C948 298 1086 324 1265 345 C1308 350 1330 366 1331 393 C1323 422 1281 448 1253 454 C1244 457 1229 457 1209 457 C1095 457 977 441 854 407 C855 438 858 469 860 498 C918 523 967 537 1007 543 C1076 551 1128 557 1162 561 C1210 566 1230 586 1221 619 C1214 650 1180 687 1135 698 C1121 700 1100 702 1071 702 C1021 702 976 697 936 687 C922 683 881 671 812 649 C790 642 774 637 766 631 C759 625 753 618 749 611 C678 677 588 713 491 713 C323 713 161 611 88 460 C48 378 40 293 62 204 L62 204 Z M248 484 C299 559 368 596 454 596 C568 596 660 516 686 406 C708 318 694 239 643 165 C593 90 524 53 438 53 C324 53 232 133 206 243 C184 331 198 411 248 484 L248 484 Z " />
<glyph glyph-name="oe" unicode="&#x153;" horiz-adv-x="1381" d="M62 204 C103 44 248 -52 409 -52 C536 -52 659 6 743 100 C745 50 748 13 754 -10 C761 -40 790 -55 838 -55 C956 -55 1135 -34 1237 27 C1251 36 1264 49 1275 69 C1285 88 1288 105 1284 122 C1279 141 1264 151 1237 151 C1230 151 1220 149 1207 147 C1100 122 1045 109 1041 108 C982 95 924 88 868 88 C860 146 855 206 854 268 C948 298 1086 324 1265 345 C1308 350 1330 366 1331 393 C1323 422 1281 448 1253 454 C1244 457 1229 457 1209 457 C1095 457 977 441 854 407 C855 438 858 469 860 498 C918 523 967 537 1007 543 C1076 551 1128 557 1162 561 C1210 566 1230 586 1221 619 C1214 650 1180 687 1135 698 C1121 700 1100 702 1071 702 C1021 702 976 697 936 687 C922 683 881 671 812 649 C790 642 774 637 766 631 C759 625 753 618 749 611 C678 677 588 713 491 713 C323 713 161 611 88 460 C48 378 40 293 62 204 L62 204 Z M248 484 C299 559 368 596 454 596 C568 596 660 516 686 406 C708 318 694 239 643 165 C593 90 524 53 438 53 C324 53 232 133 206 243 C184 331 198 411 248 484 L248 484 Z " />
<glyph glyph-name="Ydieresis" unicode="&#x178;" horiz-adv-x="695" d="M27 584 C34 555 79 495 97 472 C117 445 137 418 158 391 L265 246 L140 6 C144 -10 155 -24 171 -32 C185 -40 200 -44 219 -44 C244 -44 264 -28 281 2 C296 36 308 61 315 78 C384 223 489 385 629 566 C657 600 670 626 670 644 C661 679 619 700 585 700 C559 700 539 690 525 671 C494 624 474 591 463 573 C389 453 344 378 326 349 C262 434 205 518 155 603 L118 664 C106 678 95 685 84 685 C66 685 51 673 38 649 C26 624 22 602 27 584 L27 584 Z M396 781 C400 764 413 756 435 756 C458 756 472 764 478 777 C482 786 487 802 492 827 C499 853 502 869 500 875 C496 890 480 898 451 898 C420 898 404 890 402 873 C394 828 393 797 396 781 L396 781 Z M197 759 C201 742 214 734 236 734 C259 734 272 741 278 754 C282 763 287 780 293 805 C299 831 302 847 300 853 C296 867 280 874 251 874 C221 874 204 866 202 850 C195 805 193 774 197 759 L197 759 Z " />
<glyph glyph-name="circumflex" unicode="&#x2c6;" horiz-adv-x="445" d="M50 764 C52 751 67 738 97 730 C113 728 126 733 135 748 L147 764 C169 793 191 826 214 861 C247 837 278 810 306 779 C327 757 335 745 350 745 C359 745 369 751 380 764 C390 777 396 786 395 793 C394 801 391 809 384 816 C376 822 369 829 362 835 C317 878 281 909 254 930 C248 943 231 949 205 946 C179 944 163 939 158 932 C125 881 93 832 63 787 C54 777 50 768 50 764 L50 764 Z " />
<glyph glyph-name="caron" unicode="&#x2c7;" horiz-adv-x="445" d="M51 884 C52 876 55 868 62 861 C70 855 77 848 84 842 C129 799 165 768 192 747 C198 734 215 728 241 731 C267 733 283 738 288 745 C321 796 353 845 383 890 C392 900 396 909 396 913 C394 926 379 939 349 947 C333 949 320 944 311 929 L299 913 C277 884 255 851 232 816 C199 840 168 867 140 898 C119 920 111 932 96 932 C87 932 77 926 66 913 C56 900 50 891 51 884 L51 884 Z " />
<glyph glyph-name="ring" unicode="&#x2da;" horiz-adv-x="327" d="M53 805 C65 759 105 732 152 732 C200 732 244 762 266 804 C277 827 279 852 274 877 C262 921 220 950 175 950 C128 950 81 920 61 878 C50 855 48 830 53 805 L53 805 Z M125 869 C135 883 148 890 164 890 C185 890 202 876 206 855 C210 838 208 823 199 810 C190 796 177 788 161 788 C139 788 122 803 118 824 C114 841 116 856 125 869 L125 869 Z " />
<glyph glyph-name="tilde" unicode="&#x2dc;" horiz-adv-x="491" d="M55 787 C61 762 72 750 89 750 C93 750 105 758 124 775 C143 792 158 800 169 800 C180 800 206 792 246 775 C286 758 316 749 334 749 C373 749 439 795 441 837 C441 860 428 911 400 911 C400 911 388 901 365 881 C342 861 323 851 309 851 C291 851 263 859 224 876 C185 893 157 901 138 901 C106 901 81 885 59 852 C49 837 49 815 55 787 L55 787 Z " />
<glyph glyph-name="endash" unicode="&#x2013;" horiz-adv-x="1182" d="M626 280 C636 246 664 217 698 217 C727 217 799 226 914 243 C943 246 972 249 1001 251 C1045 257 1076 265 1098 277 C1127 292 1137 313 1130 340 C1123 368 1103 404 1070 404 C1063 404 1036 397 988 382 C939 367 907 357 892 355 C839 346 781 341 717 341 C679 341 656 340 647 337 C626 329 619 310 626 280 L626 280 Z M53 280 C63 246 91 217 125 217 C154 217 226 226 341 243 C370 246 399 249 428 251 C472 257 503 265 525 277 C554 292 564 313 557 340 C550 368 530 404 497 404 C490 404 463 397 415 382 C366 367 334 357 319 355 C266 346 208 341 144 341 C106 341 83 340 74 337 C53 329 46 310 53 280 L53 280 Z " />
<glyph glyph-name="emdash" unicode="&#x2014;" horiz-adv-x="1182" d="M626 280 C636 246 664 217 698 217 C727 217 799 226 914 243 C943 246 972 249 1001 251 C1045 257 1076 265 1098 277 C1127 292 1137 313 1130 340 C1123 368 1103 404 1070 404 C1063 404 1036 397 988 382 C939 367 907 357 892 355 C839 346 781 341 717 341 C679 341 656 340 647 337 C626 329 619 310 626 280 L626 280 Z M53 280 C63 246 91 217 125 217 C154 217 226 226 341 243 C370 246 399 249 428 251 C472 257 503 265 525 277 C554 292 564 313 557 340 C550 368 530 404 497 404 C490 404 463 397 415 382 C366 367 334 357 319 355 C266 346 208 341 144 341 C106 341 83 340 74 337 C53 329 46 310 53 280 L53 280 Z " />
<glyph glyph-name="quoteleft" unicode="&#x2018;" horiz-adv-x="317" d="M51 695 C63 651 134 502 161 465 C174 443 191 433 211 433 C248 433 274 459 265 495 C262 508 252 532 237 570 C220 612 209 639 204 649 C192 681 184 702 180 714 C168 739 148 751 120 751 C103 751 86 747 71 736 C54 724 47 710 51 695 L51 695 Z " />
<glyph glyph-name="quoteright" unicode="&#x2019;" horiz-adv-x="323" d="M51 476 C58 448 86 433 113 433 C133 433 156 453 180 494 C194 522 208 551 223 578 C257 645 274 687 273 704 C269 719 259 731 244 739 C231 747 217 751 202 751 C176 751 157 740 146 719 C135 698 121 667 105 625 C87 581 74 549 64 530 C52 506 48 487 51 476 L51 476 Z " />
<glyph glyph-name="quotesinglbase" unicode="&#x201a;" horiz-adv-x="324" d="M74 -129 C87 -137 101 -141 114 -141 C133 -141 155 -120 180 -79 C195 -51 209 -23 223 6 C259 73 276 114 274 129 C266 160 232 177 201 177 C176 177 154 161 137 130 C134 125 123 98 104 51 C84 3 71 -28 63 -44 C41 -91 49 -113 74 -129 L74 -129 Z " />
<glyph glyph-name="quotedblleft" unicode="&#x201c;" horiz-adv-x="514" d="M247 702 C257 655 329 517 356 471 C371 450 388 438 408 438 C444 438 471 465 462 500 C459 512 450 536 433 575 C415 617 404 644 400 655 C386 691 378 713 376 720 C364 745 344 758 315 758 C299 758 282 752 267 742 C250 731 243 717 247 702 L247 702 Z M51 649 C61 604 132 461 159 419 C173 397 190 387 210 387 C246 387 273 412 264 447 C261 461 251 487 235 523 C216 572 205 599 203 603 C190 638 181 660 179 668 C168 694 149 706 119 706 C103 706 86 701 71 690 C53 679 47 666 51 649 L51 649 Z " />
<glyph glyph-name="quotedblright" unicode="&#x201d;" horiz-adv-x="535" d="M51 480 C57 454 85 438 112 438 C130 438 145 448 157 466 C177 495 273 677 275 700 C265 743 233 757 202 757 C176 757 153 742 136 711 C134 707 123 681 104 631 C87 588 74 555 63 536 C52 511 48 493 51 480 L51 480 Z M262 453 C268 426 298 410 324 410 C344 410 367 431 391 471 C406 499 420 528 434 556 C469 623 486 664 485 681 C478 710 444 728 413 728 C387 728 365 713 348 682 C345 678 334 651 316 602 C305 577 294 552 284 528 C267 487 259 461 262 453 L262 453 Z " />
<glyph glyph-name="quotedblbase" unicode="&#x201e;" horiz-adv-x="553" d="M303 -129 C316 -137 330 -141 343 -141 C362 -141 384 -120 409 -79 C424 -51 438 -23 452 6 C488 73 505 114 503 129 C495 160 461 177 430 177 C405 177 383 161 366 130 C363 125 352 98 333 51 C313 3 300 -28 292 -44 C270 -91 278 -113 303 -129 L303 -129 Z M74 -129 C87 -137 101 -141 114 -141 C133 -141 155 -120 180 -79 C195 -51 209 -23 223 6 C259 73 276 114 274 129 C266 160 232 177 201 177 C176 177 154 161 137 130 C134 125 123 98 104 51 C84 3 71 -28 63 -44 C41 -91 49 -113 74 -129 L74 -129 Z " />
<glyph glyph-name="bullet" unicode="&#x2022;" horiz-adv-x="324" d="M53 320 C65 274 105 248 151 248 C197 248 244 277 263 319 C274 342 277 366 271 391 C259 436 219 463 173 463 C126 463 81 434 60 392 C49 369 47 345 53 320 L53 320 Z " />
<glyph glyph-name="ellipsis" unicode="&#x2026;" horiz-adv-x="795" d="M329 22 C334 0 352 -11 381 -11 C410 -11 429 -2 438 17 C442 28 448 50 456 82 C465 118 468 140 466 147 C461 167 439 176 402 176 C362 176 340 166 336 145 C326 84 323 43 329 22 L329 22 Z M52 21 C58 -1 76 -12 105 -12 C135 -12 154 -2 162 17 C166 25 172 47 180 81 C188 118 191 139 190 146 C185 166 164 175 127 175 C86 175 64 164 60 143 C50 83 47 43 52 21 L52 21 Z M607 23 C612 2 629 -9 658 -9 C688 -9 706 -1 715 17 C719 27 725 48 733 82 C742 119 746 141 744 148 C739 167 718 177 679 177 C639 177 617 167 614 145 C604 85 601 43 607 23 L607 23 Z " />
<glyph glyph-name="guilsinglleft" unicode="&#x2039;" horiz-adv-x="339" d="M50 328 C51 299 56 280 64 274 C120 235 173 196 222 159 C233 149 242 143 248 143 C263 144 277 161 288 194 C291 212 287 227 270 238 L253 252 C220 279 185 305 147 333 C175 369 208 402 245 433 C271 454 284 463 285 480 C285 501 255 533 234 533 C224 532 215 530 207 523 C200 514 191 506 184 499 C133 450 96 412 71 382 C57 376 48 357 50 328 L50 328 Z " />
<glyph glyph-name="guilsinglright" unicode="&#x203a;" horiz-adv-x="339" d="M51 194 C62 161 76 144 91 143 C97 143 106 149 117 159 C166 196 219 235 275 274 C283 280 288 299 289 328 C291 357 282 376 268 382 C243 412 206 450 155 499 C148 506 139 514 132 523 C124 530 115 532 105 533 C84 533 54 501 54 480 C55 463 68 454 94 433 C131 402 164 369 192 333 C154 305 119 279 86 252 L69 238 C52 227 48 212 51 194 L51 194 Z " />
<glyph glyph-name="Euro" unicode="&#x20ac;" horiz-adv-x="810" d="M28 356 C37 330 66 312 100 312 C107 312 116 312 127 313 C122 291 119 268 117 245 L105 245 C52 245 31 232 40 203 C50 179 79 158 113 158 L119 158 C132 40 220 -40 339 -40 C441 -40 558 6 690 97 C723 119 740 132 743 136 C759 152 764 174 757 199 C753 219 741 229 724 229 C713 229 686 218 644 195 C581 161 539 139 518 130 C464 107 418 96 380 96 C326 96 261 113 237 167 C264 169 294 173 328 177 C356 179 385 181 414 182 C457 186 490 192 513 200 C542 211 554 225 547 243 C538 267 512 289 486 289 C479 289 451 284 403 274 C351 263 319 256 306 255 C283 252 257 250 226 248 C230 272 239 297 253 323 C303 328 352 333 402 336 C445 340 479 346 499 353 C529 363 540 379 533 398 C524 423 498 443 471 443 C467 443 440 437 389 426 C366 421 342 416 318 413 C382 481 473 525 587 545 C591 529 593 518 594 514 C603 475 618 455 640 455 C654 455 671 462 692 477 C720 495 730 517 723 544 C714 581 709 605 709 615 C708 642 707 658 705 664 C700 685 678 696 640 696 C498 696 377 650 275 559 C222 511 182 457 156 398 L122 398 C85 398 62 397 51 394 C28 389 21 375 28 356 L28 356 Z " />
<glyph glyph-name="trademark" unicode="&#x2122;" horiz-adv-x="860" d="M293 335 C297 313 319 280 343 280 C352 280 360 284 367 293 C379 322 388 341 393 352 C422 423 443 472 454 500 C472 442 485 401 495 378 C520 316 543 285 563 285 C580 285 601 320 627 390 C637 415 651 461 671 526 L700 419 C717 363 727 332 733 325 C740 315 748 310 758 310 C772 310 785 317 797 330 C808 343 812 356 809 371 C804 389 796 412 784 442 C769 480 759 503 755 514 C743 552 732 591 725 630 C721 651 717 666 714 676 C706 713 692 732 674 732 C655 732 643 721 635 701 C591 554 566 471 559 452 C525 531 500 600 485 660 C478 679 468 687 453 687 C434 687 421 676 414 655 C387 565 353 480 312 398 C308 388 302 378 296 369 C291 356 290 344 293 335 L293 335 Z M52 616 C58 595 73 585 97 585 L155 603 C154 513 153 460 153 444 C152 370 155 319 162 293 C166 277 177 269 196 269 C221 269 244 284 247 307 C246 329 244 346 241 357 C229 442 229 531 238 622 C278 625 300 627 304 628 C334 634 348 645 344 661 C340 678 325 692 300 702 C278 709 259 713 240 713 C190 713 149 708 115 698 C63 681 43 654 52 616 L52 616 Z " />
<glyph glyph-name="uniF8FF" unicode="&#xf8ff;" horiz-adv-x="679" d="" />
</font>
</svg>
