<?xml version="1.0" encoding="UTF-8"?>
<svg xmlns="http://www.w3.org/2000/svg" xmlns:xlink="http://www.w3.org/1999/xlink" version="1.2" >
<font id="Anime Ace 3 BB Italic">
<font-face  font-family="Anime Ace 3 BB" units-per-em="1000" ascent="966" descent="-234" font-style="italic" font-weight="400" font-stretch="normal" slope="-14" cap-height="666" x-height="672" underline-position="-100" underline-thickness="50" />
<missing-glyph  horiz-adv-x="521" d="M-34 0 L386 0 L560 700 L140 700 L-34 0 Z M318 55 L60 55 L250 298 L318 55 Z M51 123 L168 590 L233 356 L51 123 Z M478 590 L361 123 L295 356 L478 590 Z M279 414 L214 645 L460 645 L279 414 Z " />
<glyph glyph-name="NULL" d="" />
<glyph glyph-name="CR" unicode="&#xd;" horiz-adv-x="250" d="" />
<glyph glyph-name="space" unicode="&#x20;" horiz-adv-x="380" d="" />
<glyph glyph-name="uni0000" d="" />
<glyph glyph-name="uni000D" horiz-adv-x="250" d="" />
<glyph glyph-name="exclam" unicode="&#x21;" horiz-adv-x="374" d="M94 210 C113 210 126 217 134 231 C139 245 144 259 149 274 C164 316 191 364 229 419 C261 465 296 511 328 557 L405 665 C408 677 399 685 380 690 C365 693 352 694 339 694 C305 694 282 686 269 670 C244 639 212 580 173 492 C145 429 117 365 91 302 C89 300 84 289 72 268 C66 254 61 243 59 234 C55 218 67 210 94 210 L94 210 Z M-2 -9 C20 -9 36 -3 45 9 C59 33 89 94 96 119 C98 128 85 132 56 132 C23 132 4 125 -2 112 C-11 90 -21 57 -32 14 C-36 -1 -26 -9 -2 -9 L-2 -9 Z " />
<glyph glyph-name="quotedbl" unicode="&#x22;" horiz-adv-x="358" d="M112 431 C137 431 155 443 165 467 C185 515 208 590 234 693 C239 714 228 724 203 724 C175 724 141 706 134 679 C130 662 124 636 119 602 C112 568 107 542 103 525 C100 514 92 489 89 478 C81 447 89 431 112 431 L112 431 Z M283 444 C306 444 322 457 333 482 C352 528 373 603 400 708 C405 729 395 739 370 739 C344 739 308 722 302 694 C298 677 293 653 286 620 C278 582 269 544 259 506 C249 465 257 444 283 444 L283 444 Z " />
<glyph glyph-name="numbersign" unicode="&#x23;" horiz-adv-x="613" d="M31 185 C39 171 51 164 66 164 C70 164 82 165 102 167 C86 112 74 68 66 36 C60 14 69 3 93 3 C118 3 158 18 164 45 C163 42 165 55 169 83 C174 114 180 146 187 177 C254 184 308 191 352 198 C345 171 339 145 332 118 C324 82 320 57 320 43 C320 31 329 25 345 25 C367 25 411 39 418 63 C422 82 431 132 439 211 C484 217 511 221 519 224 C530 229 537 236 539 246 C542 259 541 273 535 289 C528 305 519 313 506 313 C503 313 487 309 458 302 L464 326 C471 355 477 379 483 397 C531 404 559 408 565 410 C575 414 582 422 585 433 C588 446 587 461 579 476 C572 491 563 499 551 499 C547 499 533 496 510 489 C514 503 522 527 536 562 C548 593 556 618 560 636 C564 651 557 658 538 658 C477 658 452 637 437 577 C431 555 422 517 409 464 C368 455 319 448 265 445 C270 462 282 494 303 543 C320 584 331 616 338 641 C341 654 333 660 314 660 C273 660 248 645 237 614 C212 537 194 479 184 441 L97 438 C81 436 72 428 69 415 C60 379 83 350 119 350 C128 350 140 352 157 355 C147 320 136 287 127 254 C76 253 51 252 51 252 C35 250 26 242 22 227 C19 212 21 198 31 185 L31 185 Z M237 363 C305 371 357 377 391 382 C381 337 373 302 368 279 C320 268 266 261 207 258 C217 297 226 332 237 363 L237 363 Z " />
<glyph glyph-name="dollar" unicode="&#x24;" horiz-adv-x="652" d="M16 50 C38 10 71 -10 116 -10 C137 -10 166 -6 205 3 C200 -18 198 -32 197 -37 C198 -51 206 -58 222 -58 C248 -58 292 -37 298 -9 C299 -6 301 10 304 37 C430 92 524 176 584 288 C590 299 595 310 597 320 C606 356 603 377 587 382 C562 392 529 399 488 404 C453 407 417 409 383 412 C396 461 411 511 427 562 L464 562 C465 538 465 526 465 525 C468 507 473 498 482 498 C505 498 551 527 557 550 C559 560 561 575 561 595 C561 614 562 629 565 639 C569 654 567 664 559 669 C554 672 545 674 530 674 C515 674 491 672 460 668 C472 705 479 725 480 729 C485 748 477 758 456 758 C405 758 370 723 357 672 C356 669 355 663 354 655 C352 648 351 642 350 638 C265 604 84 481 62 390 C59 379 58 369 57 359 C56 336 72 322 102 319 C178 314 234 310 271 308 C253 227 237 153 222 84 L210 84 C155 84 113 101 75 141 C62 155 55 162 54 162 C35 162 9 116 4 100 C1 87 5 71 16 50 L16 50 Z M355 299 C402 292 426 288 427 288 C458 279 472 265 467 246 C452 184 370 124 313 103 C327 178 341 244 355 299 L355 299 Z M182 426 C191 461 290 521 324 537 C321 524 316 504 310 477 C304 451 299 431 295 417 C283 417 250 416 237 416 C198 416 180 419 182 426 L182 426 Z " />
<glyph glyph-name="percent" unicode="&#x25;" horiz-adv-x="743" d="M56 6 C66 1 76 -2 88 -2 C111 -2 135 12 159 41 L213 113 C326 252 476 407 659 577 C695 610 714 630 716 638 C719 650 714 660 702 668 C693 674 680 677 665 677 C642 677 622 669 604 653 C563 612 533 581 514 559 C405 442 278 301 132 138 C116 121 99 103 83 85 C58 59 45 42 43 33 C40 22 45 13 56 6 L56 6 Z M360 54 C380 28 409 16 447 16 C535 16 629 88 651 173 C660 210 655 241 634 267 C614 292 586 305 549 305 C461 305 366 233 344 147 C335 110 340 79 360 54 L360 54 Z M107 411 C127 385 156 373 194 373 C282 373 376 445 398 530 C407 567 402 598 381 624 C361 649 333 662 296 662 C208 662 113 590 91 504 C82 467 87 436 107 411 L107 411 Z M426 158 C435 195 472 234 513 234 C534 234 548 226 558 211 C568 195 570 178 565 158 C556 121 517 82 477 82 C457 82 443 90 433 106 C424 121 421 138 426 158 L426 158 Z M173 515 C182 552 219 591 260 591 C281 591 295 583 305 568 C315 552 317 535 312 515 C303 478 264 439 224 439 C204 439 190 447 180 463 C171 478 168 495 173 515 L173 515 Z " />
<glyph glyph-name="ampersand" unicode="&#x26;" horiz-adv-x="625" d="M66 29 C110 2 163 -12 226 -12 C284 -12 347 2 412 29 C396 -14 386 -41 384 -50 C380 -65 388 -72 407 -72 C439 -72 474 -50 484 -21 C487 -11 500 38 521 125 C556 265 572 343 569 359 C566 370 559 375 544 375 C524 375 475 361 471 339 C469 330 465 296 460 237 C458 198 453 165 446 138 L440 119 C361 81 298 62 248 62 C210 62 178 72 153 92 C124 115 114 144 123 179 C139 243 203 284 264 294 C294 297 325 301 356 304 C385 309 403 322 408 343 C412 362 407 378 394 391 C386 400 370 405 346 406 C321 407 304 410 299 415 C286 423 282 440 289 467 C303 524 373 583 433 583 C456 583 480 573 505 554 C530 534 545 524 548 524 C563 524 578 549 581 562 C586 580 579 602 561 629 C535 668 497 688 447 688 C400 688 355 670 312 634 C245 576 205 524 194 479 C181 430 194 392 231 367 C144 327 31 265 6 165 C-9 107 12 62 66 29 L66 29 Z " />
<glyph glyph-name="quotesingle" unicode="&#x27;" horiz-adv-x="280" d="M100 480 C107 474 116 471 127 471 C138 471 151 478 163 491 C185 515 316 687 321 704 C324 715 320 724 309 732 C300 739 289 742 277 742 C258 742 242 734 230 718 C214 698 194 669 170 630 C144 588 125 559 113 542 C100 525 93 513 91 505 C89 494 92 486 100 480 L100 480 Z " />
<glyph glyph-name="parenleft" unicode="&#x28;" horiz-adv-x="491" d="M54 129 C77 86 112 50 158 22 C172 15 194 2 229 -15 C261 -30 283 -43 300 -54 C325 -52 345 -16 351 6 C356 23 352 36 341 44 C311 56 288 64 270 68 C219 85 180 109 152 140 C118 179 107 223 119 272 C144 373 242 478 412 585 C445 601 481 620 509 643 C516 649 519 655 521 660 C524 673 520 684 509 693 C497 702 485 706 472 706 C419 706 241 558 196 516 C108 436 54 359 36 285 C22 230 28 178 54 129 L54 129 Z " />
<glyph glyph-name="parenright" unicode="&#x29;" horiz-adv-x="492" d="M-22 -39 C-12 -48 -1 -52 12 -52 C67 -52 242 94 289 137 C378 218 431 294 449 367 C463 422 457 475 431 524 C392 598 328 635 256 669 C224 684 202 697 186 708 C175 707 163 700 153 685 C143 672 137 660 134 648 C130 630 133 617 144 609 C173 598 197 590 215 585 C264 568 304 545 332 514 C366 475 377 431 365 382 C329 238 151 110 23 41 C3 30 -14 19 -25 10 C-31 5 -35 -1 -36 -6 C-39 -18 -34 -29 -22 -39 L-22 -39 Z " />
<glyph glyph-name="asterisk" unicode="&#x2a;" horiz-adv-x="381" d="M136 480 C145 480 157 484 171 493 C182 500 194 508 205 516 C191 476 183 453 182 446 C179 436 185 431 198 431 C219 431 246 446 251 467 L269 540 C306 501 326 482 329 482 C342 482 358 505 362 520 C365 533 361 546 347 559 L311 586 C375 629 408 654 410 659 C414 676 391 697 374 697 C367 697 340 675 290 631 L302 682 C307 703 309 719 309 732 C308 739 303 743 292 743 C283 743 273 740 263 735 C250 730 243 724 241 717 C241 715 239 691 235 646 C192 678 169 694 164 694 C149 694 131 664 127 648 C125 641 126 636 129 633 C162 612 192 596 219 583 C201 574 106 526 104 514 C99 497 117 480 136 480 L136 480 Z " />
<glyph glyph-name="plus" unicode="&#x2b;" horiz-adv-x="551" d="M52 285 C58 271 69 264 84 264 C89 264 132 268 213 275 C210 248 205 222 201 196 C196 162 195 137 197 120 C198 111 205 106 218 106 C242 106 288 124 295 149 C299 166 300 188 298 216 C294 249 293 272 293 283 L389 292 C429 296 459 301 478 308 C489 312 496 320 499 333 C502 346 501 359 496 374 C491 391 482 399 471 399 C452 399 424 393 388 382 C348 370 319 363 304 361 C310 389 317 420 325 454 L345 536 C350 549 342 555 325 555 C294 555 256 533 248 502 C243 483 235 433 224 354 C209 353 192 352 173 352 L71 352 C59 349 51 341 47 327 C44 312 45 298 52 285 L52 285 Z " />
<glyph glyph-name="comma" unicode="&#x2c;" horiz-adv-x="281" d="M-20 -116 C-9 -116 4 -109 16 -95 C38 -71 170 100 175 116 C177 127 173 137 162 145 C152 151 141 154 129 154 C110 154 94 146 81 130 C65 110 46 81 22 43 C-4 0 -23 -29 -35 -46 C-47 -62 -54 -74 -56 -83 C-61 -103 -41 -116 -20 -116 L-20 -116 Z " />
<glyph glyph-name="&amp;#x2d;" unicode="&#x2d;" horiz-adv-x="547" d="M79 244 C132 244 437 286 476 303 C485 308 491 315 493 325 C496 338 496 352 493 367 C487 384 478 393 465 393 C458 393 431 386 385 372 C335 357 304 349 293 347 C233 337 172 334 111 334 C105 335 99 335 95 335 C64 335 46 326 42 307 C34 276 50 244 79 244 L79 244 Z " />
<glyph glyph-name="&amp;#x2010;" unicode="&#x2010;" horiz-adv-x="547" d="M79 244 C132 244 437 286 476 303 C485 308 491 315 493 325 C496 338 496 352 493 367 C487 384 478 393 465 393 C458 393 431 386 385 372 C335 357 304 349 293 347 C233 337 172 334 111 334 C105 335 99 335 95 335 C64 335 46 326 42 307 C34 276 50 244 79 244 L79 244 Z " />
<glyph glyph-name="period" unicode="&#x2e;" horiz-adv-x="201" d="M2 9 C25 9 40 16 49 29 C59 47 99 126 101 141 C104 152 91 158 62 158 C30 158 11 151 4 137 C-6 112 -16 78 -27 34 C-31 17 -21 9 2 9 L2 9 Z " />
<glyph glyph-name="slash" unicode="&#x2f;" horiz-adv-x="622" d="M-14 6 C-4 1 6 -2 18 -2 C41 -2 65 12 89 41 L143 113 C256 252 406 407 589 577 C625 610 644 630 646 638 C649 650 644 660 632 668 C623 674 610 677 595 677 C572 677 552 669 534 653 C493 612 463 581 444 559 C335 442 208 301 62 138 C46 121 29 103 13 85 C-12 59 -25 42 -27 33 C-30 22 -25 13 -14 6 L-14 6 Z " />
<glyph glyph-name="zero" unicode="0" horiz-adv-x="816" d="M81 84 C128 23 196 -7 285 -7 C497 -7 721 163 773 369 C795 458 782 532 736 593 C688 653 619 683 530 683 C320 683 94 511 42 307 C20 218 33 144 81 84 L81 84 Z M158 333 C191 467 324 600 467 600 C537 600 590 573 625 518 C658 465 666 404 648 333 C614 199 483 66 339 66 C269 66 217 93 183 148 C149 201 140 262 158 333 L158 333 Z " />
<glyph glyph-name="one" unicode="1" horiz-adv-x="286" d="M66 34 C68 23 73 18 84 18 C99 18 114 21 130 28 C151 35 162 45 165 57 C168 67 169 80 170 95 C170 116 171 128 171 132 C186 280 222 427 269 568 C277 587 282 603 285 615 C288 628 283 635 268 635 C255 635 229 628 191 615 C130 591 83 573 76 545 C73 535 74 524 79 512 C85 498 93 491 102 491 C107 491 131 500 170 517 C151 438 130 351 110 258 C101 220 91 182 82 144 C70 91 65 55 66 34 L66 34 Z " />
<glyph glyph-name="two" unicode="2" horiz-adv-x="579" d="M-17 8 C-10 2 2 -1 20 -1 C119 -1 186 0 222 2 C333 7 401 18 426 35 C441 46 462 75 467 94 C470 107 466 113 455 113 C400 113 318 110 209 104 C260 136 315 174 377 217 C434 258 469 285 484 299 C502 315 514 335 519 358 C523 371 525 383 525 393 C527 478 503 550 453 607 C405 662 347 689 280 689 C216 689 183 647 148 599 C125 566 110 534 103 504 C97 480 99 468 109 468 C119 468 128 472 137 479 C140 482 148 491 159 506 C195 551 244 574 303 574 C382 574 436 527 442 447 C443 427 441 408 436 389 C433 376 428 366 422 358 C400 329 359 291 298 246 C232 196 149 158 47 132 C16 124 -5 103 -15 70 C-18 65 -20 60 -22 53 C-27 31 -26 16 -17 8 L-17 8 Z " />
<glyph glyph-name="three" unicode="3" horiz-adv-x="612" d="M-10 12 C1 3 21 -4 52 -9 C78 -14 100 -17 121 -17 C262 -17 499 84 535 234 C546 277 536 313 504 341 C483 361 448 378 400 393 C453 430 486 471 496 514 C506 554 499 593 474 632 C448 670 415 689 375 689 C309 689 231 640 186 595 C154 564 135 539 131 521 C125 498 129 487 142 487 C149 487 163 495 183 510 C212 533 232 547 243 554 C270 569 294 577 315 577 C341 577 362 568 376 551 C391 534 396 512 390 487 C376 433 350 423 301 410 C261 399 210 372 201 327 C196 307 204 297 226 297 C238 297 257 299 282 304 C307 308 325 310 337 310 C397 310 434 279 419 220 C394 122 258 62 164 62 C119 62 78 71 40 88 C26 93 18 96 14 96 C-3 96 -14 83 -20 58 C-26 37 -23 21 -10 12 L-10 12 Z " />
<glyph glyph-name="four" unicode="4" horiz-adv-x="625" d="M52 160 C59 160 84 166 129 179 C214 206 284 223 374 236 L350 134 C338 84 334 52 336 38 C338 27 347 22 362 22 C374 22 387 25 402 32 C421 39 431 49 434 60 C440 83 444 114 446 153 C449 197 452 228 455 246 C506 251 530 253 530 253 C567 258 588 269 592 284 C595 297 588 308 571 319 C555 328 540 333 526 333 C514 333 485 332 473 332 C486 399 505 466 525 531 C534 546 549 599 554 619 C558 634 550 641 530 641 C491 641 461 614 452 577 C438 520 419 436 395 327 C307 319 214 301 117 274 C124 303 131 333 138 362 C151 413 165 460 181 511 C193 546 202 574 207 594 C211 611 203 619 183 619 C140 619 112 589 97 530 C80 461 57 362 30 231 C25 226 23 219 21 212 C14 185 25 160 52 160 L52 160 Z " />
<glyph glyph-name="five" unicode="5" horiz-adv-x="555" d="M43 9 C74 -1 113 -6 158 -6 C246 -6 332 27 395 88 C433 123 457 160 467 200 C478 241 472 280 453 317 C422 372 350 403 235 408 L240 547 C280 560 327 571 379 579 C384 580 430 585 518 596 C553 601 573 610 576 625 C579 636 573 648 559 659 C546 668 533 674 520 675 C509 677 495 678 475 678 C384 678 249 655 166 618 C144 609 131 594 126 575 C125 570 124 562 124 549 L125 372 C125 331 139 310 165 310 C177 310 195 313 218 318 C241 323 259 325 271 325 C305 325 332 314 352 292 C376 269 383 241 374 207 C352 119 245 76 162 76 C120 76 79 85 36 102 C21 108 12 111 9 111 C-2 111 -10 102 -14 85 C-23 50 -4 25 43 9 L43 9 Z " />
<glyph glyph-name="six" unicode="6" horiz-adv-x="687" d="M56 103 C88 39 141 7 216 7 C318 7 432 67 509 129 C572 178 609 226 620 271 C635 329 598 358 510 358 C419 358 287 330 113 273 C127 329 164 385 225 440 C284 495 364 531 465 546 C469 529 473 512 476 495 C483 472 493 461 506 461 C527 461 566 487 572 508 C572 511 573 514 572 516 C566 545 559 580 555 623 C553 657 536 659 506 659 C401 659 311 632 235 578 C139 510 67 409 41 306 C22 229 27 161 56 103 L56 103 Z M465 266 C510 266 531 256 526 237 C520 214 491 190 439 164 C360 124 294 109 241 109 C176 109 134 132 116 179 C294 237 410 266 465 266 L465 266 Z " />
<glyph glyph-name="seven" unicode="7" horiz-adv-x="577" d="M111 515 C118 515 140 519 179 527 C239 539 315 545 408 545 C435 545 463 545 492 544 C276 237 166 73 160 52 C158 42 163 34 174 28 C184 24 195 22 206 22 C227 22 243 29 252 42 C271 75 286 101 294 119 C368 256 469 399 597 549 C604 557 608 563 608 566 C610 571 607 579 600 589 C591 605 579 616 564 622 C534 633 474 639 384 639 C261 639 176 631 129 614 C103 605 87 588 81 564 C75 539 86 515 111 515 L111 515 Z " />
<glyph glyph-name="eight" unicode="8" horiz-adv-x="670" d="M135 -40 C282 -40 544 41 585 201 C595 241 587 281 560 322 C536 360 506 385 468 398 C520 435 552 475 563 519 C573 558 565 597 541 635 C516 674 483 693 444 693 C382 693 319 662 253 600 C177 527 133 468 122 421 C109 369 139 331 190 322 C117 267 7 166 -16 75 C-35 -2 16 -40 135 -40 L135 -40 Z M101 142 C122 225 284 309 366 309 C403 309 430 294 448 265 C465 236 469 204 460 167 C450 127 422 97 375 76 C338 60 298 52 253 52 C216 52 181 58 151 70 C110 87 93 111 101 142 L101 142 Z M229 470 C245 533 343 602 407 602 C435 602 455 590 466 565 C476 542 477 516 470 487 C455 425 381 397 323 397 C296 397 273 402 255 413 C231 426 223 445 229 470 L229 470 Z " />
<glyph glyph-name="nine" unicode="9" horiz-adv-x="669" d="M83 242 C108 225 145 216 194 216 C296 216 396 242 492 293 C486 267 478 228 469 175 C459 122 450 83 444 57 C437 30 434 17 434 16 C433 1 441 -7 456 -7 C480 -7 530 10 536 36 C541 57 547 88 554 130 C566 230 596 325 634 418 C642 435 646 447 648 456 C663 517 641 573 582 626 C554 651 519 664 477 664 C384 664 290 612 221 552 C120 466 64 396 50 342 C39 297 50 263 83 242 L83 242 Z M166 400 C176 439 213 478 279 515 C338 550 389 567 432 567 C468 567 495 552 512 522 C530 494 534 461 525 424 C503 338 397 310 319 310 C281 310 246 316 216 329 C175 345 158 369 166 400 L166 400 Z " />
<glyph glyph-name="colon" unicode="&#x3a;" horiz-adv-x="224" d="M3 9 C25 9 41 16 50 29 C64 48 95 118 102 141 C105 152 92 158 64 158 C31 158 13 151 6 137 C-5 113 -15 79 -27 34 C-31 17 -21 9 3 9 L3 9 Z M88 261 C110 261 125 267 135 280 C153 312 178 359 187 395 C190 405 177 410 148 410 C116 410 97 403 91 389 C80 364 69 330 58 285 C54 269 64 261 88 261 L88 261 Z " />
<glyph glyph-name="semicolon" unicode="&#x3b;" horiz-adv-x="281" d="M-20 -116 C-9 -116 4 -109 16 -96 C40 -68 170 98 175 116 C181 140 154 154 130 154 C111 154 95 146 82 130 C66 110 47 81 23 42 C-3 1 -22 -29 -35 -46 C-47 -63 -54 -75 -56 -83 C-61 -103 -41 -116 -20 -116 L-20 -116 Z M122 261 C144 261 159 267 169 280 C186 310 214 362 222 395 C225 405 211 410 182 410 C149 410 130 403 125 389 C115 364 104 329 93 285 C89 269 99 261 122 261 L122 261 Z " />
<glyph glyph-name="less" unicode="&#x3c;" horiz-adv-x="642" d="M63 261 C78 253 94 245 109 237 C205 183 306 98 413 -17 C433 -38 445 -49 451 -49 C471 -49 498 -9 502 9 C506 23 502 36 490 48 C467 69 449 85 437 95 C306 202 216 276 164 317 C298 430 449 531 614 620 C650 639 670 654 673 664 C675 674 671 685 659 696 C646 707 635 713 624 713 C615 713 605 709 592 702 C553 677 524 658 506 645 C287 498 150 405 95 366 C85 367 73 358 61 340 C50 325 43 312 40 300 C36 285 44 272 63 261 L63 261 Z " />
<glyph glyph-name="equal" unicode="&#x3d;" horiz-adv-x="591" d="M107 182 C161 182 465 225 503 243 C513 248 520 255 522 264 C526 277 525 291 520 306 C514 323 505 332 493 332 C488 332 462 325 413 311 C362 296 330 288 319 286 C280 280 228 276 161 273 C144 273 126 273 108 272 C85 269 71 260 67 244 C60 215 76 182 107 182 L107 182 Z M106 351 C159 351 467 395 502 412 C513 417 518 424 521 434 C524 447 523 461 519 476 C514 493 505 501 492 501 C489 501 463 494 414 480 C346 460 288 448 242 445 C220 445 104 443 92 438 C79 434 71 426 68 414 C60 382 77 351 106 351 L106 351 Z " />
<glyph glyph-name="greater" unicode="&#x3e;" horiz-adv-x="642" d="M-26 -26 C-22 -42 -15 -50 -6 -50 C0 -50 19 -39 50 -18 C201 93 364 191 539 261 C564 273 578 286 582 301 C584 312 584 325 580 340 C576 358 568 367 557 366 C439 491 349 584 288 645 C279 655 269 665 260 675 C238 699 221 710 202 710 C175 710 137 689 131 664 C129 657 130 652 134 647 C162 623 184 606 200 596 C305 512 394 419 466 317 C294 219 167 145 82 95 C33 66 7 51 3 48 C-13 35 -23 23 -26 10 C-29 0 -29 -12 -26 -26 L-26 -26 Z " />
<glyph glyph-name="question" unicode="&#x3f;" horiz-adv-x="650" d="M108 211 C127 211 142 217 152 228 C156 233 163 247 174 272 C351 283 482 323 566 389 C605 420 628 452 637 489 C652 549 634 598 584 637 C540 671 485 688 422 688 C331 688 206 647 134 591 C115 577 103 558 98 535 C93 518 96 509 105 509 C110 509 126 518 153 533 C205 563 281 602 342 602 C384 602 423 593 457 572 C498 548 514 516 505 479 C498 453 477 427 441 401 C395 368 316 351 204 351 C150 351 121 350 118 348 C107 342 92 303 74 230 C70 217 82 211 108 211 L108 211 Z M20 -7 C42 -7 58 -2 66 8 C72 16 110 88 112 96 C114 105 101 109 73 109 C40 109 21 102 14 87 C5 67 -3 43 -10 16 C-14 1 -4 -7 20 -7 L20 -7 Z " />
<glyph glyph-name="at" unicode="&#x40;" horiz-adv-x="792" d="M64 55 C106 -3 167 -32 250 -32 C317 -32 453 -13 404 59 C401 65 396 67 388 67 C363 67 317 44 285 44 C222 44 178 73 151 130 C126 181 121 239 138 305 C166 418 238 503 351 561 C402 587 448 600 490 600 C553 600 599 572 626 515 C650 464 654 405 638 340 C620 268 578 214 552 214 C537 214 527 232 530 275 C534 292 537 309 541 326 C546 357 552 389 557 420 C561 461 556 489 543 502 C534 510 510 514 471 514 C438 514 302 506 295 470 C288 443 305 426 333 426 C346 426 366 429 393 435 C419 440 438 443 451 443 C484 443 498 426 494 392 C474 396 456 398 439 398 C382 398 330 374 284 327 C238 279 211 237 202 202 C195 172 202 149 224 134 C242 121 267 115 299 115 C354 115 402 129 443 156 C448 159 453 163 458 166 C468 128 490 114 517 114 C561 114 618 154 649 192 C702 257 738 323 754 389 C775 472 764 542 722 600 C679 658 617 687 535 687 C326 687 83 466 31 264 C11 182 21 112 64 55 L64 55 Z M270 236 C280 273 379 330 417 330 C432 330 443 323 450 309 C458 294 460 280 456 265 C444 215 384 187 336 187 C319 187 303 191 289 199 C272 208 266 221 270 236 L270 236 Z " />
<glyph glyph-name="A" unicode="A" horiz-adv-x="656" d="M-37 13 C-28 -4 -16 -13 -1 -13 C13 -13 34 8 63 51 C216 78 345 104 448 127 C451 106 454 86 458 66 C465 37 476 23 489 23 C516 23 559 51 565 78 C567 85 564 100 557 123 C503 258 477 401 458 545 C457 547 457 565 454 598 C452 619 450 636 446 649 C441 663 432 670 418 670 C388 670 365 656 347 629 L196 386 C137 293 81 215 28 152 C14 137 0 122 -12 107 C-32 85 -43 70 -45 62 C-48 47 -46 30 -37 13 L-37 13 Z M135 156 C261 354 341 478 377 529 C402 395 419 294 430 227 C339 196 241 173 135 156 L135 156 Z " />
<glyph glyph-name="B" unicode="B" horiz-adv-x="658" d="M31 27 C36 14 49 6 71 3 C80 2 98 2 125 2 C242 2 330 11 392 30 C492 61 549 103 562 156 C571 191 561 223 531 252 C508 276 478 294 442 305 C537 354 592 409 608 472 C623 534 613 582 579 617 C547 649 499 665 436 665 C325 665 242 614 160 545 C110 502 82 467 75 440 C72 427 72 416 74 405 C78 392 85 385 96 385 C98 385 100 385 102 386 C50 159 26 39 31 27 L31 27 Z M163 309 C168 334 174 358 180 382 C189 415 198 447 206 478 C279 537 343 566 399 566 C436 566 467 558 493 543 C526 524 537 497 529 464 C522 437 501 408 465 379 C412 336 311 312 163 309 L163 309 Z M128 99 C131 127 134 157 139 190 C191 223 244 239 299 239 C335 239 373 232 414 219 C466 202 490 181 484 155 C481 142 466 129 440 115 C411 100 357 92 276 92 C234 92 185 94 128 99 L128 99 Z " />
<glyph glyph-name="C" unicode="C" horiz-adv-x="676" d="M33 71 C58 27 101 5 164 5 C255 5 372 47 514 132 C528 141 542 149 557 157 C575 170 586 181 589 192 C595 218 593 231 580 231 C575 231 550 220 506 199 C428 162 311 107 225 107 C183 107 149 118 125 141 C98 166 90 199 100 239 C114 296 157 356 227 419 C308 490 409 534 533 553 C533 536 533 520 531 503 C533 480 539 468 550 468 C576 468 628 498 634 525 C636 534 636 547 635 565 C633 583 634 597 636 606 C643 632 646 648 644 653 C641 662 627 666 602 666 C351 666 82 476 22 228 C6 164 10 112 33 71 L33 71 Z " />
<glyph glyph-name="D" unicode="D" horiz-adv-x="699" d="M-1 17 C1 7 6 2 15 2 C15 2 31 6 63 13 C208 39 327 65 457 145 C569 213 637 296 662 393 C680 466 669 529 632 582 C594 635 537 661 464 661 C364 661 259 618 147 531 C126 514 111 502 104 495 C89 480 81 465 77 450 C73 434 74 420 80 408 C23 157 -4 27 -1 17 L-1 17 Z M177 472 C255 532 329 562 398 562 C453 562 495 543 527 506 C557 468 566 422 552 367 C506 185 265 122 102 107 C114 231 141 353 177 472 L177 472 Z " />
<glyph glyph-name="E" unicode="E" horiz-adv-x="653" d="M17 17 C23 0 42 -8 73 -8 C160 -8 487 17 512 130 C517 148 508 157 487 157 C481 157 473 156 462 154 L288 118 C222 106 166 100 118 100 C123 161 133 224 147 289 C245 319 381 344 557 363 C593 368 612 377 615 390 C618 402 612 414 598 425 C585 435 572 441 559 442 C549 444 534 445 515 445 C416 445 302 427 171 391 C180 430 191 468 203 504 C261 527 312 542 355 549 C377 553 427 558 506 565 C539 568 557 578 561 595 C565 608 561 622 552 637 C542 652 527 662 509 667 C499 670 480 671 452 670 L419 670 C388 670 353 665 312 654 C276 643 240 633 204 623 C182 616 167 611 161 607 C148 599 140 588 134 573 C128 567 91 387 87 367 C66 359 51 343 45 320 C39 295 45 278 65 271 C29 113 13 28 17 17 L17 17 Z " />
<glyph glyph-name="F" unicode="F" horiz-adv-x="615" d="M14 20 C16 9 24 3 39 3 C66 3 106 16 113 46 C117 62 120 82 123 107 C126 168 134 229 147 289 C242 320 367 344 523 361 C547 364 564 369 572 377 C574 380 576 384 577 388 C580 399 576 410 564 421 C551 432 539 438 526 440 C517 441 504 442 487 442 C396 442 291 425 170 391 C179 427 189 464 201 502 C316 547 384 553 505 562 C538 565 556 575 561 593 C564 606 560 620 551 635 C541 650 526 660 508 664 C499 667 480 668 451 668 C407 668 366 664 327 655 C317 652 276 641 203 620 C181 614 167 609 160 604 C148 597 139 585 133 570 C131 567 128 553 121 528 C115 504 104 450 86 365 C64 360 51 345 45 320 C37 291 44 274 64 269 C28 114 11 31 14 20 L14 20 Z " />
<glyph glyph-name="G" unicode="G" horiz-adv-x="746" d="M31 67 C56 22 101 0 166 0 C267 0 393 51 546 154 C629 211 676 259 686 299 C699 351 641 377 513 377 C457 377 299 365 254 342 C228 330 185 294 178 265 C174 250 180 242 195 242 C207 242 224 244 248 249 C331 269 442 291 525 291 C570 291 591 281 586 262 C584 255 575 244 559 231 C485 168 308 105 210 105 C171 105 140 117 117 141 C94 165 87 196 97 235 C117 311 192 391 253 438 C328 496 421 533 531 550 C531 522 530 505 530 500 C532 476 538 464 548 464 C570 464 624 493 630 515 C633 526 633 541 632 561 C631 580 632 595 635 606 C641 631 642 645 641 650 C636 658 623 662 600 662 C351 662 83 476 22 230 C5 163 8 108 31 67 L31 67 Z " />
<glyph glyph-name="H" unicode="H" horiz-adv-x="610" d="M1 14 C3 3 10 -2 25 -2 C46 -2 92 14 99 36 C100 41 103 67 106 114 C111 155 119 209 132 276 C225 307 327 330 438 345 C428 288 415 231 402 174 C385 107 354 32 404 32 C431 32 470 49 476 74 C483 97 484 124 484 148 C490 197 504 266 527 356 C568 356 591 365 595 383 C598 394 593 405 581 416 C571 425 559 431 547 434 C562 483 577 529 592 573 L611 625 C620 649 625 666 594 666 C526 666 505 631 490 570 L457 433 C360 428 259 409 155 378 C169 433 184 487 201 538 C215 582 222 604 222 605 C226 623 218 632 195 632 C155 632 117 608 107 569 C91 506 74 427 58 334 C45 256 31 178 17 100 C13 85 10 71 6 56 C2 37 1 23 1 14 L1 14 Z " />
<glyph glyph-name="I" unicode="I" horiz-adv-x="510" d="M-10 6 C0 1 18 -2 42 -2 C128 -2 277 20 352 61 C372 72 398 101 403 120 C406 133 400 139 385 139 C366 139 340 135 307 126 C259 113 234 107 230 106 C246 261 281 411 329 559 C369 563 416 567 470 570 C495 572 511 577 518 585 C521 588 523 593 525 600 C526 606 527 612 526 618 C523 643 509 660 482 668 C466 673 440 676 404 676 C308 676 222 658 148 621 C126 610 112 590 105 563 C102 548 101 535 104 522 C107 506 115 498 128 498 C137 498 173 511 237 536 C190 339 158 191 140 92 C125 91 106 90 86 90 C77 90 53 92 42 92 C7 92 -14 78 -20 51 C-26 29 -23 14 -10 6 L-10 6 Z " />
<glyph glyph-name="J" unicode="J" horiz-adv-x="692" d="M70 111 C109 45 168 12 249 12 C385 12 508 103 572 219 C628 317 698 496 698 613 C698 630 694 643 686 651 C676 662 649 668 606 668 C526 668 466 660 426 645 C397 634 378 609 368 571 C364 556 368 548 379 548 C392 548 418 552 456 561 C493 569 520 573 538 573 C557 573 568 569 571 560 C581 537 572 471 545 361 C523 271 498 193 413 143 C375 120 333 108 289 108 C236 108 193 127 161 164 C133 195 124 248 129 321 C132 354 124 371 106 371 C74 371 54 356 47 327 C27 245 35 173 70 111 L70 111 Z " />
<glyph glyph-name="K" unicode="K" horiz-adv-x="617" d="M-9 33 C-7 22 2 17 18 17 C31 17 45 20 60 27 C76 36 85 46 89 59 C90 66 95 100 102 161 C136 128 181 100 237 79 C330 42 384 24 395 24 C417 24 480 44 486 67 C487 73 480 80 465 88 C364 130 276 192 196 266 C241 301 304 350 385 412 C511 507 579 559 589 566 C617 585 631 599 633 606 C638 624 624 633 592 633 C581 633 572 632 562 629 C533 621 391 524 138 332 C158 415 182 498 214 577 C222 598 227 615 231 628 C234 643 225 650 202 650 C167 650 130 631 116 600 C114 596 110 582 104 558 C93 513 72 420 41 281 C6 123 -11 40 -9 33 L-9 33 Z " />
<glyph glyph-name="L" unicode="L" horiz-adv-x="589" d="M-3 39 C3 20 27 11 72 11 C171 11 350 43 438 88 C468 104 486 125 492 151 C497 170 488 179 467 179 C454 179 419 172 365 159 C300 144 263 135 254 134 C204 125 152 121 98 121 C110 263 144 404 187 540 C205 598 215 626 214 623 C218 638 209 645 189 645 C159 645 137 633 124 610 C116 599 108 575 99 538 C85 482 65 395 41 277 C9 130 -6 50 -3 39 L-3 39 Z " />
<glyph glyph-name="M" unicode="M" horiz-adv-x="788" d="M-39 18 C-32 -3 -23 -13 -11 -13 C-4 -13 4 -8 12 2 C30 30 43 51 50 66 C152 244 222 368 261 438 C272 235 280 116 283 79 L280 70 C276 54 277 37 281 18 C287 -2 297 -12 310 -12 C317 -12 325 -7 334 2 C342 9 382 81 453 216 C498 299 543 381 586 463 C589 386 592 308 595 230 C601 102 605 34 609 26 C613 21 617 18 623 18 C650 18 693 57 699 83 C700 86 696 117 688 177 C672 278 665 408 668 567 L671 639 C671 675 663 693 650 693 C630 693 613 679 599 652 C566 587 541 537 526 504 C468 387 414 286 362 201 C342 342 333 460 333 553 C333 571 333 589 334 607 C332 632 325 645 314 645 C293 645 276 631 261 604 C221 527 182 451 142 374 C96 287 51 211 9 148 C-1 134 -10 120 -21 107 C-35 87 -42 73 -44 66 C-47 53 -45 37 -39 18 L-39 18 Z " />
<glyph glyph-name="N" unicode="N" horiz-adv-x="665" d="M-18 0 C-16 -12 -8 -18 9 -18 C33 -18 74 -2 81 24 C83 32 85 42 86 55 C87 73 88 83 87 86 C102 203 132 320 168 432 L400 67 C410 46 422 21 441 21 C486 21 513 38 521 71 C523 79 524 90 526 103 C527 118 529 129 529 134 C534 166 543 206 555 253 C586 378 625 494 673 603 C685 628 690 643 691 647 C696 667 690 677 671 677 C630 677 604 661 592 630 C581 601 569 566 556 525 C546 489 536 453 525 418 C490 296 469 226 464 209 L223 604 C218 611 209 615 195 615 C157 615 130 603 115 578 C109 568 100 540 88 494 C81 466 63 381 32 239 C-2 86 -20 6 -18 0 L-18 0 Z " />
<glyph glyph-name="O" unicode="O" horiz-adv-x="815" d="M79 84 C126 23 194 -7 284 -7 C493 -7 722 164 772 369 C794 458 782 532 734 593 C686 653 617 683 528 683 C319 683 91 511 42 307 C19 218 32 144 79 84 L79 84 Z M157 333 C190 466 323 600 466 600 C536 600 588 573 623 518 C657 465 665 404 647 333 C615 200 480 66 338 66 C268 66 215 93 181 148 C147 201 139 262 157 333 L157 333 Z " />
<glyph glyph-name="P" unicode="P" horiz-adv-x="639" d="M-3 11 C1 2 9 -2 22 -2 C46 -2 90 14 96 40 C100 57 103 79 104 106 C107 142 109 164 110 172 C284 195 571 269 620 465 C634 522 623 571 587 610 C552 648 506 667 447 667 C364 667 275 631 179 559 C118 512 84 475 77 448 C73 430 73 415 80 404 C19 151 -8 20 -3 11 L-3 11 Z M125 261 C140 334 157 405 178 476 C252 535 319 565 376 565 C415 565 448 554 477 532 C512 508 524 478 515 441 C507 409 484 376 444 342 C387 293 281 266 125 261 L125 261 Z " />
<glyph glyph-name="Q" unicode="Q" horiz-adv-x="813" d="M77 82 C124 24 193 -5 285 -5 C368 -5 449 19 528 66 C572 46 600 36 611 36 C627 36 656 51 659 66 C662 75 654 85 637 96 C632 98 620 104 598 115 C689 190 746 275 770 371 C793 460 780 535 733 594 C685 653 616 683 527 683 C316 683 93 511 41 306 C18 214 31 139 77 82 L77 82 Z M155 333 C190 470 324 600 471 600 C539 600 590 572 625 516 C656 462 664 401 647 332 C630 266 595 208 540 157 C511 180 479 211 448 250 C422 285 395 319 369 353 C362 361 357 365 353 365 C344 365 334 356 322 339 C314 325 308 312 305 301 C295 262 310 222 350 180 C378 151 414 125 459 100 C417 79 376 68 335 68 C265 68 213 95 178 149 C145 200 137 262 155 333 L155 333 Z " />
<glyph glyph-name="R" unicode="R" horiz-adv-x="654" d="M26 16 C28 5 38 0 54 0 C78 0 117 13 124 39 C127 50 129 66 129 85 C130 106 131 121 133 130 C195 92 327 46 399 46 C419 46 445 64 449 81 C452 90 447 96 437 101 C426 104 418 106 411 107 C361 120 303 149 237 193 C382 223 594 300 634 461 C649 522 637 572 597 611 C559 646 510 664 448 664 C339 664 226 609 109 498 C92 481 81 466 78 453 C72 430 83 402 105 397 C48 156 22 29 26 16 L26 16 Z M153 265 C168 337 186 408 206 479 C280 538 346 568 403 568 C442 568 476 557 504 536 C536 511 547 481 538 445 C530 412 506 378 467 344 C410 295 305 269 153 265 L153 265 Z " />
<glyph glyph-name="S" unicode="S" horiz-adv-x="716" d="M17 91 C37 24 74 1 142 1 C335 1 556 128 650 297 C655 306 660 318 664 332 C672 365 668 384 650 391 C628 400 570 409 478 416 C400 423 201 424 203 434 C204 439 211 447 225 460 C301 534 387 571 484 571 C493 571 502 571 510 570 C510 528 517 507 528 507 C552 507 605 535 612 559 C619 584 619 622 619 648 C624 679 614 683 579 683 C432 683 295 627 170 516 C112 465 79 425 72 397 C60 350 73 332 119 328 C185 325 252 322 318 319 C404 314 466 304 504 288 C519 281 525 271 522 256 C486 148 347 92 241 92 C160 92 108 115 84 161 C80 174 75 186 69 199 C62 214 52 222 39 222 C26 222 17 210 11 186 C4 156 6 124 17 91 L17 91 Z " />
<glyph glyph-name="T" unicode="T" horiz-adv-x="540" d="M80 512 C86 497 96 490 111 490 C122 490 145 496 184 509 C210 517 236 526 262 535 C185 210 148 38 150 19 C153 8 160 3 175 3 C197 3 243 17 249 41 C250 44 252 68 256 112 C268 262 309 409 352 552 C403 557 456 560 512 562 C541 564 560 569 569 577 C573 581 576 586 578 593 C579 598 578 603 577 610 C572 635 554 651 524 660 C506 665 477 668 440 668 C317 668 213 650 127 613 C101 602 85 582 78 555 C74 540 75 525 80 512 L80 512 Z " />
<glyph glyph-name="U" unicode="U" horiz-adv-x="608" d="M26 18 C114 18 326 96 409 137 C395 72 389 38 389 34 C391 23 399 17 415 17 C442 17 482 34 488 59 C489 64 493 91 499 141 C517 271 550 397 591 521 C599 534 624 608 630 628 C633 643 623 651 598 651 C526 651 512 597 496 539 C477 461 455 362 431 242 C368 213 176 134 116 134 C109 134 105 135 102 137 C95 145 103 192 125 279 C153 394 179 482 202 545 C222 602 232 630 232 628 C235 643 227 650 206 650 C170 650 144 639 128 617 C118 603 109 576 99 536 C86 484 70 413 52 324 C34 237 17 151 -5 64 C-13 33 -3 18 26 18 L26 18 Z " />
<glyph glyph-name="V" unicode="V" horiz-adv-x="523" d="M102 325 C111 145 119 49 123 37 C130 21 148 13 178 13 C209 13 230 21 240 36 C259 73 272 101 278 122 C345 272 428 413 528 543 C547 568 558 584 560 591 C562 599 557 605 547 610 C539 613 532 615 523 615 C496 615 474 604 455 581 C436 558 413 522 385 474 C362 437 341 400 319 363 C265 273 225 206 197 161 C177 292 171 420 179 545 C181 566 183 588 186 611 C186 640 178 655 161 655 C123 655 100 642 94 616 C90 601 93 504 102 325 L102 325 Z " />
<glyph glyph-name="W" unicode="W" horiz-adv-x="791" d="M85 581 C85 579 89 550 97 494 C109 405 117 273 116 97 C116 80 115 62 115 45 C113 2 113 -28 133 -28 C154 -28 172 -14 186 13 C255 144 331 278 414 416 C421 371 428 327 435 283 C443 230 448 185 448 148 C450 83 452 48 454 41 C457 26 462 19 471 19 C492 19 510 33 523 60 C603 213 642 290 642 290 C688 377 733 452 776 515 C811 567 829 595 830 599 C833 612 831 627 825 646 C817 667 808 678 796 678 C789 678 781 673 773 663 C758 641 748 624 742 611 C630 416 557 288 524 228 C520 288 514 347 507 404 C497 481 493 525 493 536 C492 557 492 570 491 574 C487 589 481 597 472 597 C450 597 423 571 390 519 C304 382 240 276 199 201 C192 303 189 383 188 442 C187 561 182 626 176 639 C172 644 168 647 163 647 C135 647 93 607 85 581 L85 581 Z " />
<glyph glyph-name="X" unicode="X" horiz-adv-x="543" d="M-3 10 C7 4 18 1 31 1 C48 1 63 7 74 19 C97 50 114 74 125 91 C157 135 199 189 252 253 C277 204 296 168 309 145 C317 128 325 111 334 94 C343 73 353 57 364 48 C367 45 371 43 376 43 C388 43 401 52 417 70 C430 87 438 102 441 115 C443 124 443 131 439 137 C421 164 407 184 396 196 C382 214 368 235 353 260 C345 273 333 296 316 328 C393 415 464 493 532 560 C544 571 584 605 588 622 C592 635 587 647 573 656 C562 664 549 668 534 668 C515 668 498 660 482 645 C451 614 416 574 376 526 C343 485 309 445 276 404 C247 461 221 520 197 581 C197 581 193 595 184 623 C179 640 173 653 166 662 C162 669 157 672 150 672 C123 672 97 632 92 609 C89 596 90 583 93 570 C105 534 123 493 148 446 C170 407 192 367 214 328 C62 143 -15 47 -17 40 C-20 28 -15 18 -3 10 L-3 10 Z " />
<glyph glyph-name="Y" unicode="Y" horiz-adv-x="626" d="M79 13 C89 6 99 2 111 2 C133 2 154 15 176 42 C305 240 456 401 621 566 C653 597 670 616 671 623 C675 636 670 648 656 657 C644 665 631 669 617 669 C598 669 581 661 565 646 C529 607 503 576 485 555 C379 427 316 353 299 333 C245 432 200 537 164 644 C160 652 155 656 150 656 C126 656 93 611 87 589 C84 578 85 565 89 551 C122 484 146 434 165 401 L237 258 C124 117 67 44 66 41 C64 30 68 21 79 13 L79 13 Z " />
<glyph glyph-name="Z" unicode="Z" horiz-adv-x="666" d="M50 14 C67 11 106 10 166 10 C311 10 420 22 494 46 C519 54 551 76 556 99 C560 115 549 123 522 123 C516 123 508 123 497 122 C351 108 252 101 202 101 C173 101 146 102 121 104 C237 231 369 354 514 471 C518 474 534 485 562 506 C580 521 596 534 607 545 C621 559 629 571 631 581 C639 613 612 636 549 649 C510 657 466 661 416 661 C358 661 183 651 151 603 C146 595 142 587 140 580 C132 548 146 525 178 525 C182 525 187 525 194 526 C276 543 355 552 430 552 C443 552 455 552 468 551 C291 383 159 257 71 172 C59 161 46 149 34 138 C3 110 -12 91 -16 75 C-24 43 -2 23 50 14 L50 14 Z " />
<glyph glyph-name="bracketleft" unicode="&#x5b;" horiz-adv-x="461" d="M-30 -67 C-26 -82 -17 -89 -3 -89 C10 -89 31 -89 58 -90 L121 -90 C224 -90 282 -87 293 -81 C303 -76 309 -66 313 -51 C316 -39 317 -27 315 -14 C312 2 306 10 296 10 C281 10 257 6 224 -1 C192 -8 165 -12 146 -12 C129 -12 104 -10 73 -7 C83 33 95 93 108 173 C134 347 183 515 240 682 C275 686 302 688 321 688 C340 688 364 684 393 676 C422 668 444 664 459 664 C483 664 502 709 507 729 C511 743 509 752 502 757 C494 763 437 766 334 766 L271 766 C243 765 222 765 207 765 C190 765 175 756 162 738 C148 719 127 653 99 539 C72 433 32 251 -21 -7 C-25 -13 -27 -20 -29 -27 C-33 -41 -33 -54 -30 -67 L-30 -67 Z " />
<glyph glyph-name="backslash" unicode="&#x5c;" horiz-adv-x="621" d="M130 605 C136 595 141 585 148 576 C235 430 338 227 377 60 C382 42 386 28 392 18 C399 5 411 -2 429 -2 C448 -2 489 10 494 31 C496 38 490 55 478 84 C416 243 352 402 285 559 C278 575 272 591 265 608 C257 627 250 642 241 653 C231 670 215 678 195 678 C170 678 131 665 124 638 C121 629 124 618 130 605 L130 605 Z " />
<glyph glyph-name="bracketright" unicode="&#x5d;" horiz-adv-x="461" d="M-43 -82 C-35 -87 22 -90 130 -90 C143 -90 163 -90 190 -89 L250 -89 C276 -89 296 -58 302 -36 C304 -28 307 -10 309 -2 C314 19 332 81 362 186 C412 357 447 482 466 560 C491 661 502 720 498 738 C493 756 482 765 463 765 C450 765 429 765 401 766 L339 766 C234 766 177 763 166 758 C156 753 150 742 146 726 C142 713 141 701 143 689 C146 672 152 664 162 664 C177 664 201 668 234 676 C267 684 293 688 312 688 C331 688 358 686 391 682 C360 506 324 340 268 170 C241 91 223 32 214 -7 C182 -10 158 -12 139 -12 C120 -12 95 -8 65 -1 C36 6 14 10 -1 10 C-11 10 -21 2 -32 -13 C-40 -26 -45 -38 -48 -51 C-52 -66 -50 -76 -43 -82 L-43 -82 Z " />
<glyph glyph-name="asciicircum" unicode="&#x5e;" horiz-adv-x="384" d="M172 703 C182 703 194 711 209 726 C271 793 307 831 314 839 C340 806 361 767 377 722 C382 707 388 700 396 700 C412 700 429 721 432 733 C434 740 429 754 417 775 C383 837 361 876 352 891 C350 902 332 910 323 910 C312 910 300 901 289 884 C265 847 224 804 166 751 C154 741 147 732 146 727 C143 714 161 703 172 703 L172 703 Z " />
<glyph glyph-name="underscore" unicode="&#x5f;" horiz-adv-x="689" d="M8 -92 C51 -95 114 -97 197 -97 L296 -97 C340 -97 391 -96 450 -94 C486 -93 505 -92 509 -91 C525 -87 535 -77 538 -62 C546 -31 532 2 501 2 C497 2 475 -1 433 -6 C365 -13 314 -17 283 -17 C236 -17 184 -14 131 -9 C60 -2 14 1 -9 1 C-26 1 -37 -7 -41 -24 C-51 -65 -35 -88 8 -92 L8 -92 Z " />
<glyph glyph-name="grave" unicode="&#x60;" horiz-adv-x="351" d="M187 822 C200 807 223 790 253 769 C286 746 308 728 321 717 C331 707 341 701 349 699 C359 697 368 700 379 709 C387 716 395 725 399 736 C404 747 402 759 393 771 C377 791 255 911 242 915 C231 917 219 911 208 901 C196 890 187 880 182 868 C175 849 176 833 187 822 L187 822 Z " />
<glyph glyph-name="a" unicode="a" horiz-adv-x="656" d="M-37 13 C-28 -4 -16 -13 -1 -13 C13 -13 34 8 63 51 C216 78 345 104 448 127 C451 106 454 86 458 66 C465 37 476 23 489 23 C516 23 559 51 565 78 C567 85 564 100 557 123 C503 258 477 401 458 545 C457 547 457 565 454 598 C452 619 450 636 446 649 C441 663 432 670 418 670 C388 670 365 656 347 629 L196 386 C137 293 81 215 28 152 C14 137 0 122 -12 107 C-32 85 -43 70 -45 62 C-48 47 -46 30 -37 13 L-37 13 Z M135 156 C261 354 341 478 377 529 C402 395 419 294 430 227 C339 196 241 173 135 156 L135 156 Z " />
<glyph glyph-name="b" unicode="b" horiz-adv-x="658" d="M31 27 C36 14 49 6 71 3 C80 2 98 2 125 2 C242 2 330 11 392 30 C492 61 549 103 562 156 C571 191 561 223 531 252 C508 276 478 294 442 305 C537 354 592 409 608 472 C623 534 613 582 579 617 C547 649 499 665 436 665 C325 665 242 614 160 545 C110 502 82 467 75 440 C72 427 72 416 74 405 C78 392 85 385 96 385 C98 385 100 385 102 386 C50 159 26 39 31 27 L31 27 Z M163 309 C168 334 174 358 180 382 C189 415 198 447 206 478 C279 537 343 566 399 566 C436 566 467 558 493 543 C526 524 537 497 529 464 C522 437 501 408 465 379 C412 336 311 312 163 309 L163 309 Z M128 99 C131 127 134 157 139 190 C191 223 244 239 299 239 C335 239 373 232 414 219 C466 202 490 181 484 155 C481 142 466 129 440 115 C411 100 357 92 276 92 C234 92 185 94 128 99 L128 99 Z " />
<glyph glyph-name="c" unicode="c" horiz-adv-x="676" d="M33 71 C58 27 101 5 164 5 C255 5 372 47 514 132 C528 141 542 149 557 157 C575 170 586 181 589 192 C595 218 593 231 580 231 C575 231 550 220 506 199 C428 162 311 107 225 107 C183 107 149 118 125 141 C98 166 90 199 100 239 C114 296 157 356 227 419 C308 490 409 534 533 553 C533 536 533 520 531 503 C533 480 539 468 550 468 C576 468 628 498 634 525 C636 534 636 547 635 565 C633 583 634 597 636 606 C643 632 646 648 644 653 C641 662 627 666 602 666 C351 666 82 476 22 228 C6 164 10 112 33 71 L33 71 Z " />
<glyph glyph-name="d" unicode="d" horiz-adv-x="699" d="M-1 17 C1 7 6 2 15 2 C15 2 31 6 63 13 C208 39 327 65 457 145 C569 213 637 296 662 393 C680 466 669 529 632 582 C594 635 537 661 464 661 C364 661 259 618 147 531 C126 514 111 502 104 495 C89 480 81 465 77 450 C73 434 74 420 80 408 C23 157 -4 27 -1 17 L-1 17 Z M177 472 C255 532 329 562 398 562 C453 562 495 543 527 506 C557 468 566 422 552 367 C506 185 265 122 102 107 C114 231 141 353 177 472 L177 472 Z " />
<glyph glyph-name="e" unicode="e" horiz-adv-x="653" d="M17 17 C23 0 42 -8 73 -8 C160 -8 487 17 512 130 C517 148 508 157 487 157 C481 157 473 156 462 154 L288 118 C222 106 166 100 118 100 C123 161 133 224 147 289 C245 319 381 344 557 363 C593 368 612 377 615 390 C618 402 612 414 598 425 C585 435 572 441 559 442 C549 444 534 445 515 445 C416 445 302 427 171 391 C180 430 191 468 203 504 C261 527 312 542 355 549 C377 553 427 558 506 565 C539 568 557 578 561 595 C565 608 561 622 552 637 C542 652 527 662 509 667 C499 670 480 671 452 670 L419 670 C388 670 353 665 312 654 C276 643 240 633 204 623 C182 616 167 611 161 607 C148 599 140 588 134 573 C128 567 91 387 87 367 C66 359 51 343 45 320 C39 295 45 278 65 271 C29 113 13 28 17 17 L17 17 Z " />
<glyph glyph-name="f" unicode="f" horiz-adv-x="615" d="M14 20 C16 9 24 3 39 3 C66 3 106 16 113 46 C117 62 120 82 123 107 C126 168 134 229 147 289 C242 320 367 344 523 361 C547 364 564 369 572 377 C574 380 576 384 577 388 C580 399 576 410 564 421 C551 432 539 438 526 440 C517 441 504 442 487 442 C396 442 291 425 170 391 C179 427 189 464 201 502 C316 547 384 553 505 562 C538 565 556 575 561 593 C564 606 560 620 551 635 C541 650 526 660 508 664 C499 667 480 668 451 668 C407 668 366 664 327 655 C317 652 276 641 203 620 C181 614 167 609 160 604 C148 597 139 585 133 570 C131 567 128 553 121 528 C115 504 104 450 86 365 C64 360 51 345 45 320 C37 291 44 274 64 269 C28 114 11 31 14 20 L14 20 Z " />
<glyph glyph-name="g" unicode="g" horiz-adv-x="746" d="M31 67 C56 22 101 0 166 0 C267 0 393 51 546 154 C629 211 676 259 686 299 C699 351 641 377 513 377 C457 377 299 365 254 342 C228 330 185 294 178 265 C174 250 180 242 195 242 C207 242 224 244 248 249 C331 269 442 291 525 291 C570 291 591 281 586 262 C584 255 575 244 559 231 C485 168 308 105 210 105 C171 105 140 117 117 141 C94 165 87 196 97 235 C117 311 192 391 253 438 C328 496 421 533 531 550 C531 522 530 505 530 500 C532 476 538 464 548 464 C570 464 624 493 630 515 C633 526 633 541 632 561 C631 580 632 595 635 606 C641 631 642 645 641 650 C636 658 623 662 600 662 C351 662 83 476 22 230 C5 163 8 108 31 67 L31 67 Z " />
<glyph glyph-name="h" unicode="h" horiz-adv-x="610" d="M1 14 C3 3 10 -2 25 -2 C46 -2 92 14 99 36 C100 41 103 67 106 114 C111 155 119 209 132 276 C225 307 327 330 438 345 C428 288 415 231 402 174 C385 107 354 32 404 32 C431 32 470 49 476 74 C483 97 484 124 484 148 C490 197 504 266 527 356 C568 356 591 365 595 383 C598 394 593 405 581 416 C571 425 559 431 547 434 C562 483 577 529 592 573 L611 625 C619 650 626 666 594 666 C526 666 505 631 490 570 L457 433 C360 428 259 409 155 378 C169 433 184 487 201 538 C215 582 222 604 222 605 C226 623 218 632 195 632 C155 632 117 608 107 569 C91 506 74 427 58 334 C45 256 31 178 17 100 C13 85 10 71 6 56 C2 37 1 23 1 14 L1 14 Z " />
<glyph glyph-name="i" unicode="i" horiz-adv-x="217" d="M25 17 C38 17 52 20 68 26 C85 34 95 44 98 55 C100 65 103 78 103 93 C106 116 107 129 107 132 C123 261 161 398 203 521 C204 525 210 543 223 574 C232 596 237 614 241 628 C244 642 236 649 215 649 C163 649 131 626 120 581 C106 524 88 447 67 350 C46 256 27 162 4 68 C-4 34 2 17 25 17 L25 17 Z " />
<glyph glyph-name="j" unicode="j" horiz-adv-x="692" d="M70 111 C109 45 168 12 249 12 C385 12 508 103 572 219 C628 317 698 496 698 613 C698 630 694 643 686 651 C676 662 649 668 606 668 C526 668 466 660 426 645 C397 634 378 609 368 571 C364 556 368 548 379 548 C392 548 418 552 456 561 C493 569 520 573 538 573 C557 573 568 569 571 560 C581 537 572 471 545 361 C523 271 498 193 413 143 C375 120 333 108 289 108 C236 108 193 127 161 164 C133 195 124 248 129 321 C132 354 124 371 106 371 C74 371 54 356 47 327 C27 245 35 173 70 111 L70 111 Z " />
<glyph glyph-name="k" unicode="k" horiz-adv-x="617" d="M-9 33 C-7 22 2 17 18 17 C31 17 45 20 60 27 C76 36 85 46 89 59 C90 66 95 100 102 161 C136 128 181 100 237 79 C330 42 384 24 395 24 C417 24 480 44 486 67 C487 73 480 80 465 88 C364 130 276 192 196 266 C241 301 304 350 385 412 C511 507 579 559 589 566 C617 585 631 599 633 606 C638 624 624 633 592 633 C581 633 572 632 562 629 C533 621 391 524 138 332 C158 415 182 498 214 577 C222 598 227 615 231 628 C234 643 225 650 202 650 C167 650 130 631 116 600 C114 596 110 582 104 558 C93 513 72 420 41 281 C6 123 -11 40 -9 33 L-9 33 Z " />
<glyph glyph-name="l" unicode="l" horiz-adv-x="589" d="M-3 39 C3 20 27 11 72 11 C171 11 350 43 438 88 C468 104 486 125 492 151 C497 170 488 179 467 179 C454 179 419 172 365 159 C300 144 263 135 254 134 C204 125 152 121 98 121 C110 263 144 404 187 540 C205 598 215 626 214 623 C218 638 209 645 189 645 C159 645 137 633 124 610 C116 599 108 575 99 538 C85 482 65 395 41 277 C9 130 -6 50 -3 39 L-3 39 Z " />
<glyph glyph-name="m" unicode="m" horiz-adv-x="788" d="M-39 18 C-32 -3 -23 -13 -11 -13 C-4 -13 4 -8 12 2 C30 30 43 51 50 66 C152 244 222 368 261 438 C272 235 280 116 283 79 L280 70 C276 54 277 37 281 18 C287 -2 297 -12 310 -12 C317 -12 325 -7 334 2 C342 9 382 81 453 216 C498 299 543 381 586 463 C589 386 592 308 595 230 C601 102 605 34 609 26 C613 21 617 18 623 18 C650 18 693 57 699 83 C700 86 696 117 688 177 C672 278 665 408 668 567 L671 639 C671 675 663 693 650 693 C630 693 613 679 599 652 C566 587 541 537 526 504 C468 387 414 286 362 201 C342 342 333 460 333 553 C333 571 333 589 334 607 C332 632 325 645 314 645 C293 645 276 631 261 604 C221 527 182 451 142 374 C96 287 51 211 9 148 C-1 134 -10 120 -21 107 C-35 87 -42 73 -44 66 C-47 53 -45 37 -39 18 L-39 18 Z " />
<glyph glyph-name="n" unicode="n" horiz-adv-x="665" d="M-18 0 C-16 -12 -8 -18 9 -18 C33 -18 74 -2 81 24 C83 32 85 42 86 55 C87 73 88 83 87 86 C102 203 132 320 168 432 L400 67 C410 46 422 21 441 21 C486 21 513 38 521 71 C523 79 524 90 526 103 C527 118 529 129 529 134 C534 166 543 206 555 253 C586 378 625 494 673 603 C685 628 690 643 691 647 C696 667 690 677 671 677 C630 677 604 661 592 630 C581 601 569 566 556 525 C546 489 536 453 525 418 C490 296 469 226 464 209 L223 604 C218 611 209 615 195 615 C157 615 130 603 115 578 C109 568 100 540 88 494 C81 466 63 381 32 239 C-2 86 -20 6 -18 0 L-18 0 Z " />
<glyph glyph-name="o" unicode="o" horiz-adv-x="815" d="M79 84 C126 23 194 -7 284 -7 C493 -7 722 164 772 369 C794 458 782 532 734 593 C686 653 617 683 528 683 C319 683 91 511 42 307 C19 218 32 144 79 84 L79 84 Z M157 333 C190 466 323 600 466 600 C536 600 588 573 623 518 C657 465 665 404 647 333 C615 200 480 66 338 66 C268 66 215 93 181 148 C147 201 139 262 157 333 L157 333 Z " />
<glyph glyph-name="p" unicode="p" horiz-adv-x="639" d="M-3 11 C1 2 9 -2 22 -2 C46 -2 90 14 96 40 C100 57 103 79 104 106 C107 142 109 164 110 172 C284 195 571 269 620 465 C634 522 623 571 587 610 C552 648 506 667 447 667 C364 667 275 631 179 559 C118 512 84 475 77 448 C73 430 73 415 80 404 C19 151 -8 20 -3 11 L-3 11 Z M125 261 C140 334 157 405 178 476 C252 535 319 565 376 565 C415 565 448 554 477 532 C512 508 524 478 515 441 C507 409 484 376 444 342 C387 293 281 266 125 261 L125 261 Z " />
<glyph glyph-name="q" unicode="q" horiz-adv-x="813" d="M77 82 C124 24 193 -5 285 -5 C368 -5 449 19 528 66 C572 46 600 36 611 36 C627 36 656 51 659 66 C662 75 654 85 637 96 C632 98 620 104 598 115 C689 190 746 275 770 371 C793 460 780 535 733 594 C685 653 616 683 527 683 C316 683 93 511 41 306 C18 214 31 139 77 82 L77 82 Z M155 333 C190 470 324 600 471 600 C539 600 590 572 625 516 C656 462 664 401 647 332 C630 266 595 208 540 157 C511 180 479 211 448 250 C422 285 395 319 369 353 C362 361 357 365 353 365 C344 365 334 356 322 339 C314 325 308 312 305 301 C295 262 310 222 350 180 C378 151 414 125 459 100 C417 79 376 68 335 68 C265 68 213 95 178 149 C145 200 137 262 155 333 L155 333 Z " />
<glyph glyph-name="r" unicode="r" horiz-adv-x="654" d="M26 16 C28 5 38 0 54 0 C78 0 117 13 124 39 C127 50 129 66 129 85 C130 106 131 121 133 130 C195 92 327 46 399 46 C419 46 445 64 449 81 C452 90 447 96 437 101 C426 104 418 106 411 107 C361 120 303 149 237 193 C382 223 594 300 634 461 C649 522 637 572 597 611 C559 646 510 664 448 664 C339 664 226 609 109 498 C92 481 81 466 78 453 C72 430 83 402 105 397 C48 156 22 29 26 16 L26 16 Z M153 265 C168 337 186 408 206 479 C280 538 346 568 403 568 C442 568 476 557 504 536 C536 511 547 481 538 445 C530 412 506 378 467 344 C410 295 305 269 153 265 L153 265 Z " />
<glyph glyph-name="s" unicode="s" horiz-adv-x="716" d="M17 91 C37 24 74 1 142 1 C335 1 556 128 650 297 C655 306 660 318 664 332 C672 365 668 384 650 391 C628 400 570 409 478 416 C400 423 201 424 203 434 C204 439 211 447 225 460 C301 534 387 571 484 571 C493 571 502 571 510 570 C510 528 517 507 528 507 C552 507 605 535 612 559 C619 584 619 622 619 648 C624 679 614 683 579 683 C432 683 295 627 170 516 C112 465 79 425 72 397 C60 350 73 332 119 328 C185 325 252 322 318 319 C404 314 466 304 504 288 C519 281 525 271 522 256 C486 148 347 92 241 92 C160 92 108 115 84 161 C80 174 75 186 69 199 C62 214 52 222 39 222 C26 222 17 210 11 186 C4 156 6 124 17 91 L17 91 Z " />
<glyph glyph-name="t" unicode="t" horiz-adv-x="540" d="M80 512 C86 497 96 490 111 490 C122 490 145 496 184 509 C210 517 236 526 262 535 C185 210 148 38 150 19 C153 8 160 3 175 3 C197 3 243 17 249 41 C250 44 252 68 256 112 C268 262 309 409 352 552 C403 557 456 560 512 562 C541 564 560 569 569 577 C573 581 576 586 578 593 C579 598 578 603 577 610 C572 635 554 651 524 660 C506 665 477 668 440 668 C317 668 213 650 127 613 C101 602 85 582 78 555 C74 540 75 525 80 512 L80 512 Z " />
<glyph glyph-name="u" unicode="u" horiz-adv-x="608" d="M26 18 C114 18 326 96 409 137 C395 72 389 38 389 34 C391 23 399 17 415 17 C442 17 482 34 488 59 C489 64 493 91 499 141 C517 271 550 397 591 521 C599 534 624 608 630 628 C633 643 623 651 598 651 C526 651 512 597 496 539 C477 461 455 362 431 242 C368 213 176 134 116 134 C109 134 105 135 102 137 C95 145 103 192 125 279 C153 394 179 482 202 545 C222 602 232 630 232 628 C235 643 227 650 206 650 C170 650 144 639 128 617 C118 603 109 576 99 536 C86 484 70 413 52 324 C34 237 17 151 -5 64 C-13 33 -3 18 26 18 L26 18 Z " />
<glyph glyph-name="v" unicode="v" horiz-adv-x="523" d="M102 325 C111 145 119 49 123 37 C130 21 148 13 178 13 C209 13 230 21 240 36 C259 73 272 101 278 122 C345 272 428 413 528 543 C547 568 558 584 560 591 C562 599 557 605 547 610 C539 613 532 615 523 615 C496 615 474 604 455 581 C436 558 413 522 385 474 C362 437 341 400 319 363 C265 273 225 206 197 161 C177 292 171 420 179 545 C181 566 183 588 186 611 C186 640 178 655 161 655 C123 655 100 642 94 616 C90 601 93 504 102 325 L102 325 Z " />
<glyph glyph-name="w" unicode="w" horiz-adv-x="791" d="M85 581 C85 579 89 550 97 494 C109 405 117 273 116 97 C116 80 115 62 115 45 C113 2 113 -28 133 -28 C154 -28 172 -14 186 13 C255 144 331 278 414 416 C421 371 428 327 435 283 C443 230 448 185 448 148 C450 83 452 48 454 41 C457 26 462 19 471 19 C492 19 510 33 523 60 C603 213 642 290 642 290 C688 377 733 452 776 515 C811 567 829 595 830 599 C833 612 831 627 825 646 C817 667 808 678 796 678 C789 678 781 673 773 663 C758 641 748 624 742 611 C630 416 557 288 524 228 C520 288 514 347 507 404 C497 481 493 525 493 536 C492 557 492 570 491 574 C487 589 481 597 472 597 C450 597 423 571 390 519 C304 382 240 276 199 201 C192 303 189 383 188 442 C187 561 182 626 176 639 C172 644 168 647 163 647 C135 647 93 607 85 581 L85 581 Z " />
<glyph glyph-name="x" unicode="x" horiz-adv-x="544" d="M-3 10 C7 4 18 1 31 1 C48 1 63 7 74 19 C97 50 114 74 125 91 C157 135 199 189 252 253 C277 204 296 168 309 145 C317 128 325 111 334 94 C343 73 353 57 364 48 C367 45 371 43 376 43 C388 43 401 52 417 70 C430 87 438 102 441 115 C443 124 443 131 439 137 C421 164 407 184 396 196 C382 214 368 235 353 260 C345 273 333 296 316 328 C393 415 464 493 532 560 C565 592 581 608 581 608 C598 627 587 646 573 656 C562 664 549 668 534 668 C515 668 498 660 482 645 C451 614 416 574 376 526 C343 485 309 445 276 404 C247 461 221 520 197 581 C197 581 193 595 184 623 C179 640 173 653 166 662 C162 669 157 672 150 672 C123 672 97 632 92 609 C89 596 90 583 93 570 C105 534 123 493 148 446 C170 407 192 367 214 328 C62 143 -15 47 -17 40 C-20 28 -15 18 -3 10 L-3 10 Z " />
<glyph glyph-name="y" unicode="y" horiz-adv-x="625" d="M79 13 C89 6 99 2 111 2 C133 2 154 15 176 42 C305 240 456 401 621 566 C652 596 697 630 656 657 C644 665 631 669 617 669 C598 669 581 661 565 646 C529 607 503 576 485 555 C379 427 316 353 299 333 C245 432 200 537 164 644 C160 652 155 656 150 656 C126 656 93 611 87 589 C84 578 85 565 89 551 C122 484 146 434 165 401 L237 258 C124 117 67 44 66 41 C64 30 68 21 79 13 L79 13 Z " />
<glyph glyph-name="z" unicode="z" horiz-adv-x="666" d="M50 14 C67 11 106 10 166 10 C311 10 420 22 494 46 C519 54 551 76 556 99 C560 115 549 123 522 123 C516 123 508 123 497 122 C351 108 252 101 202 101 C173 101 146 102 121 104 C237 231 369 354 514 471 C518 474 534 485 562 506 C580 521 596 534 607 545 C621 559 629 571 631 581 C639 613 612 636 549 649 C510 657 466 661 416 661 C358 661 183 651 151 603 C146 595 142 587 140 580 C132 548 146 525 178 525 C182 525 187 525 194 526 C276 543 355 552 430 552 C443 552 455 552 468 551 C291 383 159 257 71 172 C59 161 46 149 34 138 C3 110 -12 91 -16 75 C-24 43 -2 23 50 14 L50 14 Z " />
<glyph glyph-name="braceleft" unicode="&#x7b;" horiz-adv-x="683" d="M62 292 C69 292 96 295 142 300 C219 309 276 314 313 314 C344 314 384 311 435 304 C467 300 484 298 485 298 C500 298 512 305 525 318 C535 331 542 345 546 361 C550 377 547 387 536 391 C529 394 498 395 445 395 C383 395 308 393 222 390 C161 388 126 387 115 386 C81 381 53 357 45 322 C40 302 45 292 62 292 L62 292 Z M374 645 C392 636 406 630 417 626 C465 606 498 589 515 576 C517 575 532 559 561 530 C585 505 599 492 602 492 C627 492 670 534 676 558 C677 561 677 564 675 567 C656 591 464 719 443 719 C418 719 376 685 370 660 C368 654 370 649 374 645 L374 645 Z M251 -43 C256 -58 264 -66 275 -66 C279 -66 307 -45 361 -2 C410 37 466 71 532 99 C546 104 559 109 569 114 C575 118 578 123 580 130 C583 141 581 154 576 171 C571 190 563 200 553 200 C537 200 294 47 266 23 C257 15 251 6 248 -4 C246 -15 246 -28 251 -43 L251 -43 Z " />
<glyph glyph-name="bar" unicode="&#x7c;" horiz-adv-x="209" d="M-10 -78 C18 -78 60 -56 67 -27 C74 -4 82 55 82 78 C92 143 111 228 137 333 C156 411 179 491 206 573 C207 580 215 602 230 641 C240 670 247 693 251 711 C256 730 247 740 226 740 C175 740 141 708 126 645 C107 570 84 471 56 347 C23 199 1 100 -11 49 L-14 35 C-18 20 -22 4 -26 -11 C-31 -30 -32 -45 -32 -56 C-33 -71 -25 -78 -10 -78 L-10 -78 Z " />
<glyph glyph-name="braceright" unicode="&#x7d;" horiz-adv-x="683" d="M140 261 C148 258 181 256 242 256 C348 256 455 258 561 266 C598 272 621 293 630 329 C635 349 629 359 612 359 C608 359 581 356 531 350 C459 341 402 337 360 337 C332 337 291 341 238 348 C208 352 192 354 187 354 C158 354 132 315 127 290 C123 275 127 265 140 261 L140 261 Z M98 479 C103 460 111 451 121 451 C139 451 381 604 408 629 C417 637 423 646 426 655 C428 666 428 679 422 694 C418 711 411 719 400 719 C397 719 371 701 324 664 C272 624 241 602 233 597 C184 574 142 554 106 538 C100 533 97 528 95 521 C92 509 93 495 98 479 L98 479 Z M0 85 C18 61 208 -67 231 -67 C258 -67 299 -32 305 -6 C306 0 301 6 289 12 C249 25 189 49 159 76 C158 77 142 92 115 122 C90 147 76 160 72 160 C49 160 4 117 -2 95 C-3 91 -3 88 0 85 L0 85 Z " />
<glyph glyph-name="asciitilde" unicode="&#x7e;" horiz-adv-x="531" d="M49 307 C51 289 56 280 65 280 C71 280 86 290 112 310 C137 329 157 339 174 339 C192 339 220 329 258 310 C295 290 325 280 346 280 C393 280 477 326 489 374 C492 385 492 399 491 415 C489 433 482 442 473 442 C453 427 434 412 415 397 C390 380 369 372 351 372 C327 372 295 382 257 401 C218 420 188 430 168 430 C145 430 122 422 98 405 C72 387 58 368 52 347 C49 335 48 322 49 307 L49 307 Z " />
<glyph glyph-name="exclamdown" unicode="&#xa1;" horiz-adv-x="375" d="M-23 -83 C-9 -86 5 -87 18 -87 C52 -87 75 -79 87 -63 C112 -32 144 27 183 115 C211 178 239 242 265 305 C267 307 272 318 284 339 C290 353 295 364 297 373 C301 389 289 397 262 397 C243 397 230 390 222 376 C217 362 212 348 207 333 C192 291 165 243 127 188 C95 142 60 96 28 50 L-49 -58 C-52 -70 -43 -78 -23 -83 L-23 -83 Z M300 475 C333 475 353 483 358 495 C367 518 377 550 388 593 C392 608 382 616 358 616 C336 616 321 611 311 598 C299 581 266 508 260 488 C258 479 271 475 300 475 L300 475 Z " />
<glyph glyph-name="cent" unicode="&#xa2;" horiz-adv-x="544" d="M39 120 C61 100 92 91 135 91 C147 91 161 92 173 93 C168 83 166 73 163 61 C155 45 146 27 139 11 C130 -13 133 -25 148 -29 C175 -36 216 -21 231 9 C242 32 241 44 271 117 C344 144 440 187 474 261 C474 267 470 271 461 271 C444 271 412 258 365 230 C318 203 279 188 248 188 C212 188 184 196 164 210 C140 227 134 253 143 288 C157 349 278 441 340 441 C359 441 377 432 395 414 C412 396 426 387 434 387 C460 387 502 406 507 428 C512 448 499 476 468 514 C454 533 436 545 415 550 C434 611 443 646 442 656 C442 667 437 672 429 674 C417 678 402 676 384 672 C364 667 352 659 346 646 C344 643 339 617 330 570 C328 562 328 554 328 545 C277 530 225 494 171 437 C83 345 33 272 19 217 C8 175 14 142 39 120 L39 120 Z " />
<glyph glyph-name="sterling" unicode="&#xa3;" horiz-adv-x="612" d="M34 35 C51 18 113 7 222 2 C256 0 323 -1 422 -1 C462 -1 481 13 490 53 C492 60 492 65 493 70 C499 103 250 105 223 113 C279 171 304 213 312 244 C402 258 455 268 468 274 C479 279 483 286 486 296 C489 309 489 323 485 338 C480 355 471 364 458 364 C451 364 424 357 378 343 C335 330 307 323 292 319 C244 371 151 393 318 544 C347 571 388 574 425 574 C484 574 521 551 535 506 C540 491 542 482 545 479 C550 472 557 468 567 468 C577 468 585 480 591 504 C598 534 599 566 592 599 C582 653 566 689 506 689 C342 689 179 533 113 393 C95 353 113 327 137 305 L104 305 C97 306 91 306 87 306 C56 306 39 297 34 278 C27 247 43 215 72 215 C92 215 138 220 209 230 C207 203 166 169 43 113 C32 108 26 107 23 94 C18 75 25 46 34 35 L34 35 Z " />
<glyph glyph-name="dieresis" unicode="&#xa8;" horiz-adv-x="369" d="M174 712 C193 712 206 718 214 729 C223 743 257 812 259 827 C262 837 251 842 226 842 C198 842 180 836 175 823 C166 801 157 771 148 734 C144 719 153 712 174 712 L174 712 Z M354 713 C373 713 387 719 395 730 C402 738 438 818 440 828 C443 838 432 843 406 843 C378 843 363 837 356 824 C347 802 338 772 328 735 C325 720 333 713 354 713 L354 713 Z " />
<glyph glyph-name="copyright" unicode="&#xa9;" horiz-adv-x="792" d="M64 58 C107 1 169 -28 251 -28 C457 -28 706 191 755 393 C776 476 764 546 722 604 C679 661 616 690 535 690 C325 690 84 470 32 267 C12 185 22 115 64 58 L64 58 Z M140 309 C168 422 238 507 352 565 C403 591 450 604 491 604 C555 604 599 575 626 518 C650 467 654 408 638 342 C610 231 539 146 426 87 C374 60 328 47 286 47 C223 47 178 76 151 133 C127 184 124 243 140 309 L140 309 Z M208 172 C225 157 249 149 282 149 C361 149 508 204 543 280 C543 285 540 288 533 288 C520 288 495 277 459 256 C423 235 393 224 369 224 C341 224 319 230 304 241 C286 254 281 274 288 301 C300 348 391 419 439 419 C454 419 469 412 482 398 C496 384 506 377 512 377 C532 377 565 392 569 409 C573 424 562 446 538 475 C522 496 500 506 474 506 C421 506 367 476 310 416 C242 345 203 289 192 246 C184 214 189 189 208 172 L208 172 Z " />
<glyph glyph-name="guillemotleft" unicode="&#xab;" horiz-adv-x="586" d="M45 316 C45 304 55 292 75 284 C117 267 166 233 226 182 C237 172 248 166 253 166 C268 166 281 190 281 202 C281 214 272 226 254 238 C179 291 135 320 126 325 C163 364 208 399 259 430 C276 440 284 449 284 458 C284 477 260 490 246 490 C227 490 90 374 67 354 C54 349 45 326 45 316 L45 316 Z M295 284 C337 267 386 233 446 182 C457 172 468 166 473 166 C488 166 501 190 501 202 C501 214 491 226 474 238 C398 291 355 320 346 325 C383 364 428 399 479 430 C496 440 504 449 504 458 C504 477 480 490 466 490 C447 490 310 374 287 354 C274 349 265 326 265 316 C265 304 275 292 295 284 L295 284 Z " />
<glyph glyph-name="registered" unicode="&#xae;" horiz-adv-x="793" d="M65 59 C106 -1 167 -30 246 -30 C454 -30 704 190 756 393 C777 476 765 546 723 604 C680 661 617 690 535 690 C328 690 80 470 32 267 C12 187 22 118 65 59 L65 59 Z M140 308 C177 456 330 602 487 602 C552 602 598 574 625 519 C651 468 655 410 639 343 C611 231 539 146 426 87 C375 60 329 47 287 47 C224 47 179 76 152 133 C128 184 124 243 140 308 L140 308 Z M212 135 C213 128 219 125 229 125 C244 125 266 134 270 147 C271 154 274 177 277 218 L437 153 C445 150 453 149 461 149 C474 149 481 152 482 157 C484 166 478 176 463 186 L363 247 C448 268 542 300 566 395 C576 436 567 469 536 492 C509 512 473 522 430 522 C376 522 318 495 256 442 C231 421 217 405 215 396 C211 383 219 361 230 361 C237 361 248 369 264 386 C226 233 208 150 212 135 L212 135 Z M326 434 C361 455 393 465 422 465 C447 465 469 458 487 445 C508 430 515 410 509 386 C494 325 424 291 298 286 L291 292 C300 340 312 387 326 434 L326 434 Z " />
<glyph glyph-name="degree" unicode="&#xb0;" horiz-adv-x="401" d="M107 411 C126 385 155 373 193 373 C281 373 376 444 398 530 C407 567 402 598 381 624 C361 649 333 662 296 662 C208 662 113 590 91 504 C82 467 87 436 107 411 L107 411 Z M173 515 C182 552 219 591 260 591 C281 591 295 583 305 568 C315 552 317 535 312 515 C303 478 264 439 224 439 C204 439 190 447 180 463 C171 478 168 495 173 515 L173 515 Z " />
<glyph glyph-name="acute" unicode="&#xb4;" horiz-adv-x="351" d="M156 709 C162 700 170 697 181 699 C190 701 203 707 218 717 C236 728 267 746 312 769 C352 790 384 807 404 822 C421 833 430 849 432 868 C433 880 429 890 423 901 C417 911 407 917 396 915 C379 911 199 791 173 771 C158 759 150 747 149 736 C148 725 151 716 156 709 L156 709 Z " />
<glyph glyph-name="periodcentered" unicode="&#xb7;" horiz-adv-x="202" d="M65 258 C88 258 103 265 112 278 C123 298 161 372 164 390 C167 401 154 407 125 407 C93 407 74 400 68 386 C57 361 47 327 36 283 C32 266 42 258 65 258 L65 258 Z " />
<glyph glyph-name="cedilla" unicode="&#xb8;" horiz-adv-x="260" d="M-51 -167 C-41 -172 -30 -169 -16 -162 C-2 -155 49 -121 90 -68 C132 -12 130 34 132 40 C137 62 113 75 91 75 C73 75 60 68 48 53 C33 35 40 -6 18 -41 C-5 -79 -18 -86 -34 -97 C-49 -108 -59 -116 -64 -123 C-76 -139 -65 -159 -51 -167 L-51 -167 Z " />
<glyph glyph-name="guillemotright" unicode="&#xbb;" horiz-adv-x="596" d="M325 430 C376 399 421 364 458 325 C449 320 405 291 330 238 C312 226 303 214 303 202 C303 190 316 166 331 166 C336 166 347 172 358 182 C418 233 467 267 509 284 C529 292 539 304 539 316 C539 326 530 349 517 354 C494 374 357 490 338 490 C324 490 300 477 300 458 C300 449 308 440 325 430 L325 430 Z M105 430 C156 399 201 364 238 325 C229 320 186 291 110 238 C93 226 83 214 83 202 C83 190 96 166 111 166 C116 166 127 172 138 182 C198 233 247 267 289 284 C309 292 319 304 319 316 C319 326 310 349 297 354 C274 374 137 490 118 490 C104 490 80 477 80 458 C80 449 88 440 105 430 L105 430 Z " />
<glyph glyph-name="questiondown" unicode="&#xbf;" horiz-adv-x="651" d="M45 -41 C89 -75 144 -92 207 -92 C297 -92 424 -51 495 5 C514 19 525 38 531 61 C535 78 533 87 524 87 C519 87 502 78 476 63 C422 33 348 -6 286 -6 C244 -6 206 3 172 24 C131 48 115 80 124 117 C130 143 152 169 187 195 C234 228 313 245 425 245 C479 245 507 246 511 248 C522 254 537 293 555 366 C558 379 547 385 521 385 C502 385 486 379 477 368 C472 363 466 349 455 324 C278 313 147 273 62 207 C24 176 1 144 -8 107 C-23 47 -6 -2 45 -41 L45 -41 Z M555 487 C588 487 608 494 615 509 C624 529 632 553 638 580 C642 595 632 603 608 603 C586 603 571 598 562 588 C549 572 524 520 516 500 C514 491 527 487 555 487 L555 487 Z " />
<glyph glyph-name="Agrave" unicode="&#xc0;" horiz-adv-x="656" d="M-37 13 C-28 -4 -16 -13 -1 -13 C13 -13 34 8 63 51 C216 78 345 104 448 127 C451 106 454 86 458 66 C465 37 476 23 489 23 C516 23 559 51 565 78 C567 85 564 100 557 123 C503 258 477 401 458 545 C457 547 457 565 454 598 C452 619 450 636 446 649 C441 663 432 670 418 670 C388 670 365 656 347 629 L196 386 C137 293 81 215 28 152 C14 137 0 122 -12 107 C-32 85 -43 70 -45 62 C-48 47 -46 30 -37 13 L-37 13 Z M135 156 C261 354 341 478 377 529 C402 395 419 294 430 227 C339 196 241 173 135 156 L135 156 Z M308 816 C321 801 344 784 374 763 C407 740 429 722 442 711 C452 701 462 695 470 693 C480 691 489 694 500 703 C508 710 516 719 520 730 C525 741 523 753 514 765 C498 785 376 905 363 909 C352 911 340 905 329 895 C317 884 308 874 303 862 C296 843 297 827 308 816 L308 816 Z " />
<glyph glyph-name="Aacute" unicode="&#xc1;" horiz-adv-x="656" d="M-37 13 C-28 -4 -16 -13 -1 -13 C13 -13 34 8 63 51 C216 78 345 104 448 127 C451 106 454 86 458 66 C465 37 476 23 489 23 C516 23 559 51 565 78 C567 85 564 100 557 123 C503 258 477 401 458 545 C457 547 457 565 454 598 C452 619 450 636 446 649 C441 663 432 670 418 670 C388 670 365 656 347 629 L196 386 C137 293 81 215 28 152 C14 137 0 122 -12 107 C-32 85 -43 70 -45 62 C-48 47 -46 30 -37 13 L-37 13 Z M135 156 C261 354 341 478 377 529 C402 395 419 294 430 227 C339 196 241 173 135 156 L135 156 Z M303 705 C309 696 317 693 328 695 C337 697 350 703 365 713 C383 724 414 742 459 765 C499 786 531 803 551 818 C568 829 577 845 579 864 C580 876 576 886 570 897 C564 907 554 913 543 911 C526 907 346 787 320 767 C305 755 297 743 296 732 C295 721 298 712 303 705 L303 705 Z " />
<glyph glyph-name="Acircumflex" unicode="&#xc2;" horiz-adv-x="656" d="M-37 13 C-28 -4 -16 -13 -1 -13 C13 -13 34 8 63 51 C216 78 345 104 448 127 C451 106 454 86 458 66 C465 37 476 23 489 23 C516 23 559 51 565 78 C567 85 564 100 557 123 C503 258 477 401 458 545 C457 547 457 565 454 598 C452 619 450 636 446 649 C441 663 432 670 418 670 C388 670 365 656 347 629 L196 386 C137 293 81 215 28 152 C14 137 0 122 -12 107 C-32 85 -43 70 -45 62 C-48 47 -46 30 -37 13 L-37 13 Z M377 529 C402 395 419 294 430 227 C339 196 241 173 135 156 C261 354 341 478 377 529 L377 529 Z M284 663 C294 663 306 671 321 686 C384 753 419 791 426 799 C452 766 473 727 489 682 C494 667 501 660 509 660 C525 660 542 681 545 693 C547 700 541 714 529 735 C496 797 473 836 464 851 C463 862 445 870 436 870 C425 870 413 861 401 844 C377 807 336 764 278 711 C267 701 260 692 258 687 C255 674 273 663 284 663 L284 663 Z " />
<glyph glyph-name="Atilde" unicode="&#xc3;" horiz-adv-x="656" d="M-37 13 C-28 -4 -16 -13 -1 -13 C13 -13 34 8 63 51 C216 78 345 104 448 127 C451 106 454 86 458 66 C465 37 476 23 489 23 C516 23 559 51 565 78 C567 85 564 100 557 123 C503 258 477 401 458 545 C457 547 457 565 454 598 C452 619 450 636 446 649 C441 663 432 670 418 670 C388 670 365 656 347 629 L196 386 C137 293 81 215 28 152 C14 137 0 122 -12 107 C-32 85 -43 70 -45 62 C-48 47 -46 30 -37 13 L-37 13 Z M135 156 C261 354 341 478 377 529 C402 395 419 294 430 227 C339 196 241 173 135 156 L135 156 Z M264 728 C266 715 269 708 275 708 C280 708 292 716 311 730 C330 745 344 752 357 752 C370 752 390 744 419 730 C446 715 468 708 484 708 C519 708 583 742 591 778 C593 786 592 796 592 808 C590 821 585 828 578 828 C563 817 550 806 535 795 C517 782 501 776 487 776 C470 776 447 785 419 798 C389 813 367 819 352 819 C335 819 319 814 300 801 C281 788 271 773 267 758 C265 749 263 739 264 728 L264 728 Z " />
<glyph glyph-name="Adieresis" unicode="&#xc4;" horiz-adv-x="656" d="M-37 13 C-28 -4 -16 -13 -1 -13 C13 -13 34 8 63 51 C216 78 345 104 448 127 C451 106 454 86 458 66 C465 37 476 23 489 23 C516 23 559 51 565 78 C567 85 564 100 557 123 C503 258 477 401 458 545 C457 547 457 565 454 598 C452 619 450 636 446 649 C441 663 432 670 418 670 C388 670 365 656 347 629 L196 386 C137 293 81 215 28 152 C14 137 0 122 -12 107 C-32 85 -43 70 -45 62 C-48 47 -46 30 -37 13 L-37 13 Z M377 529 C402 395 419 294 430 227 C339 196 241 173 135 156 C261 354 341 478 377 529 L377 529 Z M317 706 C336 706 349 712 357 723 C366 737 400 806 402 821 C405 831 394 836 369 836 C341 836 323 830 318 817 C309 795 300 765 291 728 C287 713 296 706 317 706 L317 706 Z M497 707 C516 707 530 713 538 724 C545 732 581 812 583 822 C586 832 575 837 549 837 C521 837 506 831 499 818 C490 796 481 766 471 729 C468 714 476 707 497 707 L497 707 Z " />
<glyph glyph-name="Aring" unicode="&#xc5;" horiz-adv-x="656" d="M-37 13 C-28 -4 -17 -13 -2 -13 C12 -13 34 8 62 51 C216 78 345 104 447 127 C451 106 454 86 457 66 C465 37 475 23 488 23 C515 23 559 50 565 78 C567 85 564 100 556 123 C551 138 545 153 539 168 C503 273 476 399 458 545 C457 547 457 565 454 598 C452 618 450 634 446 647 C494 668 536 707 550 758 C557 787 552 811 537 831 C521 851 499 861 470 861 C401 861 330 805 312 738 C305 709 308 686 324 666 C332 655 343 647 356 642 C353 638 350 634 346 629 L196 386 C137 293 80 215 28 152 C14 137 0 122 -13 107 C-32 85 -43 70 -45 62 C-49 47 -46 30 -37 13 L-37 13 Z M135 156 C261 354 341 478 377 529 C401 395 419 294 429 227 C339 196 241 173 135 156 L135 156 Z M375 747 C383 776 412 806 443 806 C460 806 470 800 478 788 C486 775 488 762 484 747 C477 717 447 688 415 688 C399 688 388 694 381 706 C373 718 371 731 375 747 L375 747 Z " />
<glyph glyph-name="AE" unicode="&#xc6;" horiz-adv-x="1081" d="M-55 16 C-46 9 -36 5 -25 3 C-4 0 21 11 49 37 L112 103 C115 106 118 109 121 111 C125 110 129 109 134 109 C160 109 228 117 338 133 C392 141 434 147 467 153 C449 70 442 25 445 17 C450 0 469 -8 500 -8 C591 -8 910 15 940 130 C944 148 936 157 915 157 C909 157 900 156 890 154 L716 118 C650 106 593 100 545 100 C551 161 560 224 574 289 C672 319 808 344 984 363 C1020 368 1039 377 1043 390 C1046 402 1040 414 1025 425 C1013 435 999 441 987 442 C976 444 961 445 942 445 C843 445 729 427 598 391 C608 430 618 468 630 504 C689 527 740 542 782 549 C804 553 855 558 933 565 C966 568 985 578 989 595 C992 608 989 622 979 637 C969 652 954 662 937 667 C926 670 908 671 879 670 L846 670 C815 670 780 665 739 654 C704 643 667 633 632 623 C621 620 612 617 606 614 C593 613 581 607 569 599 C524 563 490 535 468 516 C346 412 203 286 38 140 C21 125 3 109 -16 93 C-43 70 -60 55 -63 46 C-68 35 -64 25 -55 16 L-55 16 Z M216 200 C308 281 414 366 532 456 C525 425 519 396 514 367 C493 359 478 343 472 320 C466 295 473 278 492 271 C490 264 489 257 488 251 C475 247 459 243 440 237 C358 212 304 202 216 200 L216 200 Z " />
<glyph glyph-name="Ccedilla" unicode="&#xc7;" horiz-adv-x="676" d="M33 71 C58 27 101 5 164 5 C188 5 213 8 240 14 C234 -26 205 -61 173 -83 C158 -94 148 -102 143 -109 C131 -125 142 -145 156 -153 C166 -158 176 -155 191 -148 C205 -141 256 -107 297 -54 C328 -11 335 25 338 43 C391 64 449 94 514 132 C528 141 542 149 557 157 C575 170 586 181 589 192 C595 218 593 231 580 231 C575 231 550 220 506 199 C428 162 311 107 225 107 C183 107 149 118 125 141 C98 166 90 199 100 239 C114 296 157 356 227 419 C308 490 409 534 533 553 C533 536 533 520 531 503 C533 480 539 468 550 468 C576 468 628 498 634 525 C636 534 636 547 635 565 C633 583 634 597 636 606 C643 632 646 648 644 653 C641 662 627 666 602 666 C351 666 82 476 22 228 C6 164 10 112 33 71 L33 71 Z " />
<glyph glyph-name="Egrave" unicode="&#xc8;" horiz-adv-x="653" d="M17 17 C23 0 42 -8 73 -8 C160 -8 487 17 512 130 C517 148 508 157 487 157 C481 157 473 156 462 154 L288 118 C222 106 166 100 118 100 C123 161 133 224 147 289 C245 319 381 344 557 363 C593 368 612 377 615 390 C618 402 612 414 598 425 C585 435 572 441 559 442 C549 444 534 445 515 445 C416 445 302 427 171 391 C180 430 191 468 203 504 C261 527 312 542 355 549 C377 553 427 558 506 565 C539 568 557 578 561 595 C565 608 561 622 552 637 C542 652 527 662 509 667 C499 670 480 671 452 670 L419 670 C388 670 353 665 312 654 C276 643 240 633 204 623 C182 616 167 611 161 607 C148 599 140 588 134 573 C128 567 91 387 87 367 C66 359 51 343 45 320 C39 295 45 278 65 271 C29 113 13 28 17 17 L17 17 Z M307 816 C320 801 343 784 373 763 C406 740 428 722 441 711 C451 701 461 695 469 693 C479 691 488 694 499 703 C507 710 515 719 519 730 C524 741 522 753 513 765 C497 785 375 905 362 909 C351 911 339 905 328 895 C316 884 307 874 302 862 C295 843 296 827 307 816 L307 816 Z " />
<glyph glyph-name="Eacute" unicode="&#xc9;" horiz-adv-x="653" d="M17 17 C23 0 42 -8 73 -8 C160 -8 487 17 512 130 C517 148 508 157 487 157 C481 157 473 156 462 154 L288 118 C222 106 166 100 118 100 C123 161 133 224 147 289 C245 319 381 344 557 363 C593 368 612 377 615 390 C618 402 612 414 598 425 C585 435 572 441 559 442 C549 444 534 445 515 445 C416 445 302 427 171 391 C180 430 191 468 203 504 C261 527 312 542 355 549 C377 553 427 558 506 565 C539 568 557 578 561 595 C565 608 561 622 552 637 C542 652 527 662 509 667 C499 670 480 671 452 670 L419 670 C388 670 353 665 312 654 C276 643 240 633 204 623 C182 616 167 611 161 607 C148 599 140 588 134 573 C128 567 91 387 87 367 C66 359 51 343 45 320 C39 295 45 278 65 271 C29 113 13 28 17 17 L17 17 Z M275 703 C281 694 289 691 300 693 C309 695 322 701 337 711 C355 722 386 740 431 763 C471 784 503 801 523 816 C540 827 549 843 551 862 C552 874 548 884 542 895 C536 905 526 911 515 909 C498 905 318 785 292 765 C277 753 269 741 268 730 C267 719 270 710 275 703 L275 703 Z " />
<glyph glyph-name="Ecircumflex" unicode="&#xca;" horiz-adv-x="653" d="M17 17 C23 0 42 -8 73 -8 C160 -8 487 17 512 130 C517 148 508 157 487 157 C481 157 473 156 462 154 L288 118 C222 106 166 100 118 100 C123 161 133 224 147 289 C245 319 381 344 557 363 C593 368 612 377 615 390 C618 402 612 414 598 425 C585 435 572 441 559 442 C549 444 534 445 515 445 C416 445 302 427 171 391 C180 430 191 468 203 504 C261 527 312 542 355 549 C377 553 427 558 506 565 C539 568 557 578 561 595 C565 608 561 622 552 637 C542 652 527 662 509 667 C499 670 480 671 452 670 L419 670 C388 670 353 665 312 654 C276 643 240 633 204 623 C182 616 167 611 161 607 C148 599 140 588 134 573 C128 567 91 387 87 367 C66 359 51 343 45 320 C39 295 45 278 65 271 C29 113 13 28 17 17 L17 17 Z M292 703 C302 703 314 711 329 726 C392 793 427 831 434 839 C460 806 481 767 497 722 C502 707 509 700 517 700 C533 700 550 721 553 733 C555 740 549 754 537 775 C504 837 481 876 472 891 C471 902 453 910 444 910 C433 910 421 901 409 884 C385 847 344 804 286 751 C275 741 268 732 266 727 C263 714 281 703 292 703 L292 703 Z " />
<glyph glyph-name="Edieresis" unicode="&#xcb;" horiz-adv-x="653" d="M17 17 C23 0 42 -8 73 -8 C160 -8 487 17 512 130 C517 148 508 157 487 157 C481 157 473 156 462 154 L288 118 C222 106 166 100 118 100 C123 161 133 224 147 289 C245 319 381 344 557 363 C593 368 612 377 615 390 C618 402 612 414 598 425 C585 435 572 441 559 442 C549 444 534 445 515 445 C416 445 302 427 171 391 C180 430 191 468 203 504 C261 527 312 542 355 549 C377 553 427 558 506 565 C539 568 557 578 561 595 C565 608 561 622 552 637 C542 652 527 662 509 667 C499 670 480 671 452 670 L419 670 C388 670 353 665 312 654 C276 643 240 633 204 623 C182 616 167 611 161 607 C148 599 140 588 134 573 C128 567 91 387 87 367 C66 359 51 343 45 320 C39 295 45 278 65 271 C29 113 13 28 17 17 L17 17 Z M294 706 C313 706 326 712 334 723 C343 737 377 806 379 821 C382 831 371 836 346 836 C318 836 300 830 295 817 C286 795 277 765 268 728 C264 713 273 706 294 706 L294 706 Z M474 707 C493 707 507 713 515 724 C522 732 558 812 560 822 C563 832 552 837 526 837 C498 837 483 831 476 818 C467 796 458 766 448 729 C445 714 453 707 474 707 L474 707 Z " />
<glyph glyph-name="Igrave" unicode="&#xcc;" horiz-adv-x="510" d="M-10 6 C0 1 18 -2 42 -2 C128 -2 277 20 352 61 C372 72 398 101 403 120 C406 133 400 139 385 139 C366 139 340 135 307 126 C259 113 234 107 230 106 C246 261 281 411 329 559 C369 563 416 567 470 570 C495 572 511 577 518 585 C521 588 523 593 525 600 C526 606 527 612 526 618 C523 643 509 660 482 668 C466 673 440 676 404 676 C308 676 222 658 148 621 C126 610 112 590 105 563 C102 548 101 535 104 522 C107 506 115 498 128 498 C137 498 173 511 237 536 C190 339 158 191 140 92 C125 91 106 90 86 90 C77 90 53 92 42 92 C7 92 -14 78 -20 51 C-26 29 -23 14 -10 6 L-10 6 Z M258 823 C271 808 294 791 324 770 C357 747 379 729 392 718 C402 708 412 702 420 700 C430 698 439 701 450 710 C458 717 466 726 470 737 C475 748 473 760 464 772 C448 792 326 912 313 916 C302 918 290 912 279 902 C267 891 258 881 253 869 C246 850 247 834 258 823 L258 823 Z " />
<glyph glyph-name="Iacute" unicode="&#xcd;" horiz-adv-x="510" d="M-10 6 C0 1 18 -2 42 -2 C128 -2 277 20 352 61 C372 72 398 101 403 120 C406 133 400 139 385 139 C366 139 340 135 307 126 C259 113 234 107 230 106 C246 261 281 411 329 559 C369 563 416 567 470 570 C495 572 511 577 518 585 C521 588 523 593 525 600 C526 606 527 612 526 618 C523 643 509 660 482 668 C466 673 440 676 404 676 C308 676 222 658 148 621 C126 610 112 590 105 563 C102 548 101 535 104 522 C107 506 115 498 128 498 C137 498 173 511 237 536 C190 339 158 191 140 92 C125 91 106 90 86 90 C77 90 53 92 42 92 C7 92 -14 78 -20 51 C-26 29 -23 14 -10 6 L-10 6 Z M204 703 C210 694 218 691 229 693 C238 695 251 701 266 711 C284 722 315 740 360 763 C400 784 432 801 452 816 C469 827 478 843 480 862 C481 874 477 884 471 895 C465 905 455 911 444 909 C427 905 247 785 221 765 C206 753 198 741 197 730 C196 719 199 710 204 703 L204 703 Z " />
<glyph glyph-name="Icircumflex" unicode="&#xce;" horiz-adv-x="510" d="M-10 6 C0 1 18 -2 42 -2 C128 -2 277 20 352 61 C372 72 398 101 403 120 C406 133 400 139 385 139 C366 139 340 135 307 126 C259 113 234 107 230 106 C246 261 281 411 329 559 C369 563 416 567 470 570 C495 572 511 577 518 585 C521 588 523 593 525 600 C526 606 527 612 526 618 C523 643 509 660 482 668 C466 673 440 676 404 676 C308 676 222 658 148 621 C126 610 112 590 105 563 C102 548 101 535 104 522 C107 506 115 498 128 498 C137 498 173 511 237 536 C190 339 158 191 140 92 C125 91 106 90 86 90 C77 90 53 92 42 92 C7 92 -14 78 -20 51 C-26 29 -23 14 -10 6 L-10 6 Z M225 700 C235 700 247 708 262 723 C325 790 360 828 367 836 C393 803 414 764 430 719 C435 704 442 697 450 697 C466 697 483 718 486 730 C488 737 482 751 470 772 C437 834 414 873 405 888 C404 899 386 907 377 907 C366 907 354 898 342 881 C318 844 277 801 219 748 C208 738 201 729 199 724 C196 711 214 700 225 700 L225 700 Z " />
<glyph glyph-name="Idieresis" unicode="&#xcf;" horiz-adv-x="510" d="M-10 6 C0 1 18 -2 42 -2 C128 -2 277 20 352 61 C372 72 398 101 403 120 C406 133 400 139 385 139 C366 139 340 135 307 126 C259 113 234 107 230 106 C246 261 281 411 329 559 C369 563 416 567 470 570 C495 572 511 577 518 585 C521 588 523 593 525 600 C526 606 527 612 526 618 C523 643 509 660 482 668 C466 673 440 676 404 676 C308 676 222 658 148 621 C126 610 112 590 105 563 C102 548 101 535 104 522 C107 506 115 498 128 498 C137 498 173 511 237 536 C190 339 158 191 140 92 C125 91 106 90 86 90 C77 90 53 92 42 92 C7 92 -14 78 -20 51 C-26 29 -23 14 -10 6 L-10 6 Z M237 707 C256 707 269 713 277 724 C286 738 320 807 322 822 C325 832 314 837 289 837 C261 837 243 831 238 818 C229 796 220 766 211 729 C207 714 216 707 237 707 L237 707 Z M417 708 C436 708 450 714 458 725 C465 733 501 813 503 823 C506 833 495 838 469 838 C441 838 426 832 419 819 C410 797 401 767 391 730 C388 715 396 708 417 708 L417 708 Z " />
<glyph glyph-name="Ntilde" unicode="&#xd1;" horiz-adv-x="665" d="M-18 0 C-16 -12 -8 -18 9 -18 C33 -18 74 -2 81 24 C83 32 85 42 86 55 C87 73 88 83 87 86 C102 203 132 320 168 432 L400 67 C410 46 422 21 441 21 C486 21 513 38 521 71 C523 79 524 90 526 103 C527 118 529 129 529 134 C534 166 543 206 555 253 C586 378 625 494 673 603 C685 628 690 643 691 647 C696 667 690 677 671 677 C630 677 604 661 592 630 C581 601 569 566 556 525 C546 489 536 453 525 418 C490 296 469 226 464 209 L223 604 C218 611 209 615 195 615 C157 615 130 603 115 578 C109 568 100 540 88 494 C81 466 63 381 32 239 C-2 86 -20 6 -18 0 L-18 0 Z M253 717 C255 704 258 697 264 697 C269 697 281 705 300 719 C319 734 333 741 346 741 C359 741 379 733 408 719 C435 704 457 697 473 697 C508 697 572 731 580 767 C582 775 581 785 581 797 C579 810 574 817 567 817 C552 806 539 795 524 784 C506 771 490 765 476 765 C459 765 436 774 408 787 C378 802 356 808 341 808 C324 808 308 803 289 790 C270 777 260 762 256 747 C254 738 252 728 253 717 L253 717 Z " />
<glyph glyph-name="Ograve" unicode="&#xd2;" horiz-adv-x="815" d="M79 84 C126 23 194 -7 284 -7 C493 -7 722 164 772 369 C794 458 782 532 734 593 C686 653 617 683 528 683 C319 683 91 511 42 307 C19 218 32 144 79 84 L79 84 Z M157 333 C190 466 323 600 466 600 C536 600 588 573 623 518 C657 465 665 404 647 333 C615 200 480 66 338 66 C268 66 215 93 181 148 C147 201 139 262 157 333 L157 333 Z M435 844 C448 829 471 812 501 791 C534 768 556 750 569 739 C579 729 589 723 597 721 C607 719 616 722 627 731 C635 738 643 747 647 758 C652 769 650 781 641 793 C625 813 503 933 490 937 C479 939 467 933 456 923 C444 912 435 902 430 890 C423 871 424 855 435 844 L435 844 Z " />
<glyph glyph-name="Oacute" unicode="&#xd3;" horiz-adv-x="815" d="M79 84 C126 23 194 -7 284 -7 C493 -7 722 164 772 369 C794 458 782 532 734 593 C686 653 617 683 528 683 C319 683 91 511 42 307 C19 218 32 144 79 84 L79 84 Z M157 333 C190 466 323 600 466 600 C536 600 588 573 623 518 C657 465 665 404 647 333 C615 200 480 66 338 66 C268 66 215 93 181 148 C147 201 139 262 157 333 L157 333 Z M429 717 C435 708 443 705 454 707 C463 709 476 715 491 725 C509 736 540 754 585 777 C625 798 657 815 677 830 C694 841 703 857 705 876 C706 888 702 898 696 909 C690 919 680 925 669 923 C652 919 472 799 446 779 C431 767 423 755 422 744 C421 733 424 724 429 717 L429 717 Z " />
<glyph glyph-name="Ocircumflex" unicode="&#xd4;" horiz-adv-x="815" d="M79 84 C126 23 194 -7 284 -7 C493 -7 722 164 772 369 C794 458 782 532 734 593 C686 653 617 683 528 683 C319 683 91 511 42 307 C19 218 32 144 79 84 L79 84 Z M157 333 C190 466 323 600 466 600 C536 600 588 573 623 518 C657 465 665 404 647 333 C615 200 480 66 338 66 C268 66 215 93 181 148 C147 201 139 262 157 333 L157 333 Z M402 719 C412 719 424 727 439 742 C502 809 537 847 544 855 C570 822 591 783 607 738 C612 723 619 716 627 716 C643 716 660 737 663 749 C665 756 659 770 647 791 C614 853 591 892 582 907 C581 918 563 926 554 926 C543 926 531 917 519 900 C495 863 454 820 396 767 C385 757 378 748 376 743 C373 730 391 719 402 719 L402 719 Z " />
<glyph glyph-name="Otilde" unicode="&#xd5;" horiz-adv-x="815" d="M79 84 C126 23 194 -7 284 -7 C493 -7 722 164 772 369 C794 458 782 532 734 593 C686 653 617 683 528 683 C319 683 91 511 42 307 C19 218 32 144 79 84 L79 84 Z M157 333 C190 466 323 600 466 600 C536 600 588 573 623 518 C657 465 665 404 647 333 C615 200 480 66 338 66 C268 66 215 93 181 148 C147 201 139 262 157 333 L157 333 Z M362 746 C364 733 367 726 373 726 C378 726 390 734 409 748 C428 763 442 770 455 770 C468 770 488 762 517 748 C544 733 566 726 582 726 C617 726 681 760 689 796 C691 804 690 814 690 826 C688 839 683 846 676 846 C661 835 648 824 633 813 C615 800 599 794 585 794 C568 794 545 803 517 816 C487 831 465 837 450 837 C433 837 417 832 398 819 C379 806 369 791 365 776 C363 767 361 757 362 746 L362 746 Z " />
<glyph glyph-name="Odieresis" unicode="&#xd6;" horiz-adv-x="815" d="M79 84 C126 23 194 -7 284 -7 C493 -7 722 164 772 369 C794 458 782 532 734 593 C686 653 617 683 528 683 C319 683 91 511 42 307 C19 218 32 144 79 84 L79 84 Z M157 333 C190 466 323 600 466 600 C536 600 588 573 623 518 C657 465 665 404 647 333 C615 200 480 66 338 66 C268 66 215 93 181 148 C147 201 139 262 157 333 L157 333 Z M432 728 C451 728 464 734 472 745 C481 759 515 828 517 843 C520 853 509 858 484 858 C456 858 438 852 433 839 C424 817 415 787 406 750 C402 735 411 728 432 728 L432 728 Z M612 729 C631 729 645 735 653 746 C660 754 696 834 698 844 C701 854 690 859 664 859 C636 859 621 853 614 840 C605 818 596 788 586 751 C583 736 591 729 612 729 L612 729 Z " />
<glyph glyph-name="Oslash" unicode="&#xd8;" horiz-adv-x="816" d="M80 84 C84 78 89 72 95 67 C81 51 73 40 71 33 C68 22 73 13 84 6 C94 1 104 -2 116 -2 C131 -2 147 4 163 17 C198 1 239 -7 285 -7 C496 -7 721 164 773 369 C795 458 782 532 735 593 C730 599 725 604 721 609 C735 623 743 633 744 638 C747 650 742 660 730 668 C721 674 709 677 694 677 C676 677 659 672 644 662 C610 676 572 683 529 683 C320 683 93 511 42 307 C20 218 33 144 80 84 L80 84 Z M229 97 L241 113 C342 236 469 371 624 518 C658 465 666 404 648 333 C614 199 482 66 338 66 C295 66 259 76 229 97 L229 97 Z M158 333 C191 466 323 600 466 600 C502 600 534 593 560 579 C553 571 548 565 542 559 C437 446 316 312 177 156 C147 207 141 266 158 333 L158 333 Z " />
<glyph glyph-name="Ugrave" unicode="&#xd9;" horiz-adv-x="608" d="M26 18 C114 18 326 96 409 137 C395 72 389 38 389 34 C391 23 399 17 415 17 C442 17 482 34 488 59 C489 64 493 91 499 141 C517 271 550 397 591 521 C599 534 624 608 630 628 C633 643 623 651 598 651 C526 651 512 597 496 539 C477 461 455 362 431 242 C368 213 176 134 116 134 C109 134 105 135 102 137 C95 145 103 192 125 279 C153 394 179 482 202 545 C222 602 232 630 232 628 C235 643 227 650 206 650 C170 650 144 639 128 617 C118 603 109 576 99 536 C86 484 70 413 52 324 C34 237 17 151 -5 64 C-13 33 -3 18 26 18 L26 18 Z M263 777 C276 762 299 745 329 724 C362 701 384 683 397 672 C407 662 417 656 425 654 C435 652 444 655 455 664 C463 671 471 680 475 691 C480 702 478 714 469 726 C453 746 331 866 318 870 C307 872 295 866 284 856 C272 845 263 835 258 823 C251 804 252 788 263 777 L263 777 Z " />
<glyph glyph-name="Uacute" unicode="&#xda;" horiz-adv-x="608" d="M26 18 C114 18 326 96 409 137 C395 72 389 38 389 34 C391 23 399 17 415 17 C442 17 482 34 488 59 C489 64 493 91 499 141 C517 271 550 397 591 521 C599 534 624 608 630 628 C633 643 623 651 598 651 C526 651 512 597 496 539 C477 461 455 362 431 242 C368 213 176 134 116 134 C109 134 105 135 102 137 C95 145 103 192 125 279 C153 394 179 482 202 545 C222 602 232 630 232 628 C235 643 227 650 206 650 C170 650 144 639 128 617 C118 603 109 576 99 536 C86 484 70 413 52 324 C34 237 17 151 -5 64 C-13 33 -3 18 26 18 L26 18 Z M313 660 C319 651 327 648 338 650 C347 652 360 658 375 668 C393 679 424 697 469 720 C509 741 541 758 561 773 C578 784 587 800 589 819 C590 831 586 841 580 852 C574 862 564 868 553 866 C536 862 356 742 330 722 C315 710 307 698 306 687 C305 676 308 667 313 660 L313 660 Z " />
<glyph glyph-name="Ucircumflex" unicode="&#xdb;" horiz-adv-x="608" d="M26 18 C114 18 326 96 409 137 C395 72 389 38 389 34 C391 23 399 17 415 17 C442 17 482 34 488 59 C489 64 493 91 499 141 C517 271 550 397 591 521 C599 534 624 608 630 628 C633 643 623 651 598 651 C526 651 512 597 496 539 C477 461 455 362 431 242 C368 213 176 134 116 134 C109 134 105 135 102 137 C95 145 103 192 125 279 C153 394 179 482 202 545 C222 602 232 630 232 628 C235 643 227 650 206 650 C170 650 144 639 128 617 C118 603 109 576 99 536 C86 484 70 413 52 324 C34 237 17 151 -5 64 C-13 33 -3 18 26 18 L26 18 Z M279 690 C289 690 301 698 316 713 C379 780 414 818 421 826 C447 793 468 754 484 709 C489 694 496 687 504 687 C520 687 537 708 540 720 C542 727 536 741 524 762 C491 824 468 863 459 878 C458 889 440 897 431 897 C420 897 408 888 396 871 C372 834 331 791 273 738 C262 728 255 719 253 714 C250 701 268 690 279 690 L279 690 Z " />
<glyph glyph-name="Udieresis" unicode="&#xdc;" horiz-adv-x="608" d="M26 18 C114 18 326 96 409 137 C395 72 389 38 389 34 C391 23 399 17 415 17 C442 17 482 34 488 59 C489 64 493 91 499 141 C517 271 550 397 591 521 C599 534 624 608 630 628 C633 643 623 651 598 651 C526 651 512 597 496 539 C477 461 455 362 431 242 C368 213 176 134 116 134 C109 134 105 135 102 137 C95 145 103 192 125 279 C153 394 179 482 202 545 C222 602 232 630 232 628 C235 643 227 650 206 650 C170 650 144 639 128 617 C118 603 109 576 99 536 C86 484 70 413 52 324 C34 237 17 151 -5 64 C-13 33 -3 18 26 18 L26 18 Z M297 706 C316 706 329 712 337 723 C346 737 380 806 382 821 C385 831 374 836 349 836 C321 836 303 830 298 817 C289 795 280 765 271 728 C267 713 276 706 297 706 L297 706 Z M477 707 C496 707 510 713 518 724 C525 732 561 812 563 822 C566 832 555 837 529 837 C501 837 486 831 479 818 C470 796 461 766 451 729 C448 714 456 707 477 707 L477 707 Z " />
<glyph glyph-name="germandbls" unicode="&#xdf;" horiz-adv-x="640" d="M-6 -48 C-1 -60 10 -78 34 -72 C79 -62 76 23 78 23 C81 51 84 81 90 114 C95 139 143 357 149 381 C157 414 166 446 175 477 C248 536 325 566 381 566 C418 566 449 558 475 543 C508 524 519 497 511 464 C504 437 483 408 447 379 C409 348 357 329 267 318 C226 314 187 234 281 239 C317 241 355 232 396 219 C448 202 472 181 466 155 C463 142 448 129 422 115 C393 100 344 96 293 94 C152 88 150 -20 194 -9 C282 -6 315 0 366 16 C467 47 531 103 544 156 C553 191 543 223 513 252 C490 276 460 294 424 305 C519 354 574 409 590 472 C605 534 595 582 561 617 C529 649 481 665 418 665 C307 665 224 614 142 545 C92 502 82 468 75 441 C72 428 76 417 74 406 C54 269 -43 41 -6 -48 L-6 -48 Z " />
<glyph glyph-name="agrave" unicode="&#xe0;" horiz-adv-x="656" d="M-37 13 C-28 -4 -16 -13 -1 -13 C13 -13 34 8 63 51 C216 78 345 104 448 127 C451 106 454 86 458 66 C465 37 476 23 489 23 C516 23 559 51 565 78 C567 85 564 100 557 123 C503 258 477 401 458 545 C457 547 457 565 454 598 C452 619 450 636 446 649 C441 663 432 670 418 670 C388 670 365 656 347 629 L196 386 C137 293 81 215 28 152 C14 137 0 122 -12 107 C-32 85 -43 70 -45 62 C-48 47 -46 30 -37 13 L-37 13 Z M135 156 C261 354 341 478 377 529 C402 395 419 294 430 227 C339 196 241 173 135 156 L135 156 Z M327 822 C340 807 363 790 393 769 C426 746 448 728 461 717 C471 707 481 701 489 699 C499 697 508 700 519 709 C527 716 535 725 539 736 C544 747 542 759 533 771 C517 791 395 911 382 915 C371 917 359 911 348 901 C336 890 327 880 322 868 C315 849 316 833 327 822 L327 822 Z " />
<glyph glyph-name="aacute" unicode="&#xe1;" horiz-adv-x="656" d="M-37 13 C-28 -4 -16 -13 -1 -13 C13 -13 34 8 63 51 C216 78 345 104 448 127 C451 106 454 86 458 66 C465 37 476 23 489 23 C516 23 559 51 565 78 C567 85 564 100 557 123 C503 258 477 401 458 545 C457 547 457 565 454 598 C452 619 450 636 446 649 C441 663 432 670 418 670 C388 670 365 656 347 629 L196 386 C137 293 81 215 28 152 C14 137 0 122 -12 107 C-32 85 -43 70 -45 62 C-48 47 -46 30 -37 13 L-37 13 Z M135 156 C261 354 341 478 377 529 C402 395 419 294 430 227 C339 196 241 173 135 156 L135 156 Z M307 709 C313 700 321 697 332 699 C341 701 354 707 369 717 C387 728 418 746 463 769 C503 790 535 807 555 822 C572 833 581 849 583 868 C584 880 580 890 574 901 C568 911 558 917 547 915 C530 911 350 791 324 771 C309 759 301 747 300 736 C299 725 302 716 307 709 L307 709 Z " />
<glyph glyph-name="acircumflex" unicode="&#xe2;" horiz-adv-x="656" d="M-37 13 C-28 -4 -16 -13 -1 -13 C13 -13 34 8 63 51 C216 78 345 104 448 127 C451 106 454 86 458 66 C465 37 476 23 489 23 C516 23 559 51 565 78 C567 85 564 100 557 123 C503 258 477 401 458 545 C457 547 457 565 454 598 C452 619 450 636 446 649 C441 663 432 670 418 670 C388 670 365 656 347 629 L196 386 C137 293 81 215 28 152 C14 137 0 122 -12 107 C-32 85 -43 70 -45 62 C-48 47 -46 30 -37 13 L-37 13 Z M135 156 C261 354 341 478 377 529 C402 395 419 294 430 227 C339 196 241 173 135 156 L135 156 Z M291 675 C301 675 313 683 328 698 C391 765 426 803 433 811 C459 778 480 739 496 694 C501 679 508 672 516 672 C532 672 549 693 552 705 C554 712 548 726 536 747 C503 809 480 848 471 863 C470 874 452 882 443 882 C432 882 420 873 408 856 C384 819 343 776 285 723 C274 713 267 704 265 699 C262 686 280 675 291 675 L291 675 Z " />
<glyph glyph-name="atilde" unicode="&#xe3;" horiz-adv-x="656" d="M-37 13 C-28 -4 -16 -13 -1 -13 C13 -13 34 8 63 51 C216 78 345 104 448 127 C451 106 454 86 458 66 C465 37 476 23 489 23 C516 23 559 51 565 78 C567 85 564 100 557 123 C503 258 477 401 458 545 C457 547 457 565 454 598 C452 619 450 636 446 649 C441 663 432 670 418 670 C388 670 365 656 347 629 L196 386 C137 293 81 215 28 152 C14 137 0 122 -12 107 C-32 85 -43 70 -45 62 C-48 47 -46 30 -37 13 L-37 13 Z M135 156 C261 354 341 478 377 529 C402 395 419 294 430 227 C339 196 241 173 135 156 L135 156 Z M250 723 C252 710 255 703 261 703 C266 703 278 711 297 725 C316 740 330 747 343 747 C356 747 376 739 405 725 C432 710 454 703 470 703 C505 703 569 737 577 773 C579 781 578 791 578 803 C576 816 571 823 564 823 C549 812 536 801 521 790 C503 777 487 771 473 771 C456 771 433 780 405 793 C375 808 353 814 338 814 C321 814 305 809 286 796 C267 783 257 768 253 753 C251 744 249 734 250 723 L250 723 Z " />
<glyph glyph-name="adieresis" unicode="&#xe4;" horiz-adv-x="656" d="M-37 13 C-28 -4 -16 -13 -1 -13 C13 -13 34 8 63 51 C216 78 345 104 448 127 C451 106 454 86 458 66 C465 37 476 23 489 23 C516 23 559 51 565 78 C567 85 564 100 557 123 C503 258 477 401 458 545 C457 547 457 565 454 598 C452 619 450 636 446 649 C441 663 432 670 418 670 C388 670 365 656 347 629 L196 386 C137 293 81 215 28 152 C14 137 0 122 -12 107 C-32 85 -43 70 -45 62 C-48 47 -46 30 -37 13 L-37 13 Z M377 529 C402 395 419 294 430 227 C339 196 241 173 135 156 C261 354 341 478 377 529 L377 529 Z M318 712 C337 712 350 718 358 729 C367 743 401 812 403 827 C406 837 395 842 370 842 C342 842 324 836 319 823 C310 801 301 771 292 734 C288 719 297 712 318 712 L318 712 Z M498 713 C517 713 531 719 539 730 C546 738 582 818 584 828 C587 838 576 843 550 843 C522 843 507 837 500 824 C491 802 482 772 472 735 C469 720 477 713 498 713 L498 713 Z " />
<glyph glyph-name="aring" unicode="&#xe5;" horiz-adv-x="656" d="M-33 26 C-25 9 -13 0 2 0 C16 0 37 21 66 64 C220 91 348 117 451 140 C455 119 458 99 461 79 C469 50 479 36 492 36 C521 36 560 63 569 91 C570 98 567 113 560 136 C555 151 548 166 542 181 C506 286 480 412 461 558 C461 589 457 630 450 660 C497 680 541 720 553 771 C561 800 555 824 540 844 C524 864 503 874 474 874 C406 874 332 817 315 751 C308 722 311 699 327 679 C336 668 347 660 359 655 C356 651 353 647 350 642 L200 399 C140 306 84 228 31 165 C16 149 -37 93 -41 75 C-45 60 -42 43 -33 26 L-33 26 Z M138 169 C265 367 344 491 380 542 C405 408 423 307 433 240 C342 209 244 186 138 169 L138 169 Z M379 760 C385 788 417 819 446 819 C463 819 474 813 482 801 C490 788 491 775 488 760 C481 732 449 701 419 701 C403 701 391 707 384 719 C376 731 375 744 379 760 L379 760 Z " />
<glyph glyph-name="ae" unicode="&#xe6;" horiz-adv-x="1081" d="M-55 16 C-46 9 -36 5 -25 3 C-4 0 21 11 49 37 L112 103 C115 106 118 109 121 111 C125 110 129 109 134 109 C160 109 228 117 338 133 C392 141 434 147 467 153 C449 70 442 25 445 17 C450 0 469 -8 500 -8 C591 -8 910 15 940 130 C944 148 936 157 915 157 C909 157 900 156 890 154 L716 118 C650 106 593 100 545 100 C551 161 560 224 574 289 C672 319 808 344 984 363 C1020 368 1039 377 1043 390 C1046 402 1040 414 1025 425 C1013 435 999 441 987 442 C976 444 961 445 942 445 C843 445 729 427 598 391 C608 430 618 468 630 504 C689 527 740 542 782 549 C804 553 855 558 933 565 C966 568 985 578 989 595 C992 608 989 622 979 637 C969 652 954 662 937 667 C926 670 908 671 879 670 L846 670 C815 670 780 665 739 654 C704 643 667 633 632 623 C621 620 612 617 606 614 C593 613 581 607 569 599 C524 563 490 535 468 516 C346 412 203 286 38 140 C21 125 3 109 -16 93 C-43 70 -60 55 -63 46 C-68 35 -64 25 -55 16 L-55 16 Z M216 200 C308 281 414 366 532 456 C525 425 519 396 514 367 C493 359 478 343 472 320 C466 295 473 278 492 271 C490 264 489 257 488 251 C475 247 459 243 440 237 C358 212 304 202 216 200 L216 200 Z " />
<glyph glyph-name="ccedilla" unicode="&#xe7;" horiz-adv-x="676" d="M33 71 C58 27 101 5 164 5 C188 5 213 8 240 14 C234 -26 205 -61 173 -83 C158 -94 148 -102 143 -109 C131 -125 142 -145 156 -153 C166 -158 176 -155 191 -148 C205 -141 256 -107 297 -54 C328 -11 335 25 338 43 C391 64 449 94 514 132 C528 141 542 149 557 157 C575 170 586 181 589 192 C595 218 593 231 580 231 C575 231 550 220 506 199 C428 162 311 107 225 107 C183 107 149 118 125 141 C98 166 90 199 100 239 C114 296 157 356 227 419 C308 490 409 534 533 553 C533 536 533 520 531 503 C533 480 539 468 550 468 C576 468 628 498 634 525 C636 534 636 547 635 565 C633 583 634 597 636 606 C643 632 646 648 644 653 C641 662 627 666 602 666 C351 666 82 476 22 228 C6 164 10 112 33 71 L33 71 Z " />
<glyph glyph-name="egrave" unicode="&#xe8;" horiz-adv-x="653" d="M17 17 C23 0 42 -8 73 -8 C160 -8 487 17 512 130 C517 148 508 157 487 157 C481 157 473 156 462 154 L288 118 C222 106 166 100 118 100 C123 161 133 224 147 289 C245 319 381 344 557 363 C593 368 612 377 615 390 C618 402 612 414 598 425 C585 435 572 441 559 442 C549 444 534 445 515 445 C416 445 302 427 171 391 C180 430 191 468 203 504 C261 527 312 542 355 549 C377 553 427 558 506 565 C539 568 557 578 561 595 C565 608 561 622 552 637 C542 652 527 662 509 667 C499 670 480 671 452 670 L419 670 C388 670 353 665 312 654 C276 643 240 633 204 623 C182 616 167 611 161 607 C148 599 140 588 134 573 C128 567 91 387 87 367 C66 359 51 343 45 320 C39 295 45 278 65 271 C29 113 13 28 17 17 L17 17 Z M308 822 C321 807 344 790 374 769 C407 746 429 728 442 717 C452 707 462 701 470 699 C480 697 489 700 500 709 C508 716 516 725 520 736 C525 747 523 759 514 771 C498 791 376 911 363 915 C352 917 340 911 329 901 C317 890 308 880 303 868 C296 849 297 833 308 822 L308 822 Z " />
<glyph glyph-name="eacute" unicode="&#xe9;" horiz-adv-x="653" d="M17 17 C23 0 42 -8 73 -8 C160 -8 487 17 512 130 C517 148 508 157 487 157 C481 157 473 156 462 154 L288 118 C222 106 166 100 118 100 C123 161 133 224 147 289 C245 319 381 344 557 363 C593 368 612 377 615 390 C618 402 612 414 598 425 C585 435 572 441 559 442 C549 444 534 445 515 445 C416 445 302 427 171 391 C180 430 191 468 203 504 C261 527 312 542 355 549 C377 553 427 558 506 565 C539 568 557 578 561 595 C565 608 561 622 552 637 C542 652 527 662 509 667 C499 670 480 671 452 670 L419 670 C388 670 353 665 312 654 C276 643 240 633 204 623 C182 616 167 611 161 607 C148 599 140 588 134 573 C128 567 91 387 87 367 C66 359 51 343 45 320 C39 295 45 278 65 271 C29 113 13 28 17 17 L17 17 Z M276 709 C282 700 290 697 301 699 C310 701 323 707 338 717 C356 728 387 746 432 769 C472 790 504 807 524 822 C541 833 550 849 552 868 C553 880 549 890 543 901 C537 911 527 917 516 915 C499 911 319 791 293 771 C278 759 270 747 269 736 C268 725 271 716 276 709 L276 709 Z " />
<glyph glyph-name="ecircumflex" unicode="&#xea;" horiz-adv-x="653" d="M17 17 C23 0 42 -8 73 -8 C160 -8 487 17 512 130 C517 148 508 157 487 157 C481 157 473 156 462 154 L288 118 C222 106 166 100 118 100 C123 161 133 224 147 289 C245 319 381 344 557 363 C593 368 612 377 615 390 C618 402 612 414 598 425 C585 435 572 441 559 442 C549 444 534 445 515 445 C416 445 302 427 171 391 C180 430 191 468 203 504 C261 527 312 542 355 549 C377 553 427 558 506 565 C539 568 557 578 561 595 C565 608 561 622 552 637 C542 652 527 662 509 667 C499 670 480 671 452 670 L419 670 C388 670 353 665 312 654 C276 643 240 633 204 623 C182 616 167 611 161 607 C148 599 140 588 134 573 C128 567 91 387 87 367 C66 359 51 343 45 320 C39 295 45 278 65 271 C29 113 13 28 17 17 L17 17 Z M277 703 C287 703 299 711 314 726 C377 793 412 831 419 839 C445 806 466 767 482 722 C487 707 494 700 502 700 C518 700 535 721 538 733 C540 740 534 754 522 775 C489 837 466 876 457 891 C456 902 438 910 429 910 C418 910 406 901 394 884 C370 847 329 804 271 751 C260 741 253 732 251 727 C248 714 266 703 277 703 L277 703 Z " />
<glyph glyph-name="edieresis" unicode="&#xeb;" horiz-adv-x="653" d="M17 17 C23 0 42 -8 73 -8 C160 -8 487 17 512 130 C517 148 508 157 487 157 C481 157 473 156 462 154 L288 118 C222 106 166 100 118 100 C123 161 133 224 147 289 C245 319 381 344 557 363 C593 368 612 377 615 390 C618 402 612 414 598 425 C585 435 572 441 559 442 C549 444 534 445 515 445 C416 445 302 427 171 391 C180 430 191 468 203 504 C261 527 312 542 355 549 C377 553 427 558 506 565 C539 568 557 578 561 595 C565 608 561 622 552 637 C542 652 527 662 509 667 C499 670 480 671 452 670 L419 670 C388 670 353 665 312 654 C276 643 240 633 204 623 C182 616 167 611 161 607 C148 599 140 588 134 573 C128 567 91 387 87 367 C66 359 51 343 45 320 C39 295 45 278 65 271 C29 113 13 28 17 17 L17 17 Z M295 712 C314 712 327 718 335 729 C344 743 378 812 380 827 C383 837 372 842 347 842 C319 842 301 836 296 823 C287 801 278 771 269 734 C265 719 274 712 295 712 L295 712 Z M475 713 C494 713 508 719 516 730 C523 738 559 818 561 828 C564 838 553 843 527 843 C499 843 484 837 477 824 C468 802 459 772 449 735 C446 720 454 713 475 713 L475 713 Z " />
<glyph glyph-name="igrave" unicode="&#xec;" horiz-adv-x="217" d="M25 17 C38 17 52 20 68 26 C85 34 95 44 98 55 C100 65 102 78 103 93 C106 116 107 129 107 132 C123 261 161 398 203 521 C204 525 210 543 223 574 C232 596 237 614 241 628 C244 642 236 649 215 649 C163 649 131 626 120 581 C106 524 88 447 67 350 C47 256 27 162 4 68 C-5 34 2 17 25 17 L25 17 Z M90 822 C103 807 126 790 156 769 C189 746 211 728 224 717 C234 707 244 701 252 699 C262 697 271 700 282 709 C290 716 298 725 302 736 C307 747 305 759 296 771 C280 791 158 911 145 915 C134 917 122 911 111 901 C99 890 90 880 85 868 C78 849 79 833 90 822 L90 822 Z " />
<glyph glyph-name="iacute" unicode="&#xed;" horiz-adv-x="217" d="M25 17 C38 17 52 20 68 26 C85 34 95 44 98 55 C100 65 102 78 103 93 C106 116 107 129 107 132 C123 261 161 398 203 521 C204 525 210 543 223 574 C232 596 237 614 241 628 C244 642 236 649 215 649 C163 649 131 626 120 581 C106 524 88 447 67 350 C47 256 27 162 4 68 C-5 34 2 17 25 17 L25 17 Z M103 709 C109 700 117 697 128 699 C137 701 150 707 165 717 C183 728 214 746 259 769 C299 790 331 807 351 822 C368 833 377 849 379 868 C380 880 376 890 370 901 C364 911 354 917 343 915 C326 911 146 791 120 771 C105 759 97 747 96 736 C95 725 98 716 103 709 L103 709 Z " />
<glyph glyph-name="icircumflex" unicode="&#xee;" horiz-adv-x="217" d="M25 17 C38 17 52 20 68 26 C85 34 95 44 98 55 C100 65 102 78 103 93 C106 116 107 129 107 132 C123 261 161 398 203 521 C204 525 210 543 223 574 C232 596 237 614 241 628 C244 642 236 649 215 649 C163 649 131 626 120 581 C106 524 88 447 67 350 C47 256 27 162 4 68 C-5 34 2 17 25 17 L25 17 Z M87 703 C97 703 109 711 124 726 C187 793 222 831 229 839 C255 806 276 767 292 722 C297 707 304 700 312 700 C328 700 345 721 348 733 C350 740 344 754 332 775 C299 837 276 876 267 891 C266 902 248 910 239 910 C228 910 216 901 204 884 C180 847 139 804 81 751 C70 741 63 732 61 727 C58 714 76 703 87 703 L87 703 Z " />
<glyph glyph-name="idieresis" unicode="&#xef;" horiz-adv-x="217" d="M25 17 C38 17 52 20 68 26 C85 34 95 44 98 55 C100 65 102 78 103 93 C106 116 107 129 107 132 C123 261 161 398 203 521 C204 525 210 543 223 574 C232 596 237 614 241 628 C244 642 236 649 215 649 C163 649 131 626 120 581 C106 524 88 447 67 350 C47 256 27 162 4 68 C-5 34 2 17 25 17 L25 17 Z M100 712 C119 712 132 718 140 729 C149 743 183 812 185 827 C188 837 177 842 152 842 C124 842 106 836 101 823 C92 801 83 771 74 734 C70 719 79 712 100 712 L100 712 Z M280 713 C299 713 313 719 321 730 C328 738 364 818 366 828 C369 838 358 843 332 843 C304 843 289 837 282 824 C273 802 264 772 254 735 C251 720 259 713 280 713 L280 713 Z " />
<glyph glyph-name="ntilde" unicode="&#xf1;" horiz-adv-x="665" d="M-18 0 C-16 -12 -8 -18 9 -18 C33 -18 74 -2 81 24 C83 32 85 42 86 55 C87 73 88 83 87 86 C102 203 132 320 168 432 L400 67 C410 46 422 21 441 21 C486 21 513 38 521 71 C523 79 524 90 526 103 C527 118 529 129 529 134 C534 166 543 206 555 253 C586 378 625 494 673 603 C685 628 690 643 691 647 C696 667 690 677 671 677 C630 677 604 661 592 630 C581 601 569 566 556 525 C546 489 536 453 525 418 C490 296 469 226 464 209 L223 604 C218 611 209 615 195 615 C157 615 130 603 115 578 C109 568 100 540 88 494 C81 466 63 381 32 239 C-2 86 -20 6 -18 0 L-18 0 Z M254 723 C256 710 259 703 265 703 C270 703 282 711 301 725 C320 740 334 747 347 747 C360 747 380 739 409 725 C436 710 458 703 474 703 C509 703 573 737 581 773 C583 781 582 791 582 803 C580 816 575 823 568 823 C553 812 540 801 525 790 C507 777 491 771 477 771 C460 771 437 780 409 793 C379 808 357 814 342 814 C325 814 309 809 290 796 C271 783 261 768 257 753 C255 744 253 734 254 723 L254 723 Z " />
<glyph glyph-name="ograve" unicode="&#xf2;" horiz-adv-x="815" d="M79 84 C126 23 194 -7 284 -7 C493 -7 722 164 772 369 C794 458 782 532 734 593 C686 653 617 683 528 683 C319 683 91 511 42 307 C19 218 32 144 79 84 L79 84 Z M157 333 C190 466 323 600 466 600 C536 600 588 573 623 518 C657 465 665 404 647 333 C615 200 480 66 338 66 C268 66 215 93 181 148 C147 201 139 262 157 333 L157 333 Z M418 836 C431 821 454 804 484 783 C517 760 539 742 552 731 C562 721 572 715 580 713 C590 711 599 714 610 723 C618 730 626 739 630 750 C635 761 633 773 624 785 C608 805 486 925 473 929 C462 931 450 925 439 915 C427 904 418 894 413 882 C406 863 407 847 418 836 L418 836 Z " />
<glyph glyph-name="oacute" unicode="&#xf3;" horiz-adv-x="815" d="M79 84 C126 23 194 -7 284 -7 C493 -7 722 164 772 369 C794 458 782 532 734 593 C686 653 617 683 528 683 C319 683 91 511 42 307 C19 218 32 144 79 84 L79 84 Z M157 333 C190 466 323 600 466 600 C536 600 588 573 623 518 C657 465 665 404 647 333 C615 200 480 66 338 66 C268 66 215 93 181 148 C147 201 139 262 157 333 L157 333 Z M410 712 C416 703 424 700 435 702 C444 704 457 710 472 720 C490 731 521 749 566 772 C606 793 638 810 658 825 C675 836 684 852 686 871 C687 883 683 893 677 904 C671 914 661 920 650 918 C633 914 453 794 427 774 C412 762 404 750 403 739 C402 728 405 719 410 712 L410 712 Z " />
<glyph glyph-name="ocircumflex" unicode="&#xf4;" horiz-adv-x="815" d="M79 84 C126 23 194 -7 284 -7 C493 -7 722 164 772 369 C794 458 782 532 734 593 C686 653 617 683 528 683 C319 683 91 511 42 307 C19 218 32 144 79 84 L79 84 Z M157 333 C190 466 323 600 466 600 C536 600 588 573 623 518 C657 465 665 404 647 333 C615 200 480 66 338 66 C268 66 215 93 181 148 C147 201 139 262 157 333 L157 333 Z M421 713 C431 713 443 721 458 736 C521 803 556 841 563 849 C589 816 610 777 626 732 C631 717 638 710 646 710 C662 710 679 731 682 743 C684 750 678 764 666 785 C633 847 610 886 601 901 C600 912 582 920 573 920 C562 920 550 911 538 894 C514 857 473 814 415 761 C404 751 397 742 395 737 C392 724 410 713 421 713 L421 713 Z " />
<glyph glyph-name="otilde" unicode="&#xf5;" horiz-adv-x="815" d="M79 84 C126 23 194 -7 284 -7 C493 -7 722 164 772 369 C794 458 782 532 734 593 C686 653 617 683 528 683 C319 683 91 511 42 307 C19 218 32 144 79 84 L79 84 Z M157 333 C190 466 323 600 466 600 C536 600 588 573 623 518 C657 465 665 404 647 333 C615 200 480 66 338 66 C268 66 215 93 181 148 C147 201 139 262 157 333 L157 333 Z M376 746 C378 733 381 726 387 726 C392 726 404 734 423 748 C442 763 456 770 469 770 C482 770 502 762 531 748 C558 733 580 726 596 726 C631 726 695 760 703 796 C705 804 704 814 704 826 C702 839 697 846 690 846 C675 835 662 824 647 813 C629 800 613 794 599 794 C582 794 559 803 531 816 C501 831 479 837 464 837 C447 837 431 832 412 819 C393 806 383 791 379 776 C377 767 375 757 376 746 L376 746 Z " />
<glyph glyph-name="odieresis" unicode="&#xf6;" horiz-adv-x="815" d="M79 84 C126 23 194 -7 284 -7 C493 -7 722 164 772 369 C794 458 782 532 734 593 C686 653 617 683 528 683 C319 683 91 511 42 307 C19 218 32 144 79 84 L79 84 Z M157 333 C190 466 323 600 466 600 C536 600 588 573 623 518 C657 465 665 404 647 333 C615 200 480 66 338 66 C268 66 215 93 181 148 C147 201 139 262 157 333 L157 333 Z M430 732 C449 732 462 738 470 749 C479 763 513 832 515 847 C518 857 507 862 482 862 C454 862 436 856 431 843 C422 821 413 791 404 754 C400 739 409 732 430 732 L430 732 Z M610 733 C629 733 643 739 651 750 C658 758 694 838 696 848 C699 858 688 863 662 863 C634 863 619 857 612 844 C603 822 594 792 584 755 C581 740 589 733 610 733 L610 733 Z " />
<glyph glyph-name="oslash" unicode="&#xf8;" horiz-adv-x="816" d="M80 84 C84 78 89 72 95 67 C81 51 73 40 71 33 C68 22 73 13 84 6 C94 1 104 -2 116 -2 C131 -2 147 4 163 17 C198 1 239 -7 285 -7 C496 -7 721 164 773 369 C795 458 782 532 735 593 C730 599 725 604 721 609 C735 623 743 633 744 638 C747 650 742 660 730 668 C721 674 709 677 694 677 C676 677 659 672 644 662 C610 676 572 683 529 683 C320 683 93 511 42 307 C20 218 33 144 80 84 L80 84 Z M229 97 L241 113 C342 236 469 371 624 518 C658 465 666 404 648 333 C614 199 482 66 338 66 C295 66 259 76 229 97 L229 97 Z M158 333 C191 466 323 600 466 600 C502 600 534 593 560 579 C553 571 548 565 542 559 C437 446 316 312 177 156 C147 207 141 266 158 333 L158 333 Z " />
<glyph glyph-name="ugrave" unicode="&#xf9;" horiz-adv-x="608" d="M26 18 C114 18 326 96 409 137 C395 72 389 38 389 34 C391 23 399 17 415 17 C442 17 482 34 488 59 C489 64 493 91 499 141 C517 271 550 397 591 521 C599 534 624 608 630 628 C633 643 623 651 598 651 C526 651 512 597 496 539 C477 461 455 362 431 242 C368 213 176 134 116 134 C109 134 105 135 102 137 C95 145 103 192 125 279 C153 394 179 482 202 545 C222 602 232 630 232 628 C235 643 227 650 206 650 C170 650 144 639 128 617 C118 603 109 576 99 536 C86 484 70 413 52 324 C34 237 17 151 -5 64 C-13 33 -3 18 26 18 L26 18 Z M264 790 C277 775 300 758 330 737 C363 714 385 696 398 685 C408 675 418 669 426 667 C436 665 445 668 456 677 C464 684 472 693 476 704 C481 715 479 727 470 739 C454 759 332 879 319 883 C308 885 296 879 285 869 C273 858 264 848 259 836 C252 817 253 801 264 790 L264 790 Z " />
<glyph glyph-name="uacute" unicode="&#xfa;" horiz-adv-x="608" d="M26 18 C114 18 326 96 409 137 C395 72 389 38 389 34 C391 23 399 17 415 17 C442 17 482 34 488 59 C489 64 493 91 499 141 C517 271 550 397 591 521 C599 534 624 608 630 628 C633 643 623 651 598 651 C526 651 512 597 496 539 C477 461 455 362 431 242 C368 213 176 134 116 134 C109 134 105 135 102 137 C95 145 103 192 125 279 C153 394 179 482 202 545 C222 602 232 630 232 628 C235 643 227 650 206 650 C170 650 144 639 128 617 C118 603 109 576 99 536 C86 484 70 413 52 324 C34 237 17 151 -5 64 C-13 33 -3 18 26 18 L26 18 Z M307 692 C313 683 321 680 332 682 C341 684 354 690 369 700 C387 711 418 729 463 752 C503 773 535 790 555 805 C572 816 581 832 583 851 C584 863 580 873 574 884 C568 894 558 900 547 898 C530 894 350 774 324 754 C309 742 301 730 300 719 C299 708 302 699 307 692 L307 692 Z " />
<glyph glyph-name="ucircumflex" unicode="&#xfb;" horiz-adv-x="608" d="M26 18 C114 18 326 96 409 137 C395 72 389 38 389 34 C391 23 399 17 415 17 C442 17 482 34 488 59 C489 64 493 91 499 141 C517 271 550 397 591 521 C599 534 624 608 630 628 C633 643 623 651 598 651 C526 651 512 597 496 539 C477 461 455 362 431 242 C368 213 176 134 116 134 C109 134 105 135 102 137 C95 145 103 192 125 279 C153 394 179 482 202 545 C222 602 232 630 232 628 C235 643 227 650 206 650 C170 650 144 639 128 617 C118 603 109 576 99 536 C86 484 70 413 52 324 C34 237 17 151 -5 64 C-13 33 -3 18 26 18 L26 18 Z M289 693 C299 693 311 701 326 716 C389 783 424 821 431 829 C457 796 478 757 494 712 C499 697 506 690 514 690 C530 690 547 711 550 723 C552 730 546 744 534 765 C501 827 478 866 469 881 C468 892 450 900 441 900 C430 900 418 891 406 874 C382 837 341 794 283 741 C272 731 265 722 263 717 C260 704 278 693 289 693 L289 693 Z " />
<glyph glyph-name="udieresis" unicode="&#xfc;" horiz-adv-x="608" d="M26 18 C114 18 326 96 409 137 C395 72 389 38 389 34 C391 23 399 17 415 17 C442 17 482 34 488 59 C489 64 493 91 499 141 C517 271 550 397 591 521 C599 534 624 608 630 628 C633 643 623 651 598 651 C526 651 512 597 496 539 C477 461 455 362 431 242 C368 213 176 134 116 134 C109 134 105 135 102 137 C95 145 103 192 125 279 C153 394 179 482 202 545 C222 602 232 630 232 628 C235 643 227 650 206 650 C170 650 144 639 128 617 C118 603 109 576 99 536 C86 484 70 413 52 324 C34 237 17 151 -5 64 C-13 33 -3 18 26 18 L26 18 Z M306 709 C325 709 338 715 346 726 C355 740 389 809 391 824 C394 834 383 839 358 839 C330 839 312 833 307 820 C298 798 289 768 280 731 C276 716 285 709 306 709 L306 709 Z M486 710 C505 710 519 716 527 727 C534 735 570 815 572 825 C575 835 564 840 538 840 C510 840 495 834 488 821 C479 799 470 769 460 732 C457 717 465 710 486 710 L486 710 Z " />
<glyph glyph-name="ydieresis" unicode="&#xff;" horiz-adv-x="625" d="M79 13 C89 6 99 2 111 2 C133 2 154 15 176 42 C305 240 456 401 621 566 C652 596 697 630 656 657 C644 665 631 669 617 669 C598 669 581 661 565 646 C529 607 503 576 485 555 C379 427 316 353 299 333 C245 432 200 537 164 644 C160 652 155 656 150 656 C126 656 93 611 87 589 C84 578 85 565 89 551 C122 484 146 434 165 401 L237 258 C124 117 67 44 66 41 C64 30 68 21 79 13 L79 13 Z M280 712 C299 712 312 718 320 729 C329 743 363 812 365 827 C368 837 357 842 332 842 C304 842 286 836 281 823 C272 801 263 771 254 734 C250 719 259 712 280 712 L280 712 Z M460 713 C479 713 493 719 501 730 C508 738 544 818 546 828 C549 838 538 843 512 843 C484 843 469 837 462 824 C453 802 444 772 434 735 C431 720 439 713 460 713 L460 713 Z " />
<glyph glyph-name="dotlessi" unicode="&#x131;" horiz-adv-x="217" d="M25 17 C38 17 52 20 68 26 C85 34 95 44 98 55 C100 65 102 78 103 93 C106 116 107 129 107 132 C123 261 161 398 203 521 C204 525 210 543 223 574 C232 596 237 614 241 628 C244 642 236 649 215 649 C163 649 131 626 120 581 C106 524 88 447 67 350 C47 256 27 162 4 68 C-5 34 2 17 25 17 L25 17 Z " />
<glyph glyph-name="OE" unicode="&#x152;" horiz-adv-x="1266" d="M80 84 C127 23 195 -7 285 -7 C426 -7 556 65 653 162 C635 74 627 25 630 17 C636 0 655 -8 686 -8 C773 -8 1100 17 1125 130 C1130 148 1121 157 1100 157 C1094 157 1086 156 1075 154 L901 118 C835 106 779 100 731 100 C736 161 746 224 760 289 C857 319 994 344 1169 363 C1206 368 1225 377 1228 390 C1231 402 1225 414 1211 425 C1198 435 1185 441 1172 442 C1162 444 1147 445 1128 445 C1029 445 914 427 783 391 C793 430 804 468 816 504 C874 527 925 542 968 549 C990 553 1040 558 1119 565 C1151 568 1170 578 1174 595 C1177 608 1174 622 1165 637 C1154 652 1140 662 1122 667 C1112 670 1093 671 1065 670 L1032 670 C1001 670 966 665 925 654 C889 643 853 633 817 623 C794 616 780 611 774 607 C762 599 754 589 747 575 C744 581 739 587 735 593 C687 653 618 683 529 683 C320 683 93 511 42 307 C20 218 33 144 80 84 L80 84 Z M158 333 C191 466 323 600 466 600 C536 600 589 573 624 518 C658 465 666 404 648 333 C614 199 482 66 338 66 C268 66 216 93 182 148 C148 201 140 262 158 333 L158 333 Z " />
<glyph glyph-name="oe" unicode="&#x153;" horiz-adv-x="1266" d="M80 84 C127 23 195 -7 285 -7 C426 -7 556 65 653 162 C635 74 627 25 630 17 C636 0 655 -8 686 -8 C773 -8 1100 17 1125 130 C1130 148 1121 157 1100 157 C1094 157 1086 156 1075 154 L901 118 C835 106 779 100 731 100 C736 161 746 224 760 289 C857 319 994 344 1169 363 C1206 368 1225 377 1228 390 C1231 402 1225 414 1211 425 C1198 435 1185 441 1172 442 C1162 444 1147 445 1128 445 C1029 445 914 427 783 391 C793 430 804 468 816 504 C874 527 925 542 968 549 C990 553 1040 558 1119 565 C1151 568 1170 578 1174 595 C1177 608 1174 622 1165 637 C1154 652 1140 662 1122 667 C1112 670 1093 671 1065 670 L1032 670 C1001 670 966 665 925 654 C889 643 853 633 817 623 C794 616 780 611 774 607 C762 599 754 589 747 575 C744 581 739 587 735 593 C687 653 618 683 529 683 C320 683 93 511 42 307 C20 218 33 144 80 84 L80 84 Z M158 333 C191 466 323 600 466 600 C536 600 589 573 624 518 C658 465 666 404 648 333 C614 199 482 66 338 66 C268 66 216 93 182 148 C148 201 140 262 158 333 L158 333 Z " />
<glyph glyph-name="Ydieresis" unicode="&#x178;" horiz-adv-x="626" d="M79 13 C89 6 99 2 111 2 C133 2 154 15 176 42 C305 240 456 401 621 566 C653 597 670 616 671 623 C675 636 670 648 656 657 C644 665 631 669 617 669 C598 669 581 661 565 646 C529 607 503 576 485 555 C379 427 316 353 299 333 C245 432 200 537 164 644 C160 652 155 656 150 656 C126 656 93 611 87 589 C84 578 85 565 89 551 C122 484 146 434 165 401 L237 258 C124 117 67 44 66 41 C64 30 68 21 79 13 L79 13 Z M280 706 C299 706 312 712 320 723 C329 737 363 806 365 821 C368 831 357 836 332 836 C304 836 286 830 281 817 C272 795 263 765 254 728 C250 713 259 706 280 706 L280 706 Z M460 707 C479 707 493 713 501 724 C508 732 544 812 546 822 C549 832 538 837 512 837 C484 837 469 831 462 818 C453 796 444 766 434 729 C431 714 439 707 460 707 L460 707 Z " />
<glyph glyph-name="circumflex" unicode="&#x2c6;" horiz-adv-x="385" d="M172 703 C182 703 194 711 209 726 C272 793 307 831 314 839 C340 806 361 767 377 722 C382 707 389 700 397 700 C413 700 430 721 433 733 C435 740 429 754 417 775 C384 837 361 876 352 891 C351 902 333 910 324 910 C313 910 301 901 289 884 C265 847 224 804 166 751 C155 741 148 732 146 727 C143 714 161 703 172 703 L172 703 Z " />
<glyph glyph-name="caron" unicode="&#x2c7;" horiz-adv-x="386" d="M200 835 C233 773 256 734 265 719 C266 708 284 700 293 700 C304 700 316 709 328 726 C352 763 393 806 451 859 C462 869 469 878 471 883 C474 896 456 907 445 907 C435 907 423 899 408 884 C345 817 310 779 303 771 C277 804 256 843 240 888 C235 903 228 910 220 910 C204 910 187 889 184 877 C182 870 188 856 200 835 L200 835 Z " />
<glyph glyph-name="ring" unicode="&#x2da;" horiz-adv-x="333" d="M173 716 C188 696 210 686 240 686 C307 686 383 742 399 808 C406 837 401 861 386 881 C370 901 349 911 320 911 C253 911 177 854 161 788 C154 759 157 736 173 716 L173 716 Z M224 797 C232 826 261 856 292 856 C309 856 319 850 327 838 C335 825 337 812 333 797 C326 767 296 738 264 738 C248 738 237 744 230 756 C222 768 220 781 224 797 L224 797 Z " />
<glyph glyph-name="tilde" unicode="&#x2dc;" horiz-adv-x="419" d="M150 723 C152 710 155 703 161 703 C166 703 178 711 197 725 C216 740 230 747 243 747 C256 747 276 739 305 725 C332 710 354 703 370 703 C405 703 469 737 477 773 C479 781 478 791 478 803 C476 816 471 823 464 823 C449 812 436 801 421 790 C403 777 387 771 373 771 C356 771 333 780 305 793 C275 808 253 814 238 814 C221 814 205 809 186 796 C167 783 157 768 153 753 C151 744 149 734 150 723 L150 723 Z " />
<glyph glyph-name="endash" unicode="&#x2013;" horiz-adv-x="1068" d="M600 244 C653 244 958 286 997 303 C1006 308 1012 315 1014 325 C1017 338 1017 352 1014 367 C1008 384 999 393 986 393 C979 393 952 386 906 372 C856 357 825 349 814 347 C754 337 693 334 632 334 C626 335 620 335 616 335 C585 335 567 326 563 307 C555 276 571 244 600 244 L600 244 Z M79 244 C132 244 437 286 476 303 C485 308 491 315 493 325 C496 338 496 352 493 367 C487 384 478 393 465 393 C458 393 431 386 385 372 C335 357 304 349 293 347 C233 337 172 334 111 334 C105 335 99 335 95 335 C64 335 46 326 42 307 C34 276 50 244 79 244 L79 244 Z " />
<glyph glyph-name="emdash" unicode="&#x2014;" horiz-adv-x="1068" d="M600 244 C653 244 958 286 997 303 C1006 308 1012 315 1014 325 C1017 338 1017 352 1014 367 C1008 384 999 393 986 393 C979 393 952 386 906 372 C856 357 825 349 814 347 C754 337 693 334 632 334 C626 335 620 335 616 335 C585 335 567 326 563 307 C555 276 571 244 600 244 L600 244 Z M79 244 C132 244 437 286 476 303 C485 308 491 315 493 325 C496 338 496 352 493 367 C487 384 478 393 465 393 C458 393 431 386 385 372 C335 357 304 349 293 347 C233 337 172 334 111 334 C105 335 99 335 95 335 C64 335 46 326 42 307 C34 276 50 244 79 244 L79 244 Z " />
<glyph glyph-name="quoteleft" unicode="&#x2018;" horiz-adv-x="280" d="M161 600 C176 540 187 504 193 491 C199 478 208 471 222 471 C242 471 266 485 271 505 C273 510 268 544 258 608 C249 668 242 705 239 720 C236 735 224 742 205 742 C193 742 180 739 167 732 C152 725 144 716 141 705 C140 698 146 663 161 600 L161 600 Z " />
<glyph glyph-name="quoteright" unicode="&#x2019;" horiz-adv-x="280" d="M100 480 C107 474 116 471 127 471 C138 471 151 478 163 491 C185 515 316 687 321 704 C324 715 320 724 309 732 C300 739 289 742 277 742 C258 742 242 734 230 718 C214 698 193 669 170 630 C144 588 125 559 113 542 C100 525 93 513 91 505 C89 494 92 486 100 480 L100 480 Z " />
<glyph glyph-name="quotesinglbase" unicode="&#x201a;" horiz-adv-x="281" d="M-20 -116 C-9 -116 4 -109 16 -95 C38 -71 170 100 175 116 C177 127 173 137 162 145 C152 151 141 154 129 154 C110 154 94 146 81 130 C65 110 46 81 22 43 C-4 0 -23 -29 -35 -46 C-47 -62 -54 -74 -56 -83 C-61 -103 -41 -116 -20 -116 L-20 -116 Z " />
<glyph glyph-name="quotedblleft" unicode="&#x201c;" horiz-adv-x="455" d="M337 604 C352 544 363 508 368 495 C375 481 384 474 397 474 C417 474 442 489 447 508 C448 512 443 546 434 611 C425 674 418 711 415 722 C411 738 400 746 381 746 C369 746 356 743 343 736 C328 729 320 720 317 709 C315 701 321 666 337 604 L337 604 Z M150 556 C165 496 176 460 181 447 C187 434 195 427 207 427 C228 427 254 439 260 460 C260 463 256 498 246 563 C237 628 231 665 228 674 C223 690 212 698 193 698 C181 698 169 695 157 688 C142 681 132 671 130 660 C128 653 134 618 150 556 L150 556 Z " />
<glyph glyph-name="quotedblright" unicode="&#x201d;" horiz-adv-x="452" d="M287 427 C298 427 310 434 324 448 C350 478 476 638 482 660 C487 683 462 698 438 698 C418 698 402 690 389 673 C373 654 354 624 331 585 C279 502 254 475 251 460 C246 440 266 427 287 427 L287 427 Z M124 474 C137 474 150 481 163 495 C184 516 317 692 322 708 C324 719 321 728 310 736 C300 743 289 746 277 746 C258 746 242 738 229 722 C213 702 194 673 170 634 C144 591 125 562 113 545 C101 528 94 516 92 508 C87 488 103 474 124 474 L124 474 Z " />
<glyph glyph-name="quotedblbase" unicode="&#x201e;" horiz-adv-x="466" d="M165 -116 C176 -116 189 -109 201 -95 C223 -71 355 100 360 116 C362 127 358 137 347 145 C337 151 326 154 314 154 C295 154 279 146 266 130 C250 110 231 81 207 43 C181 0 162 -29 150 -46 C138 -62 131 -74 129 -83 C124 -103 144 -116 165 -116 L165 -116 Z M-20 -116 C-9 -116 4 -109 16 -95 C38 -71 170 100 175 116 C177 127 173 137 162 145 C152 151 141 154 129 154 C110 154 94 146 81 130 C65 110 46 81 22 43 C-4 0 -23 -29 -35 -46 C-47 -62 -54 -74 -56 -83 C-61 -103 -41 -116 -20 -116 L-20 -116 Z " />
<glyph glyph-name="bullet" unicode="&#x2022;" horiz-adv-x="239" d="M53 274 C63 258 77 250 97 250 C136 250 176 289 185 326 C190 346 189 364 178 379 C168 395 154 402 133 402 C92 402 55 363 46 326 C41 306 44 289 53 274 L53 274 Z " />
<glyph glyph-name="ellipsis" unicode="&#x2026;" horiz-adv-x="740" d="M542 11 C564 11 580 18 589 31 C599 45 636 126 641 143 C643 154 631 160 602 160 C570 160 551 153 544 138 C533 113 523 79 512 36 C508 19 518 11 542 11 L542 11 Z M2 9 C25 9 41 16 49 29 C62 48 96 119 102 141 C105 152 91 158 62 158 C30 158 12 151 5 137 C-5 112 -15 78 -26 34 C-31 17 -21 9 2 9 L2 9 Z M266 10 C288 10 303 17 313 30 C324 49 362 125 364 142 C367 153 355 159 326 159 C294 159 275 152 268 137 C258 112 248 78 237 35 C233 18 243 10 266 10 L266 10 Z " />
<glyph glyph-name="guilsinglleft" unicode="&#x2039;" horiz-adv-x="366" d="M45 316 C45 304 55 292 75 284 C117 267 166 233 226 182 C237 172 248 166 253 166 C268 166 281 190 281 202 C281 214 272 226 254 238 C179 291 135 320 126 325 C163 364 208 399 259 430 C276 440 284 449 284 458 C284 477 260 490 246 490 C227 490 90 374 67 354 C54 349 45 326 45 316 L45 316 Z " />
<glyph glyph-name="guilsinglright" unicode="&#x203a;" horiz-adv-x="339" d="M37 166 C42 166 55 172 68 182 C141 233 198 267 245 284 C267 292 280 304 283 316 C285 326 282 349 270 354 C252 375 145 490 125 490 C111 490 84 477 79 458 C77 449 83 440 97 430 C140 399 177 364 204 325 C194 320 142 291 54 238 C33 226 21 214 18 202 C15 190 22 166 37 166 L37 166 Z " />
<glyph glyph-name="Euro" unicode="&#x20ac;" horiz-adv-x="762" d="M71 176 C78 176 87 176 99 177 C96 136 102 101 119 71 C144 27 187 5 250 5 C341 5 458 47 600 132 C614 141 628 149 643 157 C661 170 672 181 675 192 C681 218 679 231 666 231 C661 231 636 220 592 199 C514 162 397 107 311 107 C258 107 197 129 184 186 C210 189 239 192 272 196 C383 209 448 219 464 226 C474 230 481 235 483 243 C485 253 484 265 478 277 C471 291 462 298 450 298 C445 298 419 292 371 281 C304 265 259 257 190 253 C197 277 210 302 229 328 C250 330 274 333 300 336 C413 350 477 360 491 366 C501 370 507 376 509 384 C511 395 510 406 505 418 C500 432 490 439 477 439 C474 439 448 433 400 421 C361 412 325 404 292 399 C380 491 507 536 619 553 C619 536 619 520 617 503 C619 480 625 468 636 468 C662 468 714 498 720 525 C722 534 722 547 721 565 C719 583 720 597 722 606 C729 632 732 648 730 653 C727 662 713 666 688 666 C563 666 445 625 331 542 C269 497 219 447 182 392 C172 391 162 391 151 391 C110 391 87 389 79 387 C66 383 59 377 57 368 C50 342 69 316 98 316 C107 316 121 317 140 319 C130 296 121 274 114 250 C98 250 83 250 68 249 C45 247 32 239 28 226 C23 203 40 176 71 176 L71 176 Z " />
<glyph glyph-name="trademark" unicode="&#x2122;" horiz-adv-x="785" d="M288 338 C292 326 299 320 307 320 C312 320 316 323 321 328 C344 352 392 427 466 552 C477 401 492 325 512 325 C526 325 554 363 598 439 C623 486 649 534 674 581 C677 540 679 500 681 460 C685 394 688 359 690 354 C692 349 695 347 700 347 C714 347 742 371 746 384 C747 391 746 414 740 451 C729 518 724 579 724 648 C725 674 725 687 725 687 C724 706 719 715 711 715 C699 715 689 708 681 693 C679 691 656 647 611 562 C583 510 558 467 537 433 C532 464 526 494 521 524 C514 560 510 591 510 617 C509 636 509 650 508 660 C506 670 501 675 494 675 C483 675 474 667 465 651 C447 619 434 595 425 578 C393 523 356 466 314 409 C300 391 290 377 284 367 C283 358 284 349 288 338 L288 338 Z M123 615 C125 607 130 603 137 603 C138 603 165 611 218 626 C172 433 150 331 152 319 C154 313 159 310 168 310 C183 310 207 321 211 336 C211 337 213 352 216 381 C226 469 245 554 273 638 C291 639 309 640 328 641 C357 644 373 650 375 657 C378 672 370 683 350 690 C336 695 320 698 303 698 C257 698 137 689 123 635 C121 628 122 621 123 615 L123 615 Z " />
</font>
</svg>
