<?xml version="1.0" encoding="UTF-8"?>
<svg xmlns="http://www.w3.org/2000/svg" xmlns:xlink="http://www.w3.org/1999/xlink" version="1.2" >
<font id="Anime Ace 3 BB Bold Italic">
<font-face  font-family="Anime Ace 3 BB" units-per-em="1000" ascent="966" descent="-234" font-style="italic" font-weight="700" font-stretch="normal" slope="-14" cap-height="705" x-height="703" underline-position="-100" underline-thickness="50" />
<missing-glyph  horiz-adv-x="521" d="M51 0 L471 0 L645 700 L225 700 L51 0 Z M403 55 L145 55 L335 298 L403 55 Z M136 123 L253 590 L318 356 L136 123 Z M563 590 L446 123 L380 356 L563 590 Z M364 414 L299 645 L545 645 L364 414 Z " />
<glyph glyph-name="NULL" d="" />
<glyph glyph-name="CR" unicode="&#xd;" horiz-adv-x="250" d="" />
<glyph glyph-name="space" unicode="&#x20;" horiz-adv-x="393" d="" />
<glyph glyph-name="uni0000" horiz-adv-x="333" d="" />
<glyph glyph-name="uni000D" horiz-adv-x="333" d="" />
<glyph glyph-name="uni0002" unicode="&#x2;" horiz-adv-x="333" d="" />
<glyph glyph-name="uni0009" unicode="&#x9;" horiz-adv-x="80" d="" />
<glyph glyph-name="uni000A" unicode="&#xa;" horiz-adv-x="333" d="" />
<glyph glyph-name="exclam" unicode="&#x21;" horiz-adv-x="438" d="M154 226 C154 206 170 197 205 197 C229 197 246 205 255 221 C263 238 270 256 278 274 C297 325 326 377 366 430 C415 495 451 543 474 575 C534 655 564 698 564 705 C564 737 506 744 482 744 C438 744 408 734 391 713 C371 688 351 657 332 619 L284 518 C214 366 176 286 173 279 C160 255 153 237 154 226 L154 226 Z M51 -7 C51 -28 66 -39 96 -39 C126 -39 146 -30 158 -13 C169 2 219 98 219 112 C219 130 200 139 161 139 C121 139 96 130 87 110 C63 54 51 14 51 -7 L51 -7 Z " />
<glyph glyph-name="quotedbl" unicode="&#x22;" horiz-adv-x="447" d="M203 393 C237 393 261 408 275 440 C296 492 354 648 354 696 C354 721 339 734 308 734 C228 734 210 656 200 593 C194 550 187 522 184 510 C178 492 173 480 170 471 C166 456 164 442 164 430 C163 405 176 393 203 393 L203 393 Z M422 408 C455 408 478 424 492 456 C512 501 572 671 572 712 C571 737 555 750 525 750 C487 750 451 726 438 691 C419 613 406 558 400 527 C387 473 382 446 382 447 C381 421 395 408 422 408 L422 408 Z " />
<glyph glyph-name="numbersign" unicode="&#x23;" horiz-adv-x="682" d="M161 130 C165 130 173 131 183 132 C157 51 144 5 144 -6 C144 -30 158 -43 189 -43 C220 -43 269 -22 278 11 C290 80 298 125 302 145 C361 151 410 157 452 164 L432 88 C423 54 419 29 420 15 C419 -8 433 -19 460 -19 C477 -19 495 -14 513 -6 C534 5 547 17 553 32 C558 52 564 77 568 107 C569 111 571 137 576 182 C619 188 644 192 649 194 C675 203 686 221 687 248 C687 265 683 280 675 293 C666 310 654 318 640 318 C635 318 624 315 606 311 C614 340 620 363 625 381 C672 388 698 392 700 393 C727 402 741 420 741 448 C739 478 726 517 690 517 C686 517 678 516 666 513 C677 539 687 563 696 586 C710 622 717 646 716 658 C717 678 705 688 679 688 C657 688 595 681 584 660 C570 634 559 604 549 570 C544 555 537 524 525 477 C489 469 448 464 400 460 L445 564 C466 615 478 648 477 663 C478 681 465 690 439 690 C387 690 354 671 341 631 C312 547 293 487 284 454 L228 454 C180 453 155 434 154 395 C155 375 162 359 176 347 C189 337 206 331 227 331 C233 331 238 331 244 332 C235 306 227 280 220 254 C173 253 148 251 143 250 C116 245 102 227 101 198 C101 160 125 130 161 130 L161 130 Z M360 345 C418 352 463 358 497 363 L479 279 C434 269 386 263 334 259 C343 291 351 319 360 345 L360 345 Z " />
<glyph glyph-name="dollar" unicode="&#x24;" horiz-adv-x="720" d="M76 62 C75 49 81 33 91 13 C116 -35 156 -58 207 -58 C227 -58 253 -55 288 -49 C286 -58 284 -66 285 -74 C283 -99 295 -111 320 -111 C356 -111 400 -89 415 -55 C419 -47 422 -29 424 -4 C561 57 663 148 729 269 C745 295 752 322 751 346 C752 368 743 382 727 389 C702 400 669 408 626 412 C581 416 546 418 523 419 C536 465 549 510 564 556 L582 556 C581 510 591 487 613 487 C629 487 647 495 668 510 C690 524 702 538 707 553 C710 559 711 577 716 608 C719 638 720 657 720 666 C721 692 703 705 668 705 C659 705 641 703 613 699 C625 730 630 751 630 762 C630 783 618 793 593 793 C537 793 500 768 479 718 C478 715 473 696 462 660 C360 619 140 470 140 349 C140 317 160 298 200 295 C279 288 335 285 366 284 C348 208 330 137 316 70 C276 70 243 77 218 91 C204 100 189 113 175 132 C165 146 155 153 146 153 C131 153 117 142 101 119 C83 96 75 77 76 62 L76 62 Z M442 100 C455 164 468 221 481 272 C547 261 581 251 581 243 C579 187 490 121 442 100 L442 100 Z M425 517 C417 487 408 457 400 427 C363 427 331 425 302 419 C307 447 398 503 425 517 L425 517 Z " />
<glyph glyph-name="percent" unicode="&#x25;" horiz-adv-x="884" d="M217 -50 C238 -50 257 -40 273 -22 C313 26 341 60 356 80 C470 218 608 361 770 510 C804 541 829 563 847 578 L906 633 C914 664 909 685 889 697 C877 704 862 708 845 708 C814 708 789 698 769 679 C720 630 686 596 669 576 C532 431 393 280 249 125 C223 97 204 76 189 62 C161 32 146 9 146 -6 C148 -38 190 -50 217 -50 L217 -50 Z M303 361 C384 361 464 410 511 474 C538 511 553 549 552 589 C552 663 493 704 424 704 C309 704 175 598 175 476 C175 401 232 361 303 361 L303 361 Z M632 -15 C748 -15 881 91 881 213 C881 286 825 328 755 328 C639 328 505 223 505 100 C505 25 561 -15 632 -15 L632 -15 Z M712 228 C743 228 763 207 763 176 C763 129 718 79 670 79 C639 79 620 100 620 132 C620 181 662 228 712 228 L712 228 Z M289 508 C291 556 332 604 382 604 C413 604 433 583 432 552 C432 504 389 455 340 455 C309 455 290 476 289 508 L289 508 Z " />
<glyph glyph-name="ampersand" unicode="&#x26;" horiz-adv-x="695" d="M83 108 C83 -13 237 -56 335 -56 C390 -56 449 -45 511 -22 C496 -59 489 -82 489 -89 C488 -111 501 -121 527 -121 C569 -121 612 -94 624 -55 C644 7 663 77 683 153 C710 258 723 326 724 356 C723 376 709 386 682 386 C649 386 605 369 591 337 C587 325 584 307 582 283 C579 258 579 239 578 226 C574 183 566 144 556 107 C475 70 411 51 360 51 C309 51 237 76 237 137 C237 166 253 196 284 226 C311 251 341 266 377 272 C424 277 459 280 483 283 C529 289 551 313 551 353 C551 371 545 387 533 400 C523 409 500 416 464 419 C435 421 421 430 421 444 C420 478 438 510 473 540 C503 567 537 581 571 581 C592 581 615 571 643 551 C670 529 685 519 690 519 C704 519 716 527 728 544 C736 559 742 573 742 588 C742 606 735 628 719 653 C688 699 645 722 589 722 C533 722 480 702 431 661 C336 583 290 510 290 445 C290 414 300 389 321 367 C163 292 83 205 83 108 L83 108 Z " />
<glyph glyph-name="quotesingle" unicode="&#x27;" horiz-adv-x="325" d="M221 433 C241 433 268 453 303 494 C324 522 345 551 366 578 L444 679 C446 710 442 731 428 739 C418 747 404 751 389 751 C363 751 341 740 325 719 C308 698 287 667 260 625 C232 581 210 549 196 530 C178 506 169 487 169 476 C169 448 193 433 221 433 L221 433 Z " />
<glyph glyph-name="parenleft" unicode="&#x28;" horiz-adv-x="555" d="M257 -22 C324 -59 374 -86 409 -103 C448 -103 481 -45 481 -10 C481 6 474 18 461 28 C430 41 403 50 383 54 C280 90 228 145 228 217 C228 362 437 517 550 585 L604 614 C652 638 676 662 675 686 C675 701 669 714 654 724 C641 735 625 740 609 740 C541 740 354 583 299 532 C173 419 112 313 111 213 C111 108 169 30 257 -22 L257 -22 Z " />
<glyph glyph-name="parenright" unicode="&#x29;" horiz-adv-x="556" d="M40 -47 C40 -80 75 -102 105 -102 C171 -102 359 57 414 106 C541 219 605 325 605 427 C605 523 558 600 465 658 C389 700 337 728 307 742 C267 740 234 684 234 647 C234 632 241 619 254 610 C263 601 316 587 331 584 C406 559 484 506 484 419 C484 275 276 121 164 52 C160 50 141 40 110 23 C63 -2 39 -25 40 -47 L40 -47 Z " />
<glyph glyph-name="asterisk" unicode="&#x2a;" horiz-adv-x="455" d="M189 431 C192 425 197 422 204 422 C211 422 219 425 229 430 C252 439 272 450 292 463 C284 439 278 414 277 387 C277 371 287 363 307 363 C336 382 356 400 366 416 C375 433 385 459 394 496 C427 463 452 446 469 443 C485 441 499 448 509 465 C530 499 519 527 458 572 C532 623 570 655 572 668 C572 682 569 694 562 705 C559 711 553 714 543 714 C534 714 521 711 505 705 C495 705 471 689 434 657 C443 698 447 721 448 727 C448 745 440 760 425 770 C420 774 414 776 409 776 C399 776 389 770 378 759 C345 724 343 687 343 662 C305 689 283 702 279 702 C266 702 248 694 228 679 C208 664 208 641 230 612 C258 596 283 581 306 569 C267 550 246 539 241 536 C211 519 190 495 179 465 C179 453 182 442 189 431 L189 431 Z " />
<glyph glyph-name="plus" unicode="&#x2b;" horiz-adv-x="610" d="M128 300 C128 267 145 238 181 238 L305 248 C292 174 287 127 286 107 C286 81 299 68 324 68 C358 68 408 91 419 125 C421 132 422 146 422 167 C422 176 422 191 421 212 C421 231 419 246 420 256 L420 259 C463 263 494 266 515 269 C560 273 588 278 600 282 C629 293 643 314 643 345 C643 372 633 410 600 410 C580 410 553 405 519 395 C470 382 442 374 437 373 L462 465 C476 510 482 539 482 549 C482 567 471 577 446 577 C406 577 365 552 347 505 C342 491 338 469 333 437 L322 361 C298 359 272 359 245 359 C222 359 197 359 169 360 C140 358 128 325 128 300 L128 300 Z " />
<glyph glyph-name="comma" unicode="&#x2c;" horiz-adv-x="324" d="M42 -129 C53 -137 66 -141 79 -141 C98 -141 125 -120 160 -79 C188 -43 303 103 306 129 C306 144 300 156 286 165 C275 173 261 177 245 177 C220 177 194 161 169 130 C165 125 147 98 117 51 C85 3 64 -28 52 -44 C18 -91 21 -113 42 -129 L42 -129 Z " />
<glyph glyph-name="&amp;#x2d;" unicode="&#x2d;" horiz-adv-x="609" d="M179 217 C281 217 387 244 490 251 C536 257 569 265 594 277 C626 292 642 313 641 340 C641 367 631 404 597 404 C590 404 562 397 510 382 C457 367 423 357 407 355 C352 346 293 341 229 341 C191 341 167 340 158 337 C135 329 123 310 122 280 C124 246 145 217 179 217 L179 217 Z " />
<glyph glyph-name="&amp;#x2010;" unicode="&#x2010;" horiz-adv-x="609" d="M179 217 C281 217 387 244 490 251 C536 257 569 265 594 277 C626 292 642 313 641 340 C641 367 631 404 597 404 C590 404 562 397 510 382 C457 367 423 357 407 355 C352 346 293 341 229 341 C191 341 167 340 158 337 C135 329 123 310 122 280 C124 246 145 217 179 217 L179 217 Z " />
<glyph glyph-name="period" unicode="&#x2e;" horiz-adv-x="241" d="M57 21 C58 -1 72 -12 102 -12 C131 -12 153 -2 165 17 C178 36 224 127 227 146 C226 166 207 175 169 175 C129 175 104 165 95 144 C70 83 58 42 57 21 L57 21 Z " />
<glyph glyph-name="slash" unicode="&#x2f;" horiz-adv-x="700" d="M49 -6 C51 -38 93 -50 120 -50 C140 -50 159 -40 175 -22 C216 26 244 60 259 80 C373 218 511 361 672 510 C706 541 731 563 749 578 L808 633 C816 664 812 685 792 697 C780 704 765 708 747 708 C717 708 692 698 672 679 C623 630 589 596 571 576 C435 431 295 280 152 125 C125 97 106 76 92 62 C64 32 49 9 49 -6 L49 -6 Z " />
<glyph glyph-name="zero" unicode="0" horiz-adv-x="900" d="M113 204 C113 42 243 -52 396 -52 C654 -52 949 185 952 456 C952 618 823 713 669 713 C412 713 113 475 113 204 L113 204 Z M267 243 C269 419 422 596 603 596 C719 596 788 520 788 406 C788 318 755 239 686 165 C617 90 539 53 452 53 C338 53 267 130 267 243 L267 243 Z " />
<glyph glyph-name="one" unicode="1" horiz-adv-x="320" d="M176 -26 C192 -26 210 -22 229 -15 C256 -3 273 13 279 36 L285 108 C302 258 339 413 399 574 C412 607 417 627 417 635 C417 655 404 664 379 664 C348 664 254 624 221 609 C189 593 170 576 164 558 C162 552 162 547 163 543 C162 529 166 516 173 504 C181 489 192 482 204 482 C211 482 229 488 257 501 C232 396 211 311 195 248 C181 195 170 155 161 128 C149 81 143 40 144 6 C143 -16 155 -26 176 -26 L176 -26 Z " />
<glyph glyph-name="two" unicode="2" horiz-adv-x="639" d="M53 -5 C54 -32 72 -46 110 -46 C221 -46 297 -45 338 -43 C454 -38 525 -25 554 -6 C565 2 576 15 588 32 C601 51 608 66 607 79 C607 92 600 100 585 100 C541 100 465 97 358 92 C494 178 583 241 624 280 C656 309 673 345 675 390 C678 485 654 564 600 627 C548 688 485 718 410 718 C336 718 294 673 254 615 C226 576 202 532 196 484 C197 466 202 457 214 457 C227 457 241 462 253 472 C258 476 267 487 281 504 C318 549 367 572 426 572 C505 572 561 525 563 444 C564 403 558 374 544 356 C520 327 476 288 412 240 C341 187 252 147 144 119 C105 109 79 85 64 44 C56 28 53 12 53 -5 L53 -5 Z " />
<glyph glyph-name="three" unicode="3" horiz-adv-x="683" d="M55 12 C56 -10 65 -27 85 -39 C116 -57 187 -64 222 -64 C346 -64 502 0 595 81 C659 135 692 194 691 256 C691 316 646 362 558 394 C622 444 654 498 654 557 C654 637 595 720 510 720 C435 720 347 667 295 615 C250 573 228 536 228 507 C228 487 236 477 254 477 C265 477 282 485 304 502 C346 532 368 547 369 548 C395 566 419 574 441 574 C480 574 510 551 510 513 C509 506 509 500 507 494 C495 442 456 429 410 415 C382 408 362 398 350 387 C315 359 298 333 299 307 C299 284 315 273 349 273 C361 273 381 276 407 280 C432 284 451 287 464 287 C512 287 536 268 536 230 C536 119 363 47 269 47 C224 47 182 56 142 73 C126 81 115 84 109 84 C93 84 80 76 71 61 C60 45 55 28 55 12 L55 12 Z " />
<glyph glyph-name="four" unicode="4" horiz-adv-x="696" d="M143 126 C167 126 290 165 321 175 C363 186 413 196 473 205 C461 164 452 132 446 111 C435 73 431 42 431 14 C432 -10 445 -22 472 -22 C503 -22 553 -2 565 28 C572 51 577 83 580 123 C584 176 587 208 589 220 C634 224 664 227 678 230 C719 239 739 254 739 277 C739 295 729 310 709 322 C692 334 673 340 655 340 C648 340 634 339 616 338 C636 426 659 506 688 581 C700 610 704 629 705 639 C705 659 692 669 666 669 C628 669 590 648 577 614 C572 607 568 591 562 567 C546 508 527 430 503 332 C418 323 328 307 234 280 C252 362 276 442 306 521 C324 569 333 600 333 614 C332 634 320 644 295 644 C249 644 215 621 197 576 C193 569 187 549 181 517 C154 416 138 349 131 320 C123 287 115 254 107 221 C99 197 95 182 95 179 C94 143 111 126 143 126 L143 126 Z " />
<glyph glyph-name="five" unicode="5" horiz-adv-x="629" d="M262 -53 C361 -53 449 -18 527 51 C588 104 618 164 618 228 C618 344 534 408 368 418 L373 544 C417 559 465 570 517 577 C543 581 590 587 662 595 C684 597 701 601 711 606 C729 613 738 625 738 642 C736 691 678 708 637 708 C494 708 374 687 277 643 C242 628 223 599 224 557 C222 450 221 386 221 363 C221 312 239 287 275 287 C288 287 308 289 332 295 C356 300 375 303 388 303 C437 303 489 272 489 218 C489 120 358 62 274 62 C228 62 182 71 138 89 C122 96 111 100 104 100 C76 100 62 66 62 42 C64 -43 200 -53 262 -53 L262 -53 Z " />
<glyph glyph-name="six" unicode="6" horiz-adv-x="758" d="M162 30 C198 -16 250 -39 317 -39 C426 -39 539 9 658 107 C737 171 775 230 776 284 C776 339 730 366 639 366 C545 366 411 337 235 280 C254 331 290 381 345 430 C407 485 488 521 587 539 C593 509 596 490 599 483 C607 460 620 449 638 449 C656 449 675 457 696 472 C716 487 726 503 725 521 C725 526 724 534 722 544 C718 557 716 565 715 569 L709 652 C703 676 682 689 645 689 C449 689 279 593 178 425 C134 352 112 276 112 196 C111 127 128 72 162 30 L162 30 Z M592 240 C627 240 645 235 645 224 C645 184 483 124 444 113 C408 103 374 97 345 97 C289 97 252 115 233 152 C417 211 536 240 592 240 L592 240 Z " />
<glyph glyph-name="seven" unicode="7" horiz-adv-x="643" d="M212 508 C222 508 236 510 249 512 C273 517 284 520 287 521 C365 534 447 540 532 540 L596 540 C361 213 243 40 243 21 C242 6 248 -5 260 -13 C272 -19 285 -22 301 -22 C329 -22 350 -13 366 6 C387 42 402 70 411 89 C454 165 506 244 568 326 C611 383 670 457 743 548 C756 562 762 573 762 579 C758 608 733 638 706 649 C675 661 610 668 512 668 C410 668 343 665 310 660 C214 645 166 611 166 557 C166 525 181 508 212 508 L212 508 Z " />
<glyph glyph-name="eight" unicode="8" horiz-adv-x="741" d="M57 14 C57 -54 115 -88 233 -88 C392 -88 741 14 741 220 C741 295 694 364 629 399 C692 450 725 505 725 565 C725 643 661 728 579 728 C512 728 441 692 365 622 C263 526 212 450 212 394 C212 353 232 325 271 309 C195 249 57 116 57 14 L57 14 Z M278 194 C354 255 424 286 488 286 C551 286 581 251 581 181 C581 134 555 97 504 70 C462 49 415 38 363 38 C332 38 303 43 274 51 C233 65 214 83 214 107 C215 130 235 160 278 194 L278 194 Z M543 604 C585 604 597 564 597 529 C598 491 581 461 548 438 C521 419 486 408 446 408 C425 408 407 412 390 418 C369 427 357 440 357 457 C357 520 485 604 543 604 L543 604 Z " />
<glyph glyph-name="nine" unicode="9" horiz-adv-x="741" d="M299 186 C401 186 502 210 602 258 C577 149 561 74 552 32 C543 -7 539 -25 540 -21 C540 -43 553 -54 579 -54 C597 -54 615 -48 635 -38 C656 -26 670 -13 676 2 C680 16 684 32 687 53 C691 70 693 88 695 105 C711 199 742 301 789 412 C803 446 811 475 811 498 C811 553 786 604 734 650 C701 681 660 696 612 696 C513 696 399 635 325 572 C193 461 129 369 129 299 C129 224 185 186 299 186 L299 186 Z M284 384 C284 407 305 435 346 470 C423 532 493 563 557 563 C619 563 650 529 650 458 C650 351 522 314 435 314 C403 314 373 318 344 328 C303 340 283 359 284 384 L284 384 Z " />
<glyph glyph-name="colon" unicode="&#x3a;" horiz-adv-x="269" d="M54 9 C55 -13 70 -24 99 -24 C129 -24 149 -14 162 4 C175 21 223 116 223 134 C223 153 205 163 167 163 C127 163 102 152 93 131 C68 72 55 31 54 9 L54 9 Z M151 280 C150 258 166 246 196 246 C225 246 247 256 259 274 C265 281 275 303 294 340 C311 378 320 399 320 405 C320 424 300 434 261 434 C223 434 198 423 190 402 C181 383 173 363 167 340 C156 310 150 289 151 280 L151 280 Z " />
<glyph glyph-name="semicolon" unicode="&#x3b;" horiz-adv-x="325" d="M23 -111 C25 -139 51 -152 76 -152 C96 -152 123 -132 158 -92 C179 -64 200 -36 222 -8 C274 59 301 100 304 117 C304 132 297 144 283 152 C273 160 259 164 244 164 C218 164 191 149 167 118 C165 116 148 89 115 38 C97 13 25 -88 23 -111 L23 -111 Z M236 253 C265 253 286 261 299 280 C311 301 361 395 361 412 C361 431 341 440 302 440 C262 440 238 430 230 408 C204 348 191 307 191 285 C191 264 206 253 236 253 L236 253 Z " />
<glyph glyph-name="less" unicode="&#x3c;" horiz-adv-x="714" d="M152 236 C175 224 191 216 201 211 C294 161 409 63 480 -16 C499 -37 513 -54 523 -64 C545 -88 561 -100 571 -100 C604 -100 640 -40 640 -10 C640 6 632 23 613 41 C596 55 580 68 566 80 C413 208 322 284 291 309 C419 414 561 510 715 596 C737 608 754 615 767 621 C811 643 835 665 834 688 C834 721 801 747 770 747 C758 747 744 742 728 733 C682 704 651 683 634 672 C380 502 231 402 192 374 C156 370 123 313 121 279 C121 262 132 248 152 236 L152 236 Z " />
<glyph glyph-name="equal" unicode="&#x3d;" horiz-adv-x="632" d="M180 137 C211 137 285 145 401 164 C430 167 460 170 489 172 C534 178 569 186 595 198 C628 213 645 233 644 259 C644 274 639 288 633 302 C625 318 612 325 599 325 C592 325 563 318 511 303 C455 287 421 278 407 276 C364 269 308 265 240 262 L203 262 C150 262 124 243 123 202 C124 167 146 137 180 137 L180 137 Z M156 417 C157 382 179 354 213 354 C246 354 320 363 433 379 C464 382 494 386 523 389 C568 394 603 403 626 413 C659 428 677 450 676 477 C676 504 663 542 631 542 C627 542 598 534 543 518 C450 491 357 478 266 478 C229 478 205 476 193 472 C168 465 157 446 156 417 L156 417 Z " />
<glyph glyph-name="greater" unicode="&#x3e;" horiz-adv-x="707" d="M42 -40 C43 -80 54 -100 78 -100 C87 -100 111 -87 147 -62 C322 57 481 149 624 214 C660 231 685 243 699 248 C720 261 732 282 732 310 C731 349 720 371 698 374 C661 418 615 468 560 524 L418 670 C398 691 383 707 373 717 C356 735 337 743 317 743 C282 743 225 714 225 675 C226 668 228 660 233 653 C264 627 287 608 304 597 C410 514 499 419 573 313 C408 219 273 142 170 81 C123 54 95 37 84 31 C56 11 42 -13 42 -40 L42 -40 Z " />
<glyph glyph-name="question" unicode="&#x3f;" horiz-adv-x="720" d="M157 225 C157 205 173 195 205 195 C232 195 250 201 259 212 C263 216 273 231 287 260 C452 272 801 333 801 551 C801 674 661 734 555 734 C455 734 187 666 187 540 C187 523 195 514 210 514 C217 514 235 523 267 541 C329 575 403 615 475 615 C526 615 630 581 630 518 C630 396 408 373 319 373 C317 373 291 373 244 374 C216 374 207 367 194 342 C170 287 156 248 157 225 L157 225 Z M62 -12 C62 -30 77 -39 108 -39 C134 -39 154 -32 167 -20 C176 -13 220 72 223 85 C223 103 203 111 164 111 C141 111 124 108 115 101 C101 93 90 80 84 60 L65 6 C62 -2 62 -8 62 -12 L62 -12 Z " />
<glyph glyph-name="at" unicode="&#x40;" horiz-adv-x="877" d="M102 166 C102 92 126 32 173 -17 C220 -65 283 -85 358 -80 C459 -73 514 -55 524 -26 C529 -9 530 2 524 8 C503 29 460 36 397 29 C347 24 309 42 283 83 C261 117 249 159 246 208 C242 281 265 350 314 416 C359 474 415 521 485 559 C536 586 584 600 627 599 C675 598 715 580 743 544 C769 513 782 471 781 419 C779 345 756 276 711 212 C695 190 683 178 675 178 C666 178 662 193 663 224 C684 274 712 401 712 451 C710 521 678 536 613 536 C558 536 511 529 474 514 C441 505 425 488 424 464 C424 436 443 413 469 413 C484 413 499 416 514 421 C544 431 567 435 585 430 C604 424 615 416 616 405 C595 393 578 388 563 388 C498 388 440 367 390 327 C318 269 287 214 294 162 C298 133 310 111 332 96 C352 82 379 76 414 78 C471 81 520 94 564 117 C570 69 589 45 619 45 C664 45 735 98 832 204 C900 295 934 384 934 472 C934 620 824 719 679 719 C431 719 105 426 102 166 L102 166 Z M397 214 C397 249 511 310 544 310 C554 310 561 305 566 295 C572 286 573 277 574 267 C572 216 496 181 451 181 C439 181 428 183 417 189 C404 196 396 204 397 214 L397 214 Z " />
<glyph glyph-name="A" unicode="A" horiz-adv-x="728" d="M44 -35 C57 -53 72 -62 90 -62 C110 -62 136 -38 168 9 C325 36 456 62 564 86 C568 53 573 31 575 20 C583 -8 596 -22 615 -22 C651 -22 716 15 716 55 C717 67 713 83 705 103 C700 119 694 135 689 151 C649 269 620 424 601 615 C599 647 598 665 596 671 C590 690 576 700 555 700 C517 700 488 683 467 649 C393 532 337 446 299 387 C233 287 173 204 114 138 C92 113 74 94 63 82 C41 58 31 36 31 17 C30 -2 35 -20 44 -35 L44 -35 Z M500 500 C519 379 534 286 544 219 C458 191 366 169 268 152 C388 335 465 451 500 500 L500 500 Z " />
<glyph glyph-name="B" unicode="B" horiz-adv-x="721" d="M104 -2 C104 -18 115 -30 136 -37 C152 -42 190 -44 254 -44 C357 -44 442 -34 509 -13 C641 28 706 85 707 160 C707 225 654 273 598 297 C711 361 768 441 768 535 C768 653 669 695 566 695 C433 695 328 626 234 539 C194 505 158 472 156 416 C156 389 166 374 184 369 C169 307 153 245 138 182 C115 88 104 27 104 -2 L104 -2 Z M283 313 C298 370 311 423 326 473 C402 532 468 562 524 562 C569 562 651 541 651 484 C650 455 629 422 583 386 C528 342 428 318 283 313 L283 313 Z M250 164 C302 194 356 210 411 210 C448 210 595 190 595 143 C595 119 563 100 500 89 C461 84 422 81 381 81 C341 81 293 82 239 85 L250 164 Z " />
<glyph glyph-name="C" unicode="C" horiz-adv-x="746" d="M264 -40 C366 -40 495 6 649 97 C688 119 708 132 712 136 C732 152 743 174 742 199 C743 219 733 229 716 229 C705 229 676 218 628 195 C556 161 509 139 486 130 C426 107 377 96 339 96 C279 96 211 117 211 189 C211 253 257 325 351 408 C433 479 536 525 658 545 C658 529 657 518 657 514 C657 475 667 455 689 455 C703 455 721 462 746 477 C779 495 794 517 794 544 C794 581 795 605 798 615 C803 642 806 658 806 664 C806 685 787 696 749 696 C465 696 182 491 104 216 C96 188 92 160 92 130 C92 22 155 -40 264 -40 L264 -40 Z " />
<glyph glyph-name="D" unicode="D" horiz-adv-x="772" d="M70 -13 C70 -33 80 -43 101 -43 C99 -43 117 -40 156 -31 C201 -22 233 -17 250 -14 C486 29 828 188 828 468 C828 604 729 691 596 691 C486 691 385 641 294 584 C205 527 160 476 160 432 C160 422 161 413 164 405 C147 334 129 263 112 192 C84 76 69 8 70 -13 L70 -13 Z M211 97 C226 216 254 339 296 467 C379 528 454 559 523 559 C612 559 679 504 679 412 C679 373 665 333 638 295 C564 185 422 119 211 97 L211 97 Z " />
<glyph glyph-name="E" unicode="E" horiz-adv-x="722" d="M93 -10 C92 -40 118 -55 166 -55 C292 -55 473 -31 585 27 C618 46 654 82 656 122 C655 141 643 151 616 151 C609 151 598 149 585 147 C472 122 413 109 409 108 C347 95 287 88 231 88 C238 146 248 206 262 268 C364 298 508 324 692 345 C737 350 763 366 770 393 C770 423 734 448 707 454 C699 457 684 457 664 457 C550 457 428 441 297 407 C306 438 316 469 325 498 C390 523 442 537 484 543 C555 551 608 557 643 561 C692 566 717 586 717 619 C717 650 693 687 650 698 C637 700 616 702 587 702 C537 702 491 697 449 687 C434 683 390 671 315 649 C291 642 274 637 265 631 C236 612 231 593 223 561 C201 475 185 412 175 371 C148 359 125 322 125 292 C125 274 132 261 146 251 C136 208 125 164 114 120 C100 59 92 16 93 -10 L93 -10 Z " />
<glyph glyph-name="F" unicode="F" horiz-adv-x="683" d="M129 -43 C163 -43 208 -24 221 9 C232 36 240 77 245 134 C253 208 258 252 262 267 C359 298 489 322 656 342 C706 348 729 363 729 390 C730 412 718 428 694 440 C675 450 654 454 631 454 C527 454 416 438 297 407 C306 436 315 465 324 496 C383 518 436 533 482 540 L641 558 C690 563 716 583 717 616 C716 649 691 685 648 694 C636 697 615 698 586 698 C536 698 491 694 448 683 C432 679 388 668 314 646 C273 635 245 624 227 583 C220 554 215 534 212 522 C195 450 183 400 174 371 C161 365 148 355 139 338 C129 322 124 305 124 288 C124 270 131 256 146 247 C129 182 116 126 106 81 C94 30 89 -1 89 -9 C89 -32 102 -43 129 -43 L129 -43 Z " />
<glyph glyph-name="G" unicode="G" horiz-adv-x="825" d="M270 -46 C380 -46 519 10 687 122 C795 194 849 254 849 304 C849 359 782 386 647 386 C579 386 424 374 365 348 C327 332 273 287 271 243 C273 224 283 214 305 214 C311 214 323 216 339 219 C487 251 602 267 683 267 C702 267 711 262 711 253 C711 225 578 164 549 151 C459 114 384 95 324 95 C265 95 208 117 208 185 C208 228 231 277 278 332 C375 446 502 517 657 543 C656 515 657 497 658 487 C662 464 673 452 689 452 C703 452 722 459 746 473 C777 491 794 517 793 548 C793 580 795 602 797 615 C802 638 804 653 804 659 C804 681 785 692 747 692 C468 692 180 490 105 218 C96 187 92 156 91 126 C92 15 156 -46 270 -46 L270 -46 Z " />
<glyph glyph-name="H" unicode="H" horiz-adv-x="648" d="M48 -4 C48 -28 61 -40 87 -40 C103 -40 120 -36 137 -27 C158 -18 171 -7 178 6 C182 16 185 32 187 56 C192 119 202 186 219 261 C310 292 411 316 520 331 C500 246 489 196 485 182 C477 149 470 123 465 107 C456 77 452 51 452 30 C452 8 466 -3 492 -3 C515 -3 535 2 552 14 C572 26 583 43 589 62 C593 94 596 118 597 133 C603 181 619 251 643 345 C662 346 679 349 693 356 C712 364 720 377 720 393 C721 416 705 436 674 451 C701 540 726 615 750 675 C749 694 737 705 711 705 C649 705 610 678 594 624 C579 573 563 517 548 454 C453 449 356 431 254 402 C271 463 290 524 312 585 C321 608 324 624 324 635 C324 656 311 668 284 668 C250 668 199 651 185 618 C161 582 118 352 110 306 C86 180 69 92 56 40 C51 19 48 4 48 -4 L48 -4 Z " />
<glyph glyph-name="I" unicode="I" horiz-adv-x="577" d="M53 -1 C54 -22 62 -36 82 -43 C92 -47 111 -48 138 -48 C231 -48 393 -24 474 20 C501 33 540 75 540 107 C539 122 528 130 505 130 C484 130 459 126 429 118 L355 98 C372 240 409 393 464 555 C527 561 575 564 606 566 C656 570 680 589 681 626 C681 702 592 707 536 707 C428 707 335 687 256 646 C218 628 196 586 195 543 C195 506 210 488 238 488 C249 488 281 498 336 520 C286 327 251 180 230 79 C216 78 202 77 185 77 C175 77 141 80 132 80 C81 80 53 47 53 -1 L53 -1 Z " />
<glyph glyph-name="J" unicode="J" horiz-adv-x="769" d="M118 224 C118 79 204 -34 356 -34 C513 -34 642 67 719 198 C781 296 863 510 863 625 C864 657 852 678 830 687 C817 694 791 697 754 697 C663 697 596 689 554 672 C517 656 479 614 479 572 C480 552 488 543 506 543 C526 543 557 547 598 556 C638 565 669 570 690 570 C697 570 701 566 701 559 L701 539 C701 461 659 302 623 232 C582 154 489 96 400 96 C352 96 314 110 286 138 C258 167 243 205 244 254 C244 267 247 311 247 325 C247 360 234 378 209 378 C125 378 118 288 118 224 L118 224 Z " />
<glyph glyph-name="K" unicode="K" horiz-adv-x="682" d="M99 -28 C150 -28 183 -6 196 40 C198 47 201 71 206 113 C238 84 281 59 333 40 C435 0 492 -20 507 -20 C535 -20 619 6 619 40 C619 51 611 61 594 71 C496 112 404 172 319 252 C368 290 432 339 513 399 C638 493 712 548 735 564 C765 585 783 607 788 626 C789 649 770 660 731 660 C705 660 678 652 650 634 C557 572 428 479 259 353 C280 427 298 485 316 530 C326 556 335 576 340 589 C351 616 356 636 357 648 C356 668 343 679 316 679 C266 679 231 661 213 627 C206 616 200 599 194 576 C146 378 103 203 69 53 C63 28 60 13 60 6 C59 -17 73 -28 99 -28 L99 -28 Z " />
<glyph glyph-name="L" unicode="L" horiz-adv-x="623" d="M70 12 C70 -17 94 -32 144 -32 C249 -32 625 -3 633 144 C632 164 618 174 591 174 C583 174 573 172 560 170 L459 146 C376 125 292 113 207 111 C224 263 263 422 327 588 C336 615 341 634 340 643 C342 664 328 674 302 674 C256 674 224 653 206 609 C194 578 168 478 129 308 C88 138 69 40 70 12 L70 12 Z " />
<glyph glyph-name="M" unicode="M" horiz-adv-x="872" d="M31 17 C31 -13 43 -64 81 -64 C95 -64 111 -52 127 -28 C131 -23 142 -5 161 27 C257 191 327 310 370 385 C378 202 383 91 385 50 C379 40 377 28 377 14 C377 -4 381 -21 387 -36 C398 -55 410 -64 425 -64 C435 -64 448 -58 463 -44 C474 -33 496 3 529 65 L595 186 C630 253 672 329 720 412 L725 186 C727 60 730 -6 735 -14 C743 -26 752 -32 764 -32 C802 -32 861 24 861 62 C861 75 859 91 855 109 C853 124 851 139 848 154 C838 220 834 307 834 415 L836 572 L836 571 C839 607 841 631 841 644 C841 695 829 720 805 720 C778 720 755 703 737 669 C705 603 681 557 669 531 C620 432 561 328 495 218 C481 336 474 436 475 519 L475 562 C477 581 478 595 478 604 C478 648 466 670 443 670 C415 670 392 653 373 618 C315 507 270 424 240 369 C183 262 126 172 54 76 C39 54 32 34 31 17 L31 17 Z " />
<glyph glyph-name="N" unicode="N" horiz-adv-x="736" d="M89 -66 C123 -66 176 -45 185 -9 C189 32 192 54 192 58 C204 149 231 263 276 401 L518 -1 C518 -16 531 -23 558 -23 C605 -23 636 -9 649 17 C653 25 657 43 661 70 C687 233 743 412 831 609 C847 645 854 668 854 679 C854 698 842 708 818 708 C753 708 705 651 675 538 C662 486 651 446 644 420 C609 306 589 240 582 225 L346 624 C338 636 325 641 306 641 C295 641 282 640 270 638 C207 620 198 588 183 530 C156 429 119 273 71 61 C67 46 63 30 60 15 C54 -6 51 -21 51 -30 C50 -54 63 -66 89 -66 L89 -66 Z " />
<glyph glyph-name="O" unicode="O" horiz-adv-x="899" d="M113 204 C113 40 241 -52 396 -52 C650 -52 952 187 952 456 C954 617 821 713 669 713 C412 713 113 476 113 204 L113 204 Z M267 243 C269 417 423 596 603 596 C718 596 787 519 787 406 C786 318 754 239 684 165 C615 90 537 53 451 53 C336 53 267 130 267 243 L267 243 Z " />
<glyph glyph-name="P" unicode="P" horiz-adv-x="709" d="M104 -48 C124 -48 143 -43 161 -35 C207 -10 210 25 213 73 L219 141 C413 168 782 270 780 517 C780 633 682 697 574 697 C469 697 361 639 279 577 C233 544 159 489 159 426 C160 416 161 408 163 400 C145 329 127 258 110 188 C81 76 67 7 67 -17 C67 -38 79 -48 104 -48 L104 -48 Z M296 471 C373 531 441 561 499 561 C555 561 635 532 635 465 C635 428 610 388 559 345 C500 297 394 269 240 262 C256 333 275 403 296 471 L296 471 Z " />
<glyph glyph-name="Q" unicode="Q" horiz-adv-x="897" d="M395 -51 C484 -51 572 -27 658 23 C703 2 731 -8 745 -8 C759 -8 773 -3 787 7 C803 17 811 29 812 43 C812 60 793 77 757 92 C863 185 950 311 950 457 C950 620 820 713 666 713 C408 713 112 472 112 201 C112 35 240 -51 395 -51 L395 -51 Z M265 244 C267 420 427 598 607 598 C722 598 786 510 788 401 C788 309 735 216 670 153 C641 177 612 209 581 249 C547 295 521 331 503 354 C494 367 484 373 475 373 C437 373 405 297 405 265 C406 200 455 137 554 77 C519 61 484 53 449 53 C336 53 265 133 265 244 L265 244 Z " />
<glyph glyph-name="R" unicode="R" horiz-adv-x="723" d="M142 -47 C160 -47 178 -43 194 -33 C214 -23 226 -9 231 6 C236 40 239 66 239 85 C306 49 438 3 513 3 C543 3 582 29 584 61 C584 73 576 82 560 89 C533 98 513 104 499 107 C463 121 422 141 376 168 C539 207 794 312 794 512 C794 633 688 695 577 695 C458 695 333 634 202 512 C175 487 161 463 162 442 C161 416 170 398 189 386 C157 260 135 170 123 117 C107 45 98 2 98 -11 C98 -36 113 -47 142 -47 L142 -47 Z M271 266 C285 337 305 407 326 474 C402 534 470 564 528 564 C583 564 661 536 661 470 C661 431 635 391 583 348 C525 299 421 272 271 266 L271 266 Z " />
<glyph glyph-name="S" unicode="S" horiz-adv-x="793" d="M155 -28 C176 -40 205 -47 242 -47 C456 -47 700 94 806 280 C820 303 827 328 827 354 C827 377 819 393 801 400 C748 420 481 438 411 438 L396 438 C360 438 340 437 335 436 C372 478 415 510 466 532 C522 559 577 571 625 567 L636 566 L637 540 C638 512 649 498 672 498 C702 498 764 533 772 563 C780 588 782 625 782 675 C783 701 763 713 725 713 C565 713 415 653 274 531 C197 464 157 408 156 362 C157 328 179 309 223 306 C318 300 388 297 436 295 C458 294 644 280 644 252 C644 243 637 229 623 210 C564 121 454 80 350 80 C291 80 247 92 221 115 C209 126 196 149 181 182 C170 206 156 218 137 218 C96 218 86 155 86 124 C86 72 110 2 155 -28 L155 -28 Z " />
<glyph glyph-name="T" unicode="T" horiz-adv-x="605" d="M164 544 C165 511 181 483 215 483 C226 483 275 498 358 525 C327 404 297 277 266 145 C245 55 234 4 234 -8 C234 -29 247 -40 273 -40 C311 -40 357 -17 370 21 C373 64 375 87 376 89 C391 228 428 382 485 551 C522 554 576 558 648 562 C704 565 732 583 732 616 C733 674 680 702 574 702 C433 702 318 682 228 641 C186 622 164 589 164 544 L164 544 Z " />
<glyph glyph-name="U" unicode="U" horiz-adv-x="677" d="M114 -28 C201 -28 422 51 507 90 C495 40 489 11 489 5 C489 -17 502 -28 528 -28 C573 -28 616 -5 627 41 C631 75 634 100 636 117 C653 246 689 381 742 522 C753 550 762 571 769 585 C780 614 786 634 786 646 C787 668 771 679 740 679 C682 679 646 646 626 593 C617 563 610 534 603 505 C587 446 566 356 540 237 C478 209 266 123 209 121 C207 141 224 212 256 334 C282 430 311 516 342 593 C354 620 359 639 360 649 C359 669 344 679 315 679 C263 679 228 658 210 616 C195 572 184 536 176 506 C130 312 95 160 71 49 C66 28 64 14 63 9 C63 -16 80 -28 114 -28 L114 -28 Z " />
<glyph glyph-name="V" unicode="V" horiz-adv-x="581" d="M190 126 C193 55 196 14 199 6 C211 -31 238 -32 271 -32 C310 -32 337 -21 351 0 C372 44 385 75 393 92 C457 232 534 364 626 487 C648 514 663 533 673 546 C695 575 706 596 707 606 C707 618 700 626 689 634 C678 639 667 641 653 641 C620 641 591 627 569 599 C545 568 520 529 491 483 C466 443 442 404 418 364 L304 181 C296 252 293 325 292 401 C292 458 294 509 297 552 C297 556 300 569 302 590 C303 606 304 619 304 628 C304 665 291 684 265 684 C224 684 198 672 188 649 C182 637 178 608 178 563 C177 432 181 287 190 126 L190 126 Z " />
<glyph glyph-name="W" unicode="W" horiz-adv-x="871" d="M176 537 C181 511 183 498 184 497 C193 427 197 335 198 222 C198 164 197 106 196 47 C195 -12 195 -44 196 -51 C201 -67 212 -75 227 -75 C254 -75 277 -58 295 -24 C359 96 435 228 527 375 L547 239 C551 215 553 177 553 126 C553 77 553 49 554 40 C558 -3 571 -24 590 -24 C618 -24 641 -7 658 27 C734 168 782 259 805 299 C860 396 915 483 970 559 C990 589 1001 612 1001 629 C1001 660 989 709 950 709 C937 709 924 698 910 679 C907 675 897 660 881 632 C767 440 693 315 660 258 C658 314 654 362 649 404 C640 488 636 540 636 557 C636 601 625 623 602 623 C573 623 539 593 501 533 C410 393 348 293 312 232 C309 316 307 386 307 443 L309 555 C307 593 307 623 303 645 C300 666 288 677 270 677 C225 677 171 620 171 576 C171 566 172 553 176 537 L176 537 Z " />
<glyph glyph-name="X" unicode="X" horiz-adv-x="608" d="M116 -45 C142 -45 161 -37 173 -21 C202 17 221 42 230 57 C256 94 298 147 356 214 C376 175 395 135 414 96 C448 32 471 0 486 0 C506 0 527 13 546 38 C566 62 575 84 574 103 C574 111 573 116 571 122 C556 143 540 164 523 186 C493 223 467 275 445 317 C530 410 606 491 676 559 C705 589 723 605 729 611 C738 623 742 634 743 644 C743 660 734 673 717 683 C703 693 687 698 671 698 C646 698 625 688 605 669 C571 637 534 596 495 550 C484 536 450 495 391 425 C365 480 341 540 318 603 C317 608 312 622 305 644 C293 683 278 703 259 703 C213 703 177 641 177 600 C177 577 195 531 230 462 C262 400 287 352 303 321 C139 126 56 21 53 4 C55 -31 84 -45 116 -45 L116 -45 Z " />
<glyph glyph-name="Y" unicode="Y" horiz-adv-x="695" d="M163 -32 C175 -40 189 -44 208 -44 C233 -44 257 -28 282 2 C422 209 592 392 770 566 C807 600 826 626 831 644 C831 680 792 700 760 700 C734 700 711 690 692 671 C650 624 621 591 606 573 C502 453 438 378 413 349 C370 434 334 518 305 603 L284 664 C275 678 266 685 255 685 C237 685 219 673 200 649 C182 624 172 602 173 584 C173 575 174 566 178 554 C200 499 227 443 256 391 L326 246 L142 6 C142 -10 149 -24 163 -32 L163 -32 Z " />
<glyph glyph-name="Z" unicode="Z" horiz-adv-x="735" d="M117 -25 C147 -32 195 -36 261 -36 C355 -36 601 -34 677 32 C696 48 704 65 704 81 C705 103 695 114 677 114 C659 114 641 113 625 111 C471 96 367 89 312 89 C292 89 271 90 252 91 C377 221 513 344 660 462 C669 468 686 482 713 502 C768 543 797 577 796 604 C796 688 604 691 546 691 C450 691 369 679 304 656 C261 641 238 612 238 572 C239 538 260 517 292 517 C299 517 305 517 312 519 C402 537 489 547 572 547 C409 396 272 267 161 162 C144 145 130 134 121 126 C81 90 61 60 61 37 C61 4 80 -17 117 -25 L117 -25 Z " />
<glyph glyph-name="bracketleft" unicode="&#x5b;" horiz-adv-x="521" d="M78 -143 L149 -143 C158 -143 171 -143 189 -144 L219 -144 C324 -144 385 -141 400 -134 C424 -123 437 -99 436 -60 C437 -26 425 -9 402 -9 C392 -9 372 -12 343 -17 C299 -27 261 -32 230 -32 C215 -32 199 -31 179 -28 C189 9 202 71 218 156 C249 338 304 513 366 687 C398 690 424 693 443 693 C459 693 484 689 518 680 C551 672 575 668 591 668 C608 668 624 679 638 704 C652 725 659 745 659 763 C659 781 644 793 614 800 C592 804 562 807 524 807 C440 804 418 803 456 803 L322 803 C257 803 233 714 219 664 C171 493 120 283 63 32 C54 -11 49 -34 49 -36 C41 -62 36 -78 36 -87 C35 -124 50 -143 78 -143 L78 -143 Z " />
<glyph glyph-name="backslash" unicode="&#x5c;" horiz-adv-x="675" d="M213 650 C213 638 221 615 238 581 C257 551 269 528 279 513 C360 366 421 220 463 75 C473 41 479 15 484 -2 C494 -34 511 -50 535 -50 C566 -50 626 -32 626 7 C627 16 620 35 610 62 C600 88 591 107 587 120 C493 367 424 542 380 644 C370 667 361 682 354 690 C342 702 325 709 303 709 C272 709 213 688 213 650 L213 650 Z " />
<glyph glyph-name="bracketright" unicode="&#x5d;" horiz-adv-x="531" d="M26 -103 C26 -122 41 -134 73 -141 C94 -146 125 -148 163 -147 C242 -145 265 -144 231 -144 L297 -143 L363 -143 C397 -143 425 -100 434 -71 C436 -58 439 -49 439 -43 C449 -9 456 13 460 25 L509 184 C565 371 610 530 646 662 C655 698 659 726 659 746 C658 784 642 803 609 803 L469 803 C361 803 299 800 284 793 C262 782 250 757 250 718 C249 684 260 668 283 668 C293 668 313 671 344 677 C388 687 422 692 446 692 C463 692 486 690 513 687 C488 559 462 444 435 344 C423 301 402 239 374 157 C346 76 326 14 315 -28 C285 -31 261 -32 244 -32 C226 -32 201 -28 168 -21 C135 -13 111 -9 95 -9 C58 -9 28 -71 26 -103 L26 -103 Z " />
<glyph glyph-name="asciicircum" unicode="&#x5e;" horiz-adv-x="445" d="M279 730 C294 728 309 733 321 748 L337 764 C367 793 397 826 429 861 C456 837 480 810 500 779 C516 757 521 745 536 745 C552 745 591 778 593 793 C594 801 593 809 587 816 C581 822 576 829 570 835 C536 878 508 909 486 930 C483 943 468 949 441 946 C414 944 397 939 390 932 C345 881 300 832 259 787 C248 777 241 768 240 764 C239 751 251 738 279 730 L279 730 Z " />
<glyph glyph-name="underscore" unicode="&#x5f;" horiz-adv-x="761" d="M42 -48 C42 -74 62 -93 100 -105 C129 -113 169 -116 222 -116 C327 -116 419 -115 587 -110 C627 -109 648 -107 651 -107 C681 -100 697 -78 697 -43 C697 -8 676 20 642 20 C635 20 611 17 567 13 C493 4 438 -1 406 -1 C355 -1 301 2 246 8 C168 15 120 19 98 19 C60 19 42 -3 42 -48 L42 -48 Z " />
<glyph glyph-name="grave" unicode="&#x60;" horiz-adv-x="367" d="M281 883 C290 855 334 823 358 807 C371 796 391 782 414 764 C437 746 458 739 477 743 C490 747 499 754 506 768 C513 781 514 793 511 804 C507 814 501 825 490 835 C472 853 447 878 414 911 C380 943 355 961 339 965 C322 966 309 961 297 950 C279 931 273 909 281 883 L281 883 Z " />
<glyph glyph-name="a" unicode="a" horiz-adv-x="728" d="M44 -35 C57 -53 72 -62 90 -62 C110 -62 136 -38 168 9 C325 36 456 62 564 86 C568 53 573 31 575 20 C583 -8 596 -22 615 -22 C651 -22 716 15 716 55 C717 67 713 83 705 103 C700 119 694 135 689 151 C649 269 620 424 601 615 C599 647 598 665 596 671 C590 690 576 700 555 700 C517 700 488 683 467 649 C393 532 337 446 299 387 C233 287 173 204 114 138 C92 113 74 94 63 82 C41 58 31 36 31 17 C30 -2 35 -20 44 -35 L44 -35 Z M500 500 C519 379 534 286 544 219 C458 191 366 169 268 152 C388 335 465 451 500 500 L500 500 Z " />
<glyph glyph-name="b" unicode="b" horiz-adv-x="721" d="M104 -2 C104 -18 115 -30 136 -37 C152 -42 190 -44 254 -44 C357 -44 442 -34 509 -13 C641 28 706 85 707 160 C707 225 654 273 598 297 C711 361 768 441 768 535 C768 653 669 695 566 695 C433 695 328 626 234 539 C194 505 158 472 156 416 C156 389 166 374 184 369 C169 307 153 245 138 182 C115 88 104 27 104 -2 L104 -2 Z M283 313 C298 370 311 423 326 473 C402 532 468 562 524 562 C569 562 651 541 651 484 C650 455 629 422 583 386 C528 342 428 318 283 313 L283 313 Z M250 164 C302 194 356 210 411 210 C448 210 595 190 595 143 C595 119 563 100 500 89 C461 84 422 81 381 81 C341 81 293 82 239 85 L250 164 Z " />
<glyph glyph-name="c" unicode="c" horiz-adv-x="746" d="M264 -40 C366 -40 495 6 649 97 C688 119 708 132 712 136 C732 152 743 174 742 199 C743 219 733 229 716 229 C705 229 676 218 628 195 C556 161 509 139 486 130 C426 107 377 96 339 96 C279 96 211 117 211 189 C211 253 257 325 351 408 C433 479 536 525 658 545 C658 529 657 518 657 514 C657 475 667 455 689 455 C703 455 721 462 746 477 C779 495 794 517 794 544 C794 581 795 605 798 615 C803 642 806 658 806 664 C806 685 787 696 749 696 C465 696 182 491 104 216 C96 188 92 160 92 130 C92 22 155 -40 264 -40 L264 -40 Z " />
<glyph glyph-name="d" unicode="d" horiz-adv-x="772" d="M70 -13 C70 -33 80 -43 101 -43 C99 -43 117 -40 156 -31 C201 -22 233 -17 250 -14 C486 29 828 188 828 468 C828 604 729 691 596 691 C486 691 385 641 294 584 C205 527 160 476 160 432 C160 422 161 413 164 405 C147 334 129 263 112 192 C84 76 69 8 70 -13 L70 -13 Z M211 97 C226 216 254 339 296 467 C379 528 454 559 523 559 C612 559 679 504 679 412 C679 373 665 333 638 295 C564 185 422 119 211 97 L211 97 Z " />
<glyph glyph-name="e" unicode="e" horiz-adv-x="723" d="M93 -10 C92 -40 118 -55 166 -55 C292 -55 473 -31 585 27 C618 46 654 82 656 122 C655 141 643 151 616 151 C609 151 598 149 585 147 C472 122 413 109 409 108 C347 95 287 88 231 88 C238 146 248 206 262 268 C364 298 508 324 692 345 C719 348 770 357 770 393 C770 423 734 448 707 454 C699 457 684 457 664 457 C550 457 428 441 297 407 C306 438 316 469 325 498 C390 523 442 537 484 543 C555 551 608 557 643 561 C692 566 717 586 717 619 C717 650 693 687 650 698 C637 700 616 702 587 702 C537 702 491 697 449 687 C434 683 390 671 315 649 C291 642 274 637 265 631 C236 612 231 593 223 561 C201 475 185 412 175 371 C148 359 125 322 125 292 C125 274 132 261 146 251 C136 208 125 164 114 120 C100 59 92 16 93 -10 L93 -10 Z " />
<glyph glyph-name="f" unicode="f" horiz-adv-x="683" d="M129 -43 C163 -43 208 -24 221 9 C232 36 240 77 245 134 C253 208 258 252 262 267 C359 298 489 322 656 342 C706 348 729 363 729 390 C730 412 718 428 694 440 C675 450 654 454 631 454 C527 454 416 438 297 407 C306 436 315 465 324 496 C383 518 436 533 482 540 L641 558 C690 563 716 583 717 616 C716 649 691 685 648 694 C636 697 615 698 586 698 C536 698 491 694 448 683 C432 679 388 668 314 646 C273 635 245 624 227 583 C220 554 215 534 212 522 C195 450 183 400 174 371 C161 365 148 355 139 338 C129 322 124 305 124 288 C124 270 131 256 146 247 C129 182 116 126 106 81 C94 30 89 -1 89 -9 C89 -32 102 -43 129 -43 L129 -43 Z " />
<glyph glyph-name="g" unicode="g" horiz-adv-x="825" d="M270 -46 C380 -46 519 10 687 122 C795 194 849 254 849 304 C849 359 782 386 647 386 C579 386 424 374 365 348 C327 332 273 287 271 243 C273 224 283 214 305 214 C311 214 323 216 339 219 C487 251 602 267 683 267 C702 267 711 262 711 253 C711 225 578 164 549 151 C459 114 384 95 324 95 C265 95 208 117 208 185 C208 228 231 277 278 332 C375 446 502 517 657 543 C656 515 657 497 658 487 C662 464 673 452 689 452 C703 452 722 459 746 473 C777 491 794 517 793 548 C793 580 795 602 797 615 C802 638 804 653 804 659 C804 681 785 692 747 692 C468 692 180 490 105 218 C96 187 92 156 91 126 C92 15 156 -46 270 -46 L270 -46 Z " />
<glyph glyph-name="h" unicode="h" horiz-adv-x="648" d="M46 -13 C46 -36 59 -48 85 -48 C114 -48 162 -31 175 -3 C180 7 183 24 185 47 C190 110 201 178 217 253 C308 284 409 307 518 322 C498 237 487 187 484 174 C475 140 468 115 463 98 C454 68 450 43 449 21 C450 -1 464 -12 490 -12 C513 -12 533 -6 550 6 C569 17 581 34 587 54 C596 151 617 243 641 337 C671 337 718 347 718 385 C719 408 703 427 671 442 C699 532 724 606 748 666 C747 686 735 696 709 696 C647 696 608 669 592 615 C577 564 561 508 546 446 C451 440 354 423 252 393 C268 454 288 515 310 576 C319 599 322 615 322 626 C322 648 309 659 282 659 C262 659 244 655 225 646 C205 638 190 625 183 609 C177 600 172 584 165 561 C148 498 129 410 108 297 C85 171 67 83 54 32 C49 10 46 -5 46 -13 L46 -13 Z " />
<glyph glyph-name="i" unicode="i" horiz-adv-x="255" d="M111 -28 C141 -28 186 -13 200 16 C203 23 206 40 210 66 C225 206 263 359 324 522 C336 551 344 572 349 585 C362 615 368 635 369 648 C368 668 354 678 326 678 C244 678 221 640 205 570 C165 405 123 233 80 52 C74 26 71 11 70 6 C70 -17 83 -28 111 -28 L111 -28 Z " />
<glyph glyph-name="j" unicode="j" horiz-adv-x="769" d="M118 224 C118 79 204 -34 356 -34 C513 -34 642 67 719 198 C781 296 863 510 863 625 C864 657 852 678 830 687 C817 694 791 697 754 697 C663 697 596 689 554 672 C517 656 479 614 479 572 C480 552 488 543 506 543 C526 543 557 547 598 556 C638 565 669 570 690 570 C697 570 701 566 701 559 L701 539 C701 461 659 302 623 232 C582 154 489 96 400 96 C352 96 314 110 286 138 C258 167 243 205 244 254 C244 267 247 311 247 325 C247 360 234 378 209 378 C125 378 118 288 118 224 L118 224 Z " />
<glyph glyph-name="k" unicode="k" horiz-adv-x="682" d="M99 -28 C150 -28 183 -6 196 40 C198 47 201 71 206 113 C238 84 281 59 333 40 C435 0 492 -20 507 -20 C535 -20 619 6 619 40 C619 51 611 61 594 71 C496 112 404 172 319 252 C368 290 432 339 513 399 C638 493 712 548 735 564 C765 585 783 607 788 626 C789 649 770 660 731 660 C705 660 678 652 650 634 C557 572 428 479 259 353 C280 427 298 485 316 530 C326 556 335 576 340 589 C351 616 356 636 357 648 C356 668 343 679 316 679 C266 679 231 661 213 627 C206 616 200 599 194 576 C146 378 103 203 69 53 C63 28 60 13 60 6 C59 -17 73 -28 99 -28 L99 -28 Z " />
<glyph glyph-name="l" unicode="l" horiz-adv-x="623" d="M70 12 C70 -17 94 -32 144 -32 C249 -32 625 -3 633 144 C632 164 618 174 591 174 C583 174 573 172 560 170 L459 146 C376 125 292 113 207 111 C224 263 263 422 327 588 C336 615 341 634 340 643 C342 664 328 674 302 674 C256 674 224 653 206 609 C194 578 168 478 129 308 C88 138 69 40 70 12 L70 12 Z " />
<glyph glyph-name="m" unicode="m" horiz-adv-x="872" d="M31 17 C31 -13 43 -64 81 -64 C95 -64 111 -52 127 -28 C131 -23 142 -5 161 27 C257 191 327 310 370 385 C378 202 383 91 385 50 C379 40 377 28 377 14 C377 -4 381 -21 387 -36 C398 -55 410 -64 425 -64 C435 -64 448 -58 463 -44 C474 -33 496 3 529 65 L595 186 C630 253 672 329 720 412 L725 186 C727 60 730 -6 735 -14 C743 -26 752 -32 764 -32 C802 -32 861 24 861 62 C861 75 859 91 855 109 C853 124 851 139 848 154 C838 220 834 307 834 415 L836 572 L836 571 C839 607 841 631 841 644 C841 695 829 720 805 720 C778 720 755 703 737 669 C705 603 681 557 669 531 C620 432 561 328 495 218 C481 336 474 436 475 519 L475 562 C477 581 478 595 478 604 C478 648 466 670 443 670 C415 670 392 653 373 618 C315 507 270 424 240 369 C183 262 126 172 54 76 C39 54 32 34 31 17 L31 17 Z " />
<glyph glyph-name="n" unicode="n" horiz-adv-x="736" d="M89 -66 C123 -66 176 -45 185 -9 C189 32 192 54 192 58 C204 149 231 263 276 401 L518 -1 C518 -16 531 -23 558 -23 C605 -23 636 -9 649 17 C653 25 657 43 661 70 C687 233 743 412 831 609 C847 645 854 668 854 679 C854 698 842 708 818 708 C753 708 705 651 675 538 C662 486 651 446 644 420 C609 306 589 240 582 225 L346 624 C338 636 325 641 306 641 C295 641 282 640 270 638 C207 620 198 588 183 530 C156 429 119 273 71 61 C67 46 63 30 60 15 C54 -6 51 -21 51 -30 C50 -54 63 -66 89 -66 L89 -66 Z " />
<glyph glyph-name="o" unicode="o" horiz-adv-x="899" d="M113 204 C113 40 241 -52 396 -52 C650 -52 952 187 952 456 C954 617 821 713 669 713 C412 713 113 476 113 204 L113 204 Z M267 243 C269 417 423 596 603 596 C718 596 787 519 787 406 C786 318 754 239 684 165 C615 90 537 53 451 53 C336 53 267 130 267 243 L267 243 Z " />
<glyph glyph-name="p" unicode="p" horiz-adv-x="709" d="M104 -48 C124 -48 143 -43 161 -35 C207 -10 210 25 213 73 L219 141 C413 168 782 270 780 517 C780 633 682 697 574 697 C469 697 361 639 279 577 C233 544 159 489 159 426 C160 416 161 408 163 400 C145 329 127 258 110 188 C81 76 67 7 67 -17 C67 -38 79 -48 104 -48 L104 -48 Z M296 471 C373 531 441 561 499 561 C555 561 635 532 635 465 C635 428 610 388 559 345 C500 297 394 269 240 262 C256 333 275 403 296 471 L296 471 Z " />
<glyph glyph-name="q" unicode="q" horiz-adv-x="897" d="M395 -51 C484 -51 572 -27 658 23 C703 2 731 -8 745 -8 C759 -8 773 -3 787 7 C803 17 811 29 812 43 C812 60 793 77 757 92 C863 185 950 311 950 457 C950 620 820 713 666 713 C408 713 112 472 112 201 C112 35 240 -51 395 -51 L395 -51 Z M265 244 C267 420 427 598 607 598 C722 598 786 510 788 401 C788 309 735 216 670 153 C641 177 612 209 581 249 C547 295 521 331 503 354 C494 367 484 373 475 373 C437 373 405 297 405 265 C406 200 455 137 554 77 C519 61 484 53 449 53 C336 53 265 133 265 244 L265 244 Z " />
<glyph glyph-name="r" unicode="r" horiz-adv-x="723" d="M142 -47 C160 -47 178 -43 194 -33 C214 -23 226 -9 231 6 C236 40 239 66 239 85 C306 49 438 3 513 3 C543 3 582 29 584 61 C584 73 576 82 560 89 C533 98 513 104 499 107 C463 121 422 141 376 168 C539 207 794 312 794 512 C794 633 688 695 577 695 C458 695 333 634 202 512 C175 487 161 463 162 442 C161 416 170 398 189 386 C157 260 135 170 123 117 C107 45 98 2 98 -11 C98 -36 113 -47 142 -47 L142 -47 Z M271 266 C285 337 305 407 326 474 C402 534 470 564 528 564 C583 564 661 536 661 470 C661 431 635 391 583 348 C525 299 421 272 271 266 L271 266 Z " />
<glyph glyph-name="s" unicode="s" horiz-adv-x="793" d="M155 -28 C176 -40 205 -47 242 -47 C456 -47 700 94 806 280 C820 303 827 328 827 354 C827 377 819 393 801 400 C748 420 481 438 411 438 L396 438 C360 438 340 437 335 436 C372 478 415 510 466 532 C522 559 577 571 625 567 L636 566 L637 540 C638 512 649 498 672 498 C702 498 764 533 772 563 C780 588 782 625 782 675 C783 701 763 713 725 713 C565 713 415 653 274 531 C197 464 157 408 156 362 C157 328 179 309 223 306 C318 300 388 297 436 295 C458 294 644 280 644 252 C644 243 637 229 623 210 C564 121 454 80 350 80 C291 80 247 92 221 115 C209 126 196 149 181 182 C170 206 156 218 137 218 C96 218 86 155 86 124 C86 72 110 2 155 -28 L155 -28 Z " />
<glyph glyph-name="t" unicode="t" horiz-adv-x="605" d="M164 544 C165 511 181 483 215 483 C226 483 275 498 358 525 C327 404 297 277 266 145 C245 55 234 4 234 -8 C234 -29 247 -40 273 -40 C311 -40 357 -17 370 21 C373 64 375 87 376 89 C391 228 428 382 485 551 C522 554 576 558 648 562 C704 565 732 583 732 616 C733 674 680 702 574 702 C433 702 318 682 228 641 C186 622 164 589 164 544 L164 544 Z " />
<glyph glyph-name="u" unicode="u" horiz-adv-x="677" d="M114 -28 C201 -28 422 51 507 90 C495 40 489 11 489 5 C489 -17 502 -28 528 -28 C573 -28 616 -5 627 41 C631 75 634 100 636 117 C653 246 689 381 742 522 C753 550 762 571 769 585 C780 614 786 634 786 646 C787 668 771 679 740 679 C682 679 646 646 626 593 C617 563 610 534 603 505 C587 446 566 356 540 237 C478 209 266 123 209 121 C207 141 224 212 256 334 C282 430 311 516 342 593 C354 620 359 639 360 649 C359 669 344 679 315 679 C263 679 228 658 210 616 C195 572 184 536 176 506 C130 312 95 160 71 49 C66 28 64 14 63 9 C63 -16 80 -28 114 -28 L114 -28 Z " />
<glyph glyph-name="v" unicode="v" horiz-adv-x="581" d="M190 126 C193 55 196 14 199 6 C211 -31 238 -32 271 -32 C310 -32 337 -21 351 0 C372 44 385 75 393 92 C457 232 534 364 626 487 C648 514 663 533 673 546 C695 575 706 596 707 606 C707 618 700 626 689 634 C678 639 667 641 653 641 C620 641 591 627 569 599 C545 568 520 529 491 483 C466 443 442 404 418 364 L304 181 C296 252 293 325 292 401 C292 458 294 509 297 552 C297 556 300 569 302 590 C303 606 304 619 304 628 C304 665 291 684 265 684 C224 684 198 672 188 649 C182 637 178 608 178 563 C177 432 181 287 190 126 L190 126 Z " />
<glyph glyph-name="w" unicode="w" horiz-adv-x="871" d="M176 537 C181 511 183 498 184 497 C193 427 197 335 198 222 C198 164 197 106 196 47 C195 -12 195 -44 196 -51 C201 -67 212 -75 227 -75 C254 -75 277 -58 295 -24 C359 96 435 228 527 375 L547 239 C551 215 553 177 553 126 C553 77 553 49 554 40 C558 -3 571 -24 590 -24 C618 -24 641 -7 658 27 C734 168 782 259 805 299 C860 396 915 483 970 559 C990 589 1001 612 1001 629 C1001 660 989 709 950 709 C937 709 924 698 910 679 C907 675 897 660 881 632 C767 440 693 315 660 258 C658 314 654 362 649 404 C640 488 636 540 636 557 C636 601 625 623 602 623 C573 623 539 593 501 533 C410 393 348 293 312 232 C309 316 307 386 307 443 L309 555 C307 593 307 623 303 645 C300 666 288 677 270 677 C225 677 171 620 171 576 C171 566 172 553 176 537 L176 537 Z " />
<glyph glyph-name="x" unicode="x" horiz-adv-x="608" d="M116 -45 C142 -45 161 -37 173 -21 C202 17 221 42 230 57 C256 94 298 147 356 214 C376 175 395 135 414 96 C448 32 471 0 486 0 C506 0 527 13 546 38 C566 62 575 84 574 103 C574 111 573 116 571 122 C556 143 540 164 523 186 C493 223 467 275 445 317 C530 410 606 491 676 559 C705 589 723 605 729 611 C738 623 742 634 743 644 C743 660 734 673 717 683 C703 693 687 698 671 698 C646 698 625 688 605 669 C571 637 534 596 495 550 C484 536 450 495 391 425 C365 480 341 540 318 603 C317 608 312 622 305 644 C293 683 278 703 259 703 C213 703 177 641 177 600 C177 577 195 531 230 462 C262 400 287 352 303 321 C139 126 56 21 53 4 C55 -31 84 -45 116 -45 L116 -45 Z " />
<glyph glyph-name="y" unicode="y" horiz-adv-x="695" d="M163 -32 C175 -40 189 -44 208 -44 C233 -44 257 -28 282 2 C422 209 592 392 770 566 C807 600 826 626 831 644 C831 680 792 700 760 700 C734 700 711 690 692 671 C650 624 621 591 606 573 C502 453 438 378 413 349 C370 434 334 518 305 603 L284 664 C275 678 266 685 255 685 C237 685 219 673 200 649 C182 624 172 602 173 584 C173 575 174 566 178 554 C200 499 227 443 256 391 L326 246 L142 6 C142 -10 149 -24 163 -32 L163 -32 Z " />
<glyph glyph-name="z" unicode="z" horiz-adv-x="735" d="M117 -25 C147 -32 195 -36 261 -36 C355 -36 601 -34 677 32 C696 48 704 65 704 81 C705 103 695 114 677 114 C659 114 641 113 625 111 C471 96 367 89 312 89 C292 89 271 90 252 91 C377 221 513 344 660 462 C669 468 686 482 713 502 C768 543 797 577 796 604 C796 688 604 691 546 691 C450 691 369 679 304 656 C261 641 238 612 238 572 C239 538 260 517 292 517 C299 517 305 517 312 519 C402 537 489 547 572 547 C409 396 272 267 161 162 C144 145 130 134 121 126 C81 90 61 60 61 37 C61 4 80 -17 117 -25 L117 -25 Z " />
<glyph glyph-name="braceleft" unicode="&#x7b;" horiz-adv-x="751" d="M127 301 C128 279 138 268 161 268 C170 268 199 271 249 277 C333 288 393 292 431 292 C463 292 507 288 561 281 C595 277 615 275 619 275 C638 275 656 286 674 308 C691 329 699 349 698 369 C698 386 691 396 674 401 C665 404 629 406 568 406 C504 406 425 404 332 401 C268 399 231 397 219 396 C172 390 129 350 127 301 L127 301 Z M383 -116 C392 -116 409 -106 433 -86 C511 -25 572 23 667 62 C688 70 700 76 703 77 C716 83 723 92 727 104 C728 110 729 115 729 122 C729 138 726 154 719 168 C712 187 700 197 687 197 C676 197 624 167 529 110 C491 87 453 65 415 42 C366 7 341 -26 341 -58 C341 -84 352 -116 383 -116 L383 -116 Z M507 643 C619 603 648 574 727 491 C733 486 739 483 745 483 C779 483 838 537 840 572 C840 577 838 582 834 587 C806 617 608 754 578 754 C544 754 485 708 485 672 C484 661 493 652 507 643 L507 643 Z " />
<glyph glyph-name="bar" unicode="&#x7c;" horiz-adv-x="248" d="M85 -130 C124 -130 170 -102 183 -65 C193 -15 199 23 201 49 C232 236 288 438 369 653 C387 701 396 731 396 741 C396 764 383 776 356 776 C305 776 267 751 244 701 C239 687 232 666 224 637 L74 23 C67 -2 62 -21 58 -34 C51 -58 48 -77 48 -91 C47 -117 60 -130 85 -130 L85 -130 Z " />
<glyph glyph-name="braceright" unicode="&#x7d;" horiz-adv-x="751" d="M209 269 C209 251 218 240 236 235 C246 231 285 230 353 230 C426 230 500 231 571 234 C635 236 676 239 691 241 C738 249 780 285 782 335 C781 357 770 368 747 368 L657 357 C583 348 523 344 476 344 C446 344 404 348 348 355 C315 359 295 362 289 362 C248 362 211 306 209 269 L209 269 Z M220 439 C247 439 505 602 542 632 C559 647 568 665 568 687 C568 714 560 754 526 754 C515 754 481 731 425 684 C359 630 317 608 239 575 C215 565 201 559 200 558 C186 547 180 531 180 508 C180 485 191 439 220 439 L220 439 Z M68 66 C69 59 70 54 74 49 C98 21 302 -117 329 -117 C362 -117 424 -70 424 -35 C424 -27 420 -20 413 -14 C398 -8 388 -3 383 -1 C321 24 282 45 263 60 C226 97 200 126 182 145 C176 150 170 152 164 152 C147 152 128 142 104 122 C81 100 68 82 68 66 L68 66 Z " />
<glyph glyph-name="asciitilde" unicode="&#x7e;" horiz-adv-x="590" d="M161 251 C167 251 184 262 213 284 C243 305 264 315 277 315 C291 315 320 304 366 283 C411 261 445 250 468 250 C516 250 617 312 630 360 C633 370 634 381 634 394 C634 434 622 453 600 453 C600 453 583 441 548 416 C513 391 486 378 469 378 C446 378 413 389 370 410 C327 431 294 442 271 442 C230 442 191 421 155 380 C138 361 130 333 130 298 C129 267 140 251 161 251 L161 251 Z " />
<glyph glyph-name="uni007F" unicode="&#x7f;" horiz-adv-x="333" d="" />
<glyph glyph-name="exclamdown" unicode="&#xa1;" horiz-adv-x="439" d="M33 -70 C33 -102 91 -109 115 -109 C159 -109 188 -99 206 -78 C226 -53 245 -22 265 16 L312 117 C383 269 421 349 424 356 C437 380 443 398 443 409 C443 429 426 438 391 438 C367 438 350 430 341 414 C309 336 282 274 230 205 C182 140 146 92 123 60 C63 -20 32 -63 33 -70 L33 -70 Z M377 523 C378 505 397 496 436 496 C476 496 501 505 510 525 C534 581 546 621 546 642 C545 663 531 674 501 674 C471 674 451 665 439 648 C426 630 380 542 377 523 L377 523 Z " />
<glyph glyph-name="cent" unicode="&#xa2;" horiz-adv-x="561" d="M107 214 C107 136 168 109 237 109 C244 109 250 109 257 110 C250 83 244 55 239 28 C239 5 252 -6 280 -6 C309 -6 357 10 369 38 C372 43 382 100 387 139 C454 163 542 208 576 271 C582 279 583 287 583 294 C582 307 575 314 557 314 C535 314 501 300 456 274 C410 247 374 235 348 235 C290 235 261 253 261 291 C261 322 283 355 329 393 C374 432 410 450 443 450 C456 450 472 441 489 423 C506 406 521 396 534 396 C568 396 622 421 622 461 C621 483 607 510 579 544 C561 568 538 582 511 587 C523 618 537 659 538 670 C537 690 522 700 494 700 C410 700 391 660 373 592 C369 574 366 563 364 550 C271 495 107 316 107 214 L107 214 Z " />
<glyph glyph-name="sterling" unicode="&#xa3;" horiz-adv-x="699" d="M116 253 C117 219 138 190 172 190 C193 190 239 195 309 204 C301 172 263 137 164 100 C149 94 138 92 132 79 C125 66 124 51 127 32 C131 15 136 2 143 -6 C162 -25 227 -38 341 -43 C380 -45 456 -46 567 -46 C605 -46 631 -32 644 -5 C652 12 657 28 657 44 C664 85 647 93 609 93 C546 93 448 80 387 80 C363 80 345 82 338 88 C380 113 411 170 425 219 C445 221 464 223 483 224 C533 231 635 245 635 313 C635 329 633 343 625 355 C617 370 604 377 590 377 C583 377 556 370 503 355 C451 340 415 330 399 328 C338 397 298 452 452 542 C486 562 522 572 559 572 C618 572 655 549 670 504 C676 487 679 476 682 472 C690 462 700 457 713 457 C737 457 748 488 753 508 C761 542 760 577 753 615 C739 680 720 718 649 718 C574 718 495 688 413 627 C327 564 171 425 231 333 C234 327 240 321 246 314 L222 314 C184 314 161 313 151 310 C128 302 116 283 116 253 L116 253 Z " />
<glyph glyph-name="dieresis" unicode="&#xa8;" horiz-adv-x="406" d="M478 754 C501 754 517 762 526 775 C536 787 573 861 573 873 C572 888 558 896 529 896 C498 896 480 888 474 871 C455 826 446 795 445 779 C445 762 456 754 478 754 L478 754 Z M274 732 C297 732 311 739 321 752 C327 761 336 778 348 803 C361 829 368 845 367 851 C367 865 352 872 323 872 C293 872 274 864 268 848 C250 803 241 772 241 757 C241 740 252 732 274 732 L274 732 Z " />
<glyph glyph-name="copyright" unicode="&#xa9;" horiz-adv-x="878" d="M360 -77 C602 -77 938 217 935 475 C935 625 826 723 679 723 C496 723 310 577 205 437 C137 344 103 255 103 169 C103 19 214 -77 360 -77 L360 -77 Z M248 211 C248 365 352 496 486 562 C539 589 587 603 630 603 C734 603 782 516 782 422 C782 348 759 278 712 214 C650 126 510 32 399 32 C296 32 248 117 248 211 L248 211 Z M406 134 C485 134 628 187 667 259 C672 265 673 271 673 277 C673 287 667 292 653 292 C636 292 609 282 575 261 C540 241 512 231 492 231 C447 231 425 245 425 274 C425 324 518 397 565 397 C575 397 587 389 601 376 C613 362 625 355 635 355 C661 355 703 375 703 405 C703 422 691 443 670 469 C652 492 629 504 600 504 C546 504 489 474 430 414 C348 329 306 263 306 215 C306 156 354 134 406 134 L406 134 Z " />
<glyph glyph-name="guillemotleft" unicode="&#xab;" horiz-adv-x="574" d="M368 274 C414 235 457 196 497 159 C506 149 513 143 519 143 C534 144 553 161 572 194 C579 212 579 227 565 238 L551 252 C525 279 497 305 466 333 C503 369 544 402 589 433 C620 454 635 463 640 480 C643 491 641 503 630 515 C619 528 610 533 602 533 C592 532 583 530 573 523 C564 514 553 506 544 499 C481 450 434 412 402 382 C386 376 373 357 367 328 C361 299 361 280 368 274 L368 274 Z M133 274 C179 235 222 196 262 159 C271 149 278 143 284 143 C299 144 318 161 337 194 C344 212 344 227 330 238 L316 252 C290 279 262 305 231 333 C268 369 309 402 354 433 C385 454 400 463 405 480 C408 491 406 503 395 515 C384 528 375 533 367 533 C357 532 348 530 338 523 C329 514 318 506 309 499 C246 450 199 412 167 382 C151 376 138 357 132 328 C126 299 126 280 133 274 L133 274 Z " />
<glyph glyph-name="registered" unicode="&#xae;" horiz-adv-x="877" d="M360 -77 C607 -77 933 216 936 476 C936 626 826 723 679 723 C432 723 105 429 102 170 C102 20 213 -77 360 -77 L360 -77 Z M247 214 C247 362 348 485 472 554 C529 586 582 603 629 603 C731 603 782 516 782 423 C780 266 677 144 543 73 C489 46 441 32 398 32 C296 32 247 122 247 214 L247 214 Z M359 115 C384 115 399 124 407 141 C411 150 414 169 416 198 L553 143 C561 140 570 138 579 138 C601 138 612 147 612 164 C612 175 604 185 588 195 L517 239 C639 273 698 329 699 407 C699 487 625 515 556 515 C503 515 445 489 383 436 C353 411 337 391 338 377 C338 360 348 339 364 339 C368 339 373 340 377 341 C360 284 350 250 348 241 C337 201 331 166 331 138 C332 123 341 115 359 115 L359 115 Z M467 411 C496 427 525 436 551 436 C582 436 618 422 618 386 C620 317 484 294 433 290 C442 330 453 371 467 411 L467 411 Z " />
<glyph glyph-name="macron" unicode="&#xaf;" horiz-adv-x="500" d="" />
<glyph glyph-name="degree" unicode="&#xb0;" horiz-adv-x="460" d="M175 476 C175 402 232 361 302 361 C417 361 551 467 551 589 C551 662 493 704 424 704 C308 704 175 598 175 476 L175 476 Z M289 508 C291 557 331 604 382 604 C413 604 433 583 432 552 C432 506 388 455 340 455 C309 455 290 476 289 508 L289 508 Z " />
<glyph glyph-name="acute" unicode="&#xb4;" horiz-adv-x="371" d="M265 739 C278 733 301 739 329 756 C344 766 375 782 423 807 C459 826 489 844 511 858 C523 865 531 874 538 884 C550 905 551 926 540 945 C534 957 523 962 510 962 C507 963 504 963 501 962 C483 960 303 843 273 822 C262 814 255 806 250 797 C248 792 246 788 245 782 C242 761 249 747 265 739 L265 739 Z " />
<glyph glyph-name="periodcentered" unicode="&#xb7;" horiz-adv-x="241" d="M127 297 C127 275 142 264 172 264 C201 264 222 274 235 293 C249 316 296 401 296 422 C296 442 276 451 238 451 C198 451 174 441 164 420 C139 359 127 318 127 297 L127 297 Z " />
<glyph glyph-name="cedilla" unicode="&#xb8;" horiz-adv-x="322" d="M54 -234 C74 -234 103 -224 140 -204 C175 -183 216 -131 260 -47 C259 -4 256 21 252 30 C241 38 228 42 212 42 C186 42 166 23 154 -15 C141 -75 113 -117 69 -141 C25 -165 2 -182 2 -192 C4 -221 27 -234 54 -234 L54 -234 Z " />
<glyph glyph-name="guillemotright" unicode="&#xbb;" horiz-adv-x="574" d="M334 194 C337 161 346 144 361 143 C367 143 378 149 391 159 C449 196 512 235 578 274 C587 280 597 299 605 328 C615 357 610 376 598 382 C580 412 553 450 514 499 C509 506 502 514 497 523 C491 530 482 532 472 533 C451 533 413 500 408 480 C405 463 416 454 437 433 C466 402 491 369 510 333 C465 305 423 279 383 252 L363 238 C343 227 335 212 334 194 L334 194 Z M126 143 C132 143 143 149 156 159 C214 196 277 235 343 274 C352 280 362 299 370 328 C380 357 375 376 363 382 C345 412 318 450 279 499 C274 506 267 514 262 523 C256 530 247 532 237 533 C216 533 178 500 173 480 C170 463 181 454 202 433 C231 402 256 369 275 333 C230 305 188 279 148 252 L128 238 C108 227 100 212 99 194 C102 161 111 144 126 143 L126 143 Z " />
<glyph glyph-name="questiondown" unicode="&#xbf;" horiz-adv-x="720" d="M313 -141 C414 -141 680 -73 680 53 C681 70 673 79 658 79 C651 79 633 70 600 52 C541 19 462 -22 393 -22 C342 -22 238 12 238 75 C236 197 460 220 548 220 C550 220 576 220 624 219 C652 219 661 226 674 251 C698 306 711 345 711 368 C711 388 694 398 662 398 C635 398 618 392 608 381 C604 377 594 362 580 333 C414 321 67 260 67 42 C67 -82 207 -141 313 -141 L313 -141 Z M703 482 C726 482 743 485 753 492 C767 500 777 513 783 533 L803 587 C806 595 806 601 806 605 C806 623 791 632 760 632 C734 632 714 625 701 613 C692 606 645 518 645 508 C644 490 664 482 703 482 L703 482 Z " />
<glyph glyph-name="Agrave" unicode="&#xc0;" horiz-adv-x="728" d="M44 -35 C57 -53 72 -62 90 -62 C110 -62 136 -38 168 9 C325 36 456 62 564 86 C568 53 573 31 575 20 C583 -8 596 -22 615 -22 C651 -22 716 15 716 55 C717 67 713 83 705 103 C700 119 694 135 689 151 C649 269 620 424 601 615 C599 647 598 665 596 671 C590 690 576 700 555 700 C517 700 488 683 467 649 C393 532 337 446 299 387 C233 287 173 204 114 138 C92 113 74 94 63 82 C41 58 31 36 31 17 C30 -2 35 -20 44 -35 L44 -35 Z M268 152 C388 335 465 451 500 500 C519 379 534 286 544 219 C458 191 366 169 268 152 L268 152 Z M414 879 C423 851 467 819 491 803 C504 792 524 778 547 760 C570 742 591 735 610 739 C623 743 632 750 639 764 C646 777 647 789 644 800 C640 810 634 821 623 831 C605 849 580 874 547 907 C513 939 488 957 472 961 C455 962 442 957 430 946 C412 927 406 905 414 879 L414 879 Z " />
<glyph glyph-name="Aacute" unicode="&#xc1;" horiz-adv-x="728" d="M44 -35 C57 -53 72 -62 90 -62 C110 -62 136 -38 168 9 C325 36 456 62 564 86 C568 53 573 31 575 20 C583 -8 596 -22 615 -22 C651 -22 716 15 716 55 C717 67 713 83 705 103 C700 119 694 135 689 151 C649 269 620 424 601 615 C599 647 598 665 596 671 C590 690 576 700 555 700 C517 700 488 683 467 649 C393 532 337 446 299 387 C233 287 173 204 114 138 C92 113 74 94 63 82 C41 58 31 36 31 17 C30 -2 35 -20 44 -35 L44 -35 Z M500 500 C519 379 534 286 544 219 C458 191 366 169 268 152 C388 335 465 451 500 500 L500 500 Z M443 725 C456 719 479 725 507 742 C522 752 553 768 601 793 C637 812 667 830 689 844 C701 851 709 860 716 870 C728 891 729 912 718 931 C712 943 701 948 688 948 C685 949 682 949 679 948 C661 946 481 829 451 808 C440 800 433 792 428 783 C426 778 424 774 423 768 C420 747 427 733 443 725 L443 725 Z " />
<glyph glyph-name="Acircumflex" unicode="&#xc2;" horiz-adv-x="728" d="M44 -35 C57 -53 72 -62 90 -62 C110 -62 136 -38 168 9 C325 36 456 62 564 86 C568 53 573 31 575 20 C583 -8 596 -22 615 -22 C651 -22 716 15 716 55 C717 67 713 83 705 103 C700 119 694 135 689 151 C649 269 620 424 601 615 C599 647 598 665 596 671 C590 690 576 700 555 700 C517 700 488 683 467 649 C393 532 337 446 299 387 C233 287 173 204 114 138 C92 113 74 94 63 82 C41 58 31 36 31 17 C30 -2 35 -20 44 -35 L44 -35 Z M268 152 C388 335 465 451 500 500 C519 379 534 286 544 219 C458 191 366 169 268 152 L268 152 Z M412 709 C428 707 442 712 455 727 L471 743 C500 772 530 805 562 840 C589 816 613 789 633 758 C649 736 654 724 669 724 C678 724 689 730 704 743 C717 756 725 765 726 772 C727 780 726 788 720 795 C714 801 709 808 703 814 C669 857 641 888 619 909 C616 922 601 928 574 925 C547 923 530 918 523 911 C478 860 433 811 392 766 C381 756 375 747 374 743 C372 730 384 717 412 709 L412 709 Z " />
<glyph glyph-name="Atilde" unicode="&#xc3;" horiz-adv-x="728" d="M44 -35 C57 -53 72 -62 90 -62 C110 -62 136 -38 168 9 C325 36 456 62 564 86 C568 53 573 31 575 20 C583 -8 596 -22 615 -22 C651 -22 716 15 716 55 C717 67 713 83 705 103 C700 119 694 135 689 151 C649 269 620 424 601 615 C599 647 598 665 596 671 C590 690 576 700 555 700 C517 700 488 683 467 649 C393 532 337 446 299 387 C233 287 173 204 114 138 C92 113 74 94 63 82 C41 58 31 36 31 17 C30 -2 35 -20 44 -35 L44 -35 Z M500 500 C519 379 534 286 544 219 C458 191 366 169 268 152 C388 335 465 451 500 500 L500 500 Z M384 748 C388 748 402 756 425 773 C449 790 466 798 477 798 C488 798 512 790 547 773 C583 756 611 747 629 747 C670 747 745 795 758 835 C760 842 760 851 760 861 C760 893 752 909 735 909 C735 909 721 899 693 879 C665 859 643 849 629 849 C611 849 585 857 551 874 C516 891 490 899 471 899 C439 899 410 883 380 850 C366 835 360 813 359 785 C359 760 367 748 384 748 L384 748 Z " />
<glyph glyph-name="Adieresis" unicode="&#xc4;" horiz-adv-x="728" d="M44 -35 C57 -53 72 -62 90 -62 C110 -62 136 -38 168 9 C325 36 456 62 564 86 C568 53 573 31 575 20 C583 -8 596 -22 615 -22 C651 -22 716 15 716 55 C717 67 713 83 705 103 C700 119 694 135 689 151 C649 269 620 424 601 615 C599 647 598 665 596 671 C590 690 576 700 555 700 C517 700 488 683 467 649 C393 532 337 446 299 387 C233 287 173 204 114 138 C92 113 74 94 63 82 C41 58 31 36 31 17 C30 -2 35 -20 44 -35 L44 -35 Z M268 152 C388 335 465 451 500 500 C519 379 534 286 544 219 C458 191 366 169 268 152 L268 152 Z M650 751 C673 751 689 759 698 772 C708 784 745 858 745 870 C744 885 730 893 701 893 C670 893 652 885 646 868 C627 823 618 792 617 776 C617 759 628 751 650 751 L650 751 Z M413 754 C413 737 424 729 446 729 C469 729 483 736 493 749 C499 758 508 775 520 800 C533 826 540 842 539 848 C539 862 524 869 495 869 C465 869 446 861 440 845 C422 800 413 769 413 754 L413 754 Z " />
<glyph glyph-name="Aring" unicode="&#xc5;" horiz-adv-x="729" d="M44 -35 C57 -53 72 -62 90 -62 C110 -62 136 -38 168 9 C325 36 456 62 564 86 C568 53 573 31 575 20 C583 -8 596 -22 615 -22 C651 -22 716 15 716 55 C716 67 712 83 704 103 L688 151 C649 269 620 424 601 615 C599 647 598 665 596 671 C596 672 595 675 594 676 C597 677 598 679 600 679 C646 705 684 748 686 803 C686 826 677 844 661 857 C647 870 628 876 605 876 C527 876 453 810 447 732 C448 708 459 680 483 670 C477 664 471 656 467 649 C392 532 337 446 299 387 C233 287 173 204 114 138 C92 113 74 94 63 82 C41 58 31 36 31 17 C30 -2 35 -20 44 -35 L44 -35 Z M499 500 C519 379 534 286 543 219 C457 191 366 169 268 152 C388 335 465 451 499 500 L499 500 Z M517 751 C517 784 545 817 579 817 C600 817 614 803 613 781 C613 749 584 715 551 715 C529 715 516 729 517 751 L517 751 Z " />
<glyph glyph-name="AE" unicode="&#xc6;" horiz-adv-x="1189" d="M33 -31 C45 -40 59 -45 74 -47 C94 -50 112 -42 131 -25 C175 16 205 46 223 66 C226 65 228 65 231 65 C260 65 334 74 453 91 C483 94 513 97 542 99 C555 101 567 103 578 105 C566 52 560 14 560 -10 C560 -40 585 -55 633 -55 C760 -55 939 -32 1052 27 C1083 44 1123 84 1123 122 C1123 141 1110 151 1083 151 C1076 151 1066 149 1052 147 C939 122 881 109 876 108 C814 95 754 88 698 88 C705 146 715 206 729 268 C831 298 975 324 1160 345 C1204 350 1230 366 1237 393 C1237 422 1201 448 1175 454 C1166 457 1151 457 1131 457 C1017 457 895 441 764 407 C773 438 783 469 793 498 C857 523 909 537 951 543 C1022 551 1075 557 1110 561 C1160 566 1185 586 1184 619 C1185 650 1160 687 1118 698 C1104 700 1084 702 1055 702 C1005 702 958 697 916 687 C901 683 857 671 782 649 C780 648 777 648 775 647 C749 649 725 641 706 626 C652 583 615 552 595 534 C444 404 288 268 129 128 C99 103 78 84 63 72 C32 45 14 23 12 8 C11 -7 18 -19 33 -31 L33 -31 Z M358 192 C449 272 549 353 658 435 L642 371 C615 359 592 322 592 292 C592 274 600 261 613 251 C613 249 612 246 611 244 C598 240 581 236 562 230 C483 208 441 197 358 192 L358 192 Z " />
<glyph glyph-name="Ccedilla" unicode="&#xc7;" horiz-adv-x="746" d="M92 130 C92 22 155 -40 264 -40 C285 -40 308 -38 332 -34 C316 -78 290 -111 254 -130 C210 -154 188 -171 187 -181 C189 -210 214 -223 241 -223 C260 -223 289 -213 325 -193 C389 -156 441 -71 444 -3 C507 20 575 53 649 97 C688 119 708 132 712 136 C732 152 743 174 742 199 C743 219 733 229 716 229 C705 229 676 218 628 195 C556 161 509 139 486 130 C426 107 377 96 339 96 C279 96 211 117 211 189 C211 253 257 325 351 408 C433 479 536 525 658 545 C658 529 657 518 657 514 C657 475 667 455 689 455 C703 455 721 462 746 477 C779 495 794 517 794 544 C794 581 795 605 798 615 C803 642 806 658 806 664 C806 685 787 696 749 696 C465 696 182 491 104 216 C96 188 92 160 92 130 L92 130 Z " />
<glyph glyph-name="Egrave" unicode="&#xc8;" horiz-adv-x="722" d="M93 -10 C92 -40 118 -55 166 -55 C292 -55 473 -31 585 27 C618 46 654 82 656 122 C655 141 643 151 616 151 C609 151 598 149 585 147 C472 122 413 109 409 108 C347 95 287 88 231 88 C238 146 248 206 262 268 C364 298 508 324 692 345 C737 350 763 366 770 393 C770 423 734 448 707 454 C699 457 684 457 664 457 C550 457 428 441 297 407 C306 438 316 469 325 498 C390 523 442 537 484 543 C555 551 608 557 643 561 C692 566 717 586 717 619 C717 650 693 687 650 698 C637 700 616 702 587 702 C537 702 491 697 449 687 C434 683 390 671 315 649 C291 642 274 637 265 631 C236 612 231 593 223 561 C201 475 185 412 175 371 C148 359 125 322 125 292 C125 274 132 261 146 251 C136 208 125 164 114 120 C100 59 92 16 93 -10 L93 -10 Z M426 877 C435 849 479 817 503 801 C516 790 536 776 559 758 C582 740 603 733 622 737 C635 741 644 748 651 762 C658 775 659 787 656 798 C652 808 646 819 635 829 C617 847 592 872 559 905 C525 937 500 955 484 959 C467 960 454 955 442 944 C424 925 418 903 426 877 L426 877 Z " />
<glyph glyph-name="Eacute" unicode="&#xc9;" horiz-adv-x="722" d="M93 -10 C92 -40 118 -55 166 -55 C292 -55 473 -31 585 27 C618 46 654 82 656 122 C655 141 643 151 616 151 C609 151 598 149 585 147 C472 122 413 109 409 108 C347 95 287 88 231 88 C238 146 248 206 262 268 C364 298 508 324 692 345 C737 350 763 366 770 393 C770 423 734 448 707 454 C699 457 684 457 664 457 C550 457 428 441 297 407 C306 438 316 469 325 498 C390 523 442 537 484 543 C555 551 608 557 643 561 C692 566 717 586 717 619 C717 650 693 687 650 698 C637 700 616 702 587 702 C537 702 491 697 449 687 C434 683 390 671 315 649 C291 642 274 637 265 631 C236 612 231 593 223 561 C201 475 185 412 175 371 C148 359 125 322 125 292 C125 274 132 261 146 251 C136 208 125 164 114 120 C100 59 92 16 93 -10 L93 -10 Z M435 733 C448 727 471 733 499 750 C514 760 545 776 593 801 C629 820 659 838 681 852 C693 859 701 868 708 878 C720 899 721 920 710 939 C704 951 693 956 680 956 C677 957 674 957 671 956 C653 954 473 837 443 816 C432 808 425 800 420 791 C418 786 416 782 415 776 C412 755 419 741 435 733 L435 733 Z " />
<glyph glyph-name="Ecircumflex" unicode="&#xca;" horiz-adv-x="722" d="M93 -10 C92 -40 118 -55 166 -55 C292 -55 473 -31 585 27 C618 46 654 82 656 122 C655 141 643 151 616 151 C609 151 598 149 585 147 C472 122 413 109 409 108 C347 95 287 88 231 88 C238 146 248 206 262 268 C364 298 508 324 692 345 C737 350 763 366 770 393 C770 423 734 448 707 454 C699 457 684 457 664 457 C550 457 428 441 297 407 C306 438 316 469 325 498 C390 523 442 537 484 543 C555 551 608 557 643 561 C692 566 717 586 717 619 C717 650 693 687 650 698 C637 700 616 702 587 702 C537 702 491 697 449 687 C434 683 390 671 315 649 C291 642 274 637 265 631 C236 612 231 593 223 561 C201 475 185 412 175 371 C148 359 125 322 125 292 C125 274 132 261 146 251 C136 208 125 164 114 120 C100 59 92 16 93 -10 L93 -10 Z M416 734 C432 732 446 737 459 752 L475 768 C504 797 534 830 566 865 C593 841 617 814 637 783 C653 761 658 749 673 749 C682 749 693 755 708 768 C721 781 729 790 730 797 C731 805 730 813 724 820 C718 826 713 833 707 839 C673 882 645 913 623 934 C620 947 605 953 578 950 C551 948 534 943 527 936 C482 885 437 836 396 791 C385 781 379 772 378 768 C376 755 388 742 416 734 L416 734 Z " />
<glyph glyph-name="Edieresis" unicode="&#xcb;" horiz-adv-x="722" d="M93 -10 C92 -40 118 -55 166 -55 C292 -55 473 -31 585 27 C618 46 654 82 656 122 C655 141 643 151 616 151 C609 151 598 149 585 147 C472 122 413 109 409 108 C347 95 287 88 231 88 C238 146 248 206 262 268 C364 298 508 324 692 345 C737 350 763 366 770 393 C770 423 734 448 707 454 C699 457 684 457 664 457 C550 457 428 441 297 407 C306 438 316 469 325 498 C390 523 442 537 484 543 C555 551 608 557 643 561 C692 566 717 586 717 619 C717 650 693 687 650 698 C637 700 616 702 587 702 C537 702 491 697 449 687 C434 683 390 671 315 649 C291 642 274 637 265 631 C236 612 231 593 223 561 C201 475 185 412 175 371 C148 359 125 322 125 292 C125 274 132 261 146 251 C136 208 125 164 114 120 C100 59 92 16 93 -10 L93 -10 Z M612 756 C635 756 651 764 660 777 C670 789 707 863 707 875 C706 890 692 898 663 898 C632 898 614 890 608 873 C589 828 580 797 579 781 C579 764 590 756 612 756 L612 756 Z M408 734 C431 734 445 741 455 754 C461 763 470 780 482 805 C495 831 502 847 501 853 C501 867 486 874 457 874 C427 874 408 866 402 850 C384 805 375 774 375 759 C375 742 386 734 408 734 L408 734 Z " />
<glyph glyph-name="Igrave" unicode="&#xcc;" horiz-adv-x="577" d="M82 -43 C92 -47 111 -48 138 -48 C231 -48 393 -24 474 20 C501 33 540 75 540 107 C539 122 528 130 505 130 C484 130 459 126 429 118 L355 98 C372 240 409 393 464 555 C527 561 575 564 606 566 C656 570 680 589 681 626 C681 702 592 707 536 707 C428 707 335 687 256 646 C218 628 196 586 195 543 C195 506 210 488 238 488 C249 488 281 498 336 520 C286 327 251 180 230 79 C216 78 202 77 185 77 C175 77 141 80 132 80 C81 80 53 47 53 -1 C54 -22 62 -36 82 -43 L82 -43 Z M354 877 C363 849 407 817 431 801 C444 790 464 776 487 758 C510 740 531 733 550 737 C563 741 572 748 579 762 C586 775 587 787 584 798 C580 808 574 819 563 829 C545 847 520 872 487 905 C453 937 428 955 412 959 C395 960 382 955 370 944 C352 925 346 903 354 877 L354 877 Z " />
<glyph glyph-name="Iacute" unicode="&#xcd;" horiz-adv-x="577" d="M82 -43 C92 -47 111 -48 138 -48 C231 -48 393 -24 474 20 C501 33 540 75 540 107 C539 122 528 130 505 130 C484 130 459 126 429 118 L355 98 C372 240 409 393 464 555 C527 561 575 564 606 566 C656 570 680 589 681 626 C681 702 592 707 536 707 C428 707 335 687 256 646 C218 628 196 586 195 543 C195 506 210 488 238 488 C249 488 281 498 336 520 C286 327 251 180 230 79 C216 78 202 77 185 77 C175 77 141 80 132 80 C81 80 53 47 53 -1 C54 -22 62 -36 82 -43 L82 -43 Z M335 734 C348 728 371 734 399 751 C414 761 445 777 493 802 C529 821 559 839 581 853 C593 860 601 869 608 879 C620 900 621 921 610 940 C604 952 593 957 580 957 C577 958 574 958 571 957 C553 955 373 838 343 817 C332 809 325 801 320 792 C318 787 316 783 315 777 C312 756 319 742 335 734 L335 734 Z " />
<glyph glyph-name="Icircumflex" unicode="&#xce;" horiz-adv-x="577" d="M82 -43 C92 -47 111 -48 138 -48 C231 -48 393 -24 474 20 C501 33 540 75 540 107 C539 122 528 130 505 130 C484 130 459 126 429 118 L355 98 C372 240 409 393 464 555 C527 561 575 564 606 566 C656 570 680 589 681 626 C681 702 592 707 536 707 C428 707 335 687 256 646 C218 628 196 586 195 543 C195 506 210 488 238 488 C249 488 281 498 336 520 C286 327 251 180 230 79 C216 78 202 77 185 77 C175 77 141 80 132 80 C81 80 53 47 53 -1 C54 -22 62 -36 82 -43 L82 -43 Z M341 730 C357 728 371 733 384 748 L400 764 C429 793 459 826 491 861 C518 837 542 810 562 779 C578 757 583 745 598 745 C607 745 618 751 633 764 C646 777 654 786 655 793 C656 801 655 809 649 816 C643 822 638 829 632 835 C598 878 570 909 548 930 C545 943 530 949 503 946 C476 944 459 939 452 932 C407 881 362 832 321 787 C310 777 304 768 303 764 C301 751 313 738 341 730 L341 730 Z " />
<glyph glyph-name="Idieresis" unicode="&#xcf;" horiz-adv-x="577" d="M82 -43 C92 -47 111 -48 138 -48 C231 -48 393 -24 474 20 C501 33 540 75 540 107 C539 122 528 130 505 130 C484 130 459 126 429 118 L355 98 C372 240 409 393 464 555 C527 561 575 564 606 566 C656 570 680 589 681 626 C681 702 592 707 536 707 C428 707 335 687 256 646 C218 628 196 586 195 543 C195 506 210 488 238 488 C249 488 281 498 336 520 C286 327 251 180 230 79 C216 78 202 77 185 77 C175 77 141 80 132 80 C81 80 53 47 53 -1 C54 -22 62 -36 82 -43 L82 -43 Z M558 760 C581 760 597 768 606 781 C616 793 653 867 653 879 C652 894 638 902 609 902 C578 902 560 894 554 877 C535 832 526 801 525 785 C525 768 536 760 558 760 L558 760 Z M354 738 C377 738 391 745 401 758 C407 767 416 784 428 809 C441 835 448 851 447 857 C447 871 432 878 403 878 C373 878 354 870 348 854 C330 809 321 778 321 763 C321 746 332 738 354 738 L354 738 Z " />
<glyph glyph-name="Ntilde" unicode="&#xd1;" horiz-adv-x="736" d="M89 -66 C123 -66 176 -45 185 -9 C189 32 192 54 192 58 C204 149 231 263 276 401 L518 -1 C518 -16 531 -23 558 -23 C605 -23 636 -9 649 17 C653 25 657 43 661 70 C687 233 743 412 831 609 C847 645 854 668 854 679 C854 698 842 708 818 708 C753 708 705 651 675 538 C662 486 651 446 644 420 C609 306 589 240 582 225 L346 624 C338 636 325 641 306 641 C295 641 282 640 270 638 C207 620 198 588 183 530 C156 429 119 273 71 61 C67 46 63 30 60 15 C54 -6 51 -21 51 -30 C50 -54 63 -66 89 -66 L89 -66 Z M354 706 C358 706 372 714 395 731 C419 748 436 756 447 756 C458 756 482 748 517 731 C553 714 581 705 599 705 C640 705 715 753 728 793 C730 800 730 809 730 819 C730 851 722 867 705 867 C705 867 691 857 663 837 C635 817 613 807 599 807 C581 807 555 815 521 832 C486 849 460 857 441 857 C409 857 380 841 350 808 C336 793 330 771 329 743 C329 718 337 706 354 706 L354 706 Z " />
<glyph glyph-name="Ograve" unicode="&#xd2;" horiz-adv-x="899" d="M113 204 C113 40 241 -52 396 -52 C650 -52 952 187 952 456 C954 617 821 713 669 713 C412 713 113 476 113 204 L113 204 Z M267 243 C269 417 423 596 603 596 C718 596 787 519 787 406 C786 318 754 239 684 165 C615 90 537 53 451 53 C336 53 267 130 267 243 L267 243 Z M544 877 C553 849 597 817 621 801 C634 790 654 776 677 758 C700 740 721 733 740 737 C753 741 762 748 769 762 C776 775 777 787 774 798 C770 808 764 819 753 829 C735 847 710 872 677 905 C643 937 618 955 602 959 C585 960 572 955 560 944 C542 925 536 903 544 877 L544 877 Z " />
<glyph glyph-name="Oacute" unicode="&#xd3;" horiz-adv-x="899" d="M113 204 C113 40 241 -52 396 -52 C650 -52 952 187 952 456 C954 617 821 713 669 713 C412 713 113 476 113 204 L113 204 Z M267 243 C269 417 423 596 603 596 C718 596 787 519 787 406 C786 318 754 239 684 165 C615 90 537 53 451 53 C336 53 267 130 267 243 L267 243 Z M539 734 C552 728 575 734 603 751 C618 761 649 777 697 802 C733 821 763 839 785 853 C797 860 805 869 812 879 C824 900 825 921 814 940 C808 952 797 957 784 957 C781 958 778 958 775 957 C757 955 577 838 547 817 C536 809 529 801 524 792 C522 787 520 783 519 777 C516 756 523 742 539 734 L539 734 Z " />
<glyph glyph-name="Ocircumflex" unicode="&#xd4;" horiz-adv-x="899" d="M396 -52 C650 -52 952 187 952 456 C954 617 821 713 669 713 C412 713 113 476 113 204 C113 40 241 -52 396 -52 L396 -52 Z M267 243 C269 417 423 596 603 596 C718 596 787 519 787 406 C786 318 754 239 684 165 C615 90 537 53 451 53 C336 53 267 130 267 243 L267 243 Z M516 734 C532 732 546 737 559 752 L575 768 C604 797 634 830 666 865 C693 841 717 814 737 783 C753 761 758 749 773 749 C782 749 793 755 808 768 C821 781 829 790 830 797 C831 805 830 813 824 820 C818 826 813 833 807 839 C773 882 745 913 723 934 C720 947 705 953 678 950 C651 948 634 943 627 936 C582 885 537 836 496 791 C485 781 479 772 478 768 C476 755 488 742 516 734 L516 734 Z " />
<glyph glyph-name="Otilde" unicode="&#xd5;" horiz-adv-x="899" d="M113 204 C113 40 241 -52 396 -52 C650 -52 952 187 952 456 C954 617 821 713 669 713 C412 713 113 476 113 204 L113 204 Z M603 596 C718 596 787 519 787 406 C786 318 754 239 684 165 C615 90 537 53 451 53 C336 53 267 130 267 243 C269 417 423 596 603 596 L603 596 Z M476 747 C480 747 494 755 517 772 C541 789 558 797 569 797 C580 797 604 789 639 772 C675 755 703 746 721 746 C762 746 837 794 850 834 C852 841 852 850 852 860 C852 892 844 908 827 908 C827 908 813 898 785 878 C757 858 735 848 721 848 C703 848 677 856 643 873 C608 890 582 898 563 898 C531 898 502 882 472 849 C458 834 452 812 451 784 C451 759 459 747 476 747 L476 747 Z " />
<glyph glyph-name="Odieresis" unicode="&#xd6;" horiz-adv-x="899" d="M396 -52 C650 -52 952 187 952 456 C954 617 821 713 669 713 C412 713 113 476 113 204 C113 40 241 -52 396 -52 L396 -52 Z M267 243 C269 417 423 596 603 596 C718 596 787 519 787 406 C786 318 754 239 684 165 C615 90 537 53 451 53 C336 53 267 130 267 243 L267 243 Z M750 764 C773 764 789 772 798 785 C808 797 845 871 845 883 C844 898 830 906 801 906 C770 906 752 898 746 881 C727 836 718 805 717 789 C717 772 728 764 750 764 L750 764 Z M546 742 C569 742 583 749 593 762 C599 771 608 788 620 813 C633 839 640 855 639 861 C639 875 624 882 595 882 C565 882 546 874 540 858 C522 813 513 782 513 767 C513 750 524 742 546 742 L546 742 Z " />
<glyph glyph-name="Oslash" unicode="&#xd8;" horiz-adv-x="899" d="M113 204 C113 138 133 83 171 39 C156 20 148 5 149 -6 C149 -38 194 -50 220 -50 C237 -50 254 -42 268 -29 C306 -44 349 -52 396 -52 C653 -52 949 186 952 456 C951 522 932 577 893 620 L907 633 C916 664 911 685 891 697 C880 704 865 708 847 708 C825 708 805 703 789 692 C753 706 713 713 669 713 C415 713 110 474 113 204 L113 204 Z M358 80 C471 216 606 357 765 504 C781 476 787 443 787 406 C786 318 754 239 684 165 C616 90 537 53 451 53 C414 53 382 60 355 76 C356 77 357 79 358 80 L358 80 Z M267 243 C267 417 425 596 603 596 C631 596 656 592 677 583 C675 581 672 578 671 576 C544 441 414 302 282 158 C272 183 266 212 267 243 L267 243 Z " />
<glyph glyph-name="Ugrave" unicode="&#xd9;" horiz-adv-x="677" d="M114 -28 C201 -28 422 51 507 90 C495 40 489 11 489 5 C489 -17 502 -28 528 -28 C573 -28 616 -5 627 41 C631 75 634 100 636 117 C653 246 689 381 742 522 C753 550 762 571 769 585 C780 614 786 634 786 646 C787 668 771 679 740 679 C682 679 646 646 626 593 C617 563 610 534 603 505 C587 446 566 356 540 237 C478 209 266 123 209 121 C207 141 224 212 256 334 C282 430 311 516 342 593 C354 620 359 639 360 649 C359 669 344 679 315 679 C263 679 228 658 210 616 C195 572 184 536 176 506 C130 312 95 160 71 49 C66 28 64 14 63 9 C63 -16 80 -28 114 -28 L114 -28 Z M353 833 C362 805 406 773 430 757 C443 746 463 732 486 714 C509 696 530 689 549 693 C562 697 571 704 578 718 C585 731 586 743 583 754 C579 764 573 775 562 785 C544 803 519 828 486 861 C452 893 427 911 411 915 C394 916 381 911 369 900 C351 881 345 859 353 833 L353 833 Z " />
<glyph glyph-name="Uacute" unicode="&#xda;" horiz-adv-x="677" d="M114 -28 C201 -28 422 51 507 90 C495 40 489 11 489 5 C489 -17 502 -28 528 -28 C573 -28 616 -5 627 41 C631 75 634 100 636 117 C653 246 689 381 742 522 C753 550 762 571 769 585 C780 614 786 634 786 646 C787 668 771 679 740 679 C682 679 646 646 626 593 C617 563 610 534 603 505 C587 446 566 356 540 237 C478 209 266 123 209 121 C207 141 224 212 256 334 C282 430 311 516 342 593 C354 620 359 639 360 649 C359 669 344 679 315 679 C263 679 228 658 210 616 C195 572 184 536 176 506 C130 312 95 160 71 49 C66 28 64 14 63 9 C63 -16 80 -28 114 -28 L114 -28 Z M455 688 C468 682 491 688 519 705 C534 715 565 731 613 756 C649 775 679 793 701 807 C713 814 721 823 728 833 C740 854 741 875 730 894 C724 906 713 911 700 911 C697 912 694 912 691 911 C673 909 493 792 463 771 C452 763 445 755 440 746 C438 741 436 737 435 731 C432 710 439 696 455 688 L455 688 Z " />
<glyph glyph-name="Ucircumflex" unicode="&#xdb;" horiz-adv-x="677" d="M114 -28 C201 -28 422 51 507 90 C495 40 489 11 489 5 C489 -17 502 -28 528 -28 C573 -28 616 -5 627 41 C631 75 634 100 636 117 C653 246 689 381 742 522 C753 550 762 571 769 585 C780 614 786 634 786 646 C787 668 771 679 740 679 C682 679 646 646 626 593 C617 563 610 534 603 505 C587 446 566 356 540 237 C478 209 266 123 209 121 C207 141 224 212 256 334 C282 430 311 516 342 593 C354 620 359 639 360 649 C359 669 344 679 315 679 C263 679 228 658 210 616 C195 572 184 536 176 506 C130 312 95 160 71 49 C66 28 64 14 63 9 C63 -16 80 -28 114 -28 L114 -28 Z M402 728 C418 726 432 731 445 746 L461 762 C490 791 520 824 552 859 C579 835 603 808 623 777 C639 755 644 743 659 743 C668 743 679 749 694 762 C707 775 715 784 716 791 C717 799 716 807 710 814 C704 820 699 827 693 833 C659 876 631 907 609 928 C606 941 591 947 564 944 C537 942 520 937 513 930 C468 879 423 830 382 785 C371 775 365 766 364 762 C362 749 374 736 402 728 L402 728 Z " />
<glyph glyph-name="Udieresis" unicode="&#xdc;" horiz-adv-x="677" d="M114 -28 C201 -28 422 51 507 90 C495 40 489 11 489 5 C489 -17 502 -28 528 -28 C573 -28 616 -5 627 41 C631 75 634 100 636 117 C653 246 689 381 742 522 C753 550 762 571 769 585 C780 614 786 634 786 646 C787 668 771 679 740 679 C682 679 646 646 626 593 C617 563 610 534 603 505 C587 446 566 356 540 237 C478 209 266 123 209 121 C207 141 224 212 256 334 C282 430 311 516 342 593 C354 620 359 639 360 649 C359 669 344 679 315 679 C263 679 228 658 210 616 C195 572 184 536 176 506 C130 312 95 160 71 49 C66 28 64 14 63 9 C63 -16 80 -28 114 -28 L114 -28 Z M621 744 C644 744 660 752 669 765 C679 777 716 851 716 863 C715 878 701 886 672 886 C641 886 623 878 617 861 C598 816 589 785 588 769 C588 752 599 744 621 744 L621 744 Z M384 747 C384 730 395 722 417 722 C440 722 454 729 464 742 C470 751 479 768 491 793 C504 819 511 835 510 841 C510 855 495 862 466 862 C436 862 417 854 411 838 C393 793 384 762 384 747 L384 747 Z " />
<glyph glyph-name="germandbls" unicode="&#xdf;" horiz-adv-x="684" d="M44 -95 C44 -111 55 -123 76 -130 C92 -135 161 -124 178 -8 L190 71 C214 211 274 423 289 473 C365 532 431 562 487 562 C532 562 614 541 614 484 C613 455 592 422 546 386 C504 353 457 334 364 323 C317 323 267 201 374 210 C403 213 437 205 480 194 C532 180 558 163 558 143 C558 119 526 100 463 89 C424 84 404 85 362 84 C249 80 243 -43 280 -40 C364 -38 415 -31 472 -13 C604 28 669 85 670 160 C670 225 617 273 561 297 C674 361 731 441 731 535 C731 653 632 695 529 695 C408 695 305 637 218 558 C175 520 159 453 147 369 C132 307 93 152 78 89 C55 -5 44 -66 44 -95 L44 -95 Z " />
<glyph glyph-name="agrave" unicode="&#xe0;" horiz-adv-x="728" d="M44 -35 C57 -53 72 -62 90 -62 C110 -62 136 -38 168 9 C325 36 456 62 564 86 C568 53 573 31 575 20 C583 -8 596 -22 615 -22 C651 -22 716 15 716 55 C717 67 713 83 705 103 C700 119 694 135 689 151 C649 269 620 424 601 615 C599 647 598 665 596 671 C590 690 576 700 555 700 C517 700 488 683 467 649 C393 532 337 446 299 387 C233 287 173 204 114 138 C92 113 74 94 63 82 C41 58 31 36 31 17 C30 -2 35 -20 44 -35 L44 -35 Z M500 500 C519 379 534 286 544 219 C458 191 366 169 268 152 C388 335 465 451 500 500 L500 500 Z M442 873 C451 845 495 813 519 797 C532 786 552 772 575 754 C598 736 619 729 638 733 C651 737 660 744 667 758 C674 771 675 783 672 794 C668 804 662 815 651 825 C633 843 608 868 575 901 C541 933 516 951 500 955 C483 956 470 951 458 940 C440 921 434 899 442 873 L442 873 Z " />
<glyph glyph-name="aacute" unicode="&#xe1;" horiz-adv-x="728" d="M44 -35 C57 -53 72 -62 90 -62 C110 -62 136 -38 168 9 C325 36 456 62 564 86 C568 53 573 31 575 20 C583 -8 596 -22 615 -22 C651 -22 716 15 716 55 C717 67 713 83 705 103 C700 119 694 135 689 151 C649 269 620 424 601 615 C599 647 598 665 596 671 C590 690 576 700 555 700 C517 700 488 683 467 649 C393 532 337 446 299 387 C233 287 173 204 114 138 C92 113 74 94 63 82 C41 58 31 36 31 17 C30 -2 35 -20 44 -35 L44 -35 Z M268 152 C388 335 465 451 500 500 C519 379 534 286 544 219 C458 191 366 169 268 152 L268 152 Z M457 732 C470 726 493 732 521 749 C536 759 567 775 615 800 C651 819 681 837 703 851 C715 858 723 867 730 877 C742 898 743 919 732 938 C726 950 715 955 702 955 C699 956 696 956 693 955 C675 953 495 836 465 815 C454 807 447 799 442 790 C440 785 438 781 437 775 C434 754 441 740 457 732 L457 732 Z " />
<glyph glyph-name="acircumflex" unicode="&#xe2;" horiz-adv-x="728" d="M44 -35 C57 -53 72 -62 90 -62 C110 -62 136 -38 168 9 C325 36 456 62 564 86 C568 53 573 31 575 20 C583 -8 596 -22 615 -22 C651 -22 716 15 716 55 C717 67 713 83 705 103 C700 119 694 135 689 151 C649 269 620 424 601 615 C599 647 598 665 596 671 C590 690 576 700 555 700 C517 700 488 683 467 649 C393 532 337 446 299 387 C233 287 173 204 114 138 C92 113 74 94 63 82 C41 58 31 36 31 17 C30 -2 35 -20 44 -35 L44 -35 Z M268 152 C388 335 465 451 500 500 C519 379 534 286 544 219 C458 191 366 169 268 152 L268 152 Z M414 710 C430 708 444 713 457 728 L473 744 C502 773 532 806 564 841 C591 817 615 790 635 759 C651 737 656 725 671 725 C680 725 691 731 706 744 C719 757 727 766 728 773 C729 781 728 789 722 796 C716 802 711 809 705 815 C671 858 643 889 621 910 C618 923 603 929 576 926 C549 924 532 919 525 912 C480 861 435 812 394 767 C383 757 377 748 376 744 C374 731 386 718 414 710 L414 710 Z " />
<glyph glyph-name="atilde" unicode="&#xe3;" horiz-adv-x="728" d="M44 -35 C57 -53 72 -62 90 -62 C110 -62 136 -38 168 9 C325 36 456 62 564 86 C568 53 573 31 575 20 C583 -8 596 -22 615 -22 C651 -22 716 15 716 55 C717 67 713 83 705 103 C700 119 694 135 689 151 C649 269 620 424 601 615 C599 647 598 665 596 671 C590 690 576 700 555 700 C517 700 488 683 467 649 C393 532 337 446 299 387 C233 287 173 204 114 138 C92 113 74 94 63 82 C41 58 31 36 31 17 C30 -2 35 -20 44 -35 L44 -35 Z M500 500 C519 379 534 286 544 219 C458 191 366 169 268 152 C388 335 465 451 500 500 L500 500 Z M389 741 C393 741 407 749 430 766 C454 783 471 791 482 791 C493 791 517 783 552 766 C588 749 616 740 634 740 C675 740 750 788 763 828 C765 835 765 844 765 854 C765 886 757 902 740 902 C740 902 726 892 698 872 C670 852 648 842 634 842 C616 842 590 850 556 867 C521 884 495 892 476 892 C444 892 415 876 385 843 C371 828 365 806 364 778 C364 753 372 741 389 741 L389 741 Z " />
<glyph glyph-name="adieresis" unicode="&#xe4;" horiz-adv-x="728" d="M44 -35 C57 -53 72 -62 90 -62 C110 -62 136 -38 168 9 C325 36 456 62 564 86 C568 53 573 31 575 20 C583 -8 596 -22 615 -22 C651 -22 716 15 716 55 C717 67 713 83 705 103 C700 119 694 135 689 151 C649 269 620 424 601 615 C599 647 598 665 596 671 C590 690 576 700 555 700 C517 700 488 683 467 649 C393 532 337 446 299 387 C233 287 173 204 114 138 C92 113 74 94 63 82 C41 58 31 36 31 17 C30 -2 35 -20 44 -35 L44 -35 Z M268 152 C388 335 465 451 500 500 C519 379 534 286 544 219 C458 191 366 169 268 152 L268 152 Z M657 747 C680 747 696 755 705 768 C715 780 752 854 752 866 C751 881 737 889 708 889 C677 889 659 881 653 864 C634 819 625 788 624 772 C624 755 635 747 657 747 L657 747 Z M420 750 C420 733 431 725 453 725 C476 725 490 732 500 745 C506 754 515 771 527 796 C540 822 547 838 546 844 C546 858 531 865 502 865 C472 865 453 857 447 841 C429 796 420 765 420 750 L420 750 Z " />
<glyph glyph-name="aring" unicode="&#xe5;" horiz-adv-x="729" d="M44 -35 C57 -53 72 -62 90 -62 C110 -62 136 -38 168 9 C325 36 456 62 564 86 C568 53 573 31 575 20 C583 -8 596 -22 615 -22 C651 -22 716 15 716 55 C716 67 712 83 704 103 L688 151 C649 269 620 424 601 615 C599 647 598 665 596 671 C596 672 595 675 594 676 C597 677 598 679 600 679 C646 705 684 748 686 803 C686 826 677 844 661 857 C647 870 628 876 605 876 C527 876 453 810 447 732 C448 708 459 680 483 670 C477 664 471 656 467 649 C392 532 337 446 299 387 C233 287 173 204 114 138 C92 113 74 94 63 82 C41 58 31 36 31 17 C30 -2 35 -20 44 -35 L44 -35 Z M499 500 C519 379 534 286 543 219 C457 191 366 169 268 152 C388 335 465 451 499 500 L499 500 Z M517 751 C517 784 545 817 579 817 C600 817 614 803 613 781 C613 749 584 715 551 715 C529 715 516 729 517 751 L517 751 Z " />
<glyph glyph-name="ae" unicode="&#xe6;" horiz-adv-x="1189" d="M33 -31 C45 -40 59 -45 74 -47 C94 -50 112 -42 131 -25 C175 16 205 46 223 66 C226 65 228 65 231 65 C260 65 334 74 453 91 C483 94 513 97 542 99 C555 101 567 103 578 105 C566 52 560 14 560 -10 C560 -40 585 -55 633 -55 C760 -55 939 -32 1052 27 C1083 44 1123 84 1123 122 C1123 141 1110 151 1083 151 C1076 151 1066 149 1052 147 C939 122 881 109 876 108 C814 95 754 88 698 88 C705 146 715 206 729 268 C831 298 975 324 1160 345 C1204 350 1230 366 1237 393 C1237 422 1201 448 1175 454 C1166 457 1151 457 1131 457 C1017 457 895 441 764 407 C773 438 783 469 793 498 C857 523 909 537 951 543 C1022 551 1075 557 1110 561 C1160 566 1185 586 1184 619 C1185 650 1160 687 1118 698 C1104 700 1084 702 1055 702 C1005 702 958 697 916 687 C901 683 857 671 782 649 C780 648 777 648 775 647 C749 649 725 641 706 626 C652 583 615 552 595 534 C444 404 288 268 129 128 C99 103 78 84 63 72 C32 45 14 23 12 8 C11 -7 18 -19 33 -31 L33 -31 Z M358 192 C449 272 549 353 658 435 L642 371 C615 359 592 322 592 292 C592 274 600 261 613 251 C613 249 612 246 611 244 C598 240 581 236 562 230 C483 208 441 197 358 192 L358 192 Z " />
<glyph glyph-name="ccedilla" unicode="&#xe7;" horiz-adv-x="746" d="M92 130 C92 22 155 -40 264 -40 C295 -40 328 -36 363 -28 C349 -81 322 -119 281 -141 C237 -165 215 -182 214 -192 C215 -205 220 -216 231 -224 C242 -231 254 -234 267 -234 C287 -234 315 -224 352 -204 C421 -163 480 -63 471 7 C525 29 585 59 649 97 C688 119 708 132 712 136 C732 152 743 174 742 199 C743 219 733 229 716 229 C705 229 676 218 628 195 C556 161 509 139 486 130 C426 107 377 96 339 96 C279 96 211 117 211 189 C211 253 257 325 351 408 C433 479 536 525 658 545 C658 529 657 518 657 514 C657 475 667 455 689 455 C703 455 721 462 746 477 C779 495 794 517 794 544 C794 581 795 605 798 615 C803 642 806 658 806 664 C806 685 787 696 749 696 C465 696 182 491 104 216 C96 188 92 160 92 130 L92 130 Z " />
<glyph glyph-name="egrave" unicode="&#xe8;" horiz-adv-x="723" d="M93 -10 C92 -40 118 -55 166 -55 C292 -55 473 -31 585 27 C618 46 654 82 656 122 C655 141 643 151 616 151 C609 151 598 149 585 147 C472 122 413 109 409 108 C347 95 287 88 231 88 C238 146 248 206 262 268 C364 298 508 324 692 345 C719 348 770 357 770 393 C770 423 734 448 707 454 C699 457 684 457 664 457 C550 457 428 441 297 407 C306 438 316 469 325 498 C390 523 442 537 484 543 C555 551 608 557 643 561 C692 566 717 586 717 619 C717 650 693 687 650 698 C637 700 616 702 587 702 C537 702 491 697 449 687 C434 683 390 671 315 649 C291 642 274 637 265 631 C236 612 231 593 223 561 C201 475 185 412 175 371 C148 359 125 322 125 292 C125 274 132 261 146 251 C136 208 125 164 114 120 C100 59 92 16 93 -10 L93 -10 Z M434 881 C443 853 487 821 511 805 C524 794 544 780 567 762 C590 744 611 737 630 741 C643 745 652 752 659 766 C666 779 667 791 664 802 C660 812 654 823 643 833 C625 851 600 876 567 909 C533 941 508 959 492 963 C475 964 462 959 450 948 C432 929 426 907 434 881 L434 881 Z " />
<glyph glyph-name="eacute" unicode="&#xe9;" horiz-adv-x="723" d="M93 -10 C92 -40 118 -55 166 -55 C292 -55 473 -31 585 27 C618 46 654 82 656 122 C655 141 643 151 616 151 C609 151 598 149 585 147 C472 122 413 109 409 108 C347 95 287 88 231 88 C238 146 248 206 262 268 C364 298 508 324 692 345 C719 348 770 357 770 393 C770 423 734 448 707 454 C699 457 684 457 664 457 C550 457 428 441 297 407 C306 438 316 469 325 498 C390 523 442 537 484 543 C555 551 608 557 643 561 C692 566 717 586 717 619 C717 650 693 687 650 698 C637 700 616 702 587 702 C537 702 491 697 449 687 C434 683 390 671 315 649 C291 642 274 637 265 631 C236 612 231 593 223 561 C201 475 185 412 175 371 C148 359 125 322 125 292 C125 274 132 261 146 251 C136 208 125 164 114 120 C100 59 92 16 93 -10 L93 -10 Z M443 734 C456 728 479 734 507 751 C522 761 553 777 601 802 C637 821 667 839 689 853 C701 860 709 869 716 879 C728 900 729 921 718 940 C712 952 701 957 688 957 C685 958 682 958 679 957 C661 955 481 838 451 817 C440 809 433 801 428 792 C426 787 424 783 423 777 C420 756 427 742 443 734 L443 734 Z " />
<glyph glyph-name="ecircumflex" unicode="&#xea;" horiz-adv-x="723" d="M93 -10 C92 -40 118 -55 166 -55 C292 -55 473 -31 585 27 C618 46 654 82 656 122 C655 141 643 151 616 151 C609 151 598 149 585 147 C472 122 413 109 409 108 C347 95 287 88 231 88 C238 146 248 206 262 268 C364 298 508 324 692 345 C719 348 770 357 770 393 C770 423 734 448 707 454 C699 457 684 457 664 457 C550 457 428 441 297 407 C306 438 316 469 325 498 C390 523 442 537 484 543 C555 551 608 557 643 561 C692 566 717 586 717 619 C717 650 693 687 650 698 C637 700 616 702 587 702 C537 702 491 697 449 687 C434 683 390 671 315 649 C291 642 274 637 265 631 C236 612 231 593 223 561 C201 475 185 412 175 371 C148 359 125 322 125 292 C125 274 132 261 146 251 C136 208 125 164 114 120 C100 59 92 16 93 -10 L93 -10 Z M412 732 C428 730 442 735 455 750 L471 766 C500 795 530 828 562 863 C589 839 613 812 633 781 C649 759 654 747 669 747 C678 747 689 753 704 766 C717 779 725 788 726 795 C727 803 726 811 720 818 C714 824 709 831 703 837 C669 880 641 911 619 932 C616 945 601 951 574 948 C547 946 530 941 523 934 C478 883 433 834 392 789 C381 779 375 770 374 766 C372 753 384 740 412 732 L412 732 Z " />
<glyph glyph-name="edieresis" unicode="&#xeb;" horiz-adv-x="723" d="M93 -10 C92 -40 118 -55 166 -55 C292 -55 473 -31 585 27 C618 46 654 82 656 122 C655 141 643 151 616 151 C609 151 598 149 585 147 C472 122 413 109 409 108 C347 95 287 88 231 88 C238 146 248 206 262 268 C364 298 508 324 692 345 C719 348 770 357 770 393 C770 423 734 448 707 454 C699 457 684 457 664 457 C550 457 428 441 297 407 C306 438 316 469 325 498 C390 523 442 537 484 543 C555 551 608 557 643 561 C692 566 717 586 717 619 C717 650 693 687 650 698 C637 700 616 702 587 702 C537 702 491 697 449 687 C434 683 390 671 315 649 C291 642 274 637 265 631 C236 612 231 593 223 561 C201 475 185 412 175 371 C148 359 125 322 125 292 C125 274 132 261 146 251 C136 208 125 164 114 120 C100 59 92 16 93 -10 L93 -10 Z M634 756 C657 756 673 764 682 777 C692 789 729 863 729 875 C728 890 714 898 685 898 C654 898 636 890 630 873 C611 828 602 797 601 781 C601 764 612 756 634 756 L634 756 Z M430 734 C453 734 467 741 477 754 C483 763 492 780 504 805 C517 831 524 847 523 853 C523 867 508 874 479 874 C449 874 430 866 424 850 C406 805 397 774 397 759 C397 742 408 734 430 734 L430 734 Z " />
<glyph glyph-name="igrave" unicode="&#xec;" horiz-adv-x="255" d="M71 6 C71 -17 84 -28 112 -28 C141 -28 189 -12 201 16 C205 23 207 40 211 66 C225 206 264 359 324 522 C336 551 345 572 350 585 C362 615 368 635 370 648 C369 668 354 678 326 678 C275 678 241 660 223 625 C217 615 212 596 205 570 C166 405 123 233 81 52 C75 26 72 11 71 6 L71 6 Z M206 867 C215 839 259 807 283 791 C296 780 316 766 339 748 C362 730 383 723 402 727 C415 731 424 738 431 752 C438 765 439 777 436 788 C432 798 426 809 415 819 C397 837 372 862 339 895 C305 927 280 945 264 949 C247 950 234 945 222 934 C204 915 198 893 206 867 L206 867 Z " />
<glyph glyph-name="iacute" unicode="&#xed;" horiz-adv-x="255" d="M112 -28 C141 -28 189 -12 201 16 C205 23 207 40 211 66 C225 206 264 359 324 522 C336 551 345 572 350 585 C362 615 368 635 370 648 C369 668 354 678 326 678 C275 678 241 660 223 625 C217 615 212 596 205 570 C166 405 123 233 81 52 C75 26 72 11 71 6 C71 -17 84 -28 112 -28 L112 -28 Z M225 733 C238 727 261 733 289 750 C304 760 335 776 383 801 C419 820 449 838 471 852 C483 859 491 868 498 878 C510 899 511 920 500 939 C494 951 483 956 470 956 C467 957 464 957 461 956 C443 954 263 837 233 816 C222 808 215 800 210 791 C208 786 206 782 205 776 C202 755 209 741 225 733 L225 733 Z " />
<glyph glyph-name="icircumflex" unicode="&#xee;" horiz-adv-x="255" d="M71 6 C71 -17 84 -28 112 -28 C141 -28 189 -12 201 16 C205 23 207 40 211 66 C225 206 264 359 324 522 C336 551 345 572 350 585 C362 615 368 635 370 648 C369 668 354 678 326 678 C275 678 241 660 223 625 C217 615 212 596 205 570 C166 405 123 233 81 52 C75 26 72 11 71 6 L71 6 Z M181 722 C197 720 211 725 224 740 L240 756 C269 785 299 818 331 853 C358 829 382 802 402 771 C418 749 423 737 438 737 C447 737 458 743 473 756 C486 769 494 778 495 785 C496 793 495 801 489 808 C483 814 478 821 472 827 C438 870 410 901 388 922 C385 935 370 941 343 938 C316 936 299 931 292 924 C247 873 202 824 161 779 C150 769 144 760 143 756 C141 743 153 730 181 722 L181 722 Z " />
<glyph glyph-name="idieresis" unicode="&#xef;" horiz-adv-x="255" d="M112 -28 C141 -28 189 -12 201 16 C205 23 207 40 211 66 C225 206 264 359 324 522 C336 551 345 572 350 585 C362 615 368 635 370 648 C369 668 354 678 326 678 C275 678 241 660 223 625 C217 615 212 596 205 570 C166 405 123 233 81 52 C75 26 72 11 71 6 C71 -17 84 -28 112 -28 L112 -28 Z M405 740 C428 740 444 748 453 761 C463 773 500 847 500 859 C499 874 485 882 456 882 C425 882 407 874 401 857 C382 812 373 781 372 765 C372 748 383 740 405 740 L405 740 Z M168 743 C168 726 179 718 201 718 C224 718 238 725 248 738 C254 747 263 764 275 789 C288 815 295 831 294 837 C294 851 279 858 250 858 C220 858 201 850 195 834 C177 789 168 758 168 743 L168 743 Z " />
<glyph glyph-name="ntilde" unicode="&#xf1;" horiz-adv-x="736" d="M89 -66 C123 -66 176 -45 185 -9 C189 32 192 54 192 58 C204 149 231 263 276 401 L518 -1 C518 -16 531 -23 558 -23 C605 -23 636 -9 649 17 C653 25 657 43 661 70 C687 233 743 412 831 609 C847 645 854 668 854 679 C854 698 842 708 818 708 C753 708 705 651 675 538 C662 486 651 446 644 420 C609 306 589 240 582 225 L346 624 C338 636 325 641 306 641 C295 641 282 640 270 638 C207 620 198 588 183 530 C156 429 119 273 71 61 C67 46 63 30 60 15 C54 -6 51 -21 51 -30 C50 -54 63 -66 89 -66 L89 -66 Z M353 702 C357 702 371 710 394 727 C418 744 435 752 446 752 C457 752 481 744 516 727 C552 710 580 701 598 701 C639 701 714 749 727 789 C729 796 729 805 729 815 C729 847 721 863 704 863 C704 863 690 853 662 833 C634 813 612 803 598 803 C580 803 554 811 520 828 C485 845 459 853 440 853 C408 853 379 837 349 804 C335 789 329 767 328 739 C328 714 336 702 353 702 L353 702 Z " />
<glyph glyph-name="ograve" unicode="&#xf2;" horiz-adv-x="899" d="M113 204 C113 40 241 -52 396 -52 C650 -52 952 187 952 456 C954 617 821 713 669 713 C412 713 113 476 113 204 L113 204 Z M267 243 C269 417 423 596 603 596 C718 596 787 519 787 406 C786 318 754 239 684 165 C615 90 537 53 451 53 C336 53 267 130 267 243 L267 243 Z M551 880 C560 852 604 820 628 804 C641 793 661 779 684 761 C707 743 728 736 747 740 C760 744 769 751 776 765 C783 778 784 790 781 801 C777 811 771 822 760 832 C742 850 717 875 684 908 C650 940 625 958 609 962 C592 963 579 958 567 947 C549 928 543 906 551 880 L551 880 Z " />
<glyph glyph-name="oacute" unicode="&#xf3;" horiz-adv-x="899" d="M113 204 C113 40 241 -52 396 -52 C650 -52 952 187 952 456 C954 617 821 713 669 713 C412 713 113 476 113 204 L113 204 Z M267 243 C269 417 423 596 603 596 C718 596 787 519 787 406 C786 318 754 239 684 165 C615 90 537 53 451 53 C336 53 267 130 267 243 L267 243 Z M548 736 C561 730 584 736 612 753 C627 763 658 779 706 804 C742 823 772 841 794 855 C806 862 814 871 821 881 C833 902 834 923 823 942 C817 954 806 959 793 959 C790 960 787 960 784 959 C766 957 586 840 556 819 C545 811 538 803 533 794 C531 789 529 785 528 779 C525 758 532 744 548 736 L548 736 Z " />
<glyph glyph-name="ocircumflex" unicode="&#xf4;" horiz-adv-x="899" d="M396 -52 C650 -52 952 187 952 456 C954 617 821 713 669 713 C412 713 113 476 113 204 C113 40 241 -52 396 -52 L396 -52 Z M267 243 C269 417 423 596 603 596 C718 596 787 519 787 406 C786 318 754 239 684 165 C615 90 537 53 451 53 C336 53 267 130 267 243 L267 243 Z M517 737 C533 735 547 740 560 755 L576 771 C605 800 635 833 667 868 C694 844 718 817 738 786 C754 764 759 752 774 752 C783 752 794 758 809 771 C822 784 830 793 831 800 C832 808 831 816 825 823 C819 829 814 836 808 842 C774 885 746 916 724 937 C721 950 706 956 679 953 C652 951 635 946 628 939 C583 888 538 839 497 794 C486 784 480 775 479 771 C477 758 489 745 517 737 L517 737 Z " />
<glyph glyph-name="otilde" unicode="&#xf5;" horiz-adv-x="899" d="M113 204 C113 40 241 -52 396 -52 C650 -52 952 187 952 456 C954 617 821 713 669 713 C412 713 113 476 113 204 L113 204 Z M603 596 C718 596 787 519 787 406 C786 318 754 239 684 165 C615 90 537 53 451 53 C336 53 267 130 267 243 C269 417 423 596 603 596 L603 596 Z M492 768 C496 768 510 776 533 793 C557 810 574 818 585 818 C596 818 620 810 655 793 C691 776 719 767 737 767 C778 767 853 815 866 855 C868 862 868 871 868 881 C868 913 860 929 843 929 C843 929 829 919 801 899 C773 879 751 869 737 869 C719 869 693 877 659 894 C624 911 598 919 579 919 C547 919 518 903 488 870 C474 855 468 833 467 805 C467 780 475 768 492 768 L492 768 Z " />
<glyph glyph-name="odieresis" unicode="&#xf6;" horiz-adv-x="899" d="M396 -52 C650 -52 952 187 952 456 C954 617 821 713 669 713 C412 713 113 476 113 204 C113 40 241 -52 396 -52 L396 -52 Z M267 243 C269 417 423 596 603 596 C718 596 787 519 787 406 C786 318 754 239 684 165 C615 90 537 53 451 53 C336 53 267 130 267 243 L267 243 Z M753 763 C776 763 792 771 801 784 C811 796 848 870 848 882 C847 897 833 905 804 905 C773 905 755 897 749 880 C730 835 721 804 720 788 C720 771 731 763 753 763 L753 763 Z M549 741 C572 741 586 748 596 761 C602 770 611 787 623 812 C636 838 643 854 642 860 C642 874 627 881 598 881 C568 881 549 873 543 857 C525 812 516 781 516 766 C516 749 527 741 549 741 L549 741 Z " />
<glyph glyph-name="oslash" unicode="&#xf8;" horiz-adv-x="899" d="M113 204 C113 138 133 83 171 39 C156 20 148 5 149 -6 C149 -38 194 -50 220 -50 C237 -50 254 -42 268 -29 C306 -44 349 -52 396 -52 C653 -52 949 186 952 456 C951 522 932 577 893 620 L907 633 C916 664 911 685 891 697 C880 704 865 708 847 708 C825 708 805 703 789 692 C753 706 713 713 669 713 C415 713 110 474 113 204 L113 204 Z M358 80 C471 216 606 357 765 504 C781 476 787 443 787 406 C786 318 754 239 684 165 C616 90 537 53 451 53 C414 53 382 60 355 76 C356 77 357 79 358 80 L358 80 Z M267 243 C267 417 425 596 603 596 C631 596 656 592 677 583 C675 581 672 578 671 576 C544 441 414 302 282 158 C272 183 266 212 267 243 L267 243 Z " />
<glyph glyph-name="ugrave" unicode="&#xf9;" horiz-adv-x="677" d="M114 -28 C201 -28 422 51 507 90 C495 40 489 11 489 5 C489 -17 502 -28 528 -28 C573 -28 616 -5 627 41 C631 75 634 100 636 117 C653 246 689 381 742 522 C753 550 762 571 769 585 C780 614 786 634 786 646 C787 668 771 679 740 679 C682 679 646 646 626 593 C617 563 610 534 603 505 C587 446 566 356 540 237 C478 209 266 123 209 121 C207 141 224 212 256 334 C282 430 311 516 342 593 C354 620 359 639 360 649 C359 669 344 679 315 679 C263 679 228 658 210 616 C195 572 184 536 176 506 C130 312 95 160 71 49 C66 28 64 14 63 9 C63 -16 80 -28 114 -28 L114 -28 Z M373 820 C382 792 426 760 450 744 C463 733 483 719 506 701 C529 683 550 676 569 680 C582 684 591 691 598 705 C605 718 606 730 603 741 C599 751 593 762 582 772 C564 790 539 815 506 848 C472 880 447 898 431 902 C414 903 401 898 389 887 C371 868 365 846 373 820 L373 820 Z " />
<glyph glyph-name="uacute" unicode="&#xfa;" horiz-adv-x="677" d="M114 -28 C201 -28 422 51 507 90 C495 40 489 11 489 5 C489 -17 502 -28 528 -28 C573 -28 616 -5 627 41 C631 75 634 100 636 117 C653 246 689 381 742 522 C753 550 762 571 769 585 C780 614 786 634 786 646 C787 668 771 679 740 679 C682 679 646 646 626 593 C617 563 610 534 603 505 C587 446 566 356 540 237 C478 209 266 123 209 121 C207 141 224 212 256 334 C282 430 311 516 342 593 C354 620 359 639 360 649 C359 669 344 679 315 679 C263 679 228 658 210 616 C195 572 184 536 176 506 C130 312 95 160 71 49 C66 28 64 14 63 9 C63 -16 80 -28 114 -28 L114 -28 Z M468 668 C481 662 504 668 532 685 C547 695 578 711 626 736 C662 755 692 773 714 787 C726 794 734 803 741 813 C753 834 754 855 743 874 C737 886 726 891 713 891 C710 892 707 892 704 891 C686 889 506 772 476 751 C465 743 458 735 453 726 C451 721 449 717 448 711 C445 690 452 676 468 668 L468 668 Z " />
<glyph glyph-name="ucircumflex" unicode="&#xfb;" horiz-adv-x="677" d="M114 -28 C201 -28 422 51 507 90 C495 40 489 11 489 5 C489 -17 502 -28 528 -28 C573 -28 616 -5 627 41 C631 75 634 100 636 117 C653 246 689 381 742 522 C753 550 762 571 769 585 C780 614 786 634 786 646 C787 668 771 679 740 679 C682 679 646 646 626 593 C617 563 610 534 603 505 C587 446 566 356 540 237 C478 209 266 123 209 121 C207 141 224 212 256 334 C282 430 311 516 342 593 C354 620 359 639 360 649 C359 669 344 679 315 679 C263 679 228 658 210 616 C195 572 184 536 176 506 C130 312 95 160 71 49 C66 28 64 14 63 9 C63 -16 80 -28 114 -28 L114 -28 Z M393 726 C409 724 423 729 436 744 L452 760 C481 789 511 822 543 857 C570 833 594 806 614 775 C630 753 635 741 650 741 C659 741 670 747 685 760 C698 773 706 782 707 789 C708 797 707 805 701 812 C695 818 690 825 684 831 C650 874 622 905 600 926 C597 939 582 945 555 942 C528 940 511 935 504 928 C459 877 414 828 373 783 C362 773 356 764 355 760 C353 747 365 734 393 726 L393 726 Z " />
<glyph glyph-name="udieresis" unicode="&#xfc;" horiz-adv-x="677" d="M114 -28 C201 -28 422 51 507 90 C495 40 489 11 489 5 C489 -17 502 -28 528 -28 C573 -28 616 -5 627 41 C631 75 634 100 636 117 C653 246 689 381 742 522 C753 550 762 571 769 585 C780 614 786 634 786 646 C787 668 771 679 740 679 C682 679 646 646 626 593 C617 563 610 534 603 505 C587 446 566 356 540 237 C478 209 266 123 209 121 C207 141 224 212 256 334 C282 430 311 516 342 593 C354 620 359 639 360 649 C359 669 344 679 315 679 C263 679 228 658 210 616 C195 572 184 536 176 506 C130 312 95 160 71 49 C66 28 64 14 63 9 C63 -16 80 -28 114 -28 L114 -28 Z M631 750 C654 750 670 758 679 771 C689 783 726 857 726 869 C725 884 711 892 682 892 C651 892 633 884 627 867 C608 822 599 791 598 775 C598 758 609 750 631 750 L631 750 Z M394 753 C394 736 405 728 427 728 C450 728 464 735 474 748 C480 757 489 774 501 799 C514 825 521 841 520 847 C520 861 505 868 476 868 C446 868 427 860 421 844 C403 799 394 768 394 753 L394 753 Z " />
<glyph glyph-name="ydieresis" unicode="&#xff;" horiz-adv-x="695" d="M142 6 C142 -10 149 -24 163 -32 C175 -40 189 -44 208 -44 C233 -44 257 -28 282 2 C422 209 592 392 770 566 C807 600 826 626 831 644 C831 680 792 700 760 700 C734 700 711 690 692 671 C650 624 621 591 606 573 C502 453 438 378 413 349 C370 434 334 518 305 603 L284 664 C275 678 266 685 255 685 C237 685 219 673 200 649 C182 624 172 602 173 584 C173 575 174 566 178 554 C200 499 227 443 256 391 L326 246 L142 6 Z M599 754 C622 754 638 762 647 775 C657 787 694 861 694 873 C693 888 679 896 650 896 C619 896 601 888 595 871 C576 826 567 795 566 779 C566 762 577 754 599 754 L599 754 Z M362 757 C362 740 373 732 395 732 C418 732 432 739 442 752 C448 761 457 778 469 803 C482 829 489 845 488 851 C488 865 473 872 444 872 C414 872 395 864 389 848 C371 803 362 772 362 757 L362 757 Z " />
<glyph glyph-name="dotlessi" unicode="&#x131;" horiz-adv-x="255" d="M112 -28 C141 -28 189 -12 201 16 C205 23 207 40 211 66 C225 206 264 359 324 522 C336 551 345 572 350 585 C362 615 368 635 370 648 C369 668 354 678 326 678 C275 678 241 660 223 625 C217 615 212 596 205 570 C166 405 123 233 81 52 C75 26 72 11 71 6 C71 -17 84 -28 112 -28 L112 -28 Z " />
<glyph glyph-name="OE" unicode="&#x152;" horiz-adv-x="1381" d="M113 204 C113 40 241 -52 396 -52 C530 -52 668 12 768 100 C758 50 751 13 752 -10 C751 -40 776 -55 824 -55 C951 -55 1131 -31 1244 27 C1276 45 1313 84 1315 122 C1314 141 1302 151 1275 151 C1268 151 1257 149 1244 147 C1131 122 1072 109 1068 108 C1006 95 946 88 890 88 C897 146 906 206 921 268 C1022 298 1167 324 1351 345 C1395 350 1421 366 1429 393 C1429 422 1392 448 1366 454 C1358 457 1343 457 1323 457 C1209 457 1087 441 956 407 C964 438 975 469 984 498 C1049 523 1101 537 1142 543 C1213 551 1267 557 1302 561 C1351 566 1376 586 1375 619 C1376 650 1351 687 1309 698 C1296 700 1275 702 1246 702 C1196 702 1150 697 1107 687 C1092 683 1048 671 974 649 C950 642 933 637 923 631 C915 625 907 618 901 611 C842 681 760 713 669 713 C412 713 113 476 113 204 L113 204 Z M603 596 C659 596 703 579 737 544 C771 508 788 462 787 406 C787 318 754 239 684 165 C616 90 537 53 451 53 C337 53 267 131 267 243 C269 417 423 596 603 596 L603 596 Z " />
<glyph glyph-name="oe" unicode="&#x153;" horiz-adv-x="1381" d="M113 204 C113 40 241 -52 396 -52 C530 -52 668 12 768 100 C758 50 751 13 752 -10 C751 -40 776 -55 824 -55 C951 -55 1131 -31 1244 27 C1276 45 1313 84 1315 122 C1314 141 1302 151 1275 151 C1268 151 1257 149 1244 147 C1131 122 1072 109 1068 108 C1006 95 946 88 890 88 C897 146 906 206 921 268 C1022 298 1167 324 1351 345 C1395 350 1421 366 1429 393 C1429 422 1392 448 1366 454 C1358 457 1343 457 1323 457 C1209 457 1087 441 956 407 C964 438 975 469 984 498 C1049 523 1101 537 1142 543 C1213 551 1267 557 1302 561 C1351 566 1376 586 1375 619 C1376 650 1351 687 1309 698 C1296 700 1275 702 1246 702 C1196 702 1150 697 1107 687 C1092 683 1048 671 974 649 C950 642 933 637 923 631 C915 625 907 618 901 611 C842 681 760 713 669 713 C412 713 113 476 113 204 L113 204 Z M603 596 C659 596 703 579 737 544 C771 508 788 462 787 406 C787 318 754 239 684 165 C616 90 537 53 451 53 C337 53 267 131 267 243 C269 417 423 596 603 596 L603 596 Z " />
<glyph glyph-name="Ydieresis" unicode="&#x178;" horiz-adv-x="695" d="M142 6 C142 -10 149 -24 163 -32 C175 -40 189 -44 208 -44 C233 -44 257 -28 282 2 C422 209 592 392 770 566 C807 600 826 626 831 644 C831 680 792 700 760 700 C734 700 711 690 692 671 C650 624 621 591 606 573 C502 453 438 378 413 349 C370 434 334 518 305 603 L284 664 C275 678 266 685 255 685 C237 685 219 673 200 649 C182 624 172 602 173 584 C173 575 174 566 178 554 C200 499 227 443 256 391 L326 246 L142 6 Z M599 756 C622 756 638 764 647 777 C657 789 694 863 694 875 C693 890 679 898 650 898 C619 898 601 890 595 873 C576 828 567 797 566 781 C566 764 577 756 599 756 L599 756 Z M362 759 C362 742 373 734 395 734 C418 734 432 741 442 754 C448 763 457 780 469 805 C482 831 489 847 488 853 C488 867 473 874 444 874 C414 874 395 866 389 850 C371 805 362 774 362 759 L362 759 Z " />
<glyph glyph-name="circumflex" unicode="&#x2c6;" horiz-adv-x="445" d="M279 730 C295 728 309 733 322 748 L338 764 C367 793 397 826 429 861 C456 837 480 810 500 779 C516 757 521 745 536 745 C545 745 556 751 571 764 C584 777 592 786 593 793 C594 801 593 809 587 816 C581 822 576 829 570 835 C536 878 508 909 486 930 C483 943 468 949 441 946 C414 944 397 939 390 932 C345 881 300 832 259 787 C248 777 242 768 241 764 C239 751 251 738 279 730 L279 730 Z " />
<glyph glyph-name="caron" unicode="&#x2c7;" horiz-adv-x="445" d="M276 861 C282 855 287 848 293 842 C327 799 355 768 377 747 C380 734 395 728 422 731 C449 733 466 738 473 745 C518 796 563 845 604 890 C615 900 622 909 623 913 C624 926 612 939 584 947 C569 949 554 944 542 929 L526 913 C496 884 466 851 434 816 C407 840 383 867 363 898 C347 920 342 932 327 932 C311 932 272 899 270 884 C269 876 270 868 276 861 L276 861 Z " />
<glyph glyph-name="breve" unicode="&#x2d8;" horiz-adv-x="391" d="" />
<glyph glyph-name="dotaccent" unicode="&#x2d9;" horiz-adv-x="183" d="" />
<glyph glyph-name="ring" unicode="&#x2da;" horiz-adv-x="326" d="M253 805 C255 758 288 732 334 732 C409 732 489 800 492 877 C492 899 483 917 468 931 C453 943 434 950 411 950 C333 950 259 882 253 805 L253 805 Z M323 824 C323 857 351 890 385 890 C406 890 420 876 419 855 C419 823 391 788 357 788 C335 788 322 803 323 824 L323 824 Z " />
<glyph glyph-name="ogonek" unicode="&#x2db;" horiz-adv-x="245" d="" />
<glyph glyph-name="tilde" unicode="&#x2dc;" horiz-adv-x="490" d="M275 750 C279 750 293 758 316 775 C340 792 357 800 368 800 C379 800 403 792 438 775 C474 758 502 749 520 749 C561 749 636 797 649 837 C651 844 651 853 651 863 C651 895 643 911 626 911 C626 911 612 901 584 881 C556 861 534 851 520 851 C502 851 476 859 442 876 C407 893 381 901 362 901 C330 901 301 885 271 852 C257 837 251 815 250 787 C250 762 258 750 275 750 L275 750 Z " />
<glyph glyph-name="hungarumlaut" unicode="&#x2dd;" horiz-adv-x="439" d="" />
<glyph glyph-name="endash" unicode="&#x2013;" horiz-adv-x="1182" d="M695 280 C697 246 718 217 752 217 C781 217 855 226 974 243 C1004 246 1034 249 1063 251 C1109 257 1142 265 1167 277 C1199 292 1215 313 1214 340 C1214 367 1204 404 1170 404 C1163 404 1135 397 1083 382 C1030 367 996 357 980 355 C925 346 866 341 802 341 C764 341 740 340 731 337 C708 329 696 310 695 280 L695 280 Z M122 280 C124 246 145 217 179 217 C208 217 282 226 401 243 C431 246 461 249 490 251 C536 257 569 265 594 277 C626 292 642 313 641 340 C641 367 631 404 597 404 C590 404 562 397 510 382 C457 367 423 357 407 355 C352 346 293 341 229 341 C191 341 167 340 158 337 C135 329 123 310 122 280 L122 280 Z " />
<glyph glyph-name="emdash" unicode="&#x2014;" horiz-adv-x="1182" d="M695 280 C697 246 718 217 752 217 C781 217 855 226 974 243 C1004 246 1034 249 1063 251 C1109 257 1142 265 1167 277 C1199 292 1215 313 1214 340 C1214 367 1204 404 1170 404 C1163 404 1135 397 1083 382 C1030 367 996 357 980 355 C925 346 866 341 802 341 C764 341 740 340 731 337 C708 329 696 310 695 280 L695 280 Z M122 280 C124 246 145 217 179 217 C208 217 282 226 401 243 C431 246 461 249 490 251 C536 257 569 265 594 277 C626 292 642 313 641 340 C641 367 631 404 597 404 C590 404 562 397 510 382 C457 367 423 357 407 355 C352 346 293 341 229 341 C191 341 167 340 158 337 C135 329 123 310 122 280 L122 280 Z " />
<glyph glyph-name="quoteleft" unicode="&#x2018;" horiz-adv-x="317" d="M225 695 C225 656 261 501 277 465 C285 443 299 433 319 433 C356 433 389 459 389 495 C389 508 385 532 379 570 C373 612 369 639 366 649 C362 681 359 702 358 714 C353 739 336 751 308 751 C291 751 273 747 255 736 C235 724 224 710 225 695 L225 695 Z " />
<glyph glyph-name="quoteright" unicode="&#x2019;" horiz-adv-x="323" d="M220 433 C240 433 268 453 303 494 C324 522 345 551 366 578 C417 645 445 687 448 704 C448 719 441 731 428 739 C417 747 404 751 389 751 C363 751 341 740 325 719 C308 698 287 667 260 625 C231 581 210 549 196 530 C178 506 169 487 169 476 C169 448 193 433 220 433 L220 433 Z " />
<glyph glyph-name="quotesinglbase" unicode="&#x201a;" horiz-adv-x="324" d="M42 -129 C53 -137 66 -141 79 -141 C98 -141 125 -120 160 -79 C188 -43 303 103 306 129 C306 144 300 156 286 165 C275 173 261 177 245 177 C220 177 194 161 169 130 C165 125 147 98 117 51 C85 3 64 -28 52 -44 C18 -91 21 -113 42 -129 L42 -129 Z " />
<glyph glyph-name="quotedblleft" unicode="&#x201c;" horiz-adv-x="514" d="M442 587 C455 529 467 491 474 471 C484 450 498 438 518 438 C554 438 587 465 587 500 C587 512 584 536 577 575 C571 607 556 689 556 720 C550 745 533 758 504 758 C488 758 470 752 453 742 C433 731 422 717 423 702 C422 683 429 645 442 587 L442 587 Z M264 419 C272 397 287 387 307 387 C343 387 376 412 376 447 C376 461 373 487 366 523 C359 572 355 599 354 603 C350 638 346 660 346 668 C342 694 326 706 296 706 C280 706 261 701 244 690 C223 679 214 666 213 649 C213 603 247 465 264 419 L264 419 Z " />
<glyph glyph-name="quotedblright" unicode="&#x201d;" horiz-adv-x="534" d="M170 480 C170 454 194 438 221 438 C239 438 256 448 273 466 C299 494 442 678 449 700 C450 743 421 757 390 757 C364 757 338 742 313 711 C310 707 292 681 261 631 C233 588 212 555 196 536 C179 511 171 493 170 480 L170 480 Z M375 453 C374 439 380 429 391 421 C401 414 413 410 426 410 C446 410 474 431 508 471 C538 509 649 651 654 681 C655 710 625 728 594 728 C568 728 542 713 518 682 C514 678 496 651 466 602 C448 577 431 552 415 528 C388 487 374 461 375 453 L375 453 Z " />
<glyph glyph-name="quotedblbase" unicode="&#x201e;" horiz-adv-x="553" d="M271 -129 C282 -137 295 -141 308 -141 C327 -141 354 -120 389 -79 C417 -43 532 103 535 129 C535 144 529 156 515 165 C504 173 490 177 474 177 C449 177 423 161 398 130 C394 125 376 98 346 51 C314 3 293 -28 281 -44 C247 -91 250 -113 271 -129 L271 -129 Z M42 -129 C53 -137 66 -141 79 -141 C98 -141 125 -120 160 -79 C188 -43 303 103 306 129 C306 144 300 156 286 165 C275 173 261 177 245 177 C220 177 194 161 169 130 C165 125 147 98 117 51 C85 3 64 -28 52 -44 C18 -91 21 -113 42 -129 L42 -129 Z " />
<glyph glyph-name="bullet" unicode="&#x2022;" horiz-adv-x="325" d="M133 320 C133 273 169 248 213 248 C284 248 369 316 369 391 C368 413 362 431 345 444 C331 456 312 463 289 463 C217 463 133 396 133 320 L133 320 Z " />
<glyph glyph-name="ellipsis" unicode="&#x2026;" horiz-adv-x="795" d="M334 22 C334 0 349 -11 378 -11 C407 -11 428 -2 442 17 C454 35 503 132 503 147 C503 167 483 176 446 176 C406 176 381 166 372 145 C347 84 334 43 334 22 L334 22 Z M102 -12 C132 -12 153 -2 166 17 C178 33 226 131 226 146 C226 166 208 175 171 175 C130 175 105 164 96 143 C71 83 58 43 57 21 C58 -1 73 -12 102 -12 L102 -12 Z M613 23 C612 2 627 -9 656 -9 C686 -9 706 -1 719 17 C731 33 781 134 781 148 C781 167 762 177 723 177 C683 177 659 167 650 145 C625 85 612 43 613 23 L613 23 Z " />
<glyph glyph-name="guilsinglleft" unicode="&#x2039;" horiz-adv-x="339" d="M133 274 C179 235 222 196 262 159 C271 149 278 143 284 143 C299 144 318 161 337 194 C344 212 344 227 330 238 L316 252 C290 279 262 305 231 333 C268 369 309 402 354 433 C385 454 400 463 405 480 C408 491 406 503 395 515 C384 528 375 533 367 533 C357 532 348 530 338 523 C329 514 318 506 309 499 C246 450 199 412 167 382 C151 376 138 357 132 328 C126 299 126 280 133 274 L133 274 Z " />
<glyph glyph-name="guilsinglright" unicode="&#x203a;" horiz-adv-x="339" d="M99 194 C102 161 111 144 126 143 C132 143 143 149 156 159 C214 196 277 235 343 274 C352 280 362 299 370 328 C380 357 375 376 363 382 C345 412 318 450 279 499 C274 506 267 514 262 523 C256 530 247 532 237 533 C216 533 178 500 173 480 C170 463 181 454 202 433 C231 402 256 369 275 333 C230 305 188 279 148 252 L128 238 C108 227 100 212 99 194 L99 194 Z " />
<glyph glyph-name="Euro" unicode="&#x20ac;" horiz-adv-x="835" d="M115 203 C119 179 143 158 177 158 L183 158 C181 149 181 140 181 130 C181 22 244 -40 353 -40 C455 -40 584 6 738 97 C777 119 797 132 801 136 C821 152 832 174 831 199 C832 219 822 229 805 229 C794 229 765 218 717 195 C645 161 598 139 575 130 C515 107 466 96 428 96 C392 96 364 103 342 115 C321 128 307 145 303 167 C330 169 361 173 396 177 C425 179 454 181 484 182 C528 186 562 192 587 200 C619 211 634 225 632 243 C631 254 626 263 617 273 C609 284 595 289 582 289 C575 289 546 284 496 274 C425 260 383 252 312 248 C322 272 337 297 358 323 C409 328 459 333 510 336 C554 340 590 346 611 353 C644 363 659 379 656 398 C655 409 650 419 642 428 C632 438 621 443 606 443 C602 443 573 437 519 426 C495 421 470 416 445 413 C526 481 628 525 747 545 C747 529 746 518 746 514 C746 475 756 455 778 455 C792 455 810 462 835 477 C868 495 883 517 883 544 C883 581 884 605 887 615 C892 642 895 658 895 664 C895 685 876 696 838 696 C622 696 402 575 279 398 L245 398 C208 398 185 397 173 394 C149 389 139 375 141 356 C144 330 168 312 202 312 C209 312 218 312 229 313 C219 291 210 268 202 245 L190 245 C137 245 113 232 115 203 L115 203 Z " />
<glyph glyph-name="trademark" unicode="&#x2122;" horiz-adv-x="860" d="M385 299 C392 286 402 280 413 280 C422 280 431 284 440 293 C459 322 473 341 481 352 C527 423 560 472 578 500 C582 442 585 401 589 378 C599 316 614 285 634 285 C651 285 681 320 724 390 C740 415 766 461 802 526 L804 419 C807 363 810 332 814 325 C818 315 825 310 835 310 C863 310 901 342 901 371 C901 389 898 412 894 442 C885 496 881 528 881 583 C881 593 881 609 882 630 C883 651 883 666 882 676 C884 713 874 732 856 732 C837 732 823 721 810 701 C729 554 683 471 671 452 C657 531 649 600 649 660 C647 679 639 687 624 687 C605 687 589 676 577 655 C528 565 472 480 411 398 C404 388 396 378 388 369 C380 356 376 344 376 335 C375 323 378 311 385 299 L385 299 Z M205 616 C206 595 219 585 243 585 L305 603 C282 513 267 460 263 444 C244 370 234 319 235 293 C235 277 244 269 263 269 C288 269 315 284 323 307 C328 329 330 346 330 357 C339 442 361 531 393 622 C434 625 456 627 460 628 C492 634 509 645 509 661 C509 678 497 692 475 702 C455 709 437 713 418 713 C354 713 207 704 205 616 L205 616 Z " />
<glyph glyph-name="uniF8FF" unicode="&#xf8ff;" horiz-adv-x="879" d="" />
</font>
</svg>
